<svg width="21" height="18" viewBox="0 0 21 18" fill="none" xmlns="http://www.w3.org/2000/svg">
<path d="M20.3848 7.90781H19.682V0.615234C19.682 0.275461 19.4066 0 19.0668 0H0.615234C0.275461 0 0 0.275461 0 0.615234V15.1129C0 15.4526 0.275461 15.7281 0.615234 15.7281H6.58986V16.4309C6.58986 16.7706 6.86532 17.0461 7.20509 17.0461H20.3848C20.7245 17.0461 21 16.7706 21 16.4309V8.52305C21 8.18327 20.7245 7.90781 20.3848 7.90781ZM17.4037 1.23047L9.841 7.71274L2.27838 1.23047H17.4037ZM18.4516 1.95288V7.90781H11.5041L18.4516 1.95288ZM6.58986 8.52305V14.4977H1.23047V1.95288L8.1779 7.90781H7.20509C6.86528 7.90781 6.58986 8.18327 6.58986 8.52305ZM19.7695 15.8156H7.82033V9.13828H19.7695V15.8156Z" fill="#81D2D3"/>
<path d="M9.50978 11.4446H10.1618L8.95948 13.8491C8.86412 14.0398 8.87433 14.2663 8.98642 14.4477C9.09852 14.6291 9.29654 14.7395 9.50978 14.7395H11.1573C11.9727 14.7092 11.9721 13.539 11.1573 13.509H10.5052L11.7075 11.1045C11.8029 10.9138 11.7927 10.6873 11.6806 10.5059C11.5685 10.3245 11.3705 10.2141 11.1572 10.2141H9.50978C8.69435 10.2444 8.69497 11.4146 9.50978 11.4446Z" fill="#81D2D3"/>
<path d="M15.7715 14.7395C16.1113 14.7395 16.3867 14.464 16.3867 14.1243V13.751H16.9247C19.2682 13.6618 19.2664 10.3025 16.9247 10.2141H15.7715C15.4317 10.2141 15.1562 10.4896 15.1562 10.8293V14.1243C15.1562 14.464 15.4317 14.7395 15.7715 14.7395ZM16.3867 11.4445H16.9247C17.6377 11.4717 17.6371 12.4936 16.9247 12.5205H16.3867V11.4445Z" fill="#81D2D3"/>
<path d="M13.4707 14.7397C13.8105 14.7397 14.0859 14.4643 14.0859 14.1245V10.8296C14.0557 10.0142 12.8855 10.0148 12.8555 10.8296V14.1245C12.8555 14.4643 13.1309 14.7397 13.4707 14.7397Z" fill="#81D2D3"/>
</svg>
