<svg width="288" height="120" viewBox="0 0 288 120" fill="none" xmlns="http://www.w3.org/2000/svg">
<path d="M277.807 85.8096H274.62C273.983 85.8096 273.403 86.33 273.345 86.966L272.708 93.9627C272.65 94.7144 273.23 95.3504 273.983 95.3504H277.111C277.749 95.3504 278.328 94.83 278.386 94.1939L279.023 87.1973C279.139 86.4456 278.56 85.8096 277.807 85.8096Z" fill="#E8DCC1"/>
<path d="M196.348 94.8877C196.29 94.8877 196.29 94.8877 196.232 94.8877C196.174 94.8877 196.174 94.8877 196.116 94.8877C196.058 94.8877 196.058 94.8877 196 94.8877C195.942 94.8877 195.942 94.8877 195.884 94.8877C195.826 94.8877 195.826 94.8877 195.768 94.8877C195.71 94.8877 195.71 94.8877 195.652 94.8877C195.594 94.8877 195.594 94.8877 195.536 94.8877C195.479 94.8877 195.479 94.8877 195.421 94.8877C195.363 94.8877 195.363 94.8877 195.305 94.8877C195.247 94.8877 195.247 94.8877 195.189 94.8877C195.131 94.8877 195.131 94.8877 195.073 94.8877C195.015 94.8877 195.015 94.8877 194.957 94.8877C194.899 94.8877 194.899 94.8877 194.841 94.8877C194.783 94.8877 194.783 94.8877 194.725 94.8877C194.667 94.8877 194.667 94.8877 194.609 94.8877C194.552 94.8877 194.552 94.8877 194.494 94.8877C194.436 94.8877 194.436 94.8877 194.378 94.8877C194.32 94.8877 194.32 94.8877 194.262 94.8877C191.075 94.8877 188.526 99.9761 188.642 106.279C188.758 112.582 191.423 117.67 194.609 117.67C194.667 117.67 194.667 117.67 194.725 117.67C194.783 117.67 194.783 117.67 194.841 117.67C194.899 117.67 194.899 117.67 194.957 117.67C195.015 117.67 195.015 117.67 195.073 117.67C195.131 117.67 195.131 117.67 195.189 117.67C195.247 117.67 195.247 117.67 195.305 117.67C195.363 117.67 195.363 117.67 195.421 117.67C195.479 117.67 195.479 117.67 195.536 117.67C195.594 117.67 195.594 117.67 195.652 117.67C195.71 117.67 195.71 117.67 195.768 117.67C195.826 117.67 195.826 117.67 195.884 117.67C195.942 117.67 195.942 117.67 196 117.67C196.058 117.67 196.058 117.67 196.116 117.67C196.174 117.67 196.174 117.67 196.232 117.67C196.29 117.67 196.29 117.67 196.348 117.67C196.406 117.67 196.406 117.67 196.463 117.67C196.521 117.67 196.521 117.67 196.579 117.67C196.637 117.67 196.637 117.67 196.695 117.67C199.882 117.67 202.431 112.582 202.315 106.279C202.257 99.9761 199.592 94.8877 196.348 94.8877Z" fill="#443135"/>
<path d="M260.252 94.8877C260.194 94.8877 260.194 94.8877 260.136 94.8877C260.078 94.8877 260.078 94.8877 260.02 94.8877C259.962 94.8877 259.962 94.8877 259.904 94.8877C259.846 94.8877 259.846 94.8877 259.788 94.8877C259.73 94.8877 259.73 94.8877 259.673 94.8877C259.615 94.8877 259.615 94.8877 259.557 94.8877C259.499 94.8877 259.499 94.8877 259.441 94.8877C259.383 94.8877 259.383 94.8877 259.325 94.8877C259.267 94.8877 259.267 94.8877 259.209 94.8877C259.151 94.8877 259.151 94.8877 259.093 94.8877C259.035 94.8877 259.035 94.8877 258.977 94.8877C258.919 94.8877 258.919 94.8877 258.861 94.8877C258.803 94.8877 258.803 94.8877 258.746 94.8877C258.688 94.8877 258.688 94.8877 258.63 94.8877C258.572 94.8877 258.572 94.8877 258.514 94.8877C258.456 94.8877 258.456 94.8877 258.398 94.8877C258.34 94.8877 258.34 94.8877 258.282 94.8877C258.224 94.8877 258.224 94.8877 258.166 94.8877C254.98 94.8877 252.43 99.9761 252.546 106.279C252.662 112.582 255.327 117.67 258.514 117.67C258.572 117.67 258.572 117.67 258.63 117.67C258.688 117.67 258.688 117.67 258.746 117.67C258.803 117.67 258.803 117.67 258.861 117.67C258.919 117.67 258.919 117.67 258.977 117.67C259.035 117.67 259.035 117.67 259.093 117.67C259.151 117.67 259.151 117.67 259.209 117.67C259.267 117.67 259.267 117.67 259.325 117.67C259.383 117.67 259.383 117.67 259.441 117.67C259.499 117.67 259.499 117.67 259.557 117.67C259.615 117.67 259.615 117.67 259.673 117.67C259.73 117.67 259.73 117.67 259.788 117.67C259.846 117.67 259.846 117.67 259.904 117.67C259.962 117.67 259.962 117.67 260.02 117.67C260.078 117.67 260.078 117.67 260.136 117.67C260.194 117.67 260.194 117.67 260.252 117.67C260.31 117.67 260.31 117.67 260.368 117.67C260.426 117.67 260.426 117.67 260.484 117.67C260.542 117.67 260.542 117.67 260.599 117.67C263.786 117.67 266.335 112.582 266.219 106.279C266.103 99.9761 263.438 94.8877 260.252 94.8877Z" fill="#443135"/>
<path d="M272.651 105.238H262.454C261.701 105.238 261.122 105.817 261.122 106.568V109.748C261.122 110.5 261.701 111.078 262.454 111.078H272.651C273.404 111.078 273.984 110.5 273.984 109.748V106.568C273.984 105.817 273.404 105.238 272.651 105.238Z" fill="#443135"/>
<path d="M259.151 103.388H242.639C241.422 103.388 240.495 104.371 240.495 105.527V110.673C240.495 111.888 241.48 112.813 242.639 112.813H259.151C260.367 112.813 261.294 111.83 261.294 110.673V105.527C261.352 104.371 260.367 103.388 259.151 103.388Z" fill="#443135"/>
<path d="M277.749 82.8609L267.146 77.0786L251.619 15.4968L231.747 13.6465L243.161 105.47H275.431L277.749 82.8609Z" fill="#F4BD5B"/>
<path d="M243.161 105.469H275.432L277.749 82.8602L277.402 82.6289H240.322L243.161 105.469Z" fill="#EAA74E"/>
<path d="M275.432 105.469L276.127 98.4729C275.663 98.415 275.2 98.415 274.736 98.415C268.537 98.415 263.497 101.537 263.149 105.469H275.432Z" fill="#F4BD5B"/>
<path d="M242.639 105.469H248.201L235.165 14.2244L224.911 13.1836L242.639 105.469Z" fill="#EAA74E"/>
<path d="M208.109 94.8877C208.051 94.8877 208.051 94.8877 207.993 94.8877C207.935 94.8877 207.935 94.8877 207.877 94.8877C207.819 94.8877 207.819 94.8877 207.761 94.8877C207.703 94.8877 207.703 94.8877 207.645 94.8877C207.587 94.8877 207.587 94.8877 207.529 94.8877C207.472 94.8877 207.472 94.8877 207.414 94.8877C207.356 94.8877 207.356 94.8877 207.298 94.8877C207.24 94.8877 207.24 94.8877 207.182 94.8877C207.124 94.8877 207.124 94.8877 207.066 94.8877C207.008 94.8877 207.008 94.8877 206.95 94.8877C206.892 94.8877 206.892 94.8877 206.834 94.8877C206.776 94.8877 206.776 94.8877 206.718 94.8877C206.66 94.8877 206.66 94.8877 206.602 94.8877C206.545 94.8877 206.545 94.8877 206.487 94.8877C206.429 94.8877 206.429 94.8877 206.371 94.8877C206.313 94.8877 206.313 94.8877 206.255 94.8877C206.197 94.8877 206.197 94.8877 206.139 94.8877C206.081 94.8877 206.081 94.8877 206.023 94.8877C202.837 94.8877 200.287 99.9761 200.403 106.279C200.519 112.582 203.184 117.67 206.371 117.67C206.429 117.67 206.429 117.67 206.487 117.67C206.545 117.67 206.545 117.67 206.602 117.67C206.66 117.67 206.66 117.67 206.718 117.67C206.776 117.67 206.776 117.67 206.834 117.67C206.892 117.67 206.892 117.67 206.95 117.67C207.008 117.67 207.008 117.67 207.066 117.67C207.124 117.67 207.124 117.67 207.182 117.67C207.24 117.67 207.24 117.67 207.298 117.67C207.356 117.67 207.356 117.67 207.414 117.67C207.472 117.67 207.472 117.67 207.529 117.67C207.587 117.67 207.587 117.67 207.645 117.67C207.703 117.67 207.703 117.67 207.761 117.67C207.819 117.67 207.819 117.67 207.877 117.67C207.935 117.67 207.935 117.67 207.993 117.67C208.051 117.67 208.051 117.67 208.109 117.67C208.167 117.67 208.167 117.67 208.225 117.67C208.283 117.67 208.283 117.67 208.341 117.67C208.398 117.67 208.398 117.67 208.456 117.67C211.643 117.67 214.192 112.582 214.076 106.279C213.96 99.9761 211.295 94.8877 208.109 94.8877Z" fill="#443135"/>
<path d="M120.74 94.8877C120.682 94.8877 120.682 94.8877 120.624 94.8877C120.566 94.8877 120.566 94.8877 120.508 94.8877C120.45 94.8877 120.45 94.8877 120.393 94.8877C120.335 94.8877 120.335 94.8877 120.277 94.8877C120.219 94.8877 120.219 94.8877 120.161 94.8877C120.103 94.8877 120.103 94.8877 120.045 94.8877C119.987 94.8877 119.987 94.8877 119.929 94.8877C119.871 94.8877 119.871 94.8877 119.813 94.8877C119.755 94.8877 119.755 94.8877 119.697 94.8877C119.639 94.8877 119.639 94.8877 119.581 94.8877C119.523 94.8877 119.523 94.8877 119.466 94.8877C119.408 94.8877 119.408 94.8877 119.35 94.8877C119.292 94.8877 119.292 94.8877 119.234 94.8877C119.176 94.8877 119.176 94.8877 119.118 94.8877C119.06 94.8877 119.06 94.8877 119.002 94.8877C118.944 94.8877 118.944 94.8877 118.886 94.8877C118.828 94.8877 118.828 94.8877 118.77 94.8877C118.712 94.8877 118.712 94.8877 118.654 94.8877C115.468 94.8877 112.919 99.9761 113.035 106.279C113.15 112.582 115.816 117.67 119.002 117.67C119.06 117.67 119.06 117.67 119.118 117.67C119.176 117.67 119.176 117.67 119.234 117.67C119.292 117.67 119.292 117.67 119.35 117.67C119.408 117.67 119.408 117.67 119.466 117.67C119.523 117.67 119.523 117.67 119.581 117.67C119.639 117.67 119.639 117.67 119.697 117.67C119.755 117.67 119.755 117.67 119.813 117.67C119.871 117.67 119.871 117.67 119.929 117.67C119.987 117.67 119.987 117.67 120.045 117.67C120.103 117.67 120.103 117.67 120.161 117.67C120.219 117.67 120.219 117.67 120.277 117.67C120.335 117.67 120.335 117.67 120.393 117.67C120.45 117.67 120.45 117.67 120.508 117.67C120.566 117.67 120.566 117.67 120.624 117.67C120.682 117.67 120.682 117.67 120.74 117.67C120.798 117.67 120.798 117.67 120.856 117.67C120.914 117.67 120.914 117.67 120.972 117.67C121.03 117.67 121.03 117.67 121.088 117.67C124.274 117.67 126.823 112.582 126.708 106.279C126.65 99.9761 123.985 94.8877 120.74 94.8877Z" fill="#443135"/>
<path d="M143.335 106.915H118.944C117.669 106.915 116.568 107.956 116.568 109.286V110.384C116.568 111.657 117.611 112.755 118.944 112.755H143.335C144.61 112.755 145.711 111.714 145.711 110.384V109.286C145.653 107.956 144.61 106.915 143.335 106.915Z" fill="#443135"/>
<path d="M190.438 106.915H166.047C164.772 106.915 163.671 107.956 163.671 109.286V110.384C163.671 111.657 164.714 112.755 166.047 112.755H190.438C191.713 112.755 192.814 111.714 192.814 110.384V109.286C192.756 107.956 191.713 106.915 190.438 106.915Z" fill="#443135"/>
<path d="M243.798 104.371H98.2031V110.327H243.798V104.371Z" fill="#443135"/>
<path d="M171.782 0H98.666L91.7715 106.915H163.381L171.782 0Z" fill="#E8DCC1"/>
<path d="M174.737 0H101.621L94.6685 106.915H179.024L174.737 0Z" fill="#755446"/>
<path d="M177.229 93.2689L174.737 0H101.621L100.578 15.2653L177.229 93.2689Z" fill="#543B32"/>
<path d="M155.56 34.6357L167.147 36.4283L170.218 79.2753H156.545L155.56 34.6357Z" fill="#996F41"/>
<path d="M155.792 34.6363L140.786 33.6533L139.686 79.2759H158.341L155.792 34.6363Z" fill="#B58E5B"/>
<path d="M139.686 79.2755H158.341L156.719 50.7108L140.381 49.3809L139.686 79.2755Z" fill="#C49D69"/>
<path d="M155.792 34.6357L147.043 38.2208L147.275 71.7583L158.631 79.5066L147.681 71.2957V38.6255L155.792 34.6357Z" fill="#A0794A"/>
<path d="M140.786 33.6533L147.217 38.7996L148.028 38.3948L140.786 33.6533Z" fill="#A0794A"/>
<path d="M150.346 57.1289L161.296 58.1119L162.744 81.646H149.767L150.346 57.1289Z" fill="#B58E5B"/>
<path d="M150.578 57.1288L132.096 56.6084L129.547 81.6459H151.447L150.578 57.1288Z" fill="#D3AD76"/>
<path d="M150.578 57.129L132.097 56.5508L130.358 73.6665C133.139 75.4012 136.384 76.1529 139.802 75.6325C145.074 74.8229 149.188 71.0644 150.926 66.1494L150.578 57.129Z" fill="#E0BA89"/>
<path d="M142.12 70.4859L150.578 57.9961V57.1288H150.347L141.366 69.792L132.038 56.8975V57.0709L140.961 70.4859L129.663 81.6458H129.779L141.482 71.2955L151.042 81.6458H151.274L142.12 70.4859Z" fill="#D3AD76"/>
<path d="M156.603 70.2546L161.354 59.1525L161.296 58.1117L156.719 68.7512L150.694 57.1865H150.636L156.603 70.2546Z" fill="#A0794A"/>
<path d="M133.719 79.2754L149.709 80.2584L151.737 102.578H132.965L133.719 79.2754Z" fill="#B58E5B"/>
<path d="M149.999 83.0347L144.263 91.4191L135.109 79.3918L134.124 79.334L143.799 92.2864L134.645 102.579H135.341L144.263 92.749L151.621 102.579H151.737L151.621 101.191L144.669 92.0551L150.057 83.902L149.999 83.0347Z" fill="#A0794A"/>
<path d="M134.066 79.2753L107.241 78.7549L103.533 102.578H135.398L134.066 79.2753Z" fill="#D3AD76"/>
<path d="M134.066 79.2753L107.241 78.7549L104.75 94.9454C109.617 96.1019 116.279 95.5814 123.116 93.2107C127.577 91.6495 131.517 89.4522 134.53 87.0814L134.066 79.2753Z" fill="#E8C391"/>
<path d="M105.561 98.8202L126.765 98.5889L131.864 106.106C127.75 106.626 120.624 106.395 114.83 105.296C111.065 104.545 107.762 103.562 105.213 102.463L105.561 98.8202Z" fill="#B58E5B"/>
<path d="M168.19 74.014L150.346 73.3779L147.565 102.579H169.175L168.19 74.014Z" fill="#E0BA89"/>
<path d="M167.959 74.0137L182.153 75.1701L183.718 102.578H167.379L167.959 74.0137Z" fill="#B58E5B"/>
<path d="M148.202 95.929C149.245 96.2181 150.288 96.3916 151.389 96.3916C158.92 96.3916 165.004 88.7011 165.004 79.2181C165.004 77.3677 164.772 75.5752 164.309 73.8983L150.288 73.3779L148.202 95.929Z" fill="#E8C391"/>
<path d="M156.893 96.6807L168.191 74.3031V74.1296L157.183 94.1943L151.157 73.3779H150.346V73.4936L156.893 96.6807Z" fill="#B58E5B"/>
<path d="M176.765 102.231H94.6685V106.51H176.765V102.231Z" fill="#916B5D"/>
<path d="M129.199 102.231H110.833V106.51H132.443L129.199 102.231Z" fill="#755446"/>
<path d="M161.644 0H99.6514V3.93198H161.644V0Z" fill="#E8DCC1"/>
<path d="M226.591 0H153.417L172.246 106.915H243.856L226.591 0Z" fill="#E8DCC1"/>
<path d="M258.572 103.33H244.261V106.279H258.572C258.977 106.279 259.325 105.932 259.325 105.527V104.082C259.325 103.677 258.977 103.33 258.572 103.33Z" fill="#FFCB78"/>
<path d="M230.125 0H157.008L175.78 106.915H247.39L230.125 0Z" fill="#443135"/>
<path d="M229.488 0H156.372L175.143 106.915H246.753L229.488 0Z" fill="#CEBD97"/>
<path d="M223.868 50.9423C233.022 70.6022 236.499 90.609 234.645 106.915H246.753L229.488 0H174.796C192.814 6.24491 211.76 24.9796 223.868 50.9423Z" fill="#D6C4A1"/>
<path d="M278.154 103.33H264.134V109.286H278.154C278.734 109.286 279.197 108.823 279.197 108.245V104.371C279.197 103.793 278.734 103.33 278.154 103.33Z" fill="#D6C4A1"/>
<path d="M247.853 105.123H173.347V107.841H247.853V105.123Z" fill="#E0D1B6"/>
<path d="M175.085 105.123H90.4395V107.841H175.085V105.123Z" fill="#E8DCC1"/>
<path d="M132.733 105.123H108.341V107.841H132.733V105.123Z" fill="#CEBD97"/>
<path d="M197.796 93.5C194.32 93.5 191.597 99.4558 191.655 106.857C191.655 107.782 191.713 108.65 191.829 109.459H204.169C204.227 108.592 204.285 107.725 204.285 106.857C204.169 99.5136 201.272 93.5 197.796 93.5Z" fill="#443135"/>
<path d="M261.642 93.5C258.166 93.5 255.443 99.4558 255.501 106.857C255.501 107.782 255.559 108.65 255.675 109.459H268.015C268.073 108.592 268.131 107.725 268.131 106.857C268.015 99.5136 265.118 93.5 261.642 93.5Z" fill="#443135"/>
<path d="M254.574 101.422H248.897L246.231 76.7893L246.869 76.7314L249.476 100.786H253.995C254.111 91.2451 260.832 89.6839 262.164 89.5104L264.308 76.9049L264.887 77.0206L262.628 90.0886H262.396C262.048 90.0886 254.516 90.8403 254.516 101.133V101.422H254.574Z" fill="#443135"/>
<path d="M265.003 77.0782H246.289L238.468 21.9727H250.808L265.003 77.0782Z" fill="#443135"/>
<path d="M263.554 76.3849H246.637L238.989 23.1875H250.171L263.554 76.3849Z" fill="#85BBC9"/>
<path d="M253.706 78.5244H250.171C249.65 78.5244 249.187 78.987 249.187 79.5074V80.606C249.187 81.1265 249.65 81.5891 250.171 81.5891H253.706C254.227 81.5891 254.691 81.1265 254.691 80.606V79.5074C254.691 78.9292 254.227 78.5244 253.706 78.5244Z" fill="#E59641"/>
<path d="M250.46 78.8135H248.201C247.853 78.8135 247.563 79.1026 247.563 79.4495V80.2012C247.563 80.5482 247.853 80.8373 248.201 80.8373H250.46C250.808 80.8373 251.098 80.5482 251.098 80.2012V79.4495C251.098 79.1026 250.808 78.8135 250.46 78.8135Z" fill="#F4BD5B"/>
<path d="M272.824 85.6367H269.29C268.769 85.6367 268.305 86.0993 268.305 86.6197V87.7184C268.305 88.2388 268.769 88.7013 269.29 88.7013H272.824C273.346 88.7013 273.809 88.2388 273.809 87.7184V86.6197C273.809 86.0993 273.346 85.6367 272.824 85.6367Z" fill="#E8DCC1"/>
<path d="M267.147 106.279C267.089 99.9761 264.481 94.8877 261.353 94.8877C258.224 94.8877 255.791 99.9761 255.907 106.279C255.965 112.582 258.572 117.67 261.7 117.67C264.771 117.67 267.204 112.582 267.147 106.279Z" fill="#6D464B"/>
<path d="M267.146 106.28C267.146 106.164 267.146 105.99 267.146 105.875C266.103 103.388 264.539 101.827 262.801 101.827C259.673 101.827 257.239 106.916 257.355 113.218C257.355 113.334 257.355 113.507 257.355 113.623C258.398 116.109 259.962 117.671 261.7 117.671C264.771 117.671 267.204 112.582 267.146 106.28Z" fill="#87515A"/>
<path d="M265.292 106.279C265.234 102.29 263.612 99.1094 261.642 99.1094C259.672 99.1094 258.108 102.347 258.166 106.279C258.224 110.269 259.846 113.45 261.816 113.45C263.786 113.45 265.35 110.269 265.292 106.279Z" fill="#443135"/>
<path d="M263.612 106.279C263.554 103.619 262.454 101.422 261.121 101.422C259.788 101.422 258.746 103.619 258.804 106.279C258.862 108.939 259.962 111.136 261.295 111.136C262.569 111.136 263.612 108.939 263.612 106.279Z" fill="#DBCEAD"/>
<path d="M203.243 106.279C203.185 99.9761 200.578 94.8877 197.449 94.8877C194.32 94.8877 191.887 99.9761 192.003 106.279C192.061 112.582 194.668 117.67 197.797 117.67C200.925 117.67 203.359 112.582 203.243 106.279Z" fill="#6D464B"/>
<path d="M203.243 106.28C203.243 106.164 203.243 105.99 203.243 105.875C202.2 103.388 200.635 101.827 198.897 101.827C195.769 101.827 193.335 106.916 193.451 113.218C193.451 113.334 193.451 113.507 193.451 113.623C194.494 116.109 196.058 117.671 197.796 117.671C200.925 117.671 203.358 112.582 203.243 106.28Z" fill="#87515A"/>
<path d="M201.446 106.279C201.388 102.29 199.766 99.1094 197.796 99.1094C195.826 99.1094 194.262 102.347 194.32 106.279C194.378 110.269 196 113.45 197.97 113.45C199.94 113.45 201.446 110.269 201.446 106.279Z" fill="#443135"/>
<path d="M199.709 106.279C199.651 103.619 198.55 101.422 197.217 101.422C195.885 101.422 194.842 103.619 194.9 106.279C194.958 108.939 196.059 111.136 197.391 111.136C198.724 111.136 199.766 108.939 199.709 106.279Z" fill="#DBCEAD"/>
<path d="M241.075 24.6904L248.259 74.7075H262.106L249.476 24.6904H241.075Z" fill="#5C8F9B"/>
<path d="M249.65 22.7246L248.491 22.9559L258.862 76.905H259.673L249.65 22.7246Z" fill="#443135"/>
<path d="M272.014 86.1562H269.754C269.406 86.1562 269.117 86.4454 269.117 86.7923V87.4862C269.117 87.8331 269.406 88.1222 269.754 88.1222H272.014C272.361 88.1222 272.651 87.8331 272.651 87.4862V86.7923C272.651 86.4454 272.361 86.1562 272.014 86.1562Z" fill="#E25976"/>
<path d="M138.411 109.17H121.088V113.68H138.411V109.17Z" fill="#916B5D"/>
<path d="M100.172 95.4082L112.629 96.9116L113.73 117.67H99.4771L100.172 95.4082Z" fill="#C49D69"/>
<path d="M104.344 117.67H107.473L110.08 96.6225L106.72 96.2178L104.344 117.67Z" fill="#D1A979"/>
<path d="M113.382 111.136L113.267 109.112L99.7672 107.493L99.6514 111.078L99.7093 111.252L113.382 111.136Z" fill="#D1A979"/>
<path d="M112.745 99.2822L99.9411 102.752L99.8252 105.527L112.861 101.653L112.745 99.2822Z" fill="#D1A979"/>
<path d="M100.173 95.4079L75.7814 94.9453L72.6528 117.67H101.505L100.173 95.4079Z" fill="#E8CB9C"/>
<path d="M101.099 111.078L100.868 107.493L73.8112 109.054L73.5215 111.136L101.041 111.252L101.099 111.078Z" fill="#F7DCB5"/>
<path d="M100.578 102.751L75.1442 99.3975L74.8545 101.768L100.752 105.527L100.578 102.751Z" fill="#F7DCB5"/>
<path d="M100.173 95.9283V95.4079H100.115L87.5426 106.626L76.0132 94.9453H75.8973L87.2529 107.088L72.7108 117.323L72.6528 117.67H73.406L87.7164 107.493L101.216 117.67H101.505V117.207L88.0061 107.088L100.173 95.9283Z" fill="#C49D69"/>
<path d="M93.5099 111.251L89.3964 108.129L88.7012 108.187L92.6988 111.251H93.5099Z" fill="#E8CB9C"/>
<path d="M81.459 111.194H82.5018L86.5574 108.303L85.4566 108.418L81.459 111.194Z" fill="#E8CB9C"/>
<path d="M81.2272 100.207L80.7637 100.149L83.4288 102.983L84.0661 103.098L81.2272 100.207Z" fill="#E8CB9C"/>
<path d="M93.7418 101.826L92.9887 101.769L90.4395 104.024L91.2506 104.139L93.7418 101.826Z" fill="#E8CB9C"/>
<path d="M107.183 79.2178L107.125 79.3912L117.496 92.1124L134.124 80.2586L134.066 79.2756L117.727 90.9559L107.183 79.2178Z" fill="#D3AD76"/>
<path d="M153.011 4.85742H102.374L101.794 14.2826H154.343L153.011 4.85742Z" fill="#CEBD97"/>
<path d="M101.968 11.3916L101.794 14.2828H154.343L153.938 11.3916H101.968Z" fill="#E8DCC1"/>
<path d="M127.75 12.085H121.725V13.8197H127.75V12.085Z" fill="#543B32"/>
<path d="M229.777 48.6869C226.185 30.1256 211.18 15.1494 196.232 15.1494C181.284 15.1494 172.072 30.1835 175.606 48.6869C179.198 67.2482 194.204 82.2244 209.152 82.2244C224.099 82.2244 233.369 67.2482 229.777 48.6869ZM207.53 80.721C193.567 80.721 180.067 66.3808 177.402 48.6869C174.737 30.993 183.949 16.6528 197.912 16.6528C211.875 16.6528 225.374 30.993 228.039 48.6869C230.704 66.3808 221.492 80.721 207.53 80.721Z" fill="#A84A5F"/>
<path d="M270.507 107.725C270.507 108.245 270.623 108.765 270.797 109.286H278.155C278.734 109.286 279.198 108.823 279.198 108.245V104.371C279.198 103.793 278.734 103.33 278.155 103.33H272.941C271.434 104.487 270.507 106.048 270.507 107.725Z" fill="#E8DCC1"/>
<path d="M188.178 35.7922L187.715 32.4385H190.322L191.597 41.6902H188.99L188.468 38.1052H187.425L187.947 41.6902H185.34L184.065 32.4385H186.672L187.136 35.7922H188.178Z" fill="#A84A5F"/>
<path d="M193.683 41.6902C193.045 41.6902 192.524 41.2276 192.466 40.5337L191.481 33.5949C191.365 32.9011 191.771 32.4385 192.408 32.4385H196.638C197.275 32.4385 197.796 32.9011 197.854 33.5949L198.839 40.5337C198.955 41.2276 198.549 41.6902 197.912 41.6902H193.683ZM194.32 34.7514L194.957 39.3773H196L195.363 34.7514H194.32Z" fill="#A84A5F"/>
<path d="M204.98 32.4385L206.255 41.6902H200.982C200.345 41.6902 199.824 41.2276 199.766 40.5337L198.607 32.4385H201.272L202.257 39.3773H203.3L202.315 32.4385H204.98Z" fill="#A84A5F"/>
<path d="M206.139 35.5033L205.849 33.5373C205.733 32.8434 206.139 32.3809 206.776 32.3809H211.353L211.527 33.5373L211.295 34.7516H208.688L208.746 35.1564L211.295 36.8332C211.932 37.238 212.106 37.6428 212.222 38.3945L212.512 40.4761C212.627 41.17 212.222 41.6326 211.643 41.6326H207.066L206.718 39.3196H209.731L209.673 38.6836L207.123 37.0067C206.428 36.6598 206.254 36.255 206.139 35.5033Z" fill="#A84A5F"/>
<path d="M213.382 41.6902L212.107 32.4385H217.785L217.959 33.5949L217.727 34.7514H215.12L215.236 35.7922H217.843L218.19 38.1052H215.525L215.699 39.3773H218.712L219.059 41.6902H213.382Z" fill="#A84A5F"/>
<path d="M185.688 53.0816H185.456L186.093 57.5339H183.486L183.312 56.3775L183.022 48.2822H185.977L187.136 51.9251H187.31L187.426 48.2822H190.38L192.35 56.3775L192.524 57.5339H190.033L189.396 53.0816H189.164L189.106 57.5339H186.904L185.688 53.0816Z" fill="#A84A5F"/>
<path d="M194.378 57.5339C193.74 57.5339 193.219 57.0714 193.161 56.3775L192.176 49.4387C192.06 48.7448 192.466 48.2822 193.103 48.2822H197.332C197.97 48.2822 198.491 48.7448 198.549 49.4387L199.534 56.3775C199.65 57.0714 199.244 57.5339 198.607 57.5339H194.378ZM195.015 50.5952L195.652 55.221H196.695L196.058 50.5952H195.015Z" fill="#A84A5F"/>
<path d="M199.071 49.0339L198.955 48.2822H201.562L203.069 55.221H203.358L202.953 48.2822H205.56L205.676 49.0339L205.502 57.5339H201.62L199.071 49.0339Z" fill="#A84A5F"/>
<path d="M207.53 57.5339L206.255 48.2822H208.862L210.137 57.5339H207.53Z" fill="#A84A5F"/>
<path d="M214.714 52.5611L213.903 49.4387L213.729 48.2822H216.162L217.437 57.5339H214.656L212.802 53.255H212.628L213.381 56.3775L213.555 57.5339H211.122L209.847 48.2822H212.628L214.482 52.5611H214.714Z" fill="#A84A5F"/>
<path d="M223.462 48.2822L223.636 49.4387L223.404 50.5952H220.16L220.797 55.221H221.84L221.377 52.0986H224.042L224.795 57.5339H219.523C218.885 57.5339 218.364 57.0714 218.306 56.3775L217.321 49.4387C217.205 48.7448 217.611 48.2822 218.248 48.2822H223.462Z" fill="#A84A5F"/>
<path d="M200.982 10.3506L194.609 15.0343L200.345 22.2044L206.776 17.5207L200.982 10.3506Z" fill="#A84A5F"/>
<path d="M219.059 73.9562L219.986 79.3338L225.2 78.4664L224.273 73.0889L219.059 73.9562Z" fill="#A84A5F"/>
<path d="M48.1777 64.0599C48.1777 64.0599 45.2855 61.3833 39.5537 59.6514L42.9718 73.4542L48.9665 74.0315L48.1777 64.0599Z" fill="#EAA04E"/>
<path d="M47.8094 88.4648L32.5596 79.9102C32.5596 79.9102 32.6647 86.6279 33.0854 87.94C33.5061 89.252 40.0793 98.174 40.0793 98.174C40.0793 98.174 34.8207 107.358 33.5061 113.551L33.8742 113.919C43.5499 108.671 49.1766 102.163 49.8076 100.693C50.386 99.2237 47.8094 88.4648 47.8094 88.4648Z" fill="#6A4896"/>
<path d="M49.8073 98.8563C49.2288 95.34 47.8616 88.4648 47.8616 88.4648L32.6118 79.9102C32.6118 79.9102 32.717 86.6279 33.1377 87.94C33.5584 89.252 40.1315 98.174 40.1315 98.174C40.1315 98.174 34.873 107.358 33.5584 113.551L33.9265 113.919C34.7678 113.446 35.6092 112.974 36.4506 112.502C36.398 109.983 47.0202 98.5939 49.8073 98.8563Z" fill="#52377C"/>
<path d="M40.7105 60.334C37.9234 57.9723 34.0847 57.6574 31.508 58.5496C28.9313 59.4943 28.0374 66.9468 27.9322 68.4687C27.8796 69.9907 31.508 79.3851 33.2433 82.8489L38.7648 84.6858L47.6518 78.1255C47.7043 78.1255 43.4975 62.6957 40.7105 60.334Z" fill="#865FAF"/>
<path d="M38.9226 70.0952C35.2416 65.8966 34.0847 60.9632 36.3459 59.0214C36.6088 58.8115 36.9243 58.6015 37.2398 58.4966C35.189 57.9193 33.0856 58.0242 31.508 58.5491C28.9313 59.4937 28.0374 66.9462 27.9322 68.4682C27.8796 69.9902 31.508 79.3846 33.2433 82.8484L38.7648 84.6853L47.6518 78.125C47.6518 78.125 47.2837 76.8129 46.7578 74.976C44.3915 74.7136 41.3941 72.9292 38.9226 70.0952Z" fill="#6A4896"/>
<path d="M107.231 114.496C107.231 114.496 92.928 102.11 91.9289 98.4362C90.9298 94.7624 94.0323 85.4206 94.1375 85.1581C94.2427 84.8957 108.02 79.8574 108.02 79.8574C108.02 79.8574 101.447 95.917 101.657 96.9667C101.815 98.0163 107.599 114.076 107.599 114.076L107.231 114.496Z" fill="#6D293C"/>
<path d="M94.9258 102.634C98.5016 106.676 104.233 111.819 106.389 113.708C105.706 111.451 104.339 108.775 102.445 106.203C98.9223 101.375 93.3482 100.902 94.9258 102.634Z" fill="#822E44"/>
<path d="M91.9287 52.252C89.9305 54.6661 88.6158 57.6576 87.7219 61.2264C87.2486 63.1683 85.9866 66.947 85.3029 68.4165C84.6193 69.886 89.9305 75.6066 89.9305 75.6066C89.9305 75.6066 93.4537 74.452 94.5054 70.9882C95.5571 67.4718 93.7166 57.7626 93.7166 57.7626L91.9287 52.252Z" fill="#EAA04E"/>
<path d="M89.9303 55.2959C88.9837 57.0278 88.3001 59.0222 87.7217 61.2264C87.2484 63.1683 85.9864 66.947 85.3028 68.4165C85.1976 68.6789 85.2502 69.0463 85.4079 69.4662C85.8812 69.991 86.4596 70.3059 87.0381 70.3059C89.1415 70.3059 89.7199 66.3172 89.7199 61.2789C89.7199 59.0746 89.7725 56.9229 89.9303 55.2959Z" fill="#F2C468"/>
<path d="M79.7812 72.7191C81.8321 70.6723 84.251 68.4156 86.0915 68.2581C87.7742 68.1532 91.613 71.722 90.719 74.451C90.1932 76.1305 81.5166 79.1745 81.5166 79.1745L79.7812 72.7191Z" fill="#EA875C"/>
<path d="M85.8282 66.8418C85.3024 67.0517 84.8291 68.5737 84.8291 68.5737C84.8291 68.5737 88.773 69.5184 90.7713 74.7666L92.5066 74.3993L93.1902 72.1425C91.1394 69.5184 88.8256 67.4191 85.8282 66.8418Z" fill="#F7DBA9"/>
<path d="M88.9837 68.1016C88.6156 68.8888 88.0371 69.5186 87.3535 69.9384C88.5104 70.8306 89.825 72.3526 90.719 74.7668L92.4543 74.3994L93.1379 72.1427C91.9285 70.5158 90.5612 69.0987 88.9837 68.1016Z" fill="#E2C28F"/>
<path d="M96.3457 76.2357C96.3457 76.2357 93.2957 70.9874 91.613 66.5264C89.9303 62.0654 90.0354 57.8143 90.6139 55.0853C91.2449 52.3562 94.8207 48.8398 96.6612 48.9973C98.0284 49.1023 101.762 48.9448 104.128 52.8285C106.495 56.6597 107.862 61.6456 108.493 68.2059C109.071 74.7137 96.3457 76.2357 96.3457 76.2357Z" fill="#993D4F"/>
<path d="M92.5066 53.459L91.9281 53.9838C91.3497 55.0859 90.1928 65.5824 95.3988 72.825L95.6617 72.4051C89.7721 62.3285 92.5066 53.459 92.5066 53.459Z" fill="#822E44"/>
<path d="M104.128 52.7761C101.762 48.9449 98.0283 49.0499 96.6611 48.9449C95.1887 48.84 92.612 51.0967 91.2974 53.4059C91.3499 53.9832 91.5077 54.5606 91.7706 55.1379C95.6094 52.6187 104.549 53.9832 104.601 54.1932C104.707 54.1407 104.759 54.0882 104.864 54.0357C104.601 53.6159 104.339 53.196 104.128 52.7761Z" fill="#822E44"/>
<path d="M108.441 68.1541C107.81 61.5938 106.443 56.608 104.077 52.7768C103.971 52.6193 103.866 52.4619 103.814 52.3569C101.92 51.4122 100.08 51.2023 98.555 51.9895C94.874 53.8264 94.5585 60.6491 97.8714 67.1569C99.449 70.2534 101.5 72.7201 103.656 74.2421C106.39 72.9825 108.704 71.0931 108.441 68.1541Z" fill="#822E44"/>
<path d="M88.0373 115.756C87.5114 106.151 87.0907 93.608 87.7744 90.8264C88.458 88.0448 96.7139 74.9767 96.7139 74.9767L104.076 69.571L108.388 67.8916C108.388 67.8916 112.069 74.4519 108.809 81.537C107.809 83.6888 95.3992 97.8066 95.3992 97.8066L88.6683 115.808L88.0373 115.756Z" fill="#993D4F"/>
<path d="M108.335 67.8916L104.023 69.571L96.6612 74.9767C96.6612 74.9767 94.6104 78.2306 92.4544 81.7994C93.5061 84.7909 94.2423 89.6718 93.4009 92.6633C92.7699 94.92 89.2467 104.472 87.7217 110.455C87.8269 112.292 87.8794 114.076 87.9846 115.756L88.6156 115.861L95.3466 97.859C95.3466 97.859 107.757 83.7413 108.756 81.5895C112.016 74.4519 108.335 67.8916 108.335 67.8916Z" fill="#822E44"/>
<path d="M94.453 70.1476C95.3469 68.1533 96.4512 64.2171 95.8728 62.6952C95.2943 61.1732 93.8745 57.9717 93.8745 56.1349C93.8745 54.298 95.2943 52.1462 96.5564 51.5164C97.8184 50.9391 102.078 52.0937 103.971 54.9802C105.864 57.9192 107.126 63.9547 106.758 67.2086C106.39 70.4625 106.863 73.8214 105.496 75.0285C104.129 76.2356 100.553 78.7023 99.7641 77.915C98.9227 77.0753 94.453 70.1476 94.453 70.1476Z" fill="#F2C468"/>
<path d="M95.9776 63.22C96.1353 64.4796 95.7147 66.5264 95.1362 68.2583V69.5704C95.9776 66.6314 98.4491 63.8498 97.1345 58.6016C97.1871 58.6016 97.1871 61.7505 95.9776 63.22Z" fill="#EAA04E"/>
<path d="M103.97 54.9802C102.077 52.0937 97.8178 50.9391 96.5558 51.5164C95.9773 51.7788 95.3989 52.4086 94.873 53.1434C95.1886 53.0384 95.5567 53.0384 95.8722 53.0384C99.5006 53.0384 102.445 57.6044 102.445 63.22C102.445 68.5207 99.8161 72.8767 96.5032 73.3491C97.8178 75.2909 99.2902 77.5477 99.7109 77.9675C100.5 78.8072 104.076 76.2881 105.443 75.081C106.81 73.8739 106.337 70.515 106.705 67.2611C107.073 63.9022 105.863 57.9192 103.97 54.9802Z" fill="#EAA04E"/>
<path d="M100.816 70.4628C101.762 66.6841 99.9219 60.0713 99.9219 60.0713C99.9219 60.0713 102.814 63.6926 102.709 66.9465C102.551 70.1479 100.816 70.4628 100.816 70.4628Z" fill="#EAA04E"/>
<path d="M94.3472 70.2529L95.0834 68.7309C95.0834 68.7309 99.448 66.8415 102.866 69.938C106.231 72.982 105.127 75.7111 105.127 75.7111C105.127 75.7111 101.499 79.3323 99.3428 78.1777C97.1868 76.9181 94.3472 70.2529 94.3472 70.2529Z" fill="#F7DBA9"/>
<path d="M102.813 69.8857C101.814 71.2503 99.5005 72.2475 96.766 72.2475C96.2402 72.2475 95.7143 72.195 95.1885 72.1425C96.1876 74.2418 97.9229 77.3382 99.2901 78.1255C101.446 79.3326 105.075 75.6588 105.075 75.6588C105.075 75.6588 106.231 72.9297 102.813 69.8857Z" fill="#E2C28F"/>
<path d="M78.2566 50.1523L86.9332 78.9127L50.9121 88.4645L42.2881 59.9665L78.2566 50.1523Z" fill="#3F2015"/>
<path d="M78.0985 49.3652L86.7751 78.1256L50.7541 87.6774L42.1826 59.1794L78.0985 49.3652Z" fill="#663724"/>
<path d="M81.3062 59.9667L78.0985 49.3652L42.1826 59.1794L42.5507 60.439C47.1782 62.5908 53.9618 63.9553 61.4289 63.9553C69.5271 63.9553 76.6787 62.3809 81.3062 59.9667Z" fill="#773E2A"/>
<path d="M84.8294 71.6707C81.2536 68.7841 76.3105 66.9473 70.789 66.9473C59.9038 66.9473 51.1221 73.9799 51.1221 82.6395C51.1221 84.2665 51.4376 85.8409 52.016 87.3629L86.775 78.1785L84.8294 71.6707Z" fill="#773E2A"/>
<path d="M81.3063 67.8916L50.3335 77.4959L50.7016 77.8633L81.5693 68.8363L81.3063 67.8916Z" fill="#3F2015"/>
<path d="M47.8093 69.0465L78.9925 60.1245L78.5718 59.8096L47.5464 68.0493L47.8093 69.0465Z" fill="#3F2015"/>
<path d="M53.6993 63.1685C53.7519 62.4338 53.1734 61.8564 52.4898 61.8564C51.8062 61.8564 51.1752 62.4338 51.1752 63.1685C51.1226 63.9033 51.7011 64.4806 52.3847 64.4806C53.0683 64.4806 53.6467 63.8508 53.6993 63.1685Z" fill="#562A1B"/>
<path d="M53.226 62.5914C53.226 61.9616 52.8053 61.4893 52.2269 61.4893C51.6484 61.4893 51.1226 61.9616 51.1226 62.5914C51.1226 63.2212 51.5432 63.6935 52.1217 63.6935C52.7001 63.6935 53.226 63.2212 53.226 62.5914Z" fill="#BC8037"/>
<path d="M51.1226 62.5389C51.2803 62.8013 51.5958 63.0112 51.9639 63.0112C52.5424 63.0112 53.0156 62.5389 53.0682 61.9616C52.9105 61.6992 52.595 61.4893 52.2269 61.4893C51.6484 61.4893 51.1751 61.9616 51.1226 62.5389Z" fill="#E59D4E"/>
<path d="M71.7354 58.1832C71.788 57.4484 71.2096 56.8711 70.526 56.8711C69.8424 56.8711 69.2113 57.4484 69.2113 58.1832C69.1587 58.9179 69.7372 59.4952 70.4208 59.4952C71.1044 59.4952 71.6829 58.9179 71.7354 58.1832Z" fill="#562A1B"/>
<path d="M71.2621 57.6578C71.2621 57.028 70.8414 56.5557 70.263 56.5557C69.6845 56.5557 69.1587 57.028 69.1587 57.6578C69.1587 58.2876 69.5794 58.7599 70.1578 58.7599C70.7363 58.7599 71.2095 58.2351 71.2621 57.6578Z" fill="#BC8037"/>
<path d="M69.1587 57.6054C69.3164 57.8678 69.632 58.0777 70.0001 58.0777C70.5785 58.0777 71.0518 57.6054 71.1044 57.0281C70.9466 56.7657 70.6311 56.5557 70.263 56.5557C69.6845 56.5033 69.2113 56.9756 69.1587 57.6054Z" fill="#E59D4E"/>
<path d="M56.1178 69.8345C56.1703 69.0998 55.5919 68.5225 54.9083 68.5225C54.2247 68.5225 53.5937 69.0998 53.5937 69.8345C53.5411 70.5693 54.1195 71.1466 54.8031 71.1466C55.4867 71.1466 56.0652 70.5693 56.1178 69.8345Z" fill="#562A1B"/>
<path d="M55.6444 69.3092C55.6444 68.6794 55.2238 68.207 54.6453 68.207C54.0669 68.207 53.541 68.6794 53.541 69.3092C53.541 69.9389 53.9617 70.4113 54.5401 70.4113C55.1186 70.4113 55.6444 69.8865 55.6444 69.3092Z" fill="#BC8037"/>
<path d="M53.541 69.2567C53.6988 69.5191 54.0143 69.729 54.3824 69.729C54.9608 69.729 55.4341 69.2567 55.4867 68.6794C55.3289 68.417 55.0134 68.207 54.6453 68.207C54.0669 68.207 53.5936 68.6794 53.541 69.2567Z" fill="#E59D4E"/>
<path d="M74.1549 64.9C74.2075 64.1652 73.629 63.5879 72.9454 63.5879C72.2618 63.5879 71.6308 64.1652 71.6308 64.9C71.5782 65.6347 72.1566 66.212 72.8402 66.212C73.5239 66.212 74.1023 65.5822 74.1549 64.9Z" fill="#562A1B"/>
<path d="M73.6815 64.3228C73.6815 63.693 73.2609 63.2207 72.6824 63.2207C72.104 63.2207 71.5781 63.693 71.5781 64.3228C71.5781 64.9526 71.9988 65.425 72.5772 65.425C73.1557 65.425 73.6815 64.9526 73.6815 64.3228Z" fill="#BC8037"/>
<path d="M71.5781 64.2704C71.7359 64.5328 72.0514 64.7427 72.4195 64.7427C72.9979 64.7427 73.4712 64.2703 73.5238 63.693C73.366 63.4306 73.0505 63.2207 72.6824 63.2207C72.104 63.2207 71.6307 63.693 71.5781 64.2704Z" fill="#E59D4E"/>
<path d="M59.1153 78.3355C59.1679 77.6007 58.5895 77.0234 57.9059 77.0234C57.2222 77.0234 56.5912 77.6007 56.5912 78.3355C56.5386 79.0703 57.1171 79.6476 57.8007 79.6476C58.4843 79.6476 59.1153 79.0703 59.1153 78.3355Z" fill="#562A1B"/>
<path d="M58.6947 77.8111C58.6947 77.1813 58.274 76.709 57.6956 76.709C57.1172 76.709 56.5913 77.1813 56.5913 77.8111C56.5913 78.4409 57.012 78.9132 57.5904 78.9132C58.1689 78.9132 58.6421 78.3884 58.6947 77.8111Z" fill="#BC8037"/>
<path d="M56.5386 77.7586C56.6963 78.021 57.0118 78.231 57.3799 78.231C57.9584 78.231 58.4316 77.7586 58.4842 77.1813C58.3265 76.9189 58.011 76.709 57.6429 76.709C57.117 76.709 56.5912 77.1813 56.5386 77.7586Z" fill="#E59D4E"/>
<path d="M77.1524 73.3492C77.205 72.6144 76.6266 72.0371 75.943 72.0371C75.2593 72.0371 74.6283 72.6144 74.6283 73.3492C74.5757 74.0839 75.1542 74.6612 75.8378 74.6612C76.5214 74.7137 77.1524 74.0839 77.1524 73.3492Z" fill="#562A1B"/>
<path d="M76.7318 72.8248C76.7318 72.195 76.3111 71.7227 75.7327 71.7227C75.1543 71.7227 74.6284 72.195 74.6284 72.8248C74.6284 73.4546 75.0491 73.9269 75.6275 73.9269C76.206 73.9269 76.6792 73.4546 76.7318 72.8248Z" fill="#BC8037"/>
<path d="M74.5757 72.7723C74.7334 73.0347 75.049 73.2446 75.4171 73.2446C75.9955 73.2446 76.4688 72.7723 76.5213 72.195C76.3636 71.9326 76.0481 71.7227 75.68 71.7227C75.1015 71.7227 74.6283 72.195 74.5757 72.7723Z" fill="#E59D4E"/>
<path d="M52.7521 85.0535L44.8643 60.7541L76.6785 52.4619L84.3034 76.5513L52.7521 85.0535ZM45.4953 61.1215L53.0676 84.4237L83.6723 76.184L76.363 53.0917L45.4953 61.1215Z" fill="#3F2015"/>
<path d="M78.0985 49.3652L42.1826 59.1794L42.3404 59.7567L78.3614 50.205L78.0985 49.3652Z" fill="#9E4B32"/>
<path d="M85.1451 80.7493C91.4553 80.5919 99.238 78.4926 101.026 77.7053C102.761 76.9181 101.92 72.3521 101.026 71.5124C100.132 70.6202 97.1871 68.1011 94.4001 69.9904C91.6131 71.8798 85.408 76.4458 84.6192 77.4954C83.8304 78.4926 85.1451 80.7493 85.1451 80.7493Z" fill="#FFA77B"/>
<path d="M100.974 71.5125C100.29 70.8302 98.3445 69.1508 96.1885 69.3082C97.9764 69.8855 99.1858 70.8827 99.5013 72.1947C100.132 75.0288 91.929 79.5948 86.1972 78.4926C86.4076 79.0174 85.1455 80.7494 85.1455 80.7494C91.4558 80.5919 99.2384 78.4926 101.026 77.7054C102.762 76.9182 101.868 72.3522 100.974 71.5125Z" fill="#EA875C"/>
<path d="M97.6604 49.1553C96.7664 48.0532 94.5052 42.8574 94.5052 42.8574L90.1406 46.1638C90.1406 46.1638 91.4027 51.7794 91.8759 54.7184C93.3483 52.0943 95.1888 50.0475 97.6604 49.1553Z" fill="#DD704A"/>
<path d="M87.4059 51.0965C89.5093 51.8837 92.8222 50.4142 93.0851 50.2568C93.348 50.0993 94.1368 48.6823 94.242 48.4723C94.3471 48.2624 93.2428 42.4894 92.717 42.017C92.1911 41.5972 86.4067 40.1801 86.4067 40.5475C86.5645 44.4837 86.6171 50.7816 87.4059 51.0965Z" fill="#FFA77B"/>
<path d="M91.1394 43.9589C92.086 44.3262 92.9799 44.7986 93.7161 45.3234C93.4006 43.8014 92.9799 42.2269 92.717 42.017C92.1911 41.5972 86.4067 40.1801 86.4067 40.5475C86.4593 41.4397 86.4593 42.4369 86.5119 43.4865C87.9317 43.2766 89.5093 43.434 91.1394 43.9589Z" fill="#EA875C"/>
<path d="M96.241 46.5831L93.8221 45.7434L91.666 45.5859L90.2988 40.9675C90.2988 40.9675 94.4005 40.6001 94.8738 40.6526C95.347 40.7051 95.8729 41.2824 95.8729 41.2824C95.8729 41.2824 95.9781 44.3264 95.9781 44.5888C96.0832 44.8512 96.241 46.5831 96.241 46.5831Z" fill="#7A4229"/>
<path d="M93.8743 45.8484L96.2407 46.5831C96.2407 46.5831 96.0303 44.8512 96.0303 44.5888C96.0303 44.2739 95.9251 41.2824 95.9251 41.2824C95.9251 41.2824 95.3993 40.7051 94.926 40.6526C94.4527 40.6001 90.3511 40.9675 90.3511 40.9675L91.245 44.0115C92.2967 43.959 93.8217 45.7434 93.8743 45.8484Z" fill="#5E311F"/>
<path d="M93.1909 46.269C92.928 45.7966 92.6651 43.9072 93.2961 43.5399C93.9271 43.1725 94.7159 43.5399 94.8211 43.9072C95.0314 44.5895 93.7694 47.1612 93.1909 46.269Z" fill="#FFA77B"/>
<path d="M93.3478 45.1663C93.6108 45.0088 93.9263 45.1663 93.9789 45.3237C93.9789 45.3237 93.9789 45.3762 93.9789 45.4287C94.2418 45.0088 94.4521 44.484 94.3996 44.2741C94.347 44.0642 93.9263 43.8017 93.5582 44.0642C93.2953 44.2216 93.2427 44.8514 93.2427 45.2713C93.2953 45.2188 93.2953 45.1663 93.3478 45.1663Z" fill="#C15234"/>
<path d="M96.2931 37.4513C95.5569 36.0868 93.7164 34.8797 90.3509 34.7747C86.9855 34.6173 86.3544 38.0811 85.9863 40.1804L95.925 42.3847C95.925 42.3847 97.0293 38.8159 96.2931 37.4513Z" fill="#EAA04E"/>
<path d="M93.1381 37.4514C93.1381 36.4018 92.4019 35.4571 91.3502 34.8273C91.0347 34.7748 90.7192 34.7748 90.4037 34.7748C87.0382 34.6699 86.4072 38.0812 86.0391 40.1805L88.6157 40.7578C91.1398 40.7053 93.1381 39.2358 93.1381 37.4514Z" fill="#F2C468"/>
<path d="M91.5604 41.3874C89.4044 40.7576 81.4114 37.2938 81.2536 38.0285C81.0959 38.7633 81.9898 40.6002 86.4596 41.8597C86.7225 41.02 89.2992 41.2299 91.5604 41.3874Z" fill="#822E44"/>
<path d="M32.5596 79.962C32.5596 79.962 32.8751 86.7847 34.1897 88.3067C35.5044 89.8287 51.7533 99.1181 51.7533 99.1181L65.0574 116.07L65.8988 115.755C65.8988 115.755 61.4816 93.9223 60.8506 93.1875C60.1669 92.4528 48.9662 84.4755 48.0197 83.5833C47.0732 82.7435 44.4439 77.1279 44.4439 77.1279L32.5596 79.962Z" fill="#865FAF"/>
<path d="M59.5359 105.888C55.592 97.9632 54.1196 90.6681 56.223 89.6185C52.7524 87.0993 48.5981 84.0554 48.0197 83.5305C47.0732 82.6908 44.4439 77.0752 44.4439 77.0752L32.5596 79.9093C32.5596 79.9093 32.8751 86.732 34.1897 88.254C35.5044 89.7759 51.7533 99.0653 51.7533 99.0653L65.0574 116.017L65.8988 115.702C63.8479 113.446 61.5342 109.982 59.5359 105.888Z" fill="#6A4896"/>
<path d="M36.9243 81.5888C33.5588 80.959 30.9295 71.8795 31.1925 70.3051C31.4554 68.7306 37.713 66.3164 37.713 66.3164L41.9725 71.0923C41.9725 71.0923 44.8647 83.1108 36.9243 81.5888Z" fill="#52377C"/>
<path d="M44.8648 85.1053C37.0821 81.0117 31.6658 74.1365 31.2451 70.5152C30.8244 66.9464 32.9805 60.9634 34.7684 60.5435C36.5037 60.1237 40.0269 60.8059 42.3933 63.9549C44.7596 67.1038 47.9147 75.0812 50.2285 76.5507C51.7009 77.5478 44.8648 85.1053 44.8648 85.1053Z" fill="#F2C468"/>
<path d="M39.1858 73.5595C34.8738 69.2559 33.3488 63.7453 35.7678 61.3311C36.0833 61.0162 36.504 60.7538 36.9246 60.5439C36.0833 60.3864 35.2945 60.3864 34.716 60.5439C32.9807 60.9637 30.7721 66.9467 31.1928 70.5155C31.6135 74.0843 37.0824 81.012 44.8125 85.1056C44.8125 85.1056 49.2822 80.1723 50.1762 77.7581C47.4417 78.9127 42.8668 77.2858 39.1858 73.5595Z" fill="#EAA04E"/>
<path d="M45.1273 85.3157C50.5962 88.4647 57.0642 88.4647 58.7995 88.2023C60.5349 87.9399 63.1641 85.8406 62.5857 84.8959C61.9547 83.9512 51.7005 76.6562 49.8074 76.4987C47.8618 76.2888 41.8144 83.3739 45.1273 85.3157Z" fill="#FFA77B"/>
<path d="M59.1153 86.8899C53.9619 86.8899 49.7551 84.7382 49.7551 82.0616C49.7551 80.4871 51.1749 79.1225 53.3835 78.2303C51.7533 77.2332 50.3335 76.4984 49.7551 76.4459C47.8094 76.2885 41.7621 83.3736 45.1275 85.263C50.5964 88.4119 57.0644 88.4119 58.7998 88.1495C59.6937 87.9921 60.9032 87.3623 61.692 86.6275C60.9032 86.8375 60.0092 86.8899 59.1153 86.8899Z" fill="#EA875C"/>
<path d="M73.2082 118.379H64.8471C64.8471 118.379 64.8997 117.33 64.6893 116.49C64.479 115.65 63.9531 114.601 63.9531 114.601L65.4781 113.813C65.4781 113.813 66.0565 115.283 67.0557 115.808C68.0548 116.333 69.0539 117.33 70.2634 117.277C70.7892 117.225 73.0504 116.7 73.2082 118.379Z" fill="#E5D8BD"/>
<path d="M80.7803 118.379H89.1414C89.1414 118.379 89.0888 117.329 89.2465 116.49C89.4569 115.65 89.3517 113.865 89.3517 113.865L87.9319 113.708C87.9319 113.708 87.8793 115.282 86.9328 115.807C85.9337 116.332 84.9345 117.329 83.7251 117.277C83.1992 117.224 80.938 116.7 80.7803 118.379Z" fill="#E5D8BD"/>
<path d="M102.183 118.432H106.863L109.965 115.755C109.965 115.755 109.176 115.073 108.756 114.338C108.283 113.604 107.02 112.396 107.02 112.396L105.916 113.289C105.916 113.289 107.02 114.443 106.705 115.493C106.389 116.543 105.969 117.12 105.127 117.33C104.602 117.435 102.34 116.753 102.183 118.432Z" fill="#E5D8BD"/>
<path d="M32.3491 114.338C33.1379 113.498 34.0318 111.504 34.0318 111.504L35.6094 112.921C35.6094 112.921 34.0844 114.443 34.3999 115.493C34.7155 116.542 35.1361 117.12 35.9249 117.329C36.4508 117.434 38.6594 116.752 38.7645 118.432H34.1896L31.1396 115.755C31.1396 115.755 31.7181 114.968 32.3491 114.338Z" fill="#E5D8BD"/>
<path d="M58.8521 88.2019C61.5339 87.9395 63.427 87.9919 64.952 86.9423C66.4769 85.8926 68.0019 83.0586 68.0019 83.0586L60.4296 83.216L58.8521 88.2019Z" fill="#FFA77B"/>
<path d="M87.6687 80.4873C85.4601 81.432 84.0403 82.9015 81.7266 82.6915C79.9912 82.5341 77.4146 80.6447 77.4146 80.6447L85.0394 77.0234L87.6687 80.4873Z" fill="#FFA77B"/>
<path d="M31.9287 58.9692C32.3494 55.4004 33.9795 50.7295 33.9795 50.7295L39.4484 53.3536L39.6062 59.9139C37.0295 58.6019 34.4528 58.3394 31.9287 58.9692Z" fill="#DD704A"/>
<path d="M41.0784 57.237C39.7637 57.237 34.8733 56.2923 34.5052 54.7704C34.1371 53.2484 33.6112 48.0526 33.769 47.5278C33.9267 47.003 41.6042 44.5363 41.8672 44.6937C42.1827 44.9037 42.5508 57.237 41.0784 57.237Z" fill="#FFA77B"/>
<path d="M36.4509 48.7352C38.344 47.633 40.3422 47.0033 42.1301 46.8983C42.0776 45.6387 42.025 44.7465 41.9198 44.694C41.6569 44.4841 33.9794 47.0033 33.8216 47.5281C33.7165 47.7905 33.8216 49.0501 33.9794 50.5196C34.663 49.8898 35.5044 49.3125 36.4509 48.7352Z" fill="#EA875C"/>
<path d="M31.0349 47.5806C30.8771 49.4175 31.9288 51.8842 32.8228 54.5608L34.19 51.7792L36.5038 51.4643L36.3986 46.2686L31.0349 47.5806Z" fill="#89442C"/>
<path d="M34.7162 49.7849C35.2946 49.4175 35.873 49.0501 36.4515 48.7877L36.3989 46.2686L31.0352 47.5806C30.93 48.8927 31.4033 50.5196 32.0343 52.2515C32.7179 51.3593 33.6119 50.5196 34.7162 49.7849Z" fill="#773826"/>
<path d="M34.9259 49.9424C34.2949 48.9452 33.3483 48.6303 32.9277 49.2076C32.5596 49.7325 32.7173 50.7821 33.2432 51.5693C33.769 52.3041 34.5578 52.6715 35.0311 52.3566C35.5044 51.9892 35.5569 50.8871 34.9259 49.9424Z" fill="#FFA77B"/>
<path d="M34.3475 51.9366C34.0845 51.5692 33.9794 51.0444 34.1897 50.782C34.3475 50.572 34.5578 50.572 34.8207 50.7295C34.7682 50.6245 34.7156 50.4671 34.663 50.3621C34.2423 49.7323 33.6639 49.5224 33.4009 49.8898C33.138 50.2047 33.2432 50.8869 33.6113 51.3593C33.8216 51.7266 34.1371 51.9366 34.3475 51.9366Z" fill="#C15234"/>
<path d="M40.7105 60.334C37.9235 57.9723 34.0847 57.6574 31.508 58.5496C29.4572 59.2843 28.4581 64.1127 28.1426 66.8418C30.7193 60.9638 35.3468 59.6517 38.4493 60.334C39.501 60.5439 40.5002 60.8063 41.4467 61.1737C41.1838 60.8063 40.9734 60.4914 40.7105 60.334Z" fill="#52377C"/>
<path d="M31.1924 59.4413L31.7708 57.1846C31.7708 57.1846 37.8182 58.1817 40.0267 59.3363V60.5434C37.5026 59.7562 32.9277 59.6512 31.1924 59.4413Z" fill="#E8C58E"/>
<path d="M36.5034 59.9141C37.8181 60.0716 39.0801 60.229 40.0266 60.5439V59.3368C39.606 59.1269 39.0275 58.917 38.3439 58.707C37.6077 59.0219 36.9241 59.4418 36.5034 59.9141Z" fill="#F7DBA9"/>
<path d="M42.1828 45.2193L30.9821 47.7909C30.9821 47.7909 30.614 44.1696 31.0347 42.5951C31.4553 41.0732 37.082 39.3412 38.7121 39.7611C40.3949 40.181 42.288 42.5427 42.1828 45.2193Z" fill="#6A4896"/>
<path d="M39.3433 45.7965C36.6089 44.9043 34.9261 42.6476 35.5572 40.8107C35.6623 40.4958 35.8201 40.2334 36.0304 40.0234C33.8744 40.5483 31.3503 41.5979 31.0874 42.6476C30.6667 44.1695 31.0348 47.8433 31.0348 47.8433L39.5011 45.9015C39.3959 45.849 39.3959 45.849 39.3433 45.7965Z" fill="#52377C"/>
<path d="M25.6184 49.4173C24.1986 50.6769 42.1829 45.2188 42.1829 45.2188L31.2451 47.1081C31.2451 47.1081 26.8279 48.2627 25.6184 49.4173Z" fill="#F7DBA9"/>
<path d="M39.0278 71.6699C39.0278 71.6699 42.183 76.1309 47.0734 77.6529L47.757 76.4458C44.8648 75.6586 39.0278 71.6699 39.0278 71.6699Z" fill="#EAA04E"/>
<path d="M51.3854 76.9703C49.2294 78.3349 45.4432 85.6824 45.4432 85.6824C45.4432 85.6824 41.4993 84.3179 40.5528 82.5335C39.6062 80.7491 47.6518 74.871 48.9665 75.0285C50.3337 75.2909 51.3854 76.9703 51.3854 76.9703Z" fill="#F7DBA9"/>
<path d="M66.214 83.1111C65.7407 84.3182 64.2684 85.5253 62.2701 86.26C61.2184 86.6274 60.1667 86.8373 59.2727 86.8373L58.8521 88.2019C61.5339 87.9395 63.427 87.9919 64.952 86.9423C66.4769 85.8926 68.0019 83.0586 68.0019 83.0586L66.214 83.1111Z" fill="#EA875C"/>
<path d="M59.6406 83.9509C61.113 82.9537 63.2164 80.6445 64.0052 79.8573C64.6362 79.175 65.8457 80.2771 65.5302 80.697C64.794 81.5367 64.0052 83.4786 63.269 84.1608C62.5328 84.8431 59.6406 83.9509 59.6406 83.9509Z" fill="#FFA77B"/>
<path d="M85.6705 76.9186C83.9352 76.9711 80.8852 76.3938 79.7283 76.2363C78.8344 76.0789 78.5189 77.7058 79.0447 77.8108C80.0964 78.0207 81.9369 79.1228 82.9361 79.2278C83.8826 79.3328 85.6705 76.9186 85.6705 76.9186Z" fill="#FFA77B"/>
<path d="M41.6044 42.4897C41.4992 42.3848 41.3941 42.3848 41.2889 42.3848C40.8156 42.4897 40.7104 43.6443 40.9734 45.0089C41.026 45.1663 41.026 45.3238 41.0785 45.4287L42.1828 45.1663C42.1828 44.2741 41.9725 43.3294 41.6044 42.4897Z" fill="#F7DBA9"/>
<path d="M41.3935 45.0088C42.7607 45.5336 43.5495 44.3266 43.4443 43.1719C43.3917 42.2797 42.0245 41.9648 42.0245 41.9648C42.0245 41.9648 42.603 42.6996 42.2874 42.962C41.9719 43.2244 41.2883 42.8046 41.2883 42.8046C40.8676 43.3294 41.078 44.1691 41.3935 45.0088Z" fill="#89442C"/>
<path d="M44.6543 77.5479C42.3405 79.3323 40.0794 81.589 40.6052 82.5862C41.5517 84.3706 45.4957 85.7351 45.4957 85.7351C45.4957 85.7351 47.1784 82.4287 48.9663 79.8571C47.0206 79.5947 45.4431 78.7025 44.6543 77.5479Z" fill="#E2C28F"/>
<path d="M50.4917 98.3313C51.2805 98.8037 51.8063 99.0661 51.8063 99.0661L53.121 100.746C54.2253 98.9087 54.9089 97.5966 54.9089 97.5966L52.227 99.0661L52.6477 95.3398L50.4917 98.3313Z" fill="#52377C"/>
<path d="M39.3955 97.2285C39.8162 97.8058 40.0791 98.1732 40.0791 98.1732C40.0791 98.1732 39.8688 98.4881 39.5533 99.0654L43.2342 100.115L41.6041 98.5406L43.7601 97.7533C43.7601 97.8058 41.867 97.8583 39.3955 97.2285Z" fill="#402B68"/>
<path d="M86.1969 78.4922C85.8288 80.0142 83.2522 81.2213 80.0444 81.2213C79.4134 81.2213 78.7298 81.1688 78.1514 81.0638C79.0453 81.6411 80.5703 82.4809 81.6746 82.5858C84.0409 82.8482 85.4082 81.3262 87.6167 80.3816L86.1969 78.4922Z" fill="#EA875C"/>
<path d="M91.7705 54.9808L91.6128 53.1964C91.6128 53.1964 95.0834 48.0532 97.1868 47.7383L98.2386 49.1028C95.8196 50.6773 93.6636 52.6191 91.7705 54.9808Z" fill="#E2C28F"/>
<path d="M99.0806 95.2344L100.29 97.1762L99.1331 98.1209L101.973 98.2259C101.762 97.5436 101.605 97.1237 101.605 96.9663C101.605 96.8089 101.605 96.7039 101.815 95.9691L99.0806 95.2344Z" fill="#5E2335"/>
<path d="M93.1903 94.8672L94.7153 97.4913L92.98 98.1736L95.136 98.541L95.3989 97.8587C95.3989 97.8587 95.6618 97.5963 96.0825 97.0714L93.1903 94.8672Z" fill="#6D293C"/>
<path d="M94.4531 42.0175L96.0833 42.4898C96.0833 42.4898 96.3462 40.9678 96.4514 39.5508C95.1893 39.7082 94.6635 41.1777 94.4531 42.0175Z" fill="#E2C28F"/>
<path d="M95.2944 41.8074L96.0306 41.9123C96.0306 41.9123 96.1358 40.9676 96.1884 40.1279C95.6099 40.3379 95.347 41.2825 95.2944 41.8074Z" fill="#5E311F"/>
<path d="M39.2906 47.3178L37.1346 47.6327C36.9768 47.6327 36.8191 47.8426 36.8716 48.0001L36.9768 48.6823C36.9768 48.8923 37.1872 48.9972 37.3449 48.9972L39.5009 48.6823C39.6587 48.6823 39.8164 48.4724 39.7638 48.315L39.6587 47.6327C39.6587 47.4228 39.5009 47.2653 39.2906 47.3178Z" fill="#89442C"/>
<path d="M42.4462 47.5806L41.2367 47.3706C41.0789 47.3182 40.8686 47.4756 40.8686 47.6331L40.6583 48.3678C40.6057 48.5777 40.7634 48.7352 40.9212 48.7352L42.1307 48.9451C42.2884 48.9976 42.4988 48.8402 42.4988 48.6827L42.6039 48.0004C42.7091 47.7905 42.6039 47.5806 42.4462 47.5806Z" fill="#89442C"/>
<path d="M39.8685 48.8398C40.6047 50.4668 40.4469 51.8313 40.4469 51.8313C40.4469 51.8313 39.6581 51.9888 39.29 51.8838V51.9363L41.0254 52.1987C41.0254 52.1987 41.0254 50.7292 39.8685 48.8398Z" fill="#DD704A"/>
<path d="M38.8171 52.7236L38.7119 53.1435C38.7645 53.1435 39.7636 53.7733 41.3412 53.3534L41.236 53.1435C39.8162 53.5633 38.8171 52.7236 38.8171 52.7236Z" fill="#DD704A"/>
<path d="M40.342 55.9771C40.2894 55.9771 40.2368 55.7672 40.2368 55.4523C40.2368 55.1374 40.2894 54.875 40.342 54.875C40.3946 54.875 40.4472 55.0849 40.4472 55.3998C40.4997 55.7147 40.4472 55.9771 40.342 55.9771Z" fill="#DD704A"/>
<path d="M38.8169 49.1543L37.6074 49.4167C37.6074 49.4692 37.6074 49.4692 37.6074 49.5217C37.6074 50.2039 37.8703 50.7812 38.1859 50.7812C38.5014 50.7812 38.8169 50.2564 38.8169 49.5742C38.8169 49.4167 38.8169 49.2593 38.8169 49.1543Z" fill="#3F3434"/>
<path d="M40.8154 49.207L41.762 49.312C41.762 49.3645 41.762 49.3645 41.762 49.417C41.8671 50.0992 41.7094 50.6765 41.4465 50.729C41.1835 50.7815 40.9206 50.2567 40.8154 49.5744C40.8154 49.4694 40.8154 49.3645 40.8154 49.207Z" fill="#3F3434"/>
<path d="M89.1416 44.7465C89.1416 44.2742 89.2994 43.8543 89.5623 43.9068C89.8252 43.9068 90.0356 44.2742 90.0356 44.799C90.0356 45.3238 89.8778 45.6912 89.6149 45.6387C89.4045 45.5862 89.1942 45.2189 89.1416 44.7465Z" fill="#3F3333"/>
<path d="M86.8804 44.6942C86.8804 44.2219 87.0907 43.8545 87.3536 43.8545C87.6166 43.8545 87.7743 44.2219 87.7743 44.6942C87.7743 45.1666 87.564 45.5339 87.3011 45.5339C87.0907 45.5339 86.8804 45.1666 86.8804 44.6942Z" fill="#3F3333"/>
<path d="M86.039 42.6994L87.5639 42.332C87.6691 42.2795 87.8268 42.3845 87.8268 42.5419L87.8794 43.1192C87.8794 43.2767 87.8269 43.4341 87.6691 43.4341L86.1441 43.8015C86.0389 43.854 85.8812 43.749 85.8812 43.5916L85.8286 43.0143C85.8286 42.9093 85.8812 42.7519 86.039 42.6994Z" fill="#7A4229"/>
<path d="M88.4581 44.3271C87.9848 45.9016 88.1426 47.2662 88.1426 47.2662C88.1426 47.2662 88.721 47.4761 88.984 47.3711V47.4236L87.7219 47.5811C87.7219 47.5811 87.6693 46.1116 88.4581 44.3271Z" fill="#D27558"/>
<path d="M90.1934 48.0003C90.6141 47.4755 90.5089 46.8457 90.5089 46.7932C90.5089 46.6882 90.4037 46.6357 90.2985 46.6357C90.1934 46.6357 90.1408 46.7407 90.1408 46.8457C90.1408 46.8457 90.1934 47.318 89.8779 47.7379C89.6149 48.1053 89.1417 48.3152 88.4581 48.3152C88.3529 48.3152 88.3003 48.4201 88.3003 48.5251C88.3529 48.6301 89.8779 48.4726 90.1934 48.0003Z" fill="#D27558"/>
<path d="M88.3522 50.2575C88.2996 49.9951 88.3522 49.7852 88.4574 49.7852C88.5625 49.7852 88.6151 49.9426 88.6677 50.205C88.7203 50.4674 88.6677 50.6774 88.5625 50.6774C88.5099 50.6774 88.4048 50.4674 88.3522 50.2575Z" fill="#D27558"/>
<path d="M89.0366 42.2803L90.6141 42.5951C90.7719 42.6476 90.8245 42.7526 90.8245 42.91L90.7193 43.4873C90.7193 43.6448 90.5615 43.7498 90.4564 43.6973L88.8788 43.3824C88.7736 43.3299 88.6685 43.2249 88.6685 43.0675L88.7736 42.4902C88.7736 42.3327 88.8788 42.2278 89.0366 42.2803Z" fill="#7A4229"/>
<path d="M287.077 117.538H0C0 117.538 71.9575 120 139.917 120C207.877 120 287.077 117.538 287.077 117.538Z" fill="#E0E0E0"/>
</svg>
