<svg width="30" height="30" viewBox="0 0 45 45" fill="none" xmlns="http://www.w3.org/2000/svg">
<path d="M22.5078 0C10.1051 0 0 10.0897 0 22.4922C0 34.8949 10.1051 45 22.5078 45C34.9105 45 45 34.8949 45 22.4922C45 10.0895 34.9103 0 22.5078 0ZM22.5078 3.9779C32.7606 3.9779 41.0221 12.2389 41.0221 22.4922C41.0221 32.7449 32.7606 41.0221 22.5078 41.0221C12.2551 41.0221 3.9779 32.7455 3.9779 22.4922C3.9779 12.2389 12.2551 3.9779 22.5078 3.9779ZM14.5791 12.5824C14.0497 12.5824 13.5425 12.7938 13.169 13.169C12.3976 13.9448 12.3976 15.1978 13.169 15.9737L19.6913 22.496L13.169 29.0105C12.7939 29.384 12.583 29.8912 12.583 30.4207C12.583 30.9501 12.7939 31.4573 13.169 31.8308C13.5419 32.2048 14.0486 32.4152 14.5769 32.4152C15.1058 32.4152 15.6125 32.2048 15.9854 31.8308L22.5039 25.3085L29.0262 31.8308C29.8021 32.6022 31.0551 32.6022 31.8309 31.8308C32.2061 31.4573 32.417 30.9501 32.417 30.4207C32.417 29.8912 32.2061 29.384 31.8309 29.0105L25.3124 22.496L31.8309 15.9737C32.6023 15.1979 32.6023 13.9448 31.8309 13.169C31.4575 12.7938 30.9502 12.5824 30.4208 12.5824C29.8969 12.5868 29.3958 12.7971 29.0262 13.169L22.5039 19.6835L15.9854 13.169C15.613 12.7944 15.1069 12.5835 14.5791 12.5824H14.5791Z" fill="#447E7F"/>
</svg>
