<svg width="16" height="17" viewBox="0 0 16 17" fill="none" xmlns="http://www.w3.org/2000/svg">
<path fill-rule="evenodd" clip-rule="evenodd" d="M12.7844 7.0927C12.7844 10.0495 10.3874 12.4465 7.43059 12.4465C4.47374 12.4465 2.07674 10.0495 2.07674 7.0927C2.07674 4.13585 4.47374 1.73885 7.43059 1.73885C10.3874 1.73885 12.7844 4.13585 12.7844 7.0927ZM10.8814 12.8279C9.87379 13.4355 8.69301 13.785 7.43059 13.785C3.73453 13.785 0.738281 10.7888 0.738281 7.0927C0.738281 3.39664 3.73453 0.400391 7.43059 0.400391C11.1266 0.400391 14.1229 3.39664 14.1229 7.0927C14.1229 9.04031 13.2909 10.7936 11.963 12.0166L15.2659 15.3195L14.3195 16.2659L10.8814 12.8279Z" fill="#BBBBBB"/>
</svg>
