<svg width="35" height="35" viewBox="0 0 35 35" fill="none" xmlns="http://www.w3.org/2000/svg">
<path d="M17.5 35C22.1412 35 26.5928 33.1562 29.8744 29.8743C33.1562 26.5923 35 22.1411 35 17.5C35 12.8589 33.1562 8.40725 29.8744 5.12565C26.5923 1.84385 22.1412 0 17.5 0C12.8589 0 8.40725 1.84385 5.12565 5.12565C1.84385 8.40773 0 12.8589 0 17.5C0 22.1411 1.84385 26.5928 5.12565 29.8743C8.40773 33.1562 12.8589 35 17.5 35ZM8.41611 17.9613C8.71414 17.6651 9.11736 17.4987 9.53764 17.4987C9.95819 17.4987 10.3611 17.6651 10.6594 17.9613L14.3184 21.6205L23.5297 12.4091C23.9394 12.0584 24.4987 11.939 25.0156 12.0919C25.5329 12.2448 25.9372 12.6494 26.09 13.1663C26.2432 13.6836 26.1236 14.2429 25.7728 14.6525L15.4317 24.9937L15.4319 24.9934C15.1336 25.2898 14.7307 25.456 14.3101 25.456C13.8899 25.456 13.4866 25.2898 13.1886 24.9934L8.41588 20.2207C8.11465 19.9221 7.94527 19.5154 7.94527 19.0911C7.94527 18.6671 8.11466 18.2604 8.41588 17.9616L8.41611 17.9613Z" fill="#447E7F"/>
</svg>
