<svg width="683" height="1063" viewBox="0 0 683 1063" fill="none" xmlns="http://www.w3.org/2000/svg">
<g clip-path="url(#clip0_25806_16160)">
<path d="M650.62 1005.52C651.46 1004.86 652.209 1004.3 652.95 1003.64C653.691 1002.99 654.432 1002.33 655.165 1001.57C655.807 1000.92 656.449 1000.27 656.993 999.633C657.264 999.312 657.635 998.984 657.907 998.663C658.178 998.343 658.549 998.014 658.821 997.693C659.924 996.609 658.297 994.954 657.194 996.039C656.552 996.688 655.811 997.345 655.168 997.994L654.156 998.972L653.143 999.949L652.13 1000.93L651.118 1001.9C650.475 1002.55 649.734 1003.21 648.985 1003.77C647.965 1004.65 649.41 1006.52 650.62 1005.52Z" fill="#AAAAAA"/>
<path d="M665.522 990.981C665.884 990.553 666.156 990.233 666.519 989.806L667.408 988.54C667.672 988.121 668.034 987.693 668.298 987.274C668.561 986.855 668.817 986.337 669.081 985.918C669.246 985.507 669.509 985.087 669.674 984.676C669.839 984.265 670.103 983.846 670.268 983.435C670.432 983.024 670.696 982.605 670.861 982.194C671.026 981.783 671.29 981.363 671.455 980.952C672.229 979.497 669.968 978.59 669.284 979.938C669.119 980.349 668.856 980.769 668.691 981.18C668.427 981.599 668.262 982.01 668.097 982.421L667.504 983.662L666.811 984.912L666.119 986.161C665.856 986.581 665.592 987 665.419 987.312L664.62 988.471C664.356 988.89 664.085 989.211 663.821 989.63C662.718 990.715 664.534 992.255 665.522 990.981Z" fill="#AAAAAA"/>
<path d="M675.017 972.311C675.331 971.292 675.546 970.28 675.76 969.269C675.975 968.257 676.092 967.254 676.208 966.251C676.233 965.354 676.259 964.458 676.383 963.553C676.409 962.657 676.533 961.752 676.559 960.855C676.691 960.05 676.058 959.605 675.466 959.654C674.866 959.604 674.298 959.948 674.165 960.754C674.041 961.659 674.016 962.555 673.899 963.559C673.775 964.463 673.749 965.36 673.633 966.363C673.509 967.268 673.385 968.173 673.268 969.176C673.045 970.089 672.921 970.993 672.698 971.906C672.302 973.131 674.547 973.841 675.017 972.311Z" fill="#AAAAAA"/>
<path d="M677.18 951.463C677.099 950.476 677.108 949.382 677.027 948.395C676.986 947.901 676.938 947.309 676.798 946.824C676.659 946.338 676.61 945.746 676.471 945.261C676.332 944.775 676.2 944.388 676.061 943.903C675.922 943.418 675.791 943.031 675.651 942.546C675.381 941.673 675.011 940.809 674.84 939.929C674.577 939.156 673.87 939.015 673.393 939.253C672.817 939.499 672.364 940.033 672.618 940.708C672.889 941.58 673.159 942.452 673.43 943.325C673.561 943.711 673.7 944.197 673.84 944.682C673.979 945.168 674.11 945.554 674.151 946.048C674.29 946.533 674.421 946.92 674.462 947.414C674.502 947.907 674.634 948.294 674.674 948.787C674.755 949.774 674.829 950.663 674.91 951.65C674.834 953.147 677.211 953.051 677.18 951.463Z" fill="#AAAAAA"/>
<path d="M671.448 931.363C670.98 930.507 670.504 929.553 670.036 928.697C669.568 927.841 668.993 926.895 668.435 926.146C667.876 925.396 667.417 924.639 666.858 923.89C666.299 923.141 665.84 922.384 665.38 921.627C664.575 920.302 662.592 921.558 663.396 922.883C663.856 923.64 664.324 924.496 664.883 925.245C665.441 925.994 665.909 926.85 666.468 927.599C667.026 928.348 667.494 929.204 667.954 929.961C668.414 930.719 668.882 931.575 669.35 932.43C669.957 933.772 672.162 932.795 671.448 931.363Z" fill="#AAAAAA"/>
<path d="M660.358 913.693C659.692 912.853 659.134 912.104 658.469 911.264C657.803 910.425 657.146 909.684 656.398 909.05C655.749 908.407 655.1 907.765 654.36 907.23C654.04 906.958 653.711 906.588 653.391 906.316C653.07 906.044 652.741 905.674 652.421 905.402C651.879 904.85 651.196 905.006 650.833 905.433C650.471 905.86 650.232 906.576 650.774 907.127C651.423 907.77 652.072 908.412 652.73 909.153C653.379 909.795 654.028 910.437 654.685 911.178C655.334 911.82 655.991 912.561 656.641 913.204C657.29 913.846 657.848 914.595 658.505 915.336C659.384 916.357 661.36 915.002 660.358 913.693Z" fill="#AAAAAA"/>
<path d="M645.723 898.897L644.458 898.008L643.192 897.118C642.353 896.591 641.507 895.965 640.578 895.544C639.016 894.679 637.355 893.822 635.884 892.85C634.618 891.96 633.292 893.958 634.558 894.847C636.136 895.91 637.706 896.874 639.375 897.83C640.213 898.357 641.043 898.786 641.783 899.321C642.202 899.585 642.622 899.848 642.942 900.12C643.361 900.384 643.682 900.655 644.101 900.919C644.734 901.364 645.408 901.11 645.771 900.682C646.314 900.041 646.356 899.342 645.723 898.897Z" fill="#AAAAAA"/>
<path d="M628.207 887.718L626.859 887.034L625.511 886.35C624.582 885.929 623.653 885.509 622.732 885.187C621.91 884.857 620.997 884.634 620.175 884.304C619.764 884.14 619.353 883.975 618.843 883.818C618.432 883.653 618.021 883.488 617.61 883.323C616.171 882.746 615.461 884.991 616.801 885.576C617.213 885.741 617.624 885.906 618.133 886.063L619.465 886.549L620.797 887.036L622.129 887.522C622.951 887.852 623.872 888.174 624.703 888.603C625.533 889.031 626.454 889.353 627.292 889.88C627.917 890.226 628.583 889.873 628.839 889.355C628.996 888.846 628.931 888.056 628.207 887.718Z" fill="#AAAAAA"/>
<path d="M608.64 880.583C608.138 880.525 607.636 880.467 607.127 880.31C606.625 880.252 606.123 880.194 605.622 880.136C605.12 880.078 604.618 880.02 604.117 879.962C603.615 879.903 603.121 879.944 602.628 879.985C600.843 880.032 598.959 880.088 597.166 880.037C595.571 879.969 595.568 882.354 597.065 882.43C597.962 882.456 598.957 882.473 599.853 882.499C600.75 882.524 601.745 882.542 602.642 882.567L604.032 882.552L605.43 882.636C605.932 882.694 606.334 882.76 606.828 882.72C607.33 882.778 607.733 882.844 608.234 882.902C609.747 883.175 610.153 880.856 608.64 880.583Z" fill="#AAAAAA"/>
<path d="M587.878 879.509C586.883 879.491 585.887 879.474 584.892 879.456C583.897 879.439 582.902 879.421 581.915 879.503C580.138 879.649 578.353 879.696 576.552 879.546C575.055 879.471 574.946 881.766 576.451 881.94C578.351 882.082 580.242 882.125 582.126 882.069L585.005 882.031C586 882.048 586.888 881.975 587.884 881.993C589.364 881.871 589.465 879.478 587.878 879.509Z" fill="#AAAAAA"/>
<path d="M567.343 878.715C566.347 878.697 565.352 878.68 564.266 878.769C563.271 878.751 562.185 878.841 561.206 879.021C560.326 879.193 559.438 879.266 558.459 879.446C557.579 879.617 556.69 879.691 555.711 879.87C554.921 879.935 554.674 880.552 554.723 881.144C554.87 881.728 555.314 882.288 556.005 882.231C556.893 882.158 557.872 881.978 558.761 881.905C559.649 881.832 560.628 881.652 561.516 881.579L562.898 881.465L564.28 881.352C565.267 881.27 566.164 881.296 567.151 881.215C568.837 881.175 568.938 878.782 567.343 878.715Z" fill="#AAAAAA"/>
<path d="M546.677 881.21C544.719 881.57 542.761 881.93 540.82 882.487C539.174 883.02 537.323 883.47 535.563 883.814C533.991 884.043 534.482 886.387 536.054 886.159C539.78 885.554 543.458 884.357 547.168 883.555C548.633 883.235 548.24 880.883 546.677 881.21Z" fill="#AAAAAA"/>
<path d="M526.525 885.055C524.567 885.415 522.51 885.783 520.667 886.332C519.022 886.865 517.179 887.414 515.41 887.659C513.839 887.888 514.33 890.232 515.901 890.004C519.628 889.399 523.199 888.111 527.016 887.4C528.48 887.08 527.989 884.736 526.525 885.055Z" fill="#AAAAAA"/>
<path d="M506.302 889.303C505.323 889.483 504.352 889.761 503.381 890.04C502.41 890.319 501.439 890.597 500.468 890.876C498.831 891.508 497.095 892.147 495.334 892.491C493.87 892.81 494.46 895.147 495.924 894.828C497.775 894.377 499.519 893.836 501.362 893.287L504.078 892.467C504.95 892.197 505.921 891.918 506.801 891.746C508.348 891.221 507.857 888.877 506.302 889.303Z" fill="#AAAAAA"/>
<path d="M486.359 894.522C484.418 895.079 482.46 895.439 480.534 896.194C478.897 896.825 477.161 897.465 475.408 897.907C473.944 898.227 474.534 900.563 476.097 900.236C477.948 899.785 479.692 899.244 481.527 898.596C483.362 897.949 485.106 897.407 486.949 896.858C488.504 896.432 487.914 894.096 486.359 894.522Z" fill="#AAAAAA"/>
<path d="M466.531 899.93C464.589 900.487 462.639 900.946 460.714 901.7C459.077 902.332 457.34 902.972 455.588 903.414C454.124 903.733 454.714 906.07 456.277 905.742C459.979 904.842 463.427 903.266 467.121 902.266C468.676 901.84 468.086 899.504 466.531 899.93Z" fill="#AAAAAA"/>
<path d="M446.81 905.428C444.868 905.986 442.919 906.444 441.092 907.191C439.454 907.822 437.718 908.462 435.966 908.905C434.51 909.323 435.099 911.659 436.654 911.233C440.357 910.332 443.804 908.756 447.499 907.757C448.955 907.339 448.266 905.01 446.81 905.428Z" fill="#AAAAAA"/>
<path d="M427.006 911.133C425.064 911.69 423.114 912.149 421.288 912.895C419.65 913.527 417.922 914.265 416.162 914.609C414.706 915.027 415.394 917.355 416.85 916.937C420.552 916.036 424 914.461 427.686 913.362C429.151 913.043 428.454 910.616 427.006 911.133Z" fill="#AAAAAA"/>
<path d="M407.193 916.738C405.251 917.295 403.302 917.754 401.475 918.501C399.837 919.132 398.109 919.871 396.357 920.313C394.901 920.731 395.589 923.059 397.046 922.641C400.748 921.741 404.196 920.165 407.882 919.067C409.445 918.739 408.748 916.312 407.193 916.738Z" fill="#AAAAAA"/>
<path d="M387.496 922.533C385.555 923.09 383.605 923.549 381.786 924.394C380.157 925.125 378.421 925.764 376.767 926.199C375.311 926.617 375.999 928.945 377.456 928.527C379.307 928.077 381.043 927.437 382.87 926.69C384.606 926.05 386.441 925.402 388.284 924.853C389.641 924.443 388.953 922.115 387.496 922.533Z" fill="#AAAAAA"/>
<path d="M367.726 928.632C365.792 929.288 363.957 929.936 362.139 930.781C360.517 931.61 358.888 932.341 357.243 932.874C355.794 933.39 356.582 935.711 358.128 935.186C361.708 933.997 365.139 932.224 368.71 930.936C369.385 930.682 369.624 929.967 369.378 929.391C369.132 928.815 368.499 928.37 367.726 928.632Z" fill="#AAAAAA"/>
<path d="M348.431 935.686C346.498 936.342 344.663 936.99 342.844 937.835C341.215 938.565 339.594 939.394 337.948 939.927C336.492 940.345 337.287 942.764 338.735 942.247C340.578 941.698 342.306 940.96 344.026 940.123C345.754 939.384 347.474 938.547 349.309 937.899C350.765 937.481 349.879 935.169 348.431 935.686Z" fill="#AAAAAA"/>
<path d="M329.122 942.542C328.151 942.821 327.188 943.198 326.218 943.477C325.247 943.755 324.284 944.133 323.42 944.502C321.791 945.232 320.055 945.872 318.401 946.306C316.945 946.724 317.633 949.053 319.098 948.733C320.949 948.283 322.677 947.544 324.511 946.896C326.24 946.158 328.074 945.51 329.909 944.862C331.365 944.444 330.57 942.025 329.122 942.542Z" fill="#AAAAAA"/>
<path d="M309.537 948.526C307.596 949.083 305.646 949.542 303.827 950.387C302.19 951.019 300.462 951.757 298.709 952.199C297.253 952.617 297.942 954.946 299.406 954.627C303.1 953.627 306.548 952.051 310.242 951.052C311.69 950.535 310.994 948.108 309.537 948.526Z" fill="#AAAAAA"/>
<path d="M289.753 954.427C287.811 954.985 285.869 955.542 284.042 956.289C282.413 957.019 280.685 957.758 279.031 958.192C277.575 958.61 278.371 961.029 279.827 960.611C281.67 960.062 283.406 959.422 285.134 958.683C286.87 958.044 288.697 957.297 290.54 956.748C291.996 956.33 291.299 953.903 289.753 954.427Z" fill="#AAAAAA"/>
<path d="M270.195 960.708C268.261 961.364 266.32 961.921 264.493 962.668C262.864 963.398 261.136 964.137 259.482 964.571C258.026 964.989 258.722 967.416 260.178 966.998C261.051 966.727 262.021 966.449 262.894 966.178C263.766 965.908 264.728 965.53 265.592 965.161C267.32 964.423 269.155 963.775 270.99 963.127C272.438 962.61 271.643 960.191 270.195 960.708Z" fill="#AAAAAA"/>
<path d="M250.619 966.791C249.648 967.069 248.669 967.249 247.699 967.528C246.728 967.806 245.757 968.085 244.893 968.454C244.021 968.725 243.255 969.086 242.383 969.356C241.511 969.627 240.631 969.799 239.751 969.971C238.969 970.134 238.73 970.85 238.877 971.434C239.025 972.018 239.567 972.57 240.25 972.414C241.229 972.234 242.109 972.062 243.08 971.784C243.952 971.513 244.923 971.234 245.795 970.964C246.667 970.693 247.63 970.316 248.502 970.045C249.374 969.775 250.345 969.496 251.217 969.226C252.764 968.701 252.075 966.373 250.619 966.791Z" fill="#AAAAAA"/>
<path d="M230.712 971.212C229.733 971.391 228.746 971.473 227.767 971.653C226.779 971.734 225.801 971.914 224.822 972.094C223.941 972.266 223.061 972.437 222.173 972.51C221.292 972.682 220.404 972.755 219.507 972.73C217.92 972.761 218.131 975.328 219.612 975.206C220.508 975.231 221.495 975.15 222.474 974.97C223.462 974.889 224.342 974.717 225.321 974.537L228.159 974.005C229.138 973.825 230.018 973.654 230.997 973.474C231.787 973.409 232.026 972.693 231.969 972.002C231.937 971.608 231.493 971.048 230.712 971.212Z" fill="#AAAAAA"/>
<path d="M210.377 972.885C208.403 973.047 206.314 973.021 204.356 973.381C202.587 973.625 200.819 973.87 199.034 973.918C197.446 973.949 197.551 976.425 199.138 976.394C201.022 976.338 202.897 976.184 204.764 975.931C206.632 975.678 208.606 975.515 210.481 975.361C212.069 975.33 211.956 972.755 210.377 972.885Z" fill="#AAAAAA"/>
<path d="M189.881 973.777C187.899 973.841 185.908 973.806 183.835 973.976C182.947 974.049 182.067 974.221 181.17 974.196C180.282 974.269 179.385 974.243 178.489 974.218C176.992 974.142 176.907 976.733 178.494 976.701C179.49 976.719 180.386 976.745 181.373 976.663C182.36 976.582 183.249 976.509 184.244 976.526C186.119 976.372 188.094 976.21 189.977 976.154C191.581 976.32 191.468 973.746 189.881 973.777Z" fill="#AAAAAA"/>
<path d="M169.507 973.764C168.512 973.747 167.509 973.63 166.514 973.613C165.518 973.595 164.523 973.578 163.528 973.561C162.64 973.634 161.743 973.608 160.847 973.582C159.95 973.557 159.054 973.531 158.149 973.407C156.644 973.233 156.353 975.741 157.957 975.907C158.862 976.031 159.865 976.148 160.762 976.173C161.757 976.191 162.653 976.216 163.649 976.234L166.527 976.196C167.523 976.213 168.419 976.239 169.414 976.256C170.911 976.332 171.004 973.84 169.507 973.764Z" fill="#AAAAAA"/>
<path d="M149.175 971.859C148.172 971.743 147.161 971.528 146.256 971.404C145.245 971.189 144.34 971.065 143.345 971.047C142.448 971.022 141.544 970.897 140.738 970.765C139.833 970.641 138.928 970.516 138.114 970.285C136.692 969.905 135.998 972.348 137.52 972.719C138.432 972.942 139.345 973.165 140.349 973.282C141.253 973.406 142.265 973.621 143.169 973.745L145.974 974.011C146.878 974.135 147.882 974.252 148.786 974.376C150.299 974.649 150.689 972.132 149.175 971.859Z" fill="#AAAAAA"/>
<path d="M129.333 967.43C128.412 967.109 127.491 966.787 126.472 966.473C125.551 966.152 124.63 965.83 123.619 965.615C123.216 965.549 122.804 965.384 122.303 965.326C121.892 965.161 121.489 965.095 121.078 964.93C120.256 964.6 119.433 964.27 118.611 963.94C117.888 963.602 117.328 964.046 117.072 964.564C116.825 965.18 116.882 965.871 117.605 966.209C118.436 966.638 119.357 966.96 120.277 967.281C121.198 967.603 122.119 967.925 123.032 968.148C123.945 968.371 124.866 968.692 125.786 969.014C126.699 969.237 127.62 969.559 128.533 969.782C130.07 970.351 130.764 967.909 129.333 967.43Z" fill="#AAAAAA"/>
<path d="M110.793 959.515C109.955 958.988 109.116 958.461 108.286 958.032C107.448 957.505 106.609 956.978 105.68 956.557C104.949 956.12 104.127 955.791 103.288 955.263C102.557 954.827 101.817 954.291 101.077 953.756C99.9102 952.858 98.3865 954.872 99.5535 955.769C100.301 956.404 101.14 956.931 101.879 957.466C102.718 957.994 103.548 958.422 104.387 958.949L105.636 959.642C106.055 959.905 106.466 960.07 106.886 960.334C107.716 960.762 108.546 961.191 109.385 961.718C110.108 962.056 110.676 961.711 111.03 961.185C111.475 960.552 111.418 959.861 110.793 959.515Z" fill="#AAAAAA"/>
<path d="M94.3215 947.753C93.9928 947.382 93.5736 947.119 93.245 946.748L92.1686 945.744C91.4207 945.11 90.7635 944.369 89.917 943.743C88.5363 942.664 87.1393 941.388 85.9398 940.095C84.954 938.984 83.1016 940.627 84.0956 941.837C84.7528 942.578 85.402 943.22 86.0511 943.862C86.7002 944.504 87.448 945.139 88.1958 945.773L90.4393 947.675L91.5158 948.679C91.8363 948.951 92.2636 949.314 92.5841 949.585C93.7674 950.68 95.4966 948.749 94.3215 947.753Z" fill="#AAAAAA"/>
<path d="M80.4866 932.991C79.928 932.242 79.3614 931.394 78.9016 930.637C78.4418 929.88 77.9738 929.024 77.6127 928.259C77.2516 927.493 76.8905 926.728 76.6281 925.955C76.3575 925.083 76.1938 924.301 76.1207 923.413C75.9989 921.932 73.4406 922.242 73.6693 923.813C73.7505 924.8 74.0291 925.771 74.2091 926.75C74.4877 927.721 74.8651 928.684 75.2424 929.646C75.6198 930.609 76.1865 931.457 76.7531 932.305C77.3198 933.152 77.8783 933.901 78.5355 934.642C79.4308 935.861 81.3819 934.209 80.4866 932.991Z" fill="#AAAAAA"/>
<path d="M75.0691 914.257C74.8892 913.278 74.808 912.291 74.7349 911.403C74.6942 910.909 74.6536 910.416 74.613 909.922C74.5724 909.428 74.5318 908.935 74.4912 908.441C74.4181 907.553 74.2462 906.673 74.28 905.875C74.2475 905.48 74.3056 904.978 74.2731 904.584C74.2406 904.189 74.2987 903.687 74.3649 903.284C74.5054 902.577 73.8726 902.132 73.2641 901.983C72.6637 901.933 71.989 902.188 71.8565 902.994C71.7985 903.495 71.7404 903.997 71.6823 904.499C71.6242 905 71.6648 905.494 71.6067 905.996C71.5892 906.991 71.6705 907.978 71.7517 908.965C71.7923 909.458 71.8329 909.952 71.8735 910.446L72.0941 911.918L72.5271 914.764C72.5921 915.554 73.3074 915.793 73.9984 915.736C74.5744 915.49 75.1341 915.047 75.0691 914.257Z" fill="#AAAAAA"/>
<path d="M76.2184 894.387C76.4333 893.375 76.6563 892.462 76.8712 891.451C77.0861 890.439 77.301 889.428 77.3185 888.433C77.4684 886.632 77.5196 884.839 77.9819 883.211C78.2212 882.495 77.6789 881.944 77.0704 881.795C76.4619 881.646 75.6803 881.81 75.5479 882.616C75.0113 884.548 74.8695 886.448 74.629 888.356C74.5047 889.261 74.3804 890.165 74.2561 891.07C74.1318 891.974 73.9169 892.986 73.6938 893.899C73.5614 894.705 74.0956 895.157 74.7041 895.306C75.3044 895.356 75.9792 895.102 76.2184 894.387Z" fill="#AAAAAA"/>
<path d="M81.9052 875.335C82.9598 873.658 84.1212 872.072 85.0607 870.206C85.8273 868.652 86.7831 866.983 87.7552 865.512C88.6448 864.246 86.45 862.936 85.5604 864.202C83.5257 867.251 81.7209 870.679 79.7105 874.025C78.9277 875.381 81.1225 876.691 81.9052 875.335Z" fill="#AAAAAA"/>
<path d="M93.0075 858.123C93.5348 857.285 94.1689 856.537 94.7948 855.69C95.4289 854.943 95.9562 854.104 96.4835 853.266C96.9201 852.534 97.4555 851.795 97.9909 851.055C98.5263 850.315 99.0698 849.674 99.7121 849.025C100.717 847.949 98.8842 846.211 97.7891 847.394C97.1469 848.044 96.5128 848.791 95.9855 849.63C95.3514 850.378 94.8241 851.216 94.2887 851.956L92.6988 854.372C92.1715 855.211 91.6361 855.95 91.1089 856.789C90.6641 857.422 90.9184 858.096 91.4444 858.451C91.8636 858.714 92.5627 858.756 93.0075 858.123Z" fill="#AAAAAA"/>
<path d="M106.146 842.633C106.878 841.877 107.521 841.228 108.262 840.57C109.003 839.913 109.637 839.165 110.271 838.417C110.814 837.776 111.448 837.029 112.091 836.379C112.733 835.73 113.375 835.081 114.025 834.531C115.235 833.537 113.494 831.693 112.284 832.687C110.892 833.894 109.517 835.299 108.241 836.696C106.965 838.093 105.696 839.589 104.313 840.895C103.21 841.98 105.042 843.717 106.146 842.633Z" fill="#AAAAAA"/>
<path d="M120.998 828.69C122.479 827.376 124.068 826.152 125.435 824.648C126.621 823.358 127.905 822.06 129.305 820.951C130.523 820.056 128.97 818.097 127.653 819C126.155 820.117 124.78 821.522 123.397 822.828C122.014 824.135 120.639 825.54 119.248 826.748C118.243 827.824 119.886 829.676 120.998 828.69Z" fill="#AAAAAA"/>
<path d="M136.711 815.571C138.3 814.347 139.897 813.222 141.37 811.809C142.021 811.258 142.663 810.609 143.412 810.051C144.062 809.5 144.811 808.942 145.569 808.482C146.235 808.129 146.17 807.339 145.834 806.87C145.489 806.302 144.864 805.956 144.107 806.416C143.259 806.983 142.51 807.541 141.761 808.1C141.012 808.658 140.271 809.315 139.53 809.973C138.04 811.188 136.657 812.495 135.159 813.612C133.94 814.507 135.493 816.466 136.711 815.571Z" fill="#AAAAAA"/>
<path d="M153.569 804.246C155.281 803.31 157.099 802.465 158.795 801.331C160.202 800.321 161.816 799.393 163.445 798.663C164.885 798.048 163.703 795.76 162.263 796.375C160.543 797.212 158.93 798.14 157.325 799.167C155.72 800.193 154.115 801.219 152.395 802.057C150.963 802.771 152.244 805.05 153.569 804.246Z" fill="#AAAAAA"/>
<path d="M171.778 794.896C173.596 794.051 175.415 793.206 177.119 792.171C178.633 791.251 180.246 790.324 181.777 789.601C183.217 788.986 182.133 786.69 180.693 787.306C177.237 788.783 174.044 791.033 170.604 792.707C169.262 793.315 170.445 795.602 171.778 794.896Z" fill="#AAAAAA"/>
<path d="M190.329 786.016C191.292 785.639 192.148 785.171 193.11 784.794C194.073 784.416 194.929 783.948 195.785 783.48C197.299 782.561 198.92 781.732 200.558 781.1C202.006 780.583 201.013 778.181 199.573 778.796C197.837 779.436 196.125 780.372 194.405 781.209L191.83 782.514C190.974 782.982 190.11 783.351 189.246 783.72C187.814 784.434 188.897 786.73 190.329 786.016Z" fill="#AAAAAA"/>
<path d="M209.146 778.008C210.972 777.261 212.906 776.605 214.725 775.76C216.247 774.939 217.975 774.2 219.621 773.667C220.394 773.405 220.535 772.698 220.289 772.122C220.042 771.546 219.5 770.994 218.727 771.257C217.855 771.527 216.892 771.905 216.02 772.175C215.156 772.544 214.292 772.914 213.428 773.283L210.844 774.489C209.98 774.858 209.116 775.228 208.252 775.597C206.812 776.212 207.706 778.623 209.146 778.008Z" fill="#AAAAAA"/>
<path d="M228.468 771.25C229.438 770.972 230.409 770.693 231.38 770.414C232.351 770.136 233.322 769.857 234.285 769.48C235.922 768.848 237.658 768.208 239.41 767.766C240.875 767.447 240.17 764.921 238.714 765.339C236.863 765.789 235.127 766.429 233.284 766.978L230.577 767.897C229.705 768.167 228.742 768.544 227.862 768.716C227.088 768.979 226.948 769.686 227.095 770.27C227.152 770.961 227.694 771.513 228.468 771.25Z" fill="#AAAAAA"/>
<path d="M248.186 765.752C250.128 765.195 252.078 764.736 253.905 763.989C255.542 763.358 257.27 762.619 259.03 762.276C260.495 761.956 259.79 759.431 258.334 759.849C254.632 760.75 251.184 762.325 247.498 763.424C246.033 763.743 246.73 766.17 248.186 765.752Z" fill="#AAAAAA"/>
<path d="M267.998 760.146C269.94 759.589 271.898 759.229 273.725 758.482C274.498 758.22 275.362 757.851 276.242 757.679C277.114 757.408 277.995 757.236 278.875 757.065C280.446 756.836 279.84 754.302 278.376 754.621C277.495 754.793 276.516 754.973 275.546 755.252C274.575 755.53 273.703 755.801 272.732 756.079C270.889 756.629 269.054 757.277 267.31 757.818C265.845 758.137 266.443 760.572 267.998 760.146Z" fill="#AAAAAA"/>
<path d="M287.899 755.626C289.857 755.266 291.815 754.907 293.748 754.251C295.394 753.718 297.237 753.168 298.907 752.932C300.478 752.703 299.971 750.161 298.407 750.488C294.681 751.093 291.011 752.389 287.301 753.191C285.935 753.502 286.434 755.946 287.899 755.626Z" fill="#AAAAAA"/>
<path d="M308.04 751.584C309.998 751.224 311.956 750.864 313.898 750.307C315.543 749.774 317.386 749.225 319.056 748.988C320.627 748.759 320.12 746.217 318.557 746.544C314.83 747.149 311.161 748.445 307.442 749.149C306.068 749.361 306.568 751.804 308.04 751.584Z" fill="#AAAAAA"/>
<path d="M328.187 747.64C330.145 747.28 332.111 747.019 334.045 746.363C335.69 745.83 337.541 745.38 339.31 745.135C340.881 744.906 340.382 742.463 338.811 742.691C335.084 743.296 331.407 744.493 327.688 745.197C326.216 745.417 326.715 747.861 328.187 747.64Z" fill="#AAAAAA"/>
<path d="M348.447 743.886C350.405 743.526 352.47 743.257 354.313 742.707C355.185 742.437 356.057 742.166 356.937 741.995C357.809 741.724 358.69 741.552 359.57 741.38C361.141 741.152 360.634 738.61 359.071 738.937C358.19 739.109 357.211 739.289 356.331 739.461C355.451 739.632 354.48 739.911 353.6 740.083C351.749 740.533 349.898 740.984 348.038 741.336C346.475 741.663 346.884 744.213 348.447 743.886Z" fill="#AAAAAA"/>
<path d="M368.701 740.033C370.651 739.574 372.617 739.313 374.551 738.657C376.196 738.124 378.039 737.575 379.701 737.24C381.264 736.912 380.666 734.477 379.202 734.796C375.483 735.5 371.913 736.787 368.202 737.59C366.631 737.818 367.138 740.36 368.701 740.033Z" fill="#AAAAAA"/>
<path d="M388.719 735.702C390.669 735.244 392.627 734.884 394.56 734.228C396.206 733.695 398.041 733.047 399.703 732.711C401.266 732.384 400.668 729.949 399.105 730.276C395.386 730.98 391.823 732.366 388.113 733.168C386.755 733.578 387.255 736.022 388.719 735.702Z" fill="#AAAAAA"/>
<path d="M408.808 731.068C410.758 730.609 412.716 730.249 414.641 729.494C416.279 728.863 418.023 728.322 419.775 727.879C421.24 727.56 420.642 725.125 419.177 725.444C417.318 725.796 415.475 726.345 413.739 726.985C411.896 727.534 410.053 728.083 408.301 728.526C406.746 728.952 407.352 731.486 408.808 731.068Z" fill="#AAAAAA"/>
<path d="M428.769 726.047C429.74 725.768 430.71 725.489 431.681 725.211C432.652 724.932 433.623 724.653 434.578 724.177C435.442 723.808 436.207 723.447 437.071 723.078C437.935 722.709 438.7 722.347 439.572 722.077C440.346 721.815 440.486 721.107 440.24 720.531C439.994 719.955 439.452 719.404 438.678 719.666C437.806 719.937 436.843 720.314 435.979 720.683C435.115 721.052 434.243 721.323 433.379 721.692C432.515 722.061 431.643 722.332 430.68 722.709C429.808 722.98 428.846 723.357 427.965 723.529C426.616 724.038 427.312 726.465 428.769 726.047Z" fill="#AAAAAA"/>
<path d="M448.407 719.56C450.341 718.904 452.283 718.347 454.101 717.502C455.73 716.771 457.458 716.033 459.104 715.5C460.56 715.082 459.765 712.663 458.309 713.081C454.721 714.171 451.29 715.944 447.612 717.141C446.164 717.658 446.959 720.077 448.407 719.56Z" fill="#AAAAAA"/>
<path d="M467.844 712.992C469.778 712.336 471.719 711.779 473.538 710.934C475.167 710.203 476.796 709.473 478.541 708.932C479.997 708.514 479.202 706.095 477.745 706.513C474.158 707.603 470.726 709.376 467.147 710.565C465.601 711.09 466.396 713.509 467.844 712.992Z" fill="#AAAAAA"/>
<path d="M487.367 706.317C489.3 705.661 491.234 705.005 492.954 704.168C494.583 703.438 496.204 702.609 497.949 702.068C499.397 701.551 498.511 699.239 497.055 699.657C496.182 699.927 495.318 700.296 494.356 700.674C493.492 701.043 492.628 701.412 491.764 701.782C490.036 702.52 488.316 703.357 486.473 703.906C485.025 704.423 485.82 706.842 487.367 706.317Z" fill="#AAAAAA"/>
<path d="M506.654 699.165C507.616 698.788 508.587 698.509 509.451 698.14C510.414 697.762 511.278 697.393 512.232 696.917C512.99 696.457 513.854 696.088 514.619 695.727C515.483 695.358 516.24 694.898 517.112 694.627C518.56 694.111 517.568 691.708 516.128 692.323C515.264 692.693 514.4 693.062 513.536 693.431C512.672 693.8 511.808 694.17 510.952 694.637L508.368 695.844C507.504 696.213 506.64 696.582 505.776 696.952C504.319 697.37 505.214 699.78 506.654 699.165Z" fill="#AAAAAA"/>
<path d="M525.763 691.034C526.717 690.558 527.573 690.09 528.421 689.523C529.269 688.956 530.116 688.39 530.857 687.732C532.257 686.623 533.648 685.416 535.162 684.496C536.487 683.691 535.025 681.625 533.799 682.422C532.194 683.449 530.696 684.566 529.198 685.683C528.449 686.241 527.7 686.8 526.951 687.358C526.202 687.917 525.346 688.385 524.589 688.845C523.149 689.46 524.331 691.748 525.763 691.034Z" fill="#AAAAAA"/>
<path d="M543.12 679.767C544.815 678.634 546.519 677.599 548.001 676.285C549.293 675.085 550.791 673.968 552.199 672.958C553.524 672.153 552.062 670.087 550.737 670.892C547.527 672.945 544.761 675.558 541.658 677.701C540.333 678.506 541.795 680.572 543.12 679.767Z" fill="#AAAAAA"/>
<path d="M559.934 667.948C560.782 667.382 561.63 666.815 562.371 666.158C563.219 665.591 563.951 664.835 564.692 664.178C565.335 663.529 565.977 662.88 566.619 662.23C567.261 661.581 567.903 660.932 568.554 660.382C569.756 659.289 567.923 657.552 566.812 658.538C566.17 659.187 565.421 659.745 564.778 660.394C564.136 661.044 563.395 661.701 562.753 662.35C562.012 663.007 561.37 663.656 560.621 664.215C559.872 664.773 559.131 665.431 558.382 665.989C557.254 666.778 558.716 668.843 559.934 667.948Z" fill="#AAAAAA"/>
<path d="M575.266 653.768L576.263 652.592L577.259 651.417C577.885 650.571 578.412 649.732 578.939 648.894C579.376 648.162 579.805 647.332 580.332 646.494C580.761 645.663 581.296 644.924 581.831 644.184C582.721 642.918 580.526 641.608 579.727 642.767C579.192 643.507 578.664 644.345 578.228 645.077C577.692 645.817 577.264 646.647 576.737 647.485C576.209 648.324 575.773 649.055 575.139 649.803C574.875 650.222 574.603 650.543 574.34 650.962C574.076 651.381 573.804 651.702 573.434 652.03C572.989 652.663 573.144 653.346 573.671 653.7C574.015 654.268 574.821 654.4 575.266 653.768Z" fill="#AAAAAA"/>
<path d="M586.854 636.417C587.373 635.479 587.801 634.649 588.222 633.72C588.642 632.791 589.063 631.862 589.384 630.941C589.714 630.119 589.937 629.206 590.267 628.384C590.597 627.562 590.919 626.641 591.257 625.918C591.933 624.471 589.573 623.572 588.889 624.92C588.46 625.75 588.139 626.671 587.809 627.493C587.479 628.316 587.157 629.236 586.737 630.165C586.415 631.086 585.987 631.917 585.657 632.739C585.228 633.569 584.906 634.49 584.478 635.32C583.892 636.66 586.079 637.872 586.854 636.417Z" fill="#AAAAAA"/>
<path d="M595.024 617.359C595.346 616.438 595.66 615.419 595.982 614.498C596.295 613.478 596.518 612.566 596.733 611.554C596.857 610.649 597.08 609.737 597.213 608.931C597.436 608.018 597.56 607.113 597.791 606.299C598.163 604.778 595.737 604.282 595.357 605.705C595.134 606.617 594.911 607.53 594.688 608.443C594.465 609.356 594.242 610.268 594.118 611.173C593.895 612.086 593.672 612.999 593.449 613.911C593.226 614.824 592.904 615.745 592.681 616.658C592.096 617.998 594.455 618.897 595.024 617.359Z" fill="#AAAAAA"/>
<path d="M600.13 597.263C600.246 596.26 600.461 595.248 600.577 594.245C600.693 593.242 600.809 592.238 600.827 591.243C600.852 590.347 600.878 589.45 600.903 588.553C600.929 587.657 600.955 586.76 601.079 585.856C601.211 585.05 600.578 584.605 599.986 584.654C599.386 584.604 598.719 584.957 598.579 585.664C598.454 586.569 598.437 587.564 598.313 588.469C598.287 589.365 598.171 590.368 598.145 591.265C598.12 592.161 598.003 593.165 597.978 594.061C597.854 594.966 597.737 595.969 597.613 596.874C597.472 597.581 598.015 598.133 598.615 598.183C599.224 598.331 599.989 597.97 600.13 597.263Z" fill="#AAAAAA"/>
<path d="M601.805 576.554C601.822 575.559 601.733 574.473 601.75 573.478C601.669 572.491 601.58 571.405 601.4 570.426C601.228 569.546 601.056 568.665 600.884 567.785C600.844 567.292 600.713 566.905 600.672 566.411C600.631 565.918 600.5 565.531 600.46 565.037C600.33 563.458 597.779 563.867 597.901 565.347C597.974 566.236 598.154 567.215 598.227 568.103C598.399 568.983 598.48 569.97 598.652 570.851C598.725 571.739 598.905 572.718 598.978 573.606C599.06 574.594 599.133 575.482 599.115 576.477C599.344 578.048 601.836 578.141 601.805 576.554Z" fill="#AAAAAA"/>
<path d="M599.302 555.791C599.162 555.306 599.023 554.82 598.884 554.335C598.744 553.85 598.605 553.364 598.466 552.879C598.326 552.393 598.088 551.916 597.949 551.431C597.81 550.945 597.572 550.468 597.334 549.991C596.964 549.127 596.505 548.369 596.135 547.505C595.905 547.127 595.667 546.649 595.536 546.263C595.306 545.884 595.167 545.399 594.937 545.02C594.223 543.588 592.034 544.762 592.641 546.103C592.871 546.482 593.01 546.968 593.24 547.346C593.47 547.725 593.61 548.21 593.839 548.589C594.209 549.453 594.668 550.21 594.939 551.082C595.308 551.946 595.677 552.81 596.047 553.674C596.317 554.546 596.686 555.41 596.866 556.389C597.194 557.952 599.629 557.354 599.302 555.791Z" fill="#AAAAAA"/>
<path d="M590.289 536.856C589.624 536.016 588.958 535.177 588.301 534.436C588.087 534.255 587.972 534.065 587.759 533.884L587.216 533.333C586.789 532.97 586.46 532.6 586.041 532.336C585.721 532.064 585.302 531.801 584.882 531.537C584.463 531.273 584.143 531.002 583.723 530.738C582.984 530.203 582.244 529.667 581.595 529.025C580.42 528.029 578.888 529.943 579.964 530.948C580.712 531.582 581.353 532.126 582.101 532.76C582.841 533.295 583.589 533.929 584.328 534.465C584.977 535.107 585.717 535.642 586.366 536.284C587.015 536.927 587.673 537.668 588.223 538.318C588.667 538.878 589.357 538.821 589.925 538.476C590.493 538.131 590.741 537.514 590.289 536.856Z" fill="#AAAAAA"/>
<path d="M574.545 523.046C573.699 522.42 572.951 521.786 572.113 521.259C571.266 520.633 570.428 520.106 569.499 519.685C568.668 519.257 567.937 518.82 567.106 518.391C566.276 517.963 565.545 517.526 564.805 516.991C564.172 516.546 563.505 516.899 563.151 517.425C562.797 517.951 562.862 518.741 563.487 519.087C564.226 519.622 565.057 520.051 565.895 520.578C566.725 521.007 567.465 521.542 568.304 522.069C569.142 522.597 569.972 523.025 570.712 523.561C571.55 524.088 572.29 524.623 573.03 525.159C574.287 525.95 575.811 523.936 574.545 523.046Z" fill="#AAAAAA"/>
<path d="M556.848 512.081L555.401 511.405C554.982 511.141 554.472 510.984 553.962 510.828C553.041 510.506 552.014 510.094 551.101 509.871C550.188 509.648 549.374 509.416 548.461 509.193C547.549 508.97 546.735 508.739 545.814 508.417C545.098 508.178 544.547 508.72 544.39 509.23C544.241 509.839 544.397 510.522 545.112 510.761C546.033 511.083 546.847 511.314 547.76 511.537C548.673 511.76 549.593 512.082 550.407 512.313C551.328 512.634 552.142 512.866 553.063 513.187C553.984 513.509 554.806 513.839 555.637 514.267C556.36 514.605 556.92 514.162 557.274 513.636C557.727 513.102 557.571 512.419 556.848 512.081Z" fill="#AAAAAA"/>
<path d="M537.049 505.76C535.125 505.322 533.093 504.793 531.185 504.553C530.281 504.429 529.475 504.296 528.472 504.18C527.567 504.056 526.654 503.833 525.75 503.708C524.236 503.435 523.847 505.952 525.36 506.225C526.265 506.349 527.178 506.572 528.082 506.696C528.485 506.763 528.987 506.821 529.497 506.978L530.911 507.259C532.827 507.598 534.637 507.847 536.561 508.284C537.975 508.566 538.562 506.033 537.049 505.76Z" fill="#AAAAAA"/>
<path d="M516.593 502.375C515.598 502.357 514.595 502.241 513.6 502.223C512.604 502.206 511.609 502.188 510.524 502.278C509.635 502.351 508.747 502.424 507.858 502.497C506.97 502.57 506.073 502.545 505.177 502.519C503.581 502.452 503.694 505.026 505.183 505.003C506.079 505.029 507.074 505.046 507.963 504.973C508.859 504.999 509.846 504.917 510.833 504.836L513.704 504.699C514.691 504.618 515.588 504.644 516.492 504.768C517.907 505.049 518.09 502.45 516.593 502.375Z" fill="#AAAAAA"/>
<path d="M495.826 502.394C494.831 502.377 493.844 502.458 492.758 502.547C491.771 502.629 490.784 502.71 489.797 502.791C488.917 502.963 488.028 503.036 487.148 503.208C486.26 503.281 485.371 503.354 484.483 503.427C482.895 503.458 483.107 506.025 484.694 505.994C485.591 506.019 486.578 505.938 487.557 505.758C488.544 505.677 489.424 505.505 490.411 505.424C492.278 505.171 494.154 505.016 496.128 504.854C497.518 504.839 497.414 502.363 495.826 502.394Z" fill="#AAAAAA"/>
<path d="M475.263 503.689C474.276 503.77 473.289 503.852 472.203 503.941C471.216 504.022 470.237 504.202 469.258 504.382C467.497 504.726 465.737 505.069 463.96 505.216C462.381 505.346 462.682 507.805 464.171 507.782C466.047 507.628 467.914 507.375 469.781 507.122C471.649 506.868 473.508 506.517 475.482 506.354C477.053 506.126 476.842 503.559 475.263 503.689Z" fill="#AAAAAA"/>
<path d="M454.755 505.675C452.78 505.837 450.708 506.008 448.758 506.466C446.997 506.81 445.245 507.252 443.468 507.399C441.889 507.529 442.199 510.087 443.778 509.957C445.653 509.803 447.513 509.451 449.372 509.099C451.231 508.747 453.09 508.396 454.966 508.241C456.636 508.004 456.326 505.446 454.755 505.675Z" fill="#AAAAAA"/>
<path d="M434.388 508.146C432.422 508.408 430.349 508.578 428.407 509.135C426.655 509.578 424.902 510.02 423.125 510.166C421.546 510.296 421.955 512.847 423.526 512.618C425.401 512.464 427.252 512.013 429.112 511.661C430.971 511.31 432.822 510.859 434.689 510.606C436.17 510.484 435.86 507.926 434.388 508.146Z" fill="#AAAAAA"/>
<path d="M413.962 511.119C412.004 511.479 409.931 511.649 407.99 512.207C406.237 512.649 404.485 513.091 402.716 513.336C401.145 513.565 401.644 516.008 403.117 515.788C404.984 515.535 406.835 515.084 408.694 514.732C410.545 514.282 412.405 513.93 414.264 513.578C415.835 513.35 415.525 510.791 413.962 511.119Z" fill="#AAAAAA"/>
<path d="M393.667 514.478C391.709 514.838 389.644 515.108 387.809 515.756C386.164 516.288 384.321 516.838 382.552 517.083C380.981 517.311 381.587 519.845 383.051 519.526C384.911 519.174 386.762 518.724 388.613 518.273C390.464 517.823 392.307 517.274 394.174 517.021C395.639 516.701 395.139 514.258 393.667 514.478Z" fill="#AAAAAA"/>
<path d="M373.439 518.628C372.468 518.906 371.49 519.086 370.519 519.365C369.548 519.644 368.577 519.922 367.614 520.3C366.75 520.669 365.878 520.939 365.113 521.301C364.241 521.571 363.369 521.842 362.595 522.104C361.139 522.522 361.836 524.949 363.292 524.531C364.164 524.261 365.135 523.982 366.007 523.711C366.879 523.441 367.743 523.072 368.714 522.793L371.421 521.875C372.293 521.604 373.264 521.325 374.144 521.154C375.502 520.744 375.002 518.3 373.439 518.628Z" fill="#AAAAAA"/>
<path d="M353.61 524.036C351.668 524.593 349.71 524.953 347.785 525.708C346.147 526.339 344.411 526.979 342.65 527.323C341.186 527.642 341.784 530.077 343.248 529.758C346.959 528.956 350.513 527.471 354.208 526.471C355.762 526.045 355.066 523.618 353.61 524.036Z" fill="#AAAAAA"/>
<path d="M333.668 529.255C331.718 529.714 329.768 530.172 327.843 530.927C326.205 531.559 324.469 532.198 322.717 532.641C321.252 532.96 321.85 535.395 323.413 535.068C325.264 534.617 327.009 534.076 328.844 533.428C330.678 532.78 332.423 532.239 334.266 531.69C335.829 531.363 335.223 528.829 333.668 529.255Z" fill="#AAAAAA"/>
<path d="M313.847 534.761C312.876 535.04 311.905 535.318 310.934 535.597C309.963 535.876 309.001 536.253 308.137 536.622C306.507 537.353 304.779 538.091 303.125 538.525C302.352 538.788 302.212 539.495 302.458 540.071C302.704 540.647 303.238 541.1 303.921 540.944C304.793 540.674 305.665 540.403 306.628 540.026C307.492 539.657 308.364 539.386 309.327 539.009L312.026 537.992C312.89 537.623 313.86 537.344 314.732 537.073C315.991 536.672 315.295 534.245 313.847 534.761Z" fill="#AAAAAA"/>
<path d="M294.207 541.247L292.759 541.764L291.319 542.379C290.356 542.756 289.492 543.126 288.545 543.7C287.788 544.16 286.924 544.53 286.159 544.891C285.394 545.252 284.53 545.621 283.666 545.99C282.991 546.245 282.85 546.952 282.998 547.536C283.244 548.112 283.778 548.565 284.552 548.302C285.416 547.933 286.28 547.564 287.144 547.195C288.008 546.825 288.864 546.358 289.728 545.988L292.311 544.782C292.69 544.552 293.175 544.413 293.653 544.175C294.138 544.035 294.517 543.805 295.002 543.666C296.549 543.141 295.655 540.73 294.207 541.247Z" fill="#AAAAAA"/>
<path d="M275.151 548.778C274.188 549.155 273.217 549.434 272.353 549.803C271.382 550.082 270.419 550.459 269.564 550.927C268.798 551.288 267.934 551.657 267.07 552.027C266.206 552.396 265.334 552.666 264.561 552.929C263.104 553.347 263.801 555.774 265.356 555.348C266.228 555.077 267.199 554.799 268.063 554.429C268.927 554.06 269.791 553.691 270.762 553.412L273.453 552.296C274.317 551.927 275.181 551.558 276.151 551.279C277.386 550.581 276.599 548.261 275.151 548.778Z" fill="#AAAAAA"/>
<path d="M255.693 555.05C253.751 555.607 251.801 556.066 249.974 556.813C248.337 557.444 246.609 558.183 244.849 558.526C243.384 558.846 243.99 561.38 245.545 560.954C247.396 560.503 249.132 559.863 250.967 559.215C252.802 558.567 254.538 557.928 256.381 557.379C257.846 557.059 257.149 554.632 255.693 555.05Z" fill="#AAAAAA"/>
<path d="M235.88 560.656C233.939 561.213 231.989 561.672 230.162 562.418C228.525 563.05 226.788 563.69 225.036 564.132C223.572 564.451 224.178 566.985 225.733 566.559C229.435 565.658 232.883 564.082 236.577 563.083C238.033 562.665 237.435 560.23 235.88 560.656Z" fill="#AAAAAA"/>
<path d="M216.067 566.261C214.126 566.819 212.176 567.277 210.357 568.123C209.592 568.484 208.72 568.754 207.856 569.124C206.992 569.493 206.12 569.763 205.338 569.927C203.882 570.345 204.578 572.772 206.133 572.346C207.005 572.075 207.976 571.797 208.848 571.526C209.721 571.256 210.585 570.887 211.555 570.608C213.292 569.968 215.126 569.32 216.969 568.771C218.319 568.262 217.622 565.835 216.067 566.261Z" fill="#AAAAAA"/>
<path d="M196.387 572.253C195.417 572.532 194.446 572.811 193.475 573.089C192.504 573.368 191.541 573.745 190.677 574.114C189.912 574.476 189.04 574.746 188.176 575.115C187.304 575.386 186.432 575.656 185.658 575.919C184.194 576.238 184.792 578.673 186.355 578.346C188.206 577.895 190.041 577.248 191.777 576.608L194.476 575.591C195.348 575.32 196.311 574.943 197.183 574.672C198.639 574.254 197.844 571.835 196.387 572.253Z" fill="#AAAAAA"/>
<path d="M176.677 577.851C175.698 578.031 174.727 578.309 173.756 578.588C172.786 578.867 171.807 579.046 170.844 579.424C169.972 579.694 169.198 579.957 168.326 580.227C167.454 580.498 166.574 580.67 165.694 580.841C164.221 581.062 164.63 583.612 166.193 583.285C167.172 583.105 168.052 582.933 169.023 582.654C169.895 582.384 170.866 582.105 171.746 581.933C172.618 581.663 173.589 581.384 174.461 581.114C175.333 580.843 176.304 580.564 177.184 580.393C177.966 580.229 178.205 579.514 177.951 578.839C177.993 578.14 177.459 577.687 176.677 577.851Z" fill="#AAAAAA"/>
<path d="M156.734 581.877C156.24 581.917 155.755 582.057 155.261 582.097L153.789 582.318C152.81 582.498 151.823 582.579 150.852 582.858C149.972 583.03 149.091 583.201 148.211 583.373C147.331 583.545 146.442 583.618 145.554 583.691C144.065 583.714 144.178 586.289 145.765 586.258C146.76 586.275 147.641 586.103 148.628 586.022C149.607 585.842 150.495 585.769 151.474 585.589L154.312 585.057C155.291 584.877 156.172 584.706 157.151 584.526C158.607 584.108 158.206 581.656 156.734 581.877Z" fill="#AAAAAA"/>
<path d="M136.408 583.649C135.413 583.631 134.418 583.614 133.431 583.695C132.436 583.678 131.441 583.66 130.462 583.84C129.573 583.913 128.685 583.986 127.788 583.961C126.892 583.935 125.995 583.91 125.099 583.884C124.301 583.85 123.947 584.376 123.905 585.075C123.855 585.676 124.216 586.441 125.014 586.475C125.918 586.599 126.914 586.617 127.909 586.634C128.904 586.652 129.792 586.578 130.788 586.596C131.775 586.515 132.671 586.54 133.658 586.459C134.645 586.378 135.542 586.403 136.529 586.322C137.327 586.356 137.665 585.632 137.616 585.04C137.551 584.25 137.198 583.584 136.408 583.649Z" fill="#AAAAAA"/>
<path d="M116.141 582.534C115.138 582.418 114.126 582.203 113.222 582.079C112.218 581.962 111.215 581.846 110.31 581.722C109.414 581.696 108.509 581.572 107.605 581.448C106.7 581.323 105.886 581.092 104.981 580.968C103.46 580.596 102.865 583.03 104.387 583.402C105.299 583.625 106.212 583.848 107.215 583.964C108.12 584.088 109.123 584.205 110.028 584.329L111.434 584.511L112.841 584.694C113.844 584.81 114.749 584.934 115.752 585.05C117.356 585.217 117.646 582.708 116.141 582.534Z" fill="#AAAAAA"/>
<path d="M96.4083 578.196C95.4874 577.874 94.5665 577.552 93.6456 577.23C92.7248 576.909 91.8039 576.587 90.7924 576.372C89.9784 576.141 89.0656 575.918 88.2435 575.588L87.6268 575.341L87.0102 575.093C86.5991 574.928 86.1881 574.764 85.8676 574.492C84.5194 573.808 83.4149 576.085 84.7631 576.769C85.5933 577.198 86.5223 577.618 87.3445 577.948C88.2654 578.27 89.1863 578.591 90.1071 578.913C90.5182 579.078 91.028 579.235 91.5297 579.293L92.9522 579.673C93.865 579.896 94.794 580.316 95.7067 580.539C97.0387 581.026 97.8308 578.575 96.4083 578.196Z" fill="#AAAAAA"/>
<path d="M78.114 569.664C77.6948 569.4 77.2756 569.136 76.8564 568.873L75.6893 567.975C75.2701 567.711 74.8509 567.448 74.5304 567.176C74.1112 566.912 73.692 566.649 73.2728 566.385C72.5412 565.948 71.8015 565.413 71.0618 564.878C70.3221 564.342 69.6811 563.799 69.032 563.157C68.4897 562.605 67.8069 562.76 67.3458 563.196C66.8848 563.631 66.6455 564.347 67.2946 564.989C67.6232 565.359 67.9437 565.631 68.3711 565.993C68.6997 566.364 69.1189 566.628 69.5381 566.891C70.2859 567.525 71.1243 568.053 71.8722 568.687L74.2887 570.277L75.5463 571.068C75.9655 571.331 76.3847 571.595 76.8039 571.858C78.0615 572.649 79.3716 570.455 78.114 569.664Z" fill="#AAAAAA"/>
<path d="M63.775 556.037C63.5451 555.658 63.2084 555.189 62.9785 554.81C62.7486 554.432 62.4118 553.963 62.1819 553.584C61.952 553.205 61.714 552.728 61.3853 552.358C61.1554 551.979 60.9174 551.502 60.5888 551.131C60.3589 550.753 60.129 550.374 59.899 549.996C59.6691 549.617 59.4392 549.238 59.2093 548.86C58.8482 548.095 58.3803 547.239 58.1179 546.465C57.6012 545.017 55.1903 545.911 55.8138 547.45C56.0843 548.322 56.5604 549.277 56.9297 550.141C57.3976 550.996 57.8655 551.852 58.3335 552.708C58.8014 553.564 59.36 554.313 59.9266 555.161C60.4851 555.91 61.0518 556.758 61.6185 557.606C62.5137 558.824 64.5716 557.263 63.775 556.037Z" fill="#AAAAAA"/>
<path d="M100.804 455.302C102.499 454.168 104.203 453.134 105.685 451.819C107.084 450.71 108.475 449.503 109.998 448.682C111.323 447.877 109.96 445.803 108.626 446.509C107.013 447.437 105.523 448.652 103.927 449.778L101.687 451.552C100.938 452.11 100.189 452.669 99.3416 453.236C98.1234 454.131 99.4866 456.205 100.804 455.302Z" fill="#AAAAAA"/>
<path d="M117.971 444.15C118.826 443.682 119.674 443.115 120.53 442.648C121.386 442.18 122.234 441.613 123.081 441.046C123.46 440.816 123.831 440.488 124.11 440.266C124.489 440.036 124.868 439.806 125.246 439.576C126.003 439.116 126.761 438.657 127.526 438.296C128.867 437.688 127.784 435.392 126.344 436.008C125.48 436.377 124.632 436.944 123.776 437.412C122.92 437.88 122.171 438.438 121.323 439.005L118.969 440.59C118.22 441.148 117.364 441.616 116.517 442.183C115.282 442.881 116.645 444.955 117.971 444.15Z" fill="#AAAAAA"/>
<path d="M135.978 434.718C137.804 433.971 139.73 433.216 141.442 432.28C142.964 431.46 144.684 430.622 146.321 429.991C147.77 429.474 146.884 427.162 145.436 427.679C141.865 428.966 138.54 430.83 134.993 432.414C133.553 433.029 134.538 435.333 135.978 434.718Z" fill="#AAAAAA"/>
<path d="M155.034 427.187C156.861 426.44 158.794 425.784 160.605 424.84C162.127 424.019 163.847 423.182 165.485 422.55C166.933 422.034 165.94 419.631 164.5 420.246C162.764 420.886 161.044 421.723 159.324 422.56C157.604 423.398 155.884 424.235 154.148 424.874C152.7 425.391 153.586 427.703 155.034 427.187Z" fill="#AAAAAA"/>
<path d="M174.13 420.15C176.08 419.691 178.038 419.331 179.963 418.577C180.827 418.207 181.699 417.937 182.563 417.568C183.427 417.198 184.299 416.928 185.164 416.559C186.612 416.042 185.726 413.73 184.278 414.246C183.405 414.517 182.541 414.886 181.669 415.157C180.797 415.427 179.933 415.796 179.061 416.067C177.317 416.608 175.474 417.157 173.623 417.608C171.977 418.141 172.674 420.568 174.13 420.15Z" fill="#AAAAAA"/>
<path d="M193.771 413.663C195.597 412.917 197.531 412.261 199.35 411.416C200.872 410.595 202.6 409.856 204.254 409.422C205.035 409.258 205.176 408.551 205.02 407.868C204.873 407.284 204.232 406.741 203.557 406.995C199.863 407.995 196.44 409.866 192.885 411.351C191.437 411.868 192.331 414.279 193.771 413.663Z" fill="#AAAAAA"/>
<path d="M213.147 407.597C215.097 407.138 217.055 406.779 218.988 406.123C220.626 405.491 222.469 404.942 224.13 404.606C225.693 404.279 225.095 401.844 223.532 402.171C219.822 402.973 216.259 404.36 212.549 405.162C211.084 405.481 211.682 407.916 213.147 407.597Z" fill="#AAAAAA"/>
<path d="M233.122 402.773C235.072 402.315 237.022 401.856 238.947 401.101C240.585 400.47 242.321 399.83 244.073 399.388C245.538 399.068 244.94 396.633 243.377 396.961C239.675 397.862 236.218 399.338 232.516 400.239C231.06 400.657 231.666 403.191 233.122 402.773Z" fill="#AAAAAA"/>
<path d="M253.049 397.357C254.019 397.078 254.99 396.8 255.961 396.521C256.932 396.242 257.895 395.865 258.759 395.496C259.524 395.135 260.388 394.765 261.26 394.495C262.132 394.224 262.898 393.863 263.778 393.691C265.234 393.273 264.537 390.846 263.081 391.264C262.209 391.535 261.238 391.813 260.366 392.084C259.494 392.354 258.63 392.724 257.667 393.101C255.931 393.741 254.104 394.487 252.253 394.938C250.896 395.348 251.6 397.874 253.049 397.357Z" fill="#AAAAAA"/>
<path d="M272.745 391.563C274.687 391.005 276.636 390.547 278.463 389.8C280.101 389.168 281.837 388.529 283.589 388.086C285.053 387.767 284.447 385.233 282.892 385.659C279.19 386.56 275.742 388.136 272.048 389.135C270.592 389.553 271.289 391.98 272.745 391.563Z" fill="#AAAAAA"/>
<path d="M292.565 386.056C294.507 385.498 296.457 385.04 298.283 384.293C299.921 383.662 301.649 382.923 303.401 382.481C304.858 382.063 304.161 379.636 302.705 380.054C299.101 380.946 295.555 382.53 291.869 383.629C290.412 384.047 291.109 386.474 292.565 386.056Z" fill="#AAAAAA"/>
<path d="M312.36 380.252C314.302 379.695 316.243 379.138 318.07 378.391C319.707 377.76 321.436 377.021 323.097 376.685C324.562 376.366 323.964 373.931 322.401 374.258C318.698 375.159 315.152 376.743 311.565 377.833C310.108 378.251 310.805 380.678 312.36 380.252Z" fill="#AAAAAA"/>
<path d="M332.074 374.655C334.016 374.098 335.974 373.738 337.899 372.984C339.537 372.352 341.273 371.712 343.025 371.27C344.489 370.951 343.892 368.515 342.328 368.843C338.626 369.744 335.17 371.221 331.476 372.22C329.921 372.646 330.519 375.082 332.074 374.655Z" fill="#AAAAAA"/>
<path d="M351.901 369.247C352.872 368.969 353.843 368.69 354.814 368.411C355.784 368.133 356.747 367.755 357.702 367.279C358.467 366.918 359.331 366.549 360.195 366.18C361.059 365.81 361.824 365.449 362.697 365.179C364.145 364.662 363.16 362.358 361.811 362.867C360.947 363.236 360.074 363.507 359.21 363.876L357.96 364.376L356.61 364.885L355.261 365.393L353.911 365.902C353.047 366.271 352.175 366.542 351.205 366.82C349.748 367.238 350.445 369.665 351.901 369.247Z" fill="#AAAAAA"/>
<path d="M371.263 361.791C373.081 360.945 375.007 360.191 376.711 359.156C378.225 358.236 379.838 357.309 381.467 356.578C382.907 355.963 381.824 353.667 380.384 354.282C378.656 355.021 376.944 355.957 375.331 356.885C373.619 357.82 372.006 358.748 370.278 359.487C368.838 360.102 369.823 362.406 371.263 361.791Z" fill="#AAAAAA"/>
<path d="M389.935 353.198C390.897 352.821 391.761 352.452 392.724 352.074C393.687 351.697 394.551 351.328 395.407 350.86C396.172 350.499 397.028 350.031 397.793 349.67C398.657 349.3 399.423 348.939 400.295 348.669C401.743 348.152 400.857 345.84 399.401 346.258C398.529 346.529 397.665 346.898 396.801 347.267C395.937 347.636 395.073 348.005 394.208 348.375C393.344 348.744 392.489 349.212 391.625 349.581C390.761 349.95 389.905 350.418 389.041 350.788C387.51 351.51 388.495 353.814 389.935 353.198Z" fill="#AAAAAA"/>
<path d="M408.993 345.667C409.956 345.29 410.82 344.92 411.774 344.444C412.737 344.067 413.593 343.599 414.441 343.032C415.198 342.573 415.955 342.113 416.811 341.645C417.568 341.185 418.432 340.816 419.198 340.455C420.638 339.839 419.456 337.551 418.114 338.159C417.25 338.528 416.394 338.996 415.53 339.365C414.674 339.833 413.819 340.301 413.053 340.662L410.576 341.959C409.72 342.427 408.856 342.796 407.992 343.166C406.659 343.872 407.553 346.282 408.993 345.667Z" fill="#AAAAAA"/>
<path d="M427.739 336.77C428.595 336.302 429.55 335.826 430.405 335.359C431.261 334.891 432.208 334.316 432.957 333.757C433.706 333.199 434.463 332.739 435.212 332.18C435.969 331.72 436.718 331.162 437.484 330.801C438.817 330.095 437.544 327.914 436.211 328.62C435.355 329.088 434.598 329.548 433.75 330.114C432.993 330.574 432.145 331.141 431.396 331.699L429.034 333.186C428.277 333.645 427.421 334.113 426.565 334.581C425.125 335.197 426.307 337.485 427.739 336.77Z" fill="#AAAAAA"/>
<path d="M445.457 326.269C446.304 325.703 447.152 325.136 448 324.569C448.848 324.003 449.695 323.436 450.428 322.68C451.721 321.481 453.211 320.265 454.618 319.255C455.935 318.351 454.383 316.392 453.156 317.189C452.407 317.747 451.658 318.306 450.909 318.864C450.16 319.423 449.411 319.981 448.67 320.638C447.921 321.197 447.18 321.854 446.431 322.413C445.682 322.971 444.933 323.53 444.085 324.096C442.867 324.992 444.23 327.066 445.457 326.269Z" fill="#AAAAAA"/>
<path d="M462.258 314.253C463.846 313.029 465.542 311.896 467.016 310.483C468.308 309.283 469.691 307.977 471.099 306.967C472.317 306.071 470.765 304.112 469.546 305.007C468.048 306.124 466.558 307.34 465.167 308.548C463.776 309.756 462.294 311.07 460.796 312.187C459.578 313.082 461.04 315.148 462.258 314.253Z" fill="#AAAAAA"/>
<path d="M478.605 301.579C480.185 300.256 481.774 299.032 483.141 297.528C483.783 296.879 484.326 296.238 484.969 295.589C485.611 294.94 486.253 294.291 486.904 293.74C487.455 293.198 487.398 292.507 486.963 292.046C486.527 291.585 485.812 291.346 485.26 291.888C484.511 292.447 483.869 293.096 483.128 293.753C482.486 294.402 481.745 295.059 481.103 295.709C479.72 297.015 478.435 298.313 476.945 299.529C475.743 300.622 477.394 302.573 478.605 301.579Z" fill="#AAAAAA"/>
<path d="M493.96 287.694C494.693 286.938 495.434 286.281 496.068 285.533C496.439 285.204 496.801 284.777 497.073 284.457C497.435 284.029 497.707 283.709 497.971 283.29C498.506 282.55 499.041 281.81 499.577 281.071C500.112 280.331 500.754 279.682 501.29 278.942C502.286 277.767 500.363 276.136 499.367 277.312C498.733 278.059 498.09 278.708 497.555 279.448C496.921 280.196 496.386 280.936 495.751 281.683C495.216 282.423 494.582 283.171 493.94 283.82C493.306 284.568 492.663 285.217 492.021 285.866C491.017 286.943 492.857 288.779 493.96 287.694Z" fill="#AAAAAA"/>
<path d="M507.465 271.875C508.091 271.028 508.618 270.19 509.244 269.343C509.771 268.505 510.29 267.568 510.818 266.729C511.246 265.899 511.576 265.077 512.005 264.246C512.433 263.416 512.862 262.586 513.299 261.854C514.081 260.498 511.895 259.287 511.112 260.643C510.585 261.481 510.255 262.304 509.719 263.043C509.291 263.874 508.862 264.704 508.335 265.542C507.906 266.373 507.379 267.211 506.951 268.041C506.423 268.88 505.987 269.611 505.361 270.458C504.463 271.625 506.477 273.149 507.465 271.875Z" fill="#AAAAAA"/>
<path d="M517.697 253.741C517.854 253.231 518.118 252.812 518.274 252.302L518.852 250.864C519.008 250.354 519.173 249.943 519.33 249.433C519.487 248.923 519.545 248.422 519.702 247.912C519.925 246.999 520.057 246.193 520.28 245.28C520.503 244.368 520.734 243.554 520.958 242.641C521.428 241.111 518.994 240.517 518.515 241.947C518.194 242.868 517.971 243.781 517.748 244.694C517.525 245.607 517.302 246.519 517.079 247.432C516.914 247.843 516.856 248.345 516.691 248.756L516.303 250.08L515.816 251.412C515.651 251.823 515.494 252.332 515.329 252.744C514.752 254.182 517.021 255.188 517.697 253.741Z" fill="#AAAAAA"/>
<path d="M523.716 233.867C523.931 232.856 524.154 231.943 524.369 230.931C524.584 229.92 524.7 228.917 524.816 227.913C524.94 227.009 524.966 226.112 525.09 225.208C525.214 224.303 525.339 223.398 525.463 222.494C525.736 220.981 523.22 220.591 522.947 222.105C522.724 223.017 522.599 223.922 522.483 224.925C522.359 225.83 522.243 226.833 522.118 227.738C521.994 228.642 521.878 229.646 521.754 230.55C521.629 231.455 521.414 232.466 521.191 233.379C520.91 234.794 523.344 235.388 523.716 233.867Z" fill="#AAAAAA"/>
<path d="M527.198 213.407C527.314 212.403 527.43 211.4 527.547 210.397C527.663 209.393 527.68 208.398 527.698 207.403C527.723 206.507 527.65 205.618 527.676 204.722C527.701 203.825 527.727 202.929 527.851 202.024C528.026 200.519 525.525 200.327 525.351 201.832C525.227 202.737 525.209 203.732 525.184 204.629C525.158 205.525 525.141 206.52 525.115 207.417L525.046 210.205C525.021 211.102 524.905 212.105 524.78 213.009C524.747 213.807 525.281 214.26 525.881 214.31C526.399 214.566 527.066 214.213 527.198 213.407Z" fill="#AAAAAA"/>
<path d="M528.584 192.821C528.602 191.826 528.611 190.732 528.628 189.737C528.646 188.741 528.557 187.656 528.377 186.677C528.132 184.908 527.78 183.049 527.732 181.264C527.602 179.685 525.143 179.986 525.166 181.475C525.239 182.364 525.32 183.351 525.393 184.239C525.467 185.127 525.548 186.115 525.72 186.995C525.793 187.883 525.874 188.87 525.955 189.857C526.036 190.844 526.011 191.741 525.985 192.637C526.016 194.225 528.615 194.408 528.584 192.821Z" fill="#AAAAAA"/>
<path d="M527.177 172.068C526.916 170.102 526.745 168.029 526.188 166.087C525.917 165.215 525.745 164.335 525.475 163.463C525.204 162.59 525.033 161.71 524.861 160.83C524.697 160.048 523.982 159.809 523.398 159.957C522.813 160.104 522.262 160.646 522.417 161.329C522.589 162.209 522.769 163.188 523.04 164.06C523.211 164.941 523.49 165.912 523.662 166.792C523.834 167.672 524.112 168.643 524.284 169.523C524.464 170.502 524.636 171.382 524.816 172.361C524.847 173.949 527.307 173.647 527.177 172.068Z" fill="#AAAAAA"/>
<path d="M522.721 151.764C522.442 150.793 522.065 149.83 521.786 148.859C521.409 147.897 521.13 146.926 520.662 146.07C519.932 144.441 519.095 142.721 518.562 141.075C518.299 140.302 517.592 140.161 517.016 140.407C516.44 140.653 515.987 141.188 516.25 141.961C516.791 143.705 517.529 145.433 518.276 147.26C519.014 148.988 519.761 150.815 520.302 152.559C520.72 154.015 523.147 153.319 522.721 151.764Z" fill="#AAAAAA"/>
<path d="M515.462 132.386C515.084 131.424 514.715 130.56 514.239 129.605C513.862 128.642 513.394 127.786 512.827 126.939C512.367 126.182 511.907 125.424 511.439 124.568C511.21 124.19 510.98 123.811 510.84 123.326C510.61 122.947 510.479 122.561 510.241 122.083C509.626 120.643 507.338 121.825 507.945 123.167C508.175 123.545 508.315 124.031 508.544 124.409C508.774 124.788 508.914 125.273 509.144 125.652C509.612 126.508 509.981 127.372 510.441 128.129C510.909 128.985 511.368 129.742 511.738 130.606C512.206 131.462 512.575 132.326 512.944 133.19C513.674 134.819 516.077 133.826 515.462 132.386Z" fill="#AAAAAA"/>
<path d="M506.385 113.854C505.917 112.998 505.441 112.044 504.973 111.188C504.505 110.332 503.938 109.484 503.372 108.636C502.813 107.887 502.353 107.13 501.795 106.381C501.236 105.632 500.777 104.875 500.317 104.118C499.512 102.793 497.438 104.156 498.144 105.489C498.612 106.345 499.072 107.102 499.63 107.851C500.09 108.608 500.657 109.456 501.215 110.205L502.8 112.559C503.359 113.308 503.827 114.164 504.196 115.028C504.902 116.361 507.091 115.187 506.385 113.854Z" fill="#AAAAAA"/>
<path d="M495.588 96.1592C495.021 95.3114 494.455 94.4637 493.888 93.6159C493.321 92.7682 492.664 92.0272 491.999 91.1876C491.448 90.5372 490.791 89.7963 490.241 89.1459C489.69 88.4956 489.033 87.7547 488.573 86.9975C487.67 85.6806 485.711 87.2331 486.515 88.5581C487.074 89.3072 487.632 90.0562 488.191 90.8053L489.078 91.9248L489.965 93.0443L491.74 95.2834C492.298 96.0325 492.955 96.7734 493.415 97.5305C494.417 98.8393 496.491 97.4761 495.588 96.1592Z" fill="#AAAAAA"/>
<path d="M483.097 79.5974C482.44 78.8565 481.774 78.0168 481.117 77.2759C480.46 76.535 479.802 75.794 478.948 75.0694C478.307 74.5259 477.559 73.8918 476.91 73.2495C476.261 72.6073 475.612 71.9651 475.061 71.3148C473.977 70.2115 472.231 71.9452 473.217 73.0566C473.874 73.7975 474.523 74.4397 475.172 75.0819C475.822 75.7242 476.471 76.3663 477.219 77.0004C477.868 77.6427 478.525 78.3836 479.174 79.0258C479.823 79.668 480.48 80.4089 481.138 81.1499C481.68 81.7015 482.371 81.6446 482.832 81.2092C483.408 80.963 483.647 80.2477 483.097 79.5974Z" fill="#AAAAAA"/>
<path d="M468.748 64.679C468.001 64.0449 467.245 63.3121 466.489 62.5793C465.741 61.9452 464.894 61.3192 464.048 60.6932C463.308 60.1578 462.576 59.7211 461.837 59.1858C461.097 58.6504 460.357 58.115 459.716 57.5715C458.541 56.575 457.017 58.5886 458.193 59.5851C458.94 60.2192 459.68 60.7545 460.42 61.2899C461.16 61.8253 461.899 62.3607 462.746 62.9867L464.973 64.6916C465.713 65.227 466.461 65.8611 467.11 66.5033C468.194 67.6065 469.932 65.7741 468.748 64.679Z" fill="#AAAAAA"/>
<path d="M393.977 31.5781C392.965 31.3632 391.954 31.1483 391.041 30.9253C390.03 30.7104 389.026 30.5942 388.023 30.478C386.222 30.3281 384.421 30.1782 382.702 29.8228C381.189 29.5498 380.792 31.9676 382.313 32.3392C384.13 32.6866 386.038 32.9271 387.946 33.1675C389.854 33.408 391.762 33.6485 393.58 33.9958C395.002 34.3757 395.49 31.8511 393.977 31.5781Z" fill="#AAAAAA"/>
<path d="M373.705 27.9794C372.701 27.8632 371.69 27.6483 370.687 27.5321C369.683 27.4159 368.68 27.2997 367.685 27.2823C366.788 27.2567 365.892 27.231 364.987 27.1067C364.091 27.0811 363.186 26.9568 362.281 26.8325C360.768 26.5595 360.478 29.0679 361.991 29.3408C362.896 29.4652 363.899 29.5814 364.804 29.7057C365.708 29.83 366.703 29.8475 367.608 29.9718C369.508 30.1136 371.408 30.2554 373.316 30.4958C374.821 30.6701 375.21 28.1537 373.705 27.9794Z" fill="#AAAAAA"/>
<path d="M353.219 25.392C352.216 25.2758 351.212 25.1596 350.217 25.1421C349.214 25.0259 348.218 25.0085 347.223 24.991C345.438 25.0385 343.555 25.0942 341.852 24.9361C340.347 24.7618 340.156 27.2621 341.661 27.4364C342.565 27.5607 343.56 27.5781 344.457 27.6037C345.353 27.6293 346.349 27.6468 347.245 27.6724L350.132 27.733C351.127 27.7505 352.024 27.776 352.928 27.9003C354.532 28.0665 354.823 25.5581 353.219 25.392Z" fill="#AAAAAA"/>
<path d="M332.626 23.9068C331.631 23.8894 330.636 23.8719 329.632 23.7557C328.637 23.7382 327.642 23.7208 326.655 23.802C324.878 23.9482 323.003 24.1025 321.308 24.0432C319.713 23.9758 319.825 26.5502 321.314 26.5271C323.206 26.5702 325.089 26.5146 326.973 26.4589C327.96 26.3777 328.856 26.4033 329.844 26.322C330.839 26.3395 331.727 26.2664 332.722 26.2839C333.52 26.3176 333.866 25.6929 333.916 25.0925C333.777 24.6071 333.424 23.9406 332.626 23.9068Z" fill="#AAAAAA"/>
<path d="M311.954 23.9183C310.959 23.9008 309.972 23.9821 308.878 23.9727C307.891 24.0539 306.904 24.1351 305.826 24.3232C304.946 24.495 304.058 24.5682 303.178 24.74C302.289 24.8131 301.409 24.985 300.512 24.9594C298.925 24.9906 299.136 27.5571 300.724 27.5258C301.612 27.4527 302.599 27.3715 303.487 27.2984C304.475 27.2171 305.363 27.144 306.342 26.964C307.329 26.8828 308.209 26.711 309.196 26.6298C310.183 26.5485 311.072 26.4754 312.067 26.4929C313.548 26.371 313.534 23.7883 311.954 23.9183Z" fill="#AAAAAA"/>
<path d="M291.4 25.3118C290.412 25.393 289.425 25.4743 288.348 25.6623C287.361 25.7436 286.382 25.9235 285.411 26.2022C284.531 26.374 283.65 26.5457 282.778 26.8163C281.898 26.9881 281.018 27.16 280.129 27.2331C278.558 27.4618 278.959 29.9133 280.53 29.6846C281.418 29.6115 282.397 29.4315 283.277 29.2597C284.158 29.0879 285.137 28.908 286.017 28.7361L288.855 28.2044C289.834 28.0244 290.722 27.9514 291.701 27.7714C293.182 27.6496 292.88 25.19 291.4 25.3118Z" fill="#AAAAAA"/>
<path d="M270.874 28.2928C268.916 28.6527 266.859 29.0207 264.918 29.578C263.272 30.1109 261.429 30.6601 259.669 31.0038C258.105 31.3311 258.703 33.7664 260.267 33.439C261.147 33.2671 262.126 33.0872 262.998 32.8167C263.87 32.5461 264.849 32.3662 265.721 32.0957C267.572 31.6452 269.415 31.0961 271.274 30.7443C272.846 30.5156 272.445 28.0641 270.874 28.2928Z" fill="#AAAAAA"/>
<path d="M250.777 32.8288C249.806 33.1075 248.835 33.3862 247.864 33.6648C246.894 33.9435 245.923 34.2221 244.968 34.6982C244.203 35.0593 243.339 35.4285 242.467 35.699C241.603 36.0683 240.731 36.3388 239.957 36.6012C238.509 37.1179 239.296 39.4382 240.752 39.0202C241.625 38.7497 242.497 38.4791 243.459 38.1018C244.332 37.8312 245.196 37.462 246.06 37.0928C247.796 36.453 249.631 35.8051 251.474 35.2559C252.255 35.0922 252.396 34.385 252.24 33.7022C251.994 33.1262 251.46 32.6733 250.777 32.8288Z" fill="#AAAAAA"/>
<path d="M231.154 39.5121C230.191 39.8894 229.228 40.2668 228.372 40.7347C227.418 41.2108 226.554 41.58 225.706 42.1467C225.327 42.3766 224.949 42.6065 224.578 42.9351C224.2 43.165 223.829 43.4936 223.451 43.7235C223.072 43.9534 222.693 44.1833 222.323 44.512C221.944 44.7419 221.566 44.9718 221.187 45.2017C220.529 45.6534 220.487 46.3524 220.93 46.9122C221.275 47.4801 221.991 47.7194 222.559 47.3745C223.316 46.9147 224.172 46.4467 224.929 45.9869L226.065 45.2972L227.299 44.5993C228.056 44.1395 228.912 43.6716 229.768 43.2036C230.624 42.7357 231.488 42.3665 232.352 41.9972C233.018 41.6442 233.159 40.9371 232.913 40.3611C232.461 39.7026 231.828 39.2578 231.154 39.5121Z" fill="#AAAAAA"/>
<path d="M213.271 50.4246C212.53 51.0818 211.691 51.7472 210.95 52.4044C210.209 53.0616 209.476 53.8176 208.842 54.5654C207.664 55.9542 206.487 57.343 205.194 58.5426C204.091 59.6271 205.726 61.3807 206.928 60.288C208.311 58.9817 209.595 57.6835 210.872 56.2865C211.514 55.6374 212.148 54.8896 212.889 54.2324C213.531 53.5832 214.272 52.926 215.021 52.3675C215.581 51.9239 215.516 51.1342 215.08 50.6732C214.637 50.1134 213.921 49.8742 213.271 50.4246Z" fill="#AAAAAA"/>
</g>
<defs>
<clipPath id="clip0_25806_16160">
<rect width="1016.77" height="600" fill="white" transform="translate(84.3906 1062.56) rotate(-94.7046)"/>
</clipPath>
</defs>
</svg>
