<svg width="654" height="808" viewBox="0 0 654 808" fill="none" xmlns="http://www.w3.org/2000/svg">
<g clip-path="url(#clip0_25806_16454)" filter="url(#filter0_dddd_25806_16454)">
<path d="M116.509 268.999C93.5297 210.904 333.102 59.5104 428.77 93.9494C523.848 128.589 555.313 425.609 462.356 460.42C381.413 490.828 177.866 426.748 116.509 268.999Z" fill="#FDFDFD"/>
</g>
<path d="M316.415 342.29C310.528 345.702 310.528 351.316 316.415 354.728L426.527 418.901C432.414 422.313 442.008 422.313 447.895 418.901L558.006 354.728C563.893 351.316 563.893 345.702 558.006 342.29L447.895 278.118C442.008 274.705 432.414 274.705 426.527 278.118L316.415 342.29Z" fill="white"/>
<path d="M437.317 420.002C433.502 420.002 430.013 419.121 427.397 417.69L317.285 353.518C314.887 352.197 313.688 350.436 313.688 348.674C313.688 346.913 314.996 345.152 317.285 343.831L427.397 279.659C430.013 278.118 433.502 277.347 437.317 277.347C441.133 277.347 444.622 278.228 447.238 279.659L557.35 343.831C559.748 345.152 560.947 346.913 560.947 348.674C560.947 350.436 559.639 352.197 557.35 353.518L447.238 417.69C444.622 419.231 441.024 420.002 437.317 420.002Z" fill="#F2F3FF"/>
<path d="M316.416 354.838L426.527 419.011C432.414 422.423 442.008 422.423 447.895 419.011L558.006 354.838C560.841 353.187 562.258 351.096 562.367 348.894V384.998C562.367 387.31 560.95 389.511 558.006 391.273L447.895 455.445C442.008 458.858 432.414 458.858 426.527 455.445L316.416 391.273C313.472 389.511 312.055 387.31 312.055 384.998V348.674C312.055 350.876 313.472 353.077 316.416 354.838Z" fill="url(#paint0_linear_25806_16454)"/>
<path d="M316.416 372.01L426.527 436.183C432.414 439.595 442.008 439.595 447.895 436.183L558.006 372.01C560.841 370.359 562.258 368.268 562.367 366.066V369.919C562.367 372.23 560.95 374.432 558.006 376.193L447.895 440.366C442.008 443.778 432.414 443.778 426.527 440.366L316.416 376.193C313.472 374.432 312.055 372.23 312.055 369.919V365.736C312.055 368.047 313.472 370.249 316.416 372.01Z" fill="url(#paint1_linear_25806_16454)"/>
<path opacity="0.1" d="M470.119 334.707C446.678 320.978 416.891 316.14 403.811 323.724C396.041 328.3 395.782 336.276 401.869 344.776C401.61 344.906 401.48 344.906 401.221 345.037C396.429 347.783 398.113 353.405 404.588 358.766L397.336 362.951L406.66 368.442C406.66 369.881 408.214 371.711 410.934 373.28C413.654 374.849 416.762 375.765 419.223 375.765L423.237 378.118L437.742 369.619C457.557 377.465 478.407 379.295 488.768 373.15C501.977 365.696 493.559 348.437 470.119 334.707Z" fill="black"/>
<path d="M461.312 186.69L464.809 184.729C464.809 184.729 472.062 184.991 474.522 192.444C476.983 200.027 480.35 208.396 481.904 211.011C483.458 213.626 486.696 219.249 487.214 219.249C487.861 219.249 496.409 232.324 496.409 232.324L492.912 242.654C492.912 242.654 480.35 231.932 477.501 228.925C474.652 225.786 468.306 214.934 468.306 214.934L461.312 186.69Z" fill="#376768"/>
<path d="M468.3 214.934L464.156 198.328L469.466 197.674C469.466 197.674 473.869 199.767 473.869 203.297C473.869 206.827 474.776 212.058 476.459 214.281C478.143 216.503 485.007 220.034 485.007 220.034C485.007 220.034 480.345 224.741 478.661 229.971C478.143 229.448 477.754 229.056 477.495 228.794C474.646 225.918 468.3 214.934 468.3 214.934Z" fill="#447E7F"/>
<path d="M463.385 345.167C463.385 345.167 461.054 350.79 462.09 354.32C462.09 354.32 462.608 356.02 464.939 356.805C467.27 357.589 472.45 359.289 473.875 361.25C475.17 363.212 478.925 367.004 483.458 367.657C487.861 368.18 491.099 367.004 490.84 364.389C490.711 362.427 489.545 359.028 485.66 356.282C481.775 353.405 478.666 350.921 477.112 350.659C475.558 350.398 472.709 352.49 472.45 353.797C472.321 355.105 471.026 354.582 468.565 352.49C466.234 350.136 463.385 345.167 463.385 345.167Z" fill="#673A1A"/>
<path d="M490.712 364.911C490.324 367.003 487.345 368.049 483.331 367.526C478.927 367.003 475.172 363.081 473.747 361.119C472.452 359.158 467.272 357.458 464.811 356.674C462.61 356.02 461.962 354.582 461.962 354.32C461.833 355.235 461.703 355.889 461.962 356.674C461.962 356.674 462.48 358.374 464.811 359.158C466.106 359.55 468.308 360.335 470.121 361.25C470.38 360.989 470.768 360.596 471.027 360.204C472.193 360.858 473.1 361.512 473.618 362.165C474.913 364.127 478.668 367.919 483.201 368.572C487.604 369.095 490.842 367.919 490.583 365.304C490.712 365.173 490.712 365.042 490.712 364.911Z" fill="black"/>
<path d="M470.892 249.977C470.892 249.977 475.425 273.251 475.425 286.458C475.425 299.795 475.554 305.025 475.425 313.394C475.295 321.762 476.202 345.037 479.31 351.705C479.31 351.705 474.907 355.628 469.208 354.32C463.51 353.013 460.531 351.182 460.531 351.182C460.531 351.182 462.215 344.775 460.531 337.322C458.848 329.869 457.035 320.454 457.812 311.694C458.589 302.933 459.495 303.064 459.107 297.964C458.718 292.865 446.156 258.084 446.156 258.084L470.892 249.977Z" fill="#2B2B2B"/>
<path d="M446.289 258.084L471.025 249.846C471.025 249.846 471.543 252.2 472.061 255.861C469.73 257.953 465.974 261.614 463.643 266.06C460.017 272.99 456.52 274.559 459.887 281.358C463.384 288.158 466.622 292.865 464.809 296.265C462.995 299.664 461.182 301.495 462.866 305.025C464.55 308.687 460.276 318.232 462.866 328.3C464.809 335.622 468.046 345.56 468.435 354.059C463.384 352.882 460.664 351.182 460.664 351.182C460.664 351.182 462.348 344.775 460.664 337.322C458.981 329.869 457.168 320.455 457.945 311.694C458.722 302.933 459.628 303.064 459.24 297.964C458.722 292.865 446.289 258.084 446.289 258.084Z" fill="#3B3B3B"/>
<path d="M429.199 330.915C430.105 330 432.048 329.738 433.602 332.353C435.156 334.968 436.839 338.237 438.912 340.068C440.984 341.898 442.667 346.083 441.113 347.129C439.559 348.175 435.285 349.352 429.717 346.867C424.148 344.383 423.63 339.414 422.853 337.191C422.076 334.838 416.248 328.431 415.859 327.123C415.859 327.123 417.025 322.023 420.133 319.931C420.133 319.931 420.91 326.208 421.817 328.3C422.594 330.523 426.997 333.138 429.199 330.915Z" fill="#673A1A"/>
<path d="M440.981 347.259C439.427 348.306 435.153 349.482 429.584 346.998C424.015 344.514 423.497 339.545 422.72 337.322C421.943 334.968 416.115 328.561 415.727 327.254C415.727 327.254 415.727 327.254 415.727 327.123C415.468 327.646 415.338 327.908 415.338 328.169C414.95 329.084 414.82 329.738 414.82 329.738C415.079 330.653 417.799 333.922 419.742 336.668L421.166 336.537C421.684 337.322 422.073 337.845 422.202 338.368C422.979 340.722 423.497 345.69 429.066 348.044C434.635 350.528 438.909 349.352 440.463 348.305C440.851 348.044 440.981 347.652 440.981 347.129C441.11 347.129 440.981 347.259 440.981 347.259Z" fill="black"/>
<path d="M457.556 260.699C457.556 260.699 450.174 286.458 447.066 292.865C443.958 299.272 438.907 304.633 436.964 310.255C435.022 315.878 433.986 333.53 433.986 333.53C433.986 333.53 427.899 336.276 423.366 332.223C418.963 328.3 417.668 321.5 417.668 321.5C417.668 321.5 419.481 316.532 420.517 308.817C421.553 301.103 421.683 297.834 425.309 293.388C428.935 288.942 429.712 287.504 429.842 280.705C430.101 273.774 431.396 265.014 432.95 260.437C434.504 255.469 457.556 260.699 457.556 260.699Z" fill="#2B2B2B"/>
<path d="M425.439 293.126C429.065 288.68 429.843 287.242 429.972 280.443C430.231 273.513 431.526 264.752 433.08 260.176C434.634 255.599 457.686 260.699 457.686 260.699C457.686 260.699 457.168 262.529 456.262 265.406L451.341 265.798L434.246 278.612C434.246 278.612 436.706 283.319 432.951 288.942C430.749 292.211 426.605 294.826 423.367 296.395C423.756 295.349 424.533 294.303 425.439 293.126Z" fill="#3B3B3B"/>
<path d="M428.289 197.413L438.779 188.129L457.428 183.683C457.428 183.683 464.162 183.291 467.918 185.775C471.673 188.26 472.968 206.565 472.062 212.711C471.285 218.857 470.378 224.348 470.378 225.002C469.472 233.24 471.155 241.477 472.062 245.792C472.968 250.107 470.767 258.606 459.111 261.745C447.456 264.883 432.044 261.483 432.044 261.483L425.828 212.711L428.289 197.413Z" fill="#447E7F"/>
<path d="M441.628 215.849C443.182 219.249 440.592 218.072 442.405 220.557C444.218 223.041 456.392 230.494 456.392 230.494L453.672 262.66C443.182 263.837 432.044 261.352 432.044 261.352L425.828 212.58L426.087 210.488C430.49 211.404 440.592 213.757 441.628 215.849Z" fill="#376768"/>
<path d="M441.63 179.107C441.63 179.107 442.148 183.553 441.112 185.906C439.947 188.26 444.091 190.744 449.142 192.967C454.192 195.19 455.358 194.013 456.135 193.098C457.689 191.136 457.43 185.252 457.43 185.252L441.63 179.107Z" fill="#D88F69"/>
<path opacity="0.15" d="M458.34 190.483C457.822 187.868 457.304 185.122 457.304 185.122L441.634 179.107C441.634 179.107 442.152 183.553 441.116 185.906C440.727 186.821 440.986 188.391 441.764 190.09L444.224 192.182C444.224 192.182 444.095 186.429 447.073 187.606C449.793 188.652 454.196 190.744 458.34 190.483Z" fill="#D88F69"/>
<path d="M456.137 193.098L461.317 198.198C461.317 198.198 460.799 189.045 460.41 184.86L457.82 183.553C457.691 183.684 456.914 191.006 456.137 193.098Z" fill="#376768"/>
<path d="M443.312 159.885C446.809 157.532 452.507 157.793 456.392 160.408C460.407 163.154 461.443 166.423 461.702 167.861C462.09 169.3 462.479 170.607 462.867 171.653C463.256 172.83 462.09 174.138 462.09 174.138C463.385 175.707 462.349 179.499 462.09 180.414C462.22 180.806 462.349 181.068 462.349 181.199C462.349 181.722 461.961 181.983 461.702 182.114C461.443 183.291 461.184 184.729 461.184 185.383C461.184 186.298 461.313 189.306 457.817 189.306C454.32 189.306 449.269 187.344 446.161 184.729C443.053 182.114 439.686 177.014 438.779 171.915C437.743 166.815 439.815 162.239 443.312 159.885Z" fill="#F2A983"/>
<path d="M462.998 171.654C462.609 170.477 462.221 169.3 461.832 167.862V167.731C459.113 168.123 452.637 169.169 446.032 172.83C445.903 172.83 445.903 172.961 445.773 172.961C446.421 173.746 450.047 176.622 453.803 177.407C456.652 177.93 457.559 175.838 462.221 174.138C462.48 173.746 463.257 172.569 462.998 171.654Z" fill="#D88F69"/>
<path d="M462.224 180.415C461.706 179.238 460.541 177.407 460.152 176.23C459.764 174.661 462.742 173.092 462.742 173.092C462.483 173.746 462.095 174.269 462.095 174.269C463.39 175.838 462.483 179.499 462.224 180.415Z" fill="#D88F69"/>
<path opacity="0.15" d="M443.32 159.885C446.817 157.532 452.515 157.793 456.4 160.408C459.509 162.5 460.804 165.116 461.451 166.685C460.933 167.861 460.156 168.908 459.12 169.038C455.623 169.823 452.386 168.646 450.702 169.169C449.407 169.561 448.76 172.046 448.501 174.399C448.371 176.753 446.946 177.537 447.335 180.022C447.724 182.245 450.832 185.514 451.738 187.867C449.666 187.083 447.594 185.906 446.04 184.598C442.932 181.983 439.565 176.884 438.658 171.784C437.752 166.815 439.824 162.239 443.32 159.885Z" fill="#F2A983"/>
<path d="M447.33 174.923C446.941 175.969 446.553 177.276 445.905 177.668C445.517 177.93 444.74 177.276 444.61 177.015C444.092 176.492 440.855 172.569 440.596 177.407C439.819 175.707 439.171 173.876 438.782 172.046C438.653 171.261 438.523 170.477 438.523 169.823C441.632 171.392 445.387 172.046 447.459 172.177C447.33 173.353 447.459 174.4 447.33 174.923Z" fill="#634024"/>
<path d="M459.764 188.914C459.505 184.599 460.282 182.376 460.282 182.376C460.282 182.245 461.188 182.376 461.706 182.245C461.447 183.422 461.188 184.86 461.188 185.514C461.188 186.168 461.188 188.129 459.764 188.914Z" fill="#D88F69"/>
<path d="M444.741 181.329C444.353 181.591 443.317 181.983 441.374 179.891C439.431 177.799 439.431 175.837 440.467 175.184C441.374 174.53 442.28 174.922 442.799 175.707C443.317 176.491 444.741 181.329 444.741 181.329Z" fill="#F2A983"/>
<path opacity="0.15" d="M444.741 181.329C444.353 181.591 443.317 181.983 441.374 179.891C439.431 177.799 439.431 175.837 440.467 175.184C441.374 174.53 442.28 174.922 442.799 175.707C443.317 176.491 444.741 181.329 444.741 181.329Z" fill="#F2A983"/>
<path d="M439.56 175.838C439.56 175.838 443.445 173.092 446.035 171.784C454.583 167.208 463.001 166.554 463.001 166.554C463.001 166.554 460.022 159.886 457.95 157.401C456.007 155.048 450.05 153.871 444.611 157.14C437.488 161.324 437.617 165.247 437.617 168.646C437.617 170.738 438.265 172.569 439.56 175.838Z" fill="#447E7F"/>
<path d="M463.131 166.554C463.131 166.554 454.713 167.077 446.165 171.784C446.036 171.784 446.036 171.915 445.906 171.915C446.554 172.7 450.18 175.576 453.936 176.361C456.914 176.884 457.691 174.661 463.001 172.961C467.275 171.654 470.253 172.307 470.253 172.307C470.253 172.307 468.699 170.477 466.757 169.038C464.685 167.339 463.131 166.554 463.131 166.554Z" fill="#539596"/>
<path d="M441.501 183.683C441.501 183.683 446.552 191.136 456.135 193.097L454.711 201.204C454.711 201.204 441.242 191.659 438.781 188.129L441.501 183.683Z" fill="#376768"/>
<path d="M402.516 262.921L426.863 277.174V245.139L402.516 230.886V262.921Z" fill="#B39372"/>
<path d="M426.867 245.139V277.174L451.214 262.921V230.886L426.867 245.139Z" fill="#CCAC88"/>
<path d="M402.516 230.886L426.863 245.138L451.21 230.886L426.863 216.764L402.516 230.886Z" fill="#D9B995"/>
<path d="M415.858 238.731L440.335 224.479L438.133 223.302L413.656 237.424L415.858 238.731Z" fill="#FFFFEB"/>
<path opacity="0.1" d="M406.922 233.501L416.635 239.254L443.054 226.179L426.866 216.764L406.922 233.501Z" fill="black"/>
<path d="M415.858 249.976V238.731L413.656 237.424V248.669L415.858 249.976Z" fill="#E6CFB5"/>
<path d="M436.577 246.446L429.195 250.891V246.577L436.577 242.131V246.446Z" fill="#E2E9ED"/>
<path d="M436.317 243.177L429.453 247.1V246.838L436.317 242.915V243.177Z" fill="#758286"/>
<path d="M436.317 243.962L429.453 247.884V247.492L436.317 243.569V243.962Z" fill="#758286"/>
<path d="M436.317 244.746L429.453 248.668V248.276L436.317 244.353V244.746Z" fill="#758286"/>
<path d="M432.95 247.1L429.453 249.061V249.323L432.95 247.361V247.1Z" fill="#758286"/>
<path d="M412.619 263.052L412.489 262.921L412.619 263.052C412.101 262.791 411.712 262.791 411.453 263.052H411.583C411.712 263.052 411.842 263.314 411.842 263.444C411.842 263.314 411.971 263.314 412.101 263.314C412.23 263.314 412.36 263.575 412.36 263.706C412.36 263.575 412.489 263.575 412.619 263.575C412.748 263.575 412.878 263.837 412.878 263.967C412.878 263.837 413.007 263.837 413.137 263.837C413.266 263.837 413.396 264.098 413.396 264.229C413.396 264.098 413.525 264.098 413.655 264.098L413.784 264.229C413.396 263.837 413.007 263.314 412.619 263.052Z" fill="black"/>
<path d="M412.492 265.929L412.622 266.06V263.706H412.492V265.929Z" fill="black"/>
<path d="M412.232 266.191C412.103 266.06 411.973 265.929 411.973 265.798H411.844C411.844 265.929 412.103 266.321 412.232 266.191C412.491 266.452 412.621 266.321 412.621 266.06H412.491C412.491 266.321 412.362 266.321 412.232 266.191Z" fill="black"/>
<path d="M408.078 260.307V261.614C408.078 262.137 408.467 262.66 408.855 262.922C409.244 263.183 409.632 262.922 409.632 262.53V261.222L408.078 260.307Z" fill="black"/>
<path d="M408.985 264.229V263.053H408.855V264.099L408.596 263.968L408.078 263.837V263.968L409.632 264.883V264.753L409.114 264.36L408.985 264.229Z" fill="black"/>
<path d="M404.195 261.353V261.745L406.526 263.052V262.66L404.195 261.353Z" fill="black"/>
<path d="M405.751 262.137L406.01 262.268V260.045H406.269L405.881 258.999L405.492 259.653L405.751 259.784V262.137Z" fill="black"/>
<path d="M404.712 261.483L404.971 261.745V259.391L405.101 259.522L404.842 258.345L404.453 259.13L404.712 259.26V261.483Z" fill="black"/>
<path d="M414.038 267.76L410.93 265.929V261.483L414.038 263.314V267.76ZM411.059 265.929L413.908 267.629V263.445L411.059 261.745V265.929Z" fill="black"/>
<path d="M410.405 265.667L407.297 263.836V259.39L410.405 261.221V265.667ZM407.426 263.705L410.276 265.405V261.221L407.426 259.521V263.705Z" fill="black"/>
<path d="M406.913 263.576L403.805 261.745V257.299L406.913 259.13V263.576ZM403.934 261.614L406.783 263.314V259.13L403.934 257.43V261.614Z" fill="black"/>
<path d="M413.654 275.082C412.1 274.559 410.676 272.728 409.64 268.021C408.604 263.314 415.338 264.621 415.338 264.621L415.856 266.321C415.856 266.321 417.928 267.237 418.446 268.413C418.964 269.459 422.979 273.251 422.59 274.036C422.331 274.559 420.648 275.866 418.058 275.736C415.597 275.605 414.949 275.474 413.654 275.082Z" fill="#F2A983"/>
<path d="M430.62 197.413C426.865 195.059 418.965 206.827 411.972 219.118C404.978 231.409 406.403 233.24 406.273 236.116C405.885 248.669 409.64 268.544 409.77 268.936C409.77 268.936 411.713 269.459 416.245 265.275C416.245 265.275 417.799 239.516 417.67 237.424C417.67 237.424 433.081 215.065 435.542 212.319C438.002 209.704 435.93 200.682 430.62 197.413Z" fill="#447E7F"/>
<path d="M416.504 272.336C417.022 271.552 419.224 273.644 420.389 274.297C420.778 274.559 421.296 274.69 421.684 274.82C420.907 275.343 419.612 275.736 418.058 275.736C416.374 275.605 415.597 275.605 414.82 275.474C415.727 274.428 416.115 272.99 416.504 272.336Z" fill="#D88F69"/>
<path d="M474.266 258.345L494.469 249.845L505.995 213.103L485.662 221.602L474.266 258.345Z" fill="#414E52"/>
<path d="M491.227 220.164L492.133 217.549L500.421 214.018L499.644 216.633L491.227 220.164Z" fill="#930363"/>
<path d="M498.485 233.241C498.485 233.241 496.93 234.548 497.189 235.202C497.578 235.986 498.226 236.117 498.226 236.117C498.226 236.117 497.189 236.64 496.801 237.425C496.412 238.209 497.448 238.994 497.448 238.994C497.448 238.994 495.765 239.255 495.765 240.301C495.765 241.347 496.283 241.609 496.283 241.609C496.283 241.609 495.376 242.393 495.247 243.047C495.117 243.57 497.707 244.486 498.355 244.093C499.003 243.701 500.945 242.394 500.945 241.609C500.945 241.609 502.24 241.086 502.499 239.778C502.499 239.778 503.147 239.125 503.017 237.817C502.888 236.379 502.629 235.856 502.629 235.856C502.629 235.856 503.665 235.856 503.794 234.417C503.924 232.979 500.298 230.233 500.298 230.233L498.485 233.241Z" fill="#F2A983"/>
<path d="M501.202 232.456C500.814 232.717 499.907 232.848 498.871 232.848L500.296 230.625C500.943 231.018 501.85 231.933 501.202 232.456Z" fill="#D88F69"/>
<path d="M495.893 240.301C495.893 239.255 497.577 238.994 497.577 238.994C497.577 238.994 496.541 238.078 496.929 237.425C497.188 236.902 497.836 236.509 498.095 236.248C500.296 236.248 502.887 235.725 502.887 235.725C502.887 235.725 503.146 236.248 503.275 237.686C503.405 239.124 502.757 239.647 502.757 239.647C502.498 240.955 501.203 241.478 501.203 241.478C501.203 242.263 499.26 243.57 498.613 243.962C497.965 244.355 495.375 243.439 495.505 242.916C495.634 242.393 496.541 241.478 496.541 241.478C496.541 241.478 495.893 241.347 495.893 240.301Z" fill="#D88F69"/>
<defs>
<filter id="filter0_dddd_25806_16454" x="-60.1934" y="-6.87757" width="811.469" height="865.515" filterUnits="userSpaceOnUse" color-interpolation-filters="sRGB">
<feFlood flood-opacity="0" result="BackgroundImageFix"/>
<feColorMatrix in="SourceAlpha" type="matrix" values="0 0 0 0 0 0 0 0 0 0 0 0 0 0 0 0 0 0 127 0" result="hardAlpha"/>
<feOffset dy="9.8251"/>
<feGaussianBlur stdDeviation="8.35134"/>
<feColorMatrix type="matrix" values="0 0 0 0 0 0 0 0 0 0 0 0 0 0 0 0 0 0 0.0168519 0"/>
<feBlend mode="normal" in2="BackgroundImageFix" result="effect1_dropShadow_25806_16454"/>
<feColorMatrix in="SourceAlpha" type="matrix" values="0 0 0 0 0 0 0 0 0 0 0 0 0 0 0 0 0 0 127 0" result="hardAlpha"/>
<feOffset dy="43.2305"/>
<feGaussianBlur stdDeviation="17.2922"/>
<feColorMatrix type="matrix" values="0 0 0 0 0 0 0 0 0 0 0 0 0 0 0 0 0 0 0.0274815 0"/>
<feBlend mode="normal" in2="effect1_dropShadow_25806_16454" result="effect2_dropShadow_25806_16454"/>
<feColorMatrix in="SourceAlpha" type="matrix" values="0 0 0 0 0 0 0 0 0 0 0 0 0 0 0 0 0 0 127 0" result="hardAlpha"/>
<feOffset dy="106.111"/>
<feGaussianBlur stdDeviation="34.4861"/>
<feColorMatrix type="matrix" values="0 0 0 0 0 0 0 0 0 0 0 0 0 0 0 0 0 0 0.035 0"/>
<feBlend mode="normal" in2="effect2_dropShadow_25806_16454" result="effect3_dropShadow_25806_16454"/>
<feColorMatrix in="SourceAlpha" type="matrix" values="0 0 0 0 0 0 0 0 0 0 0 0 0 0 0 0 0 0 127 0" result="hardAlpha"/>
<feOffset dy="204.362"/>
<feGaussianBlur stdDeviation="67.5967"/>
<feColorMatrix type="matrix" values="0 0 0 0 0 0 0 0 0 0 0 0 0 0 0 0 0 0 0.0425185 0"/>
<feBlend mode="normal" in2="effect3_dropShadow_25806_16454" result="effect4_dropShadow_25806_16454"/>
<feBlend mode="normal" in="SourceGraphic" in2="effect4_dropShadow_25806_16454" result="shape"/>
</filter>
<linearGradient id="paint0_linear_25806_16454" x1="312.042" y1="403.256" x2="562.534" y2="403.256" gradientUnits="userSpaceOnUse">
<stop stop-color="#E9E9E9"/>
<stop offset="1" stop-color="#B7B7B7"/>
</linearGradient>
<linearGradient id="paint1_linear_25806_16454" x1="562.534" y1="404.351" x2="312.042" y2="404.351" gradientUnits="userSpaceOnUse">
<stop stop-color="#70B1B3"/>
<stop offset="1" stop-color="#2D5A5A"/>
</linearGradient>
<clipPath id="clip0_25806_16454">
<rect width="371.538" height="420" fill="white" transform="translate(75 333.147) rotate(-63.7235)"/>
</clipPath>
</defs>
</svg>
