<svg width="616" height="808" viewBox="0 0 616 808" fill="none" xmlns="http://www.w3.org/2000/svg">
<g clip-path="url(#clip0_25806_16545)" filter="url(#filter0_dddd_25806_16545)">
<path d="M537.573 268.999C560.552 210.904 320.98 59.5105 225.312 93.9495C130.234 128.589 98.7685 425.609 191.726 460.42C272.669 490.828 476.216 426.748 537.573 268.999Z" fill="#FDFDFD"/>
</g>
<path d="M347.66 336.503C353.587 339.939 353.587 345.59 347.66 349.025L236.809 413.629C230.882 417.064 221.224 417.064 215.297 413.629L104.446 349.025C98.5194 345.59 98.5194 339.939 104.446 336.503L215.297 271.899C221.224 268.464 230.882 268.464 236.809 271.899L347.66 336.503Z" fill="white"/>
<path d="M225.942 414.737C229.783 414.737 233.295 413.851 235.929 412.41L346.78 347.806C349.195 346.477 350.402 344.704 350.402 342.931C350.402 341.158 349.085 339.385 346.78 338.055L235.929 273.451C233.295 271.9 229.783 271.124 225.942 271.124C222.1 271.124 218.588 272.01 215.954 273.451L105.103 338.055C102.688 339.385 101.481 341.158 101.481 342.931C101.481 344.704 102.798 346.477 105.103 347.806L215.954 412.41C218.588 413.851 222.21 414.737 225.942 414.737Z" fill="#F2F3FF"/>
<path d="M347.657 349.025L236.805 413.629C230.879 417.064 221.22 417.064 215.294 413.629L104.442 349.025C101.589 347.363 100.162 345.257 100.052 343.041V379.388C100.052 381.715 101.479 383.931 104.442 385.704L215.294 450.308C221.22 453.743 230.879 453.743 236.805 450.308L347.657 385.704C350.62 383.931 352.047 381.715 352.047 379.388V342.82C352.047 345.036 350.62 347.363 347.657 349.025Z" fill="url(#paint0_linear_25806_16545)"/>
<path d="M347.657 366.312L236.805 430.916C230.879 434.351 221.22 434.351 215.294 430.916L104.442 366.312C101.589 364.65 100.162 362.545 100.052 360.328V364.207C100.052 366.534 101.479 368.75 104.442 370.523L215.294 435.127C221.22 438.562 230.879 438.562 236.805 435.127L347.657 370.523C350.62 368.75 352.047 366.534 352.047 364.207V359.996C352.047 362.323 350.62 364.65 347.657 366.312Z" fill="url(#paint1_linear_25806_16545)"/>
<path opacity="0.1" d="M156.566 332.87L197.861 308.781L239.155 332.87L238.238 333.4C247.545 332.208 256.197 333.135 261.834 336.444C272.846 342.797 268.389 355.768 252.134 365.166C235.878 374.696 213.723 377.21 202.711 370.857C196.943 367.548 195.501 362.386 197.599 356.959L156.566 332.87Z" fill="black"/>
<path d="M175.18 236.646C175.18 236.646 174.263 237.969 174.787 239.69C175.311 241.411 176.229 242.734 178.195 243.925C180.031 244.984 183.701 246.308 185.012 246.308C186.323 246.308 191.305 246.308 191.305 246.308L185.012 239.293L175.18 236.646Z" fill="#D88F69"/>
<path d="M173.082 232.675L201.267 255.573L209.133 206.733L180.948 183.967L173.082 232.675Z" fill="#CBAB87"/>
<path d="M201.27 255.573L229.455 232.542L237.32 183.834L207.169 206.203L201.27 255.573Z" fill="#B39372"/>
<path d="M180.95 183.967L209.135 206.733L237.32 183.835L211.364 163.187L180.95 183.967Z" fill="#D9B995"/>
<path d="M226.965 175.629L229.98 178.011L199.305 198.791L196.683 196.673L226.965 175.629Z" fill="#FFFFEB"/>
<path d="M242.957 258.616C242.957 258.616 241.384 282.97 241.908 289.588C242.433 296.206 246.497 307.589 246.497 313.016C246.497 318.442 246.103 331.943 246.497 336.311C246.89 340.679 245.579 347.958 245.579 347.958C245.579 347.958 237.451 350.341 236.271 349.15C235.092 347.958 230.372 339.355 230.372 339.355C230.372 339.355 230.372 316.192 228.406 307.457C226.439 298.589 224.211 295.015 222.9 287.868C221.589 280.72 218.312 243.792 218.312 243.792L242.04 243.395L242.957 258.616Z" fill="#2B2B2B"/>
<path d="M225.128 296.471C224.21 293.824 223.424 291.176 222.768 287.868C221.457 280.72 218.18 243.792 218.18 243.792L241.908 243.395L242.039 245.38C239.417 247.366 232.731 252.263 231.552 253.984C229.978 256.101 223.948 287.206 225.128 296.471Z" fill="#3C3C3C"/>
<path d="M245.056 348.62C245.056 348.62 245.712 353.252 245.056 354.047C244.401 354.841 239.419 356.032 235.88 355.37C232.34 354.708 235.487 348.223 235.487 348.223L245.056 348.62Z" fill="#000508"/>
<path d="M245.056 347.429C245.056 347.429 245.712 352.061 245.056 352.856C244.401 353.65 239.419 354.841 235.88 354.179C232.34 353.517 235.487 347.032 235.487 347.032L245.056 347.429Z" fill="#673A1A"/>
<path d="M225.519 348.356C225.388 348.488 225.65 352.327 224.47 353.915C223.29 355.503 220.93 357.886 220.799 358.945C220.668 360.136 220.93 361.327 220.93 361.327C220.93 361.327 221.061 361.856 224.208 360.268C227.485 358.548 228.403 354.842 229.451 353.253C230.5 351.533 235.613 346.503 239.021 345.444C242.036 344.518 242.43 345.047 242.43 345.047C242.43 345.047 238.497 338.297 236.53 337.105C234.564 336.047 235.088 337.238 232.991 339.091C231.156 341.076 227.878 343.856 225.519 348.356Z" fill="#673A1A"/>
<path d="M224.608 361.195C227.885 359.474 228.803 355.768 229.851 354.18C230.376 353.386 231.687 351.798 233.26 350.342L238.766 351.4C238.766 351.4 236.668 352.327 236.537 353.783C236.406 355.636 236.537 358.018 234.964 358.548C232.211 359.607 223.952 361.989 222.248 362.254C222.772 362.121 223.559 361.724 224.608 361.195Z" fill="black"/>
<path d="M224.34 360.268C227.618 358.547 228.535 354.841 229.584 353.253C230.633 351.532 235.745 346.503 239.154 345.444C242.169 344.517 242.562 345.047 242.562 345.047C242.562 345.047 242.562 345.047 242.562 344.915L243.742 348.224C243.48 348.091 242.693 348.224 241.776 348.356C238.892 348.885 234.172 352.327 232.73 353.253L232.075 353.518L231.419 352.194C230.633 352.988 230.108 353.65 229.846 354.18C228.798 355.9 227.88 359.606 224.603 361.195C221.325 362.915 221.325 362.254 221.325 362.254C221.325 362.254 221.194 361.856 221.194 361.327C221.325 361.459 222.112 361.459 224.34 360.268Z" fill="#1A1F22"/>
<path d="M232.337 353.518C232.337 353.518 238.498 348.885 241.775 348.223C242.824 347.959 243.48 347.826 243.742 348.091C244.266 348.488 242.824 350.076 239.809 351.665C239.809 351.797 236.401 351.929 232.337 353.518Z" fill="black"/>
<path d="M202.709 248.822L228.141 250.543C226.961 259.013 214.77 292.103 214.77 292.103C214.77 292.103 221.324 299.25 223.684 303.751C226.044 308.251 239.809 340.546 239.809 340.546C230.37 342.532 224.34 350.341 224.34 350.341C224.34 350.341 209.002 313.148 205.855 308.118C202.578 303.089 198.383 297.662 197.465 286.676C196.548 275.558 202.709 248.822 202.709 248.822Z" fill="#2B2B2B"/>
<path d="M177.669 227.776V227.644L177.8 227.776V227.909C178.456 228.571 178.98 229.365 179.242 230.291C179.242 230.159 179.111 230.027 178.98 230.027C178.849 229.894 178.587 229.894 178.587 230.027C178.587 229.762 178.456 229.629 178.325 229.365C178.193 229.232 177.931 229.232 177.931 229.365C177.931 229.1 177.8 228.968 177.669 228.703C177.538 228.571 177.276 228.571 177.276 228.703C177.276 228.438 177.145 228.306 177.014 228.041C176.883 227.909 176.62 227.909 176.62 228.041C176.62 227.776 176.489 227.644 176.358 227.379C176.227 227.247 176.227 227.247 176.096 227.247C176.227 227.115 176.883 227.247 177.669 227.776Z" fill="black"/>
<path d="M176.884 232.277L176.753 232.144L177.408 228.835L177.539 228.968L176.884 232.277Z" fill="black"/>
<path d="M177.147 233.203C177.409 233.336 177.54 233.336 177.671 233.071L177.934 233.203C177.803 233.6 177.54 233.6 177.278 233.336C177.016 233.071 176.754 232.542 176.885 232.277L177.016 232.409C176.885 232.674 177.016 232.939 177.147 233.203Z" fill="black"/>
<path d="M184.742 233.6L184.349 235.453C184.218 236.115 183.562 236.247 182.907 235.718C182.251 235.188 181.858 234.13 181.989 233.468L182.383 231.615L184.742 233.6Z" fill="black"/>
<path d="M182.384 237.306L182.778 235.718L183.04 235.983L182.647 237.571L182.909 237.836L183.695 238.762V238.895L181.205 236.777L181.336 236.644L182.122 237.174L182.384 237.306Z" fill="black"/>
<path d="M190.121 243.659L189.99 244.056L186.319 241.012L186.45 240.615L190.121 243.659Z" fill="black"/>
<path d="M187.631 241.409L187.238 241.012L187.893 237.703L187.631 237.439L188.418 236.644L188.68 238.365L188.418 238.1L187.631 241.409Z" fill="black"/>
<path d="M189.334 242.733L188.81 242.336L189.596 239.159L189.203 238.895L190.121 237.968L190.383 239.821L189.99 239.556L189.334 242.733Z" fill="black"/>
<path d="M174.12 231.35L178.97 235.453L180.281 229.1L175.431 224.996L174.12 231.35ZM178.97 235.188L174.382 231.35L175.693 225.394L180.281 229.232L178.97 235.188Z" fill="black"/>
<path d="M179.893 236.248L184.744 240.351L186.055 233.998L181.204 229.895L179.893 236.248ZM184.744 239.954L180.156 236.115L181.466 230.159L186.055 233.998L184.744 239.954Z" fill="black"/>
<path d="M185.659 240.88L190.509 244.983L191.82 238.63L186.97 234.527L185.659 240.88ZM190.378 244.718L185.79 240.88L187.101 234.924L191.689 238.762L190.378 244.718Z" fill="black"/>
<path d="M211.758 221.954C211.889 218.777 218.051 197.203 218.051 197.203L223.556 194.291L244.4 182.643L246.498 182.908C246.498 182.908 253.708 182.908 256.985 186.349C260.132 189.923 259.738 204.218 258.296 209.909C256.723 215.733 251.217 222.748 247.678 226.322C244.138 229.895 241.778 231.087 242.041 233.998C242.303 236.91 242.041 247.234 242.041 247.234C242.041 247.234 235.617 252.661 228.8 255.308C221.983 257.955 207.694 259.279 202.844 248.558C202.713 248.823 211.627 225.263 211.758 221.954Z" fill="#447E7F"/>
<path d="M202.711 248.823C202.711 248.823 211.625 225.263 211.756 222.086C211.887 220.63 213.067 215.468 214.509 210.306L218.311 210.174C218.311 210.174 218.835 211.895 220.539 214.542C222.243 217.321 221.457 219.174 220.277 221.292C219.097 223.41 217.524 228.969 222.112 230.822C226.307 232.543 235.353 234.131 242.301 232.146C242.039 232.807 241.908 233.337 242.039 234.131C242.301 237.043 242.039 247.367 242.039 247.367C242.039 247.367 235.615 252.794 228.798 255.441C221.719 258.22 207.43 259.411 202.711 248.823Z" fill="#376768"/>
<path d="M217.917 197.335C212.148 199.982 208.74 201.968 206.118 206.6C203.496 211.233 204.021 212.424 202.316 214.277C200.612 216.262 193.664 224.204 193.664 224.204C193.664 224.204 184.619 230.425 181.735 232.542C178.851 234.66 175.442 234.925 174.656 236.91C173.869 238.896 176.36 243.131 180.031 243.661C180.031 243.661 198.121 236.91 199.957 236.381C201.792 235.719 214.639 222.616 218.441 216.13C222.374 209.644 217.917 197.335 217.917 197.335Z" fill="#447E7F"/>
<path d="M244.922 174.172C244.922 174.172 242.3 179.466 243.611 182.511C244.922 185.555 244.266 185.82 244.266 185.82C244.266 185.82 231.944 191.776 227.618 192.041C227.618 192.041 228.797 185.555 227.618 184.231C226.438 182.908 226.176 181.981 224.996 181.717C223.685 181.32 220.801 180.658 220.932 178.672C221.063 176.555 220.538 174.305 220.407 172.981C220.407 171.657 220.407 170.466 220.407 170.466C220.407 170.466 218.572 169.54 219.096 168.481C219.621 167.422 223.16 164.378 223.16 164.378L244.922 174.172Z" fill="#F2A983"/>
<path d="M227.613 191.908C227.613 191.908 228.793 185.423 227.613 184.099C226.434 182.776 226.171 181.849 224.992 181.584C224.336 181.452 223.287 181.187 222.37 180.658C225.516 179.996 227.613 177.084 227.613 177.084C227.613 177.084 228.269 177.481 229.842 176.422C231.415 175.363 231.022 170.069 231.022 170.069C231.022 170.069 235.217 171.525 235.479 171.657C235.741 171.657 234.955 174.702 234.037 178.408C233.382 181.32 235.086 185.687 236.266 188.732C232.857 189.658 230.104 192.835 227.613 191.908Z" fill="#D88F69"/>
<path d="M244.266 180.393C244.266 180.393 240.595 181.849 234.172 184.761C227.748 187.673 224.733 191.909 224.733 191.909L223.422 194.291C223.422 194.291 235.351 190.85 240.726 188.203C246.101 185.555 246.363 182.908 246.363 182.908L244.266 180.393Z" fill="#376768"/>
<path d="M243.218 180.261C242.169 180.79 240.596 181.32 237.974 181.187C232.992 180.923 231.681 175.231 231.944 172.981C232.075 171.79 233.779 170.599 235.483 169.672L244.922 174.04C244.922 174.172 243.218 177.481 243.218 180.261Z" fill="#4B1A1A"/>
<path d="M227.222 169.275C227.222 169.275 213.981 164.378 213.064 160.672C212.146 156.966 221.585 156.304 227.746 158.289C233.777 160.407 227.222 169.275 227.222 169.275Z" fill="#599E9F"/>
<path d="M243.873 175.364C243.873 175.364 238.629 177.349 233.779 175.099C228.928 172.849 222.636 166.76 221.063 160.407C221.063 160.407 223.029 152.73 229.453 150.48C231.944 149.554 235.483 150.083 239.285 151.274C246.757 153.789 250.166 162.26 248.592 167.554C247.282 171.922 245.446 174.437 243.873 175.364Z" fill="#447E7F"/>
<path d="M245.574 173.775C243.608 174.305 238.233 175.496 234.3 173.51C234.3 173.51 236.922 169.937 243.739 169.672C245.574 169.54 246.754 169.804 247.672 170.069C247.016 171.525 246.361 172.849 245.574 173.775Z" fill="#4B1A1A"/>
<path d="M197.469 210.174L194.454 207.527L196.29 196.276L199.305 198.791L197.469 210.174Z" fill="#CDCDB9"/>
<defs>
<filter id="filter0_dddd_25806_16545" x="-97.1934" y="-6.87748" width="811.469" height="865.515" filterUnits="userSpaceOnUse" color-interpolation-filters="sRGB">
<feFlood flood-opacity="0" result="BackgroundImageFix"/>
<feColorMatrix in="SourceAlpha" type="matrix" values="0 0 0 0 0 0 0 0 0 0 0 0 0 0 0 0 0 0 127 0" result="hardAlpha"/>
<feOffset dy="9.8251"/>
<feGaussianBlur stdDeviation="8.35134"/>
<feColorMatrix type="matrix" values="0 0 0 0 0 0 0 0 0 0 0 0 0 0 0 0 0 0 0.0168519 0"/>
<feBlend mode="normal" in2="BackgroundImageFix" result="effect1_dropShadow_25806_16545"/>
<feColorMatrix in="SourceAlpha" type="matrix" values="0 0 0 0 0 0 0 0 0 0 0 0 0 0 0 0 0 0 127 0" result="hardAlpha"/>
<feOffset dy="43.2305"/>
<feGaussianBlur stdDeviation="17.2922"/>
<feColorMatrix type="matrix" values="0 0 0 0 0 0 0 0 0 0 0 0 0 0 0 0 0 0 0.0274815 0"/>
<feBlend mode="normal" in2="effect1_dropShadow_25806_16545" result="effect2_dropShadow_25806_16545"/>
<feColorMatrix in="SourceAlpha" type="matrix" values="0 0 0 0 0 0 0 0 0 0 0 0 0 0 0 0 0 0 127 0" result="hardAlpha"/>
<feOffset dy="106.111"/>
<feGaussianBlur stdDeviation="34.4861"/>
<feColorMatrix type="matrix" values="0 0 0 0 0 0 0 0 0 0 0 0 0 0 0 0 0 0 0.035 0"/>
<feBlend mode="normal" in2="effect2_dropShadow_25806_16545" result="effect3_dropShadow_25806_16545"/>
<feColorMatrix in="SourceAlpha" type="matrix" values="0 0 0 0 0 0 0 0 0 0 0 0 0 0 0 0 0 0 127 0" result="hardAlpha"/>
<feOffset dy="204.362"/>
<feGaussianBlur stdDeviation="67.5967"/>
<feColorMatrix type="matrix" values="0 0 0 0 0 0 0 0 0 0 0 0 0 0 0 0 0 0 0.0425185 0"/>
<feBlend mode="normal" in2="effect3_dropShadow_25806_16545" result="effect4_dropShadow_25806_16545"/>
<feBlend mode="normal" in="SourceGraphic" in2="effect4_dropShadow_25806_16545" result="shape"/>
</filter>
<linearGradient id="paint0_linear_25806_16545" x1="352.066" y1="397.82" x2="99.8901" y2="397.82" gradientUnits="userSpaceOnUse">
<stop stop-color="#E9E9E9"/>
<stop offset="1" stop-color="#B7B7B7"/>
</linearGradient>
<linearGradient id="paint1_linear_25806_16545" x1="99.884" y1="398.87" x2="352.059" y2="398.87" gradientUnits="userSpaceOnUse">
<stop stop-color="#70B1B3"/>
<stop offset="1" stop-color="#2D5A5A"/>
</linearGradient>
<clipPath id="clip0_25806_16545">
<rect width="371.538" height="420" fill="white" transform="matrix(-0.442704 -0.896668 -0.896668 0.442704 579.082 333.147)"/>
</clipPath>
</defs>
</svg>
