<svg width="654" height="808" viewBox="0 0 654 808" fill="none" xmlns="http://www.w3.org/2000/svg">
<g clip-path="url(#clip0_25806_16614)" filter="url(#filter0_dddd_25806_16614)">
<path d="M116.509 268.999C93.5297 210.904 333.102 59.5104 428.77 93.9494C523.848 128.589 555.313 425.609 462.356 460.42C381.413 490.828 177.866 426.748 116.509 268.999Z" fill="#FDFDFD"/>
</g>
<path d="M320.698 337.757C314.434 341.388 314.434 347.362 320.698 350.993L437.868 419.279C444.132 422.91 454.341 422.91 460.606 419.279L577.775 350.993C584.04 347.362 584.04 341.388 577.775 337.757L460.606 269.471C454.341 265.84 444.132 265.84 437.868 269.471L320.698 337.757Z" fill="white"/>
<path d="M449.352 420.45C445.291 420.45 441.579 419.513 438.795 417.99L321.625 349.704C319.073 348.299 317.797 346.425 317.797 344.55C317.797 342.676 319.189 340.802 321.625 339.397L438.795 271.111C441.579 269.471 445.291 268.651 449.352 268.651C453.412 268.651 457.124 269.588 459.908 271.111L577.078 339.397C579.63 340.802 580.906 342.676 580.906 344.55C580.906 346.425 579.514 348.299 577.078 349.704L459.908 417.99C457.124 419.63 453.296 420.45 449.352 420.45Z" fill="#F2F3FF"/>
<path d="M320.699 351.11L437.868 419.396C444.133 423.027 454.342 423.027 460.606 419.396L577.776 351.11C580.792 349.353 582.3 347.127 582.416 344.785V383.203C582.416 385.663 580.908 388.005 577.776 389.879L460.606 458.165C454.342 461.796 444.133 461.796 437.868 458.165L320.699 389.879C317.567 388.005 316.059 385.663 316.059 383.203V344.551C316.059 346.893 317.567 349.236 320.699 351.11Z" fill="url(#paint0_linear_25806_16614)"/>
<path d="M320.699 369.382L437.868 437.668C444.133 441.299 454.342 441.299 460.606 437.668L577.776 369.382C580.792 367.625 582.3 365.4 582.416 363.057V367.157C582.416 369.616 580.908 371.959 577.776 373.833L460.606 442.119C454.342 445.75 444.133 445.75 437.868 442.119L320.699 373.833C317.567 371.959 316.059 369.616 316.059 367.157V362.706C316.059 365.165 317.567 367.508 320.699 369.382Z" fill="url(#paint1_linear_25806_16614)"/>
<path opacity="0.1" d="M549.426 321.883L494.327 289.72L434.444 324.368L453.721 335.549C437.862 333.893 414.893 339.414 395.752 350.595C371.005 365.09 362.119 383.311 375.927 391.455C389.736 399.6 421.182 394.354 445.928 379.86C465.069 368.679 474.64 355.289 471.768 346.04L489.405 356.393L549.426 321.883Z" fill="black"/>
<path d="M545.734 289.168L504.855 326.301L504.581 325.334L545.461 288.202L545.734 289.168Z" fill="#E38E22"/>
<path d="M504.578 325.334L504.852 326.301L466.843 303.386L466.57 302.42L504.578 325.334Z" fill="#E38E22"/>
<path d="M545.461 288.202L504.581 325.334L466.573 302.42L507.316 265.287L545.461 288.202Z" fill="#FFCB4D"/>
<path d="M462.745 279.228L468.761 302.005L504.719 323.539L498.566 300.763L462.745 279.228Z" fill="#B39372"/>
<path d="M497.195 247.893L462.741 279.228L498.562 300.763L533.016 269.428L497.195 247.893Z" fill="#D9B995"/>
<path d="M539.172 292.204L504.718 323.539L498.566 300.763L533.019 269.428L539.172 292.204Z" fill="#CCAC88"/>
<path d="M519.484 291.238L517.57 283.646L514.973 285.992L517.023 293.584L519.484 291.238Z" fill="#CDCDB9"/>
<path d="M481.613 261.973L479.015 264.458L514.973 285.854L517.57 283.508L481.613 261.973Z" fill="#FFFFEB"/>
<path d="M456.593 256.038L462.609 278.815L498.566 300.349L492.551 277.572L456.593 256.038Z" fill="#B39372"/>
<path d="M491.046 224.703L456.593 256.038L492.55 277.572L527.004 246.099L491.046 224.703Z" fill="#D9B995"/>
<path d="M533.02 269.014L498.566 300.349L492.55 277.572L527.004 246.099L533.02 269.014Z" fill="#CCAC88"/>
<path d="M513.465 268.048L511.414 260.317L508.816 262.664L510.867 270.394L513.465 268.048Z" fill="#CDCDB9"/>
<path d="M475.593 238.783L472.996 241.13L508.816 262.664L511.414 260.317L475.593 238.783Z" fill="#FFFFEB"/>
<path d="M464.243 303.11L458.911 299.935C458.091 299.521 457.27 299.383 456.176 299.521C451.391 299.935 445.922 305.732 443.872 312.496C442.231 317.742 443.325 322.021 446.196 323.54L450.981 326.438C451.801 326.991 452.895 327.267 454.126 327.129C458.911 326.715 464.38 320.917 466.43 314.153C467.934 308.769 466.977 304.49 464.243 303.11Z" fill="#2E373A"/>
<path d="M466.434 314.015C464.383 320.779 458.914 326.577 454.129 326.991C449.344 327.405 447.156 322.297 449.207 315.533C451.258 308.769 456.727 302.972 461.512 302.558C466.16 302.143 468.485 307.251 466.434 314.015Z" fill="#3B4447"/>
<path d="M463.971 314.153C462.468 318.984 458.503 323.263 455.085 323.539C451.667 323.816 450.026 320.088 451.53 315.257C453.034 310.426 456.999 306.146 460.417 305.87C463.835 305.594 465.475 309.321 463.971 314.153Z" fill="#ECB700"/>
<path d="M460.283 314.567C459.736 316.5 458.095 318.156 456.728 318.294C455.361 318.433 454.677 316.914 455.361 314.981C455.908 313.049 457.548 311.392 458.915 311.254C460.283 311.116 460.83 312.635 460.283 314.567Z" fill="#FFD119"/>
<path d="M460.966 314.843C460.419 316.776 458.778 318.432 457.411 318.57C456.044 318.708 455.36 317.19 456.044 315.257C456.591 313.325 458.231 311.668 459.598 311.53C460.829 311.392 461.513 312.91 460.966 314.843Z" fill="#ECB700"/>
<path d="M459.738 314.981C459.464 316.085 458.507 316.913 457.823 317.051C457.003 317.051 456.73 316.361 457.003 315.257C457.277 314.153 458.234 313.324 458.917 313.186C459.737 313.048 460.148 313.876 459.738 314.981Z" fill="#3B4447"/>
<path d="M462.469 306.285C463.836 307.665 464.246 310.288 463.289 313.601C461.785 318.432 457.82 322.711 454.402 322.987C453.582 323.125 452.898 322.849 452.352 322.573C453.035 323.263 453.992 323.678 455.223 323.54C458.641 323.263 462.606 318.984 464.11 314.153C465.067 310.426 464.383 307.389 462.469 306.285Z" fill="#FFD119"/>
<path d="M466.984 305.594L444.289 225.117C443.879 223.599 442.375 222.77 440.871 223.185L415.167 230.363L414.484 228.016L440.187 220.838C442.922 220.01 445.793 221.666 446.476 224.427L469.172 304.904L466.984 305.594Z" fill="#E38E22"/>
<g opacity="0.5">
<path opacity="0.5" d="M467.394 305.594L444.699 225.117C444.289 223.461 442.511 222.494 440.734 222.908L415.031 230.087L414.62 228.568L440.324 221.39C442.785 220.7 445.519 222.218 446.203 224.703L468.898 305.18L467.394 305.594Z" fill="#E38E22"/>
</g>
<g opacity="0.5">
<path opacity="0.5" d="M467.668 305.456L444.972 224.979C444.425 223.047 442.511 221.942 440.597 222.494L414.894 229.672L414.62 228.844L440.324 221.666C442.648 220.976 444.972 222.356 445.656 224.703L468.352 305.18L467.668 305.456Z" fill="#E38E22"/>
</g>
<g opacity="0.5">
<path opacity="0.5" d="M467.941 305.318L445.246 224.841C444.699 222.77 442.511 221.528 440.46 222.08L414.757 229.258V229.12L440.46 221.942C442.648 221.39 444.836 222.632 445.519 224.841L468.215 305.318H467.941Z" fill="#E38E22"/>
</g>
<path d="M490.633 283.37C490.496 283.37 490.223 283.37 490.086 283.232L455.769 263.217C455.222 262.94 455.085 262.25 455.359 261.698C455.632 261.146 456.316 261.008 456.863 261.284L491.18 281.3C491.727 281.576 491.863 282.266 491.59 282.818C491.316 283.094 490.906 283.37 490.633 283.37Z" fill="#E38E22"/>
<g opacity="0.5">
<path opacity="0.5" d="M490.637 282.956C490.5 282.956 490.364 282.956 490.227 282.818L455.91 262.802C455.5 262.664 455.5 262.112 455.636 261.836C455.773 261.422 456.32 261.422 456.593 261.56L490.91 281.576C491.321 281.852 491.321 282.266 491.184 282.542C491.047 282.818 490.91 282.956 490.637 282.956Z" fill="#E38E22"/>
</g>
<g opacity="0.5">
<path opacity="0.5" d="M490.635 282.542H490.498L456.181 262.526C456.044 262.388 455.908 262.25 456.044 261.974C456.181 261.836 456.318 261.698 456.591 261.836L490.908 281.852C491.045 281.99 491.182 282.128 491.045 282.404C490.908 282.542 490.771 282.542 490.635 282.542Z" fill="#E38E22"/>
</g>
<g opacity="0.5">
<path opacity="0.5" d="M490.637 282.266C490.637 282.266 490.5 282.266 490.637 282.266L456.32 262.25V262.112H456.456L490.773 282.127C490.637 282.127 490.637 282.127 490.637 282.266Z" fill="#E38E22"/>
</g>
<path d="M497.477 308.769C497.34 308.769 497.066 308.769 496.93 308.631L462.613 288.615C462.066 288.339 461.929 287.648 462.203 287.096C462.476 286.544 463.16 286.406 463.707 286.682L498.023 306.698C498.57 306.974 498.707 307.664 498.434 308.216C498.297 308.492 497.887 308.769 497.477 308.769Z" fill="#E38E22"/>
<g opacity="0.5">
<path opacity="0.5" d="M497.477 308.355C497.34 308.355 497.203 308.355 497.067 308.217L462.886 288.339C462.476 288.201 462.476 287.649 462.613 287.373C462.75 286.958 463.297 286.958 463.57 287.096L497.887 307.112C498.297 307.25 498.297 307.802 498.16 308.079C498.024 308.217 497.75 308.355 497.477 308.355Z" fill="#E38E22"/>
</g>
<g opacity="0.5">
<path opacity="0.5" d="M497.475 307.941H497.338L463.021 287.925C462.884 287.787 462.748 287.649 462.884 287.373C463.021 287.235 463.158 287.097 463.431 287.235L497.748 307.251C497.885 307.389 498.021 307.527 497.885 307.803C497.748 307.941 497.611 307.941 497.475 307.941Z" fill="#E38E22"/>
</g>
<g opacity="0.5">
<path opacity="0.5" d="M497.477 307.664L463.16 287.649V287.511H463.296L497.613 307.526C497.613 307.526 497.613 307.664 497.477 307.664C497.613 307.664 497.613 307.664 497.477 307.664Z" fill="#E38E22"/>
</g>
<path d="M501.984 326.852L479.289 246.375C478.879 244.857 477.375 244.028 475.871 244.443L450.167 251.621L449.484 249.274L475.187 242.096C477.921 241.268 480.793 242.924 481.476 245.685L504.172 326.162L501.984 326.852Z" fill="#E38E22"/>
<g opacity="0.5">
<path opacity="0.5" d="M502.395 326.852L479.699 246.375C479.289 244.719 477.511 243.752 475.734 244.166L450.03 251.345L449.62 249.826L475.324 242.648C477.785 241.958 480.519 243.476 481.203 245.961L503.898 326.438L502.395 326.852Z" fill="#E38E22"/>
</g>
<g opacity="0.5">
<path opacity="0.5" d="M502.809 326.714L480.113 246.237C479.566 244.305 477.652 243.2 475.738 243.752L450.034 250.93L449.761 250.102L475.464 242.924C477.789 242.234 480.113 243.614 480.797 245.961L503.492 326.438L502.809 326.714Z" fill="#E38E22"/>
</g>
<g opacity="0.5">
<path opacity="0.5" d="M503.078 326.576L480.382 246.099C479.836 244.028 477.648 242.786 475.597 243.338L449.894 250.516V250.378L475.597 243.2C477.785 242.648 479.972 243.89 480.656 246.099L503.352 326.576H503.078Z" fill="#E38E22"/>
</g>
<path d="M466.711 301.867L456.047 314.429C456.047 314.429 453.586 318.294 457.14 318.708C460.695 318.984 471.359 311.806 471.359 311.806L469.172 301.453L467.941 300.487L466.711 301.867Z" fill="#FFCB4D"/>
<path d="M467.945 302.834L457.281 315.396C457.281 315.396 454.82 319.261 458.375 319.675C461.93 319.951 472.594 312.773 472.594 312.773L469.176 301.592L467.945 302.834Z" fill="#E38E22"/>
<path d="M497.609 319.675L486.945 332.236C486.945 332.236 484.484 336.101 488.039 336.515C491.594 336.791 502.258 329.613 502.258 329.613L500.07 319.26L498.84 318.294L497.609 319.675Z" fill="#FFCB4D"/>
<path d="M498.84 320.641L488.176 333.202C488.176 333.202 485.715 337.068 489.269 337.482C492.824 337.758 503.488 330.58 503.488 330.58L500.07 319.398L498.84 320.641Z" fill="#E38E22"/>
<path d="M494.596 338.171C494.323 338.171 494.049 338.171 493.913 338.033L459.186 317.741C458.502 317.327 458.229 316.361 458.639 315.671C459.049 314.98 460.006 314.704 460.69 315.119L495.417 335.41C496.1 335.825 496.374 336.791 495.964 337.481C495.553 337.895 495.143 338.171 494.596 338.171Z" fill="#E38E22"/>
<g opacity="0.5">
<path opacity="0.5" d="M494.598 337.619C494.461 337.619 494.324 337.619 494.051 337.481L459.324 317.19C458.777 316.913 458.64 316.361 458.913 315.809C459.187 315.395 459.734 315.119 460.281 315.395L495.008 335.687C495.555 335.963 495.691 336.515 495.418 337.067C495.281 337.481 495.008 337.619 494.598 337.619Z" fill="#E38E22"/>
</g>
<g opacity="0.5">
<path opacity="0.5" d="M494.594 337.205C494.457 337.205 494.457 337.205 494.32 337.205L459.593 316.914C459.32 316.776 459.32 316.499 459.457 316.223C459.593 315.947 459.867 315.947 460.14 316.085L494.867 336.377C495.141 336.515 495.141 336.791 495.004 337.067C495.004 337.067 494.731 337.205 494.594 337.205Z" fill="#E38E22"/>
</g>
<g opacity="0.5">
<path opacity="0.5" d="M494.598 336.791L459.871 316.499C459.871 316.499 459.734 316.361 459.871 316.361C459.871 316.361 460.007 316.223 460.007 316.361L494.734 336.653C494.734 336.653 494.734 336.653 494.598 336.791C494.734 336.791 494.598 336.791 494.598 336.791Z" fill="#E38E22"/>
</g>
<path d="M504.583 327.957L499.251 324.782C498.43 324.368 497.61 324.23 496.516 324.368C491.731 324.782 486.262 330.58 484.211 337.344C482.571 342.589 483.664 346.868 486.536 348.387L491.321 351.286C492.141 351.838 493.235 352.114 494.465 351.976C499.251 351.562 504.719 345.764 506.77 339C508.274 333.755 507.317 329.475 504.583 327.957Z" fill="#2E373A"/>
<path d="M506.769 339.001C504.718 345.765 499.249 351.562 494.464 351.976C489.678 352.39 487.491 347.283 489.542 340.519C491.593 333.755 497.061 327.957 501.847 327.543C506.495 327.129 508.683 332.237 506.769 339.001Z" fill="#3B4447"/>
<path d="M504.307 339.138C502.803 343.97 498.839 348.249 495.421 348.525C492.003 348.801 490.362 345.074 491.866 340.243C493.37 335.411 497.335 331.132 500.753 330.856C504.171 330.58 505.811 334.307 504.307 339.138Z" fill="#ECB700"/>
<path d="M500.618 339.552C500.071 341.485 498.43 343.141 497.063 343.279C495.696 343.417 495.013 341.899 495.696 339.966C496.243 338.034 497.884 336.377 499.251 336.239C500.481 336.101 501.165 337.62 500.618 339.552Z" fill="#FFD119"/>
<path d="M501.165 339.828C500.619 341.761 498.978 343.417 497.611 343.555C496.243 343.693 495.56 342.175 496.243 340.242C496.79 338.31 498.431 336.653 499.798 336.515C501.165 336.377 501.849 337.896 501.165 339.828Z" fill="#ECB700"/>
<path d="M500.07 339.966C499.796 341.07 498.839 341.899 498.155 342.037C497.335 342.037 497.062 341.347 497.335 340.242C497.609 339.138 498.566 338.31 499.249 338.172C500.07 338.034 500.48 338.862 500.07 339.966Z" fill="#3B4447"/>
<path d="M502.805 331.27C504.172 332.65 504.582 335.273 503.625 338.586C502.121 343.417 498.156 347.697 494.738 347.973C493.918 348.111 493.234 347.835 492.687 347.559C493.371 348.249 494.328 348.663 495.559 348.525C498.977 348.249 502.942 343.97 504.446 339.138C505.403 335.411 504.719 332.374 502.805 331.27Z" fill="#FFD119"/>
<path d="M468.214 243.615C468.214 243.615 469.581 245.271 469.308 246.927L450.44 252.173C450.44 252.173 448.936 252.035 448.663 250.793C448.526 249.412 449.21 248.998 450.85 248.584C452.354 248.17 468.214 243.615 468.214 243.615Z" fill="#414E52"/>
<path d="M432.94 222.494C432.94 222.494 434.308 224.151 434.034 225.807L415.167 231.053C415.167 231.053 413.663 230.915 413.389 229.672C413.252 228.292 413.936 227.878 415.577 227.464C417.217 227.188 432.94 222.494 432.94 222.494Z" fill="#414E52"/>
<path d="M438.956 356.946C438.956 356.946 447.023 360.535 448.937 357.912C450.851 355.151 443.878 350.458 443.878 350.458L438.956 356.946Z" fill="#586770"/>
<path d="M431.434 356.669C431.434 356.669 430.34 362.467 431.434 363.985C432.528 365.504 435.125 365.78 438.133 364.814C441.141 363.847 444.286 362.329 448.387 362.467C452.489 362.605 457.958 360.534 460.145 357.912C462.333 355.289 461.513 352.39 459.052 351.286C456.591 350.319 447.84 351.562 444.286 350.319C444.286 350.319 443.739 351.148 444.422 352.114C445.106 353.08 447.293 354.599 446.61 356.117C445.926 357.636 443.055 357.359 439.911 356.531C436.766 355.703 431.434 356.669 431.434 356.669Z" fill="#673A1A"/>
<path d="M461.377 353.632C461.788 354.875 461.514 356.393 460.284 357.912C458.096 360.534 452.627 362.605 448.526 362.467C444.424 362.329 441.279 363.847 438.272 364.814C435.264 365.78 432.666 365.366 431.572 363.985C431.572 363.847 431.436 363.847 431.436 363.709C431.436 364.676 431.572 365.504 431.982 365.918C433.076 367.436 435.674 367.712 438.682 366.746C440.322 366.194 441.963 365.642 443.74 365.09L443.604 363.985C445.244 363.571 447.022 363.157 449.073 363.295C453.174 363.433 458.643 361.363 460.831 358.74C462.061 356.807 462.198 355.013 461.377 353.632Z" fill="#000508"/>
<path d="M380.027 367.161C380.027 367.161 377.429 370.888 377.156 372.82C377.156 372.82 377.566 373.786 380.3 374.615C382.898 375.443 385.906 376.133 387.82 378.204C389.734 380.274 392.195 383.725 394.656 384.001C397.254 384.277 398.621 381.517 399.031 380.274C399.305 379.032 399.031 376.823 397.527 375.995C395.887 375.167 394.246 375.167 394.246 375.167L392.879 372.682C392.879 372.682 385.086 367.575 380.027 367.161Z" fill="#673A1A"/>
<path d="M394.793 384.001C392.195 383.725 389.871 380.274 387.957 378.204C386.043 376.133 383.035 375.581 380.437 374.615C378.113 373.787 377.566 373.096 377.429 372.82C376.882 373.787 376.336 374.891 376.336 375.719C376.336 375.719 376.746 376.685 379.48 377.514C382.078 378.342 383.992 379.446 386.726 380.827L387.41 378.756C387.547 378.894 387.683 379.032 387.82 379.17C389.734 381.241 392.195 384.692 394.656 384.968C397.254 385.244 398.621 382.483 399.031 381.241C399.031 381.103 399.031 380.965 399.168 380.827C398.484 382.207 396.98 384.278 394.793 384.001Z" fill="#000508"/>
<path d="M403.273 276.468C403.273 276.468 397.668 306.423 396.984 310.288C396.3 314.291 388.507 324.092 387.414 331.27C386.183 338.448 378.937 367.574 378.937 367.574C378.937 367.574 384.406 367.85 387.55 371.025C390.695 374.2 394.933 373.648 394.933 373.648C394.933 373.648 398.351 357.636 400.675 351.148C403 344.66 409.015 326.162 411.887 321.745C414.758 317.19 427.062 275.088 427.062 275.088L425.422 265.839L405.051 257.004L403.273 276.468Z" fill="#2B2B2B"/>
<path d="M426.926 275.226L425.285 265.977L404.914 257.142L404.504 261.836C407.922 264.597 415.851 271.499 417.355 280.609C419.269 292.343 412.98 304.352 410.109 310.978C407.238 317.604 403.957 316.914 403.82 320.641C403.683 323.678 393.292 355.565 387.824 371.716C390.831 374.338 394.66 373.786 394.66 373.786C394.66 373.786 398.078 357.774 400.402 351.286C402.726 344.798 408.742 326.3 411.613 321.883C414.758 317.19 426.926 275.226 426.926 275.226Z" fill="#3B3B3B"/>
<path d="M448.39 277.849C448.39 277.849 449.894 287.788 448.39 300.073C446.886 312.497 447.296 321.193 447.296 331.822C447.296 342.451 448.664 352.39 448.664 352.39C448.664 352.39 440.187 363.709 431.163 359.844C431.163 359.844 430.753 345.35 430.206 338.172C429.659 331.27 429.249 323.816 430.48 318.018C431.71 312.083 431.71 309.46 431.71 309.46L423.234 276.882C423.234 276.882 413.116 265.425 415.44 261.836C419.269 255.486 444.835 262.388 444.835 262.388L448.39 277.849Z" fill="#2B2B2B"/>
<path d="M456.868 248.584C456.868 248.584 458.235 245.961 458.645 245.133C459.055 244.304 462.473 243.476 462.473 243.476C462.473 243.476 463.157 244.166 464.524 246.099C465.891 248.032 468.626 249.688 468.899 251.206C469.036 252.725 468.215 254.243 467.258 254.381C466.301 254.519 466.848 255.072 466.165 256.038C465.481 257.004 464.797 256.866 463.294 257.418C461.79 258.108 463.43 258.523 461.106 258.661C458.782 258.799 455.774 257.28 455.5 257.004C455.09 256.728 456.868 248.584 456.868 248.584Z" fill="#F2A983"/>
<path d="M458.641 245.133C458.23 245.961 456.863 248.584 456.863 248.584C456.863 248.584 456.863 248.722 456.726 248.998C458.094 248.584 459.734 247.894 460.281 247.066C460.828 246.237 460.828 244.857 460.828 243.891C459.871 244.167 458.777 244.581 458.641 245.133Z" fill="#D88F69"/>
<path d="M399.715 193.92L397.937 193.644C397.937 193.644 393.289 193.92 391.101 200.546C388.777 207.172 387.957 216.283 387.683 221.943C387.41 227.464 386.453 233.814 391.785 234.504C396.98 235.194 406.414 231.053 406.414 231.053L399.715 193.92Z" fill="#447E7F"/>
<path d="M401.082 202.064L396.433 202.754L395.476 207.448C395.476 207.448 394.109 203.721 393.426 203.859C392.742 203.997 393.015 205.101 393.426 207.862C393.836 210.623 394.246 210.623 392.879 218.215C391.922 223.598 389.461 228.982 388.093 232.157C388.777 233.399 389.734 234.227 391.511 234.366C396.707 235.056 406.141 230.915 406.141 230.915L401.082 202.064Z" fill="#376768"/>
<path d="M444.832 257.971C444.832 257.971 442.918 217.663 442.918 216.283C442.918 214.902 435.125 204.549 432.39 202.341L409.968 191.436C409.968 191.436 401.765 191.712 398.757 192.954C395.886 194.196 393.972 202.065 394.929 210.623C395.886 219.32 400.808 225.393 403.132 231.743C405.456 238.093 405.867 237.679 405.32 242.096C404.773 246.514 403.679 258.661 403.679 258.661C403.679 258.661 408.874 265.149 420.632 268.6C432.39 271.913 445.789 265.977 445.789 265.977L444.832 257.971Z" fill="#447E7F"/>
<path d="M420.769 268.738C432.39 272.051 445.789 265.977 445.789 265.977L444.832 257.971C444.832 257.971 443.191 223.323 442.918 217.249L431.433 220.838C431.433 220.838 429.246 223.047 428.289 225.945C427.195 228.844 425.554 231.191 426.648 234.504C427.742 237.817 429.519 243.062 426.922 244.167C424.324 245.271 417.625 243.891 421.043 247.204C424.324 250.517 426.101 253.415 424.597 257.557C423.504 260.041 421.863 265.011 420.769 268.738Z" fill="#376768"/>
<path d="M411.062 182.048C411.062 182.048 413.796 187.294 412.429 190.331C411.062 193.368 411.745 193.644 411.745 193.644C411.745 193.644 424.187 199.58 428.425 199.856C428.425 199.856 427.331 193.368 428.425 191.987C429.656 190.745 429.792 189.779 431.159 189.365C432.39 189.088 435.398 188.398 435.124 186.328C434.988 184.257 435.535 181.91 435.671 180.53C435.671 179.15 435.671 178.045 435.671 178.045C435.671 178.045 437.585 177.079 437.038 176.113C436.492 175.008 432.937 171.972 432.937 171.972L411.062 182.048Z" fill="#F2A983"/>
<path d="M428.426 199.856C428.426 199.856 427.332 193.368 428.426 191.988C429.656 190.745 429.793 189.779 431.16 189.365C431.844 189.227 432.801 188.951 433.758 188.399C430.613 187.709 428.426 184.81 428.426 184.81C428.426 184.81 427.879 185.224 426.238 184.119C424.598 183.015 425.144 177.77 425.144 177.77C425.144 177.77 420.906 179.288 420.633 179.288C420.359 179.288 421.179 182.325 422 186.052C422.683 188.951 420.906 193.368 419.676 196.405C423.094 197.647 425.828 200.822 428.426 199.856Z" fill="#D88F69"/>
<path d="M411.746 188.26C411.746 188.26 415.437 189.779 421.863 192.677C428.289 195.576 431.297 199.856 431.297 199.856L432.527 202.34C432.527 202.34 420.633 198.889 415.164 196.267C409.832 193.644 409.558 191.021 409.558 191.021L411.746 188.26Z" fill="#376768"/>
<path d="M412.705 188.26C413.662 188.812 415.303 189.365 418.037 189.227C422.959 188.951 424.326 183.291 424.053 180.944C423.916 179.84 422.139 178.598 420.498 177.631L411.064 181.91C411.064 182.048 412.705 185.361 412.705 188.26Z" fill="#4B1A1A"/>
<path d="M428.698 177.217C428.698 177.217 441.96 172.386 442.917 168.658C443.874 164.931 434.44 164.241 428.288 166.312C422.135 168.244 428.698 177.217 428.698 177.217Z" fill="#5DA2A4"/>
<path d="M412.019 183.291C412.019 183.291 417.351 185.361 422.137 183.015C426.922 180.668 433.348 174.732 434.852 168.383C434.852 168.383 432.938 160.79 426.512 158.444C424.051 157.615 420.359 158.03 416.668 159.272C409.285 161.895 405.867 170.315 407.371 175.699C408.601 179.84 410.515 182.325 412.019 183.291Z" fill="#447E7F"/>
<path d="M410.238 181.634C412.152 182.187 417.621 183.429 421.586 181.358C421.586 181.358 418.988 177.769 412.152 177.493C410.375 177.355 409.144 177.631 408.187 177.907C408.871 179.426 409.555 180.668 410.238 181.634Z" fill="#4B1A1A"/>
<path d="M458.095 247.894C458.095 247.894 461.649 251.621 458.778 256.866C458.778 256.866 442.919 263.492 438.134 262.802C433.212 261.974 432.254 252.449 431.161 245.547C430.067 238.645 428.29 223.875 430.614 217.663C432.938 211.451 440.458 209.657 443.055 216.283C445.653 222.909 444.149 234.09 444.696 238.093C445.243 242.096 446.473 249.274 446.473 249.274L458.095 247.894Z" fill="#447E7F"/>
<defs>
<filter id="filter0_dddd_25806_16614" x="-60.1934" y="-6.8776" width="811.469" height="865.515" filterUnits="userSpaceOnUse" color-interpolation-filters="sRGB">
<feFlood flood-opacity="0" result="BackgroundImageFix"/>
<feColorMatrix in="SourceAlpha" type="matrix" values="0 0 0 0 0 0 0 0 0 0 0 0 0 0 0 0 0 0 127 0" result="hardAlpha"/>
<feOffset dy="9.8251"/>
<feGaussianBlur stdDeviation="8.35134"/>
<feColorMatrix type="matrix" values="0 0 0 0 0 0 0 0 0 0 0 0 0 0 0 0 0 0 0.0168519 0"/>
<feBlend mode="normal" in2="BackgroundImageFix" result="effect1_dropShadow_25806_16614"/>
<feColorMatrix in="SourceAlpha" type="matrix" values="0 0 0 0 0 0 0 0 0 0 0 0 0 0 0 0 0 0 127 0" result="hardAlpha"/>
<feOffset dy="43.2305"/>
<feGaussianBlur stdDeviation="17.2922"/>
<feColorMatrix type="matrix" values="0 0 0 0 0 0 0 0 0 0 0 0 0 0 0 0 0 0 0.0274815 0"/>
<feBlend mode="normal" in2="effect1_dropShadow_25806_16614" result="effect2_dropShadow_25806_16614"/>
<feColorMatrix in="SourceAlpha" type="matrix" values="0 0 0 0 0 0 0 0 0 0 0 0 0 0 0 0 0 0 127 0" result="hardAlpha"/>
<feOffset dy="106.111"/>
<feGaussianBlur stdDeviation="34.4861"/>
<feColorMatrix type="matrix" values="0 0 0 0 0 0 0 0 0 0 0 0 0 0 0 0 0 0 0.035 0"/>
<feBlend mode="normal" in2="effect2_dropShadow_25806_16614" result="effect3_dropShadow_25806_16614"/>
<feColorMatrix in="SourceAlpha" type="matrix" values="0 0 0 0 0 0 0 0 0 0 0 0 0 0 0 0 0 0 127 0" result="hardAlpha"/>
<feOffset dy="204.362"/>
<feGaussianBlur stdDeviation="67.5967"/>
<feColorMatrix type="matrix" values="0 0 0 0 0 0 0 0 0 0 0 0 0 0 0 0 0 0 0.0425185 0"/>
<feBlend mode="normal" in2="effect3_dropShadow_25806_16614" result="effect4_dropShadow_25806_16614"/>
<feBlend mode="normal" in="SourceGraphic" in2="effect4_dropShadow_25806_16614" result="shape"/>
</filter>
<linearGradient id="paint0_linear_25806_16614" x1="316.045" y1="402.63" x2="582.594" y2="402.63" gradientUnits="userSpaceOnUse">
<stop stop-color="#E9E9E9"/>
<stop offset="1" stop-color="#B7B7B7"/>
</linearGradient>
<linearGradient id="paint1_linear_25806_16614" x1="582.594" y1="403.795" x2="316.045" y2="403.795" gradientUnits="userSpaceOnUse">
<stop stop-color="#70B1B3"/>
<stop offset="1" stop-color="#2D5A5A"/>
</linearGradient>
<clipPath id="clip0_25806_16614">
<rect width="371.538" height="420" fill="white" transform="translate(75 333.147) rotate(-63.7235)"/>
</clipPath>
</defs>
</svg>
