<?xml version="1.0" encoding="UTF-8" standalone="no"?>
<svg
   xmlns:dc="http://purl.org/dc/elements/1.1/"
   xmlns:cc="http://creativecommons.org/ns#"
   xmlns:rdf="http://www.w3.org/1999/02/22-rdf-syntax-ns#"
   xmlns:svg="http://www.w3.org/2000/svg"
   xmlns="http://www.w3.org/2000/svg"
   xmlns:sodipodi="http://sodipodi.sourceforge.net/DTD/sodipodi-0.dtd"
   xmlns:inkscape="http://www.inkscape.org/namespaces/inkscape"
   version="1.1"
   id="Layer_1"
   x="0px"
   y="0px"
   viewBox="0 0 886.68347 1279.5674"
   enable-background="new 0 0 1919 1920"
   xml:space="preserve"
   inkscape:version="0.91 r13725"
   sodipodi:docname="backpacker-outline.svg"
   width="886.68347"
   height="1279.5674"><metadata
     id="metadata15614"><rdf:RDF><cc:Work
         rdf:about=""><dc:format>image/svg+xml</dc:format><dc:type
           rdf:resource="http://purl.org/dc/dcmitype/StillImage" /><dc:title></dc:title><dc:description></dc:description><cc:license
           rdf:resource="http://creativecommons.org/publicdomain/zero/1.0/" /><dc:creator><cc:Agent><dc:title>j4p4n</dc:title></cc:Agent></dc:creator></cc:Work><cc:License
         rdf:about="http://creativecommons.org/publicdomain/zero/1.0/"><cc:permits
           rdf:resource="http://creativecommons.org/ns#Reproduction" /><cc:permits
           rdf:resource="http://creativecommons.org/ns#Distribution" /><cc:permits
           rdf:resource="http://creativecommons.org/ns#DerivativeWorks" /></cc:License></rdf:RDF></metadata><defs
     id="defs15612" /><sodipodi:namedview
     pagecolor="#ffffff"
     bordercolor="#666666"
     borderopacity="1"
     objecttolerance="10"
     gridtolerance="10"
     guidetolerance="10"
     inkscape:pageopacity="0"
     inkscape:pageshadow="2"
     inkscape:window-width="1916"
     inkscape:window-height="1035"
     id="namedview15610"
     showgrid="false"
     inkscape:zoom="0.39585237"
     inkscape:cx="992.86833"
     inkscape:cy="527.4497"
     inkscape:window-x="304"
     inkscape:window-y="13"
     inkscape:window-maximized="0"
     inkscape:current-layer="g15548"
     fit-margin-top="0"
     fit-margin-left="0"
     fit-margin-right="0"
     fit-margin-bottom="0" /><g
     id="g15548"
     transform="translate(223.57329,-373.16553)"><path
       style="fill:#000000"
       d="m -143.22111,1652.0404 c -30.68773,-5.8994 -70.11984,-16.8441 -77.05207,-21.3863 -1.3289,-0.8707 -2.71822,-2.7866 -3.08739,-4.2574 -0.88514,-3.5267 1.1542,-26.0839 3.12738,-34.5921 3.67311,-15.8381 11.58315,-33.0517 22.70618,-49.4124 14.03862,-20.6493 16.49069,-21.0906 48.8059,-8.785 9.18597,3.498 19.60292,6.7535 23.5,7.3441 3.85,0.5835 18.7,1.3254 33,1.6486 29.7658,0.6727 38.81305,1.6625 46.37084,5.0729 2.95397,1.3329 6.37488,2.4235 7.60204,2.4235 1.7549,0 23.87392,-10.0476 25.38515,-11.5312 0.65894,-0.6469 -6.7257,-12.0369 -10.81912,-16.6873 -2.53105,-2.8754 -6.38447,-5.6986 -10.29234,-7.5406 -8.47662,-3.9956 -21.33579,-13.7409 -31.84148,-24.1311 -9.68221,-9.5757 -11.46362,-13.3611 -10.68821,-22.7115 0.78324,-9.4448 17.02642,-38.2815 31.76816,-56.3983 2.909,-3.575 6.3098,-8.779 7.55734,-11.5644 4.04443,-9.0302 8.14569,-31.12 13.91277,-74.9356 4.28366,-32.5454 5.58687,-38.2164 13.9965801,-60.9075 15.49701,-41.8141 23.9539599,-70.2594 26.9336699,-90.5925 4.91191,-33.5183 6.94363,-120.2175 3.33835,-142.457 -2.05028,-12.6473 -3.77654,-19.8574 -7.42169,-30.99801 -2.5329,-7.74125 -2.58565,-8.42911 -1.96354,-25.60405 0.35161,-9.707 1.317,-21.20226 2.1453,-25.54503 3.30227,-17.31365 13.11122,-41.26635 21.42515,-52.31857 2.24352,-2.98245 3.9693,-5.52293 3.83507,-5.64551 -0.13422,-0.12259 -5.35521,-0.96759 -11.6022,-1.87777 C 6.8005001,885.646 -16.4769,877.27381 -23.36731,870.3834 c -3.8244,-3.82441 -12.99289,-19.05997 -18.02779,-29.95734 -4.33517,-9.38291 -5.10607,-15.82251 -2.85273,-23.8298 9.6928,-34.44345 68.0994,-208.67286 88.33262,-263.5 13.96417,-37.83953 15.73431,-40.42116 32.05142,-46.74474 5.3968,-2.0915 8.45573,-2.5913 16.30938,-2.66479 5.31668,-0.0498 9.9598,-0.38358 10.31803,-0.74184 0.35823,-0.35825 -0.0543,-3.02742 -0.9167,-5.9315 -3.07239,-10.34587 -1.37663,-38.3103 3.90237,-64.35322 3.53071,-17.41801 10.07752,-37.26567 13.38228,-40.57044 3.85187,-3.85186 11.35085,-6.33996 39.19874,-13.00578 l 24.72545,-5.91842 22.86157,6.53885 c 56.60147,16.1891 83.37195,25.03179 100.95783,33.34785 10.87662,5.14338 13.60096,7.71433 17.48932,16.50461 2.05132,4.63734 2.09074,5.32666 0.89734,15.68758 -1.6045,13.93006 -1.11795,17.02826 3.89128,24.77852 2.26919,3.51087 4.12579,7.19797 4.12579,8.19356 0,2.5295 5.46658,8.48285 10.49538,11.42992 2.32159,1.36054 8.06161,3.98145 12.75561,5.82423 11.84216,4.64904 20.02622,9.87137 28.35963,18.09657 12.63991,12.47578 14.88319,21.56081 6.04411,24.47798 -5.19074,1.71309 -7.18356,4.75125 -9.52089,14.51505 -1.72872,7.22148 -2.80444,9.65136 -5.53382,12.5 -6.64046,6.93063 -8.65776,12.97615 -9.50322,28.47965 l -0.5968,10.94364 -5.96462,2.3067 c -3.28055,1.26868 -6.60393,2.946 -7.38529,3.72736 -0.78137,0.78137 -2.24561,5.77786 -3.25387,11.10333 -2.06109,10.88633 -4.03098,14.97563 -8.74397,18.15171 -3.96525,2.67218 -15.15308,5.32362 -22.46317,5.32362 -12.05729,0 -19.69998,2.87576 -19.6797,7.40499 0.0146,3.253 5.19218,11.34197 12.67443,19.80127 20.49277,23.16876 25.7303,29.48633 31.24583,37.6891 6.59442,9.8073 8.80176,12.05099 23.07036,23.4502 13.51439,10.79666 17.76303,12.91358 26.98945,13.44769 6.32068,0.3659 9.93624,-0.15715 21.9653,-3.17763 15.73104,-3.95004 26.99837,-4.76221 30.57274,-2.20374 1.08488,0.77654 4.58489,3.9599 7.77781,7.07413 11.82729,11.53587 19.53509,11.19039 27.31548,-1.22432 9.39796,-14.99578 9.32064,-14.93429 20.55229,-16.34262 9.95605,-1.24839 15.05842,-3.74142 18.35935,-8.97043 4.1587,-6.5878 10.91557,-24.26139 16.89816,-44.19962 13.04675,-43.48095 15.64415,-48.2267 26.38224,-48.20329 10.19562,0.0222 16.18718,5.72452 16.18718,15.40569 0,6.30634 -2.26899,15.50726 -9.99949,40.54858 -14.38852,46.60857 -15.06745,50.15197 -13.69957,71.5 0.96598,15.07578 -0.41189,28.34336 -3.68676,35.5 -1.3032,2.8479 -4.76452,7.3673 -8.04175,10.5 -7.21827,6.89992 -9.52136,11.41407 -14.07254,27.58267 -5.78902,20.56617 -19.25174,65.6932 -23.99084,80.41733 -8.16173,25.35804 -8.63031,27.07129 -28.8544,105.50004 -18.53314,71.8711 -25.829,101.8946 -40.58191,167 -6.60541,29.15 -15.62815,68.3 -20.05055,87 -4.42239,18.7 -8.3166,36.3037 -8.65379,39.1195 l -0.61309,5.1195 5.75135,2.7208 c 8.66768,4.1004 24.07521,7.781 29.36447,7.0146 2.40412,-0.3483 10.27912,-2.8967 17.5,-5.6631 7.58765,-2.9069 15.45022,-5.2342 18.62887,-5.514 5.09134,-0.4482 5.94581,-0.1937 11.5,3.4259 7.86981,5.1285 28.29646,22.2989 36.46032,30.648 l 6.46032,6.607 -1.27114,4.7526 c -2.75508,10.3009 -27.47475,63.6818 -35.78194,77.2692 -4.51952,7.3922 -6.91101,12.7899 -6.04873,13.6522 1.32811,1.3281 5.5484,-0.8863 11.68117,-6.1291 28.47204,-24.3405 39.43849,-32.5231 43.58775,-32.5231 4.02837,0 53.23938,34.2252 76.69705,53.3412 9.77844,7.9685 13.12327,12.5075 17.64437,23.9433 8.12752,20.5581 23.03699,81.8386 24.65844,101.3505 0.90489,10.8891 -0.4938,14.0152 -7.89134,17.6375 -12.20919,5.9782 -38.18684,14.2559 -54.0928,17.2364 -18.3065,3.4303 -22.0286,-0.4813 -38.0705,-40.0089 -14.77273,-36.4003 -25.60703,-55.3604 -44.57131,-78 -11.47019,-13.6931 -16.9568,-21.3624 -20.56776,-28.75 -1.5458,-3.1625 -3.16679,-5.75 -3.60222,-5.75 -3.39232,0 3.91499,14.7768 13.55495,27.4108 10.5342,13.8059 15.15859,24.0839 24.15652,53.6889 8.75202,28.796 10.18595,39.2714 6.00771,43.8883 -2.01632,2.228 -11.28019,4.7486 -35.01086,9.5261 -30.42992,6.1262 -41.65678,9.738 -78.5,25.2543 -32.9776,13.8883 -39.48319,16.2586 -46.3962,16.9041 -7.5372,0.7039 -10.84624,-0.5744 -25.85914,-9.9895 -11.4323,-7.1696 -25.48112,-14.41 -39.74466,-20.4832 -12.90449,-5.4945 -18.74998,-8.8992 -23.59381,-13.7419 -5.86705,-5.8657 -7.56609,-11.4503 -8.15558,-26.8064 -0.5421,-14.1215 0.55836,-23.5904 4.20146,-36.1515 3.21214,-11.0752 3.4763,-12.4262 2.54244,-13.0034 -2.89167,-1.7871 -26.93965,41.6929 -40.92989,74.0034 -2.85776,6.6 -6.13438,14.1185 -7.28139,16.7077 -1.14701,2.5892 -3.39568,5.9642 -4.99704,7.5 -2.82214,2.7065 -3.29588,2.8025 -15.42451,3.1255 -8.73207,0.2325 -17.77133,-0.332 -29.91584,-1.8682 -20.22704,-2.5586 -23.12523,-2.3246 -50.44584,4.0728 -22.43279,5.2528 -29.12369,6.2936 -36.88705,5.7382 -8.18161,-0.5854 -10.69885,-1.8743 -19.88728,-10.1826 -12.57714,-11.3725 -18.00397,-12.7144 -32.58554,-8.0578 -4.32293,1.3805 -14.22293,3.4197 -22,4.5315 -7.77707,1.1118 -36.6401299,6.4901 -64.14013,11.9518 -79.63767,15.8164 -94.75314,18.0874 -106,15.9252 z m 286.96167,-127.2242 c 4.07968,-6.2041 11.18044,-18.2416 15.77947,-26.75 4.59903,-8.5085 9.19003,-16.7258 10.20223,-18.2609 2.76035,-4.1862 8.70823,-7.159 22.55663,-11.2742 6.875,-2.0429 13.25628,-4.1007 14.18063,-4.5727 1.51505,-0.7737 1.71501,-4.282 2.02963,-35.6102 0.23845,-23.7438 0.72196,-35.6078 1.52641,-37.454 1.55112,-3.5598 3.33604,-4.3911 26.26333,-12.2323 19.87715,-6.7981 25.83531,-9.5557 29.64544,-13.7205 1.18,-1.2898 6.001,-8.015 10.71335,-14.9448 l 8.5679,-12.5997 -11.96582,-13.0971 c -12.96239,-14.1878 -21.5945,-21.2035 -26.08871,-21.2035 -8.48698,0 -19.94383,-6.7892 -32.03826,-18.9856 -17.99981,-18.1514 -19.86064,-30.3793 -8.17645,-53.729 4.19296,-8.3792 10.23559,-16.658 26.11936,-35.7854 4.2554,-5.1244 7.19827,-11.1807 20.16599,-41.5 8.35091,-19.525 19.00059,-43.317 23.66595,-52.8711 4.66536,-9.5541 8.34944,-17.4603 8.18686,-17.5693 -12.42148,-8.3315 -48.09363,-17.3965 -82.14888,-20.8759 -12.48905,-1.2759 -12.98495,-1.252 -17.5,0.8427 -6.06539,2.8139 -14.74116,12.2702 -19.41141,21.1577 -2.03448,3.8716 -5.79274,12.614 -8.35168,19.4276 -2.55895,6.8135 -9.03258,22.7383 -14.38584,35.3883 -12.53901,29.6302 -14.1141,34.108 -18.31348,52.0632 -4.67175,19.9748 -6.66969,24.8873 -15.22185,37.4269 -9.57243,14.0355 -16.81001,28.6636 -27.65283,55.8901 -4.90206,12.3091 -11.42888,28.0591 -14.50405,35 -13.60169,30.7 -31.91027,91.1311 -36.2659,119.7028 -1.1757,7.7122 -1.11368,8.4582 1.35221,16.2641 1.42144,4.4997 4.45474,15.796 6.74067,25.1029 l 4.15623,16.9217 6.6056,0.655 c 9.69735,0.9614 18.99397,3.2412 22.7936,5.5895 3.71664,2.297 7.99412,8.067 11.03375,14.8838 3.1712,7.1118 5.53329,8.6301 15.43444,9.921 8.27822,1.0792 18.15174,3.3663 27.84381,6.4497 8.41149,2.6759 8.32091,2.729 16.46167,-9.6508 z m 232.58799,-249.0777 c 9.00488,-44.6993 20.9598,-96.451 32.83567,-142.1422 10.28985,-39.5893 13.78744,-51.5977 23.59226,-81 6.67098,-20.0048 14.40998,-47.6236 27.03997,-96.50004 4.19264,-16.225 11.23359,-43 15.64655,-59.5 18.51581,-69.23039 20.99711,-84.5 13.73119,-84.5 -3.78396,0 -16.73633,6.10792 -21.10269,9.95135 -2.60498,2.29299 -6.52829,7.70248 -9.81599,13.53434 -6.38961,11.33417 -10.0218,14.90586 -17.23108,16.94402 -5.95771,1.68433 -21.93067,3.57029 -30.23824,3.57029 -7.06506,0 -10.55822,-1.48542 -19.73388,-8.39158 -4.06409,-3.05888 -9.34806,-6.2527 -11.74215,-7.09739 -2.51523,-0.88742 -10.93423,-1.93814 -19.94209,-2.48883 -15.55116,-0.95071 -24.11833,-2.16731 -42.08918,-5.97696 -12.07442,-2.55966 -18.16699,-2.55583 -28.24668,0.0177 -17.04842,4.35285 -20.3994,7.85928 -30.55922,31.97684 -7.18432,17.05428 -9.19088,21.06328 -15.86019,31.68773 -6.41245,10.21526 -12.29564,20.98118 -12.32124,22.5472 -0.0164,1.00193 3.40456,2.28733 14.48733,5.4435 13.67672,3.89489 32.94683,12.44097 78.5,34.81389 22.825,11.21025 48.925,23.66707 58,27.68184 15.67935,6.93652 16.6583,7.5361 19.68278,12.05517 9.6857,14.47203 12.81613,36.89223 7.36258,52.73083 -6.11933,17.7722 -19.44095,41.9546 -45.84686,83.2244 -18.64195,29.1356 -23.89384,37.7966 -43.14912,71.1581 l -13.20711,22.8825 5.17244,12.6175 c 19.12191,46.6455 22.20202,51.2546 36.15518,54.102 8.10662,1.6544 15.06677,4.5636 16.53217,6.91 0.63226,1.0125 1.70357,3.8129 2.38069,6.2232 l 1.23111,4.3823 1.83539,-5.8577 c 1.00947,-3.2218 4.11465,-17.1718 6.90041,-31 z"
       id="path30849"
       inkscape:connector-curvature="0" /></g></svg>