<svg width="39" height="37" viewBox="0 0 39 37" fill="none" xmlns="http://www.w3.org/2000/svg">
<path d="M19.2929 31.6872L21.0003 34.5331L20.3836 36.3831H6.81689L8.86655 33.9164L10.2225 32.2846L15.1304 26.3784L15.4503 26.9134L18.5336 32.0664L19.2929 31.6872Z" fill="#E0E0E2"/>
<path d="M37.6504 33.1205V36.3834H24.1608L23.467 34.5334L25.1806 31.6775L25.9761 32.0668L29.4595 26.1221L33.0532 27.1573C34.3705 27.5039 35.536 28.2769 36.3677 29.3557C37.1994 30.4345 37.6504 31.7583 37.6504 33.1205Z" fill="#E0E0E2"/>
<path d="M26.5504 22.3867V25.2835L22.2691 30.1768L22.2221 30.2038L17.917 25.2835V22.3867C19.3507 23.4297 20.9518 24.0502 22.2337 24.0502C23.5156 24.0502 25.1166 23.4297 26.5504 22.3867Z" fill="#FFDAAA"/>
<path d="M24.0838 20.35C24.084 20.5121 24.0523 20.6725 23.9904 20.8223C23.9284 20.972 23.8376 21.108 23.723 21.2226C23.6085 21.3372 23.4724 21.428 23.3227 21.4899C23.173 21.5518 23.0125 21.5836 22.8505 21.5834H21.6171C21.29 21.5834 20.9763 21.4534 20.745 21.2221C20.5137 20.9908 20.3838 20.6771 20.3838 20.35C20.3838 20.0229 20.5137 19.7092 20.745 19.4779C20.9763 19.2466 21.29 19.1167 21.6171 19.1167H22.8505C23.1776 19.1167 23.4913 19.2466 23.7226 19.4779C23.9539 19.7092 24.0838 20.0229 24.0838 20.35Z" fill="#E0E0E2"/>
<path d="M12.3669 10.4829H14.217V17.2663H12.3669V10.4829Z" fill="#E0E0E2"/>
<path d="M12.3669 10.4829V17.2663H12.0585C11.856 17.2663 11.6555 17.2265 11.4685 17.149C11.2814 17.0716 11.1114 16.958 10.9683 16.8149C10.8251 16.6717 10.7115 16.5017 10.6341 16.3146C10.5566 16.1276 10.5168 15.9271 10.5168 15.7246V12.0246C10.5168 11.8221 10.5566 11.6216 10.6341 11.4345C10.7115 11.2475 10.8251 11.0775 10.9683 10.9343C11.1114 10.7912 11.2814 10.6776 11.4685 10.6001C11.6555 10.5227 11.856 10.4828 12.0585 10.4829H12.3669Z" fill="#57565C"/>
<path d="M30.2505 10.4829H32.1005V17.2663H30.2505V10.4829Z" fill="#E0E0E2"/>
<path d="M33.9503 12.0246V15.7246C33.9504 15.9271 33.9106 16.1276 33.8331 16.3146C33.7557 16.5017 33.6421 16.6717 33.4989 16.8149C33.3558 16.958 33.1858 17.0716 32.9987 17.149C32.8116 17.2265 32.6111 17.2663 32.4087 17.2663H32.1003V10.4829H32.4087C32.6111 10.4828 32.8116 10.5227 32.9987 10.6001C33.1858 10.6776 33.3558 10.7912 33.4989 10.9343C33.6421 11.0775 33.7557 11.2475 33.8331 11.4345C33.9106 11.6216 33.9504 11.8221 33.9503 12.0246Z" fill="#57565C"/>
<path d="M24.0836 20.35C24.0838 20.5121 24.052 20.6725 23.9901 20.8223C23.9282 20.972 23.8374 21.108 23.7228 21.2226C23.6082 21.3372 23.4722 21.428 23.3225 21.4899C23.1727 21.5518 23.0122 21.5836 22.8502 21.5834H21.6169C21.2898 21.5834 20.9761 21.4534 20.7448 21.2221C20.5135 20.9908 20.3835 20.6771 20.3835 20.35C20.3835 20.0229 20.5135 19.7092 20.7448 19.4779C20.9761 19.2466 21.2898 19.1167 21.6169 19.1167H22.8502C23.1773 19.1167 23.491 19.2466 23.7223 19.4779C23.9536 19.7092 24.0836 20.0229 24.0836 20.35Z" fill="#57565C"/>
<path d="M22.2336 30.2166L22.2167 30.225L19.2929 31.6873L18.5336 32.0666L15.4503 26.9135L15.1304 26.3786L15.33 26.1381L15.4503 25.9939L17.9169 25.2832L22.2221 30.2035L22.2336 30.2166Z" fill="#ACABB1"/>
<path d="M29.4596 26.1219L25.9762 32.0666L25.1807 31.6773L22.2168 30.225L22.2338 30.2166L22.2692 30.1765L26.5504 25.2832L29.2383 26.0579L29.4596 26.1219Z" fill="#ACABB1"/>
<path d="M22.2221 30.2037L22.2691 30.1768L22.2337 30.2168L22.2167 30.2253L22.199 30.2168L22.2167 30.2068L22.2221 30.2037Z" fill="#E0E0E2"/>
<path d="M24.1606 36.3832H20.3835L21.0002 34.5332H23.4669L24.1606 36.3832Z" fill="#CCA400"/>
<path d="M25.1806 31.6774L23.467 34.5333H21.0004L19.293 31.6874L22.2168 30.2251L25.1806 31.6774Z" fill="#CCA400"/>
<path d="M25.9392 8.65332C25.9392 8.65332 21.0004 11.6395 14.217 11.6395V16.0333C14.2216 16.866 14.389 17.6898 14.7096 18.4584C14.9904 19.1351 15.3603 19.7712 15.8096 20.35C16.1873 20.8382 16.6089 21.2907 17.0691 21.702C17.3398 21.9446 17.6229 22.1731 17.9171 22.3865C19.3508 23.4295 20.9518 24.05 22.2337 24.05C23.5156 24.05 25.1167 23.4295 26.5504 22.3865C28.5662 20.9212 30.2504 18.6202 30.2504 16.0333V11.5278C28.429 11.1932 26.9389 10.131 25.9392 8.65332ZM23.723 21.2226C23.6084 21.3371 23.4724 21.4279 23.3226 21.4898C23.1729 21.5517 23.0124 21.5835 22.8504 21.5833H21.6171C21.29 21.5833 20.9763 21.4534 20.745 21.2221C20.5137 20.9908 20.3837 20.6771 20.3837 20.35C20.3837 20.0229 20.5137 19.7092 20.745 19.4779C20.9763 19.2466 21.29 19.1167 21.6171 19.1167H22.8504C23.0943 19.1168 23.3327 19.1892 23.5355 19.3248C23.7383 19.4603 23.8964 19.653 23.9897 19.8783C24.0831 20.1037 24.1076 20.3516 24.0601 20.5909C24.0127 20.8301 23.8953 21.05 23.723 21.2226Z" fill="#FFDAAA"/>
<path d="M30.2504 8.6334V11.5279C28.429 11.1933 26.9389 10.1311 25.9392 8.65344C25.9392 8.65344 21.0004 11.6397 14.217 11.6397V8.6334C14.217 6.50724 15.0617 4.46816 16.5651 2.96474C18.0685 1.46131 20.1076 0.616699 22.2337 0.616699C24.3599 0.616699 26.399 1.46131 27.9024 2.96474C29.4058 4.46816 30.2504 6.50724 30.2504 8.6334Z" fill="#AA6100"/>
<path d="M10.5855 33.9169H14.5252C14.7705 33.9169 15.0058 33.8195 15.1793 33.646C15.3528 33.4725 15.4502 33.2373 15.4502 32.9919V23.7419C15.4502 23.4966 15.3528 23.2613 15.1793 23.0878C15.0058 22.9143 14.7705 22.8169 14.5252 22.8169H1.57515C1.32982 22.8169 1.09455 22.9143 0.921074 23.0878C0.747602 23.2613 0.650146 23.4966 0.650146 23.7419V32.9919C0.650146 33.2373 0.747602 33.4725 0.921074 33.646C1.09455 33.8195 1.32982 33.9169 1.57515 33.9169H10.5855Z" fill="#E0E0E2"/>
<path d="M11.1335 36.3835H4.9668L6.20014 30.8335H9.90015L11.1335 36.3835Z" fill="#57565C"/>
<path d="M18.5336 14.8002C19.2148 14.8002 19.767 14.248 19.767 13.5668C19.767 12.8857 19.2148 12.3335 18.5336 12.3335C17.8525 12.3335 17.3003 12.8857 17.3003 13.5668C17.3003 14.248 17.8525 14.8002 18.5336 14.8002Z" fill="black"/>
<path d="M25.9335 14.8002C26.6147 14.8002 27.1669 14.248 27.1669 13.5668C27.1669 12.8857 26.6147 12.3335 25.9335 12.3335C25.2524 12.3335 24.7002 12.8857 24.7002 13.5668C24.7002 14.248 25.2524 14.8002 25.9335 14.8002Z" fill="black"/>
<path d="M33.2172 26.563L27.1669 24.8194V22.6896C28.7309 21.4817 30.0614 19.8013 30.6048 17.8834H32.4086C32.9808 17.8828 33.5294 17.6552 33.9341 17.2505C34.3387 16.8459 34.5663 16.2973 34.5669 15.7251V12.0251C34.5663 11.4528 34.3387 10.9042 33.9341 10.4996C33.5294 10.0949 32.9808 9.86734 32.4086 9.86671H30.8669V8.63337C30.8669 6.34366 29.9573 4.14773 28.3383 2.52866C26.7192 0.909585 24.5233 0 22.2335 0C19.9438 0 17.7479 0.909585 16.1288 2.52866C14.5098 4.14773 13.6002 6.34366 13.6002 8.63337V9.86671H12.0585C11.4863 9.86734 10.9376 10.0949 10.533 10.4996C10.1284 10.9042 9.90079 11.4528 9.90016 12.0251V15.7251C9.90079 16.2973 10.1284 16.8459 10.533 17.2505C10.9376 17.6552 11.4863 17.8828 12.0585 17.8834H12.3668V20.3501C12.3668 20.5136 12.4318 20.6705 12.5475 20.7861C12.6631 20.9018 12.82 20.9668 12.9835 20.9668H15.5203C16.0468 21.6063 16.6439 22.1842 17.3002 22.6896V24.8194L16.0668 25.1748V23.7418C16.0664 23.333 15.9039 22.9411 15.6149 22.6521C15.3258 22.3631 14.9339 22.2005 14.5252 22.2001H1.57512C1.16637 22.2005 0.774475 22.3631 0.485444 22.6521C0.196412 22.9411 0.0338554 23.333 0.0334473 23.7418V32.9918C0.0338554 33.4006 0.196412 33.7925 0.485444 34.0815C0.774475 34.3705 1.16637 34.5331 1.57512 34.5335H4.74634L4.47192 35.7668H3.11679C2.95324 35.7668 2.79639 35.8318 2.68074 35.9474C2.56509 36.0631 2.50012 36.2199 2.50012 36.3835C2.50012 36.547 2.56509 36.7039 2.68074 36.8195C2.79639 36.9352 2.95324 37.0002 3.11679 37.0002H37.6503C37.8138 37.0002 37.9707 36.9352 38.0863 36.8195C38.202 36.7039 38.2669 36.547 38.2669 36.3835V33.1205C38.2664 31.6236 37.7709 30.1688 36.8576 28.9828C35.9442 27.7967 34.6643 26.946 33.2172 26.563ZM32.7169 11.154C32.897 11.2178 33.0529 11.3358 33.1633 11.4918C33.2737 11.6477 33.3332 11.834 33.3336 12.0251V15.7251C33.3332 15.9161 33.2737 16.1024 33.1633 16.2584C33.0529 16.4143 32.897 16.5323 32.7169 16.5961V11.154ZM30.8669 11.1H31.4836V16.6501H30.8669V11.1ZM11.7502 16.5961C11.5701 16.5323 11.4141 16.4143 11.3037 16.2584C11.1933 16.1024 11.1339 15.9161 11.1335 15.7251V12.0251C11.1339 11.834 11.1933 11.6477 11.3037 11.4918C11.4141 11.3358 11.5701 11.2178 11.7502 11.154V16.5961ZM28.2522 26.4158L25.7092 31.2497L23.2171 30.0287L26.756 25.9849L28.2522 26.4158ZM22.2335 29.2802L18.5335 25.0514V23.5182C19.7962 24.249 21.1127 24.6668 22.2335 24.6668C23.3543 24.6668 24.6709 24.249 25.9336 23.5182V25.0514L22.2335 29.2802ZM14.8335 8.63337C14.8335 6.67076 15.6132 4.78853 17.0009 3.40076C18.3887 2.01298 20.2709 1.23334 22.2335 1.23334C24.1962 1.23334 26.0784 2.01298 27.4662 3.40076C28.8539 4.78853 29.6336 6.67076 29.6336 8.63337V10.7385C28.3293 10.3094 27.2078 9.45312 26.45 8.30808C26.3614 8.17707 26.2258 8.08509 26.0714 8.05109C25.9169 8.0171 25.7553 8.04369 25.6198 8.12539C25.5736 8.15391 21.0534 10.8434 14.8335 11.0145V8.63337ZM12.9835 11.1H13.6002V16.6501H12.9835V11.1ZM13.6002 19.7334V17.8834H13.8623C14.0487 18.5313 14.3166 19.1529 14.6593 19.7334H13.6002ZM17.1853 20.9668H19.8732C20.001 21.3272 20.2372 21.6392 20.5494 21.86C20.8616 22.0808 21.2345 22.1996 21.6169 22.2001H22.8502C23.3409 22.2001 23.8114 22.0052 24.1584 21.6582C24.5053 21.3113 24.7002 20.8407 24.7002 20.3501C24.7002 19.8594 24.5053 19.3889 24.1584 19.0419C23.8114 18.695 23.3409 18.5001 22.8502 18.5001H21.6169C21.2345 18.5005 20.8616 18.6193 20.5494 18.8402C20.2372 19.061 20.001 19.373 19.8732 19.7334H16.1146C15.0301 18.2164 14.8335 16.8328 14.8335 16.0334V12.2478C20.2494 12.1091 24.3788 10.1889 25.7624 9.45739C26.7367 10.7133 28.0969 11.6139 29.6336 12.0204V16.0334C29.6336 17.0933 29.2898 19.1784 26.9865 21.2427C25.5019 22.5732 23.6357 23.4334 22.2335 23.4334C20.8314 23.4334 18.9652 22.5732 17.4806 21.2427C17.378 21.151 17.2801 21.0585 17.1853 20.9668ZM21.0002 20.3501C21.0004 20.1866 21.0655 20.0299 21.1811 19.9143C21.2967 19.7987 21.4534 19.7336 21.6169 19.7334H22.8502C23.0138 19.7334 23.1706 19.7984 23.2863 19.914C23.4019 20.0297 23.4669 20.1865 23.4669 20.3501C23.4669 20.5136 23.4019 20.6705 23.2863 20.7861C23.1706 20.9018 23.0138 20.9668 22.8502 20.9668H21.6169C21.4534 20.9665 21.2967 20.9015 21.1811 20.7859C21.0655 20.6703 21.0004 20.5136 21.0002 20.3501ZM17.711 25.9849L21.2438 30.0225L18.7979 31.2451L16.2519 26.405L17.711 25.9849ZM5.73533 35.7668L6.1192 34.0417V34.0409L6.69502 31.4501H9.40528L9.98109 34.0409V34.0417L10.365 35.7668H5.73533ZM11.0803 33.3001L10.5022 30.6993C10.4717 30.5624 10.3955 30.4399 10.286 30.3522C10.1766 30.2644 10.0404 30.2167 9.90016 30.2168H6.20014C6.05985 30.2167 5.92373 30.2644 5.81426 30.3522C5.7048 30.4399 5.62855 30.5624 5.59812 30.6993L5.01999 33.3001H1.57512C1.49335 33.3001 1.41492 33.2677 1.3571 33.2098C1.29927 33.152 1.26679 33.0736 1.26679 32.9918V23.7418C1.26679 23.66 1.29927 23.5816 1.3571 23.5237C1.41492 23.4659 1.49335 23.4334 1.57512 23.4334H14.5252C14.607 23.4334 14.6854 23.4659 14.7432 23.5237C14.801 23.5816 14.8335 23.66 14.8335 23.7418V32.9918C14.8335 33.0736 14.801 33.152 14.7432 33.2098C14.6854 33.2677 14.607 33.3001 14.5252 33.3001H11.0803ZM19.9388 35.7668H11.6284L11.354 34.5335H14.5252C14.9339 34.5331 15.3258 34.3705 15.6149 34.0815C15.9039 33.7925 16.0664 33.4006 16.0668 32.9918V28.7029L17.9878 32.3536C18.0629 32.4964 18.191 32.6041 18.3446 32.6536C18.4982 32.7032 18.665 32.6907 18.8095 32.6187L19.2442 32.4006L20.3342 34.5805L19.9388 35.7668ZM21.2392 35.7668L21.445 35.1502H23.0398L23.2711 35.7668H21.2392ZM23.0861 33.9168H21.381L20.3473 31.8494L22.2189 30.9136L24.1213 31.8448L23.0861 33.9168ZM37.0336 35.7668H33.9503V33.9168C33.9503 33.7533 33.8853 33.5964 33.7696 33.4808C33.654 33.3651 33.4971 33.3001 33.3336 33.3001C33.17 33.3001 33.0132 33.3651 32.8975 33.4808C32.7819 33.5964 32.7169 33.7533 32.7169 33.9168V35.7668H24.5877L24.139 34.5689L25.229 32.3875L25.7046 32.6203C25.7887 32.6619 25.8813 32.6836 25.9752 32.6835C26.0877 32.6836 26.1981 32.6529 26.2945 32.5947C26.3908 32.5366 26.4694 32.4532 26.5217 32.3536L29.4624 26.7642L32.8826 27.7501C32.8874 27.751 32.892 27.7523 32.8965 27.754C34.0818 28.0664 35.1303 28.7622 35.8786 29.733C36.627 30.7037 37.0331 31.8948 37.0336 33.1205V35.7668Z" fill="black"/>
<path d="M1.26679 35.7671H0.650117C0.486566 35.7671 0.329713 35.8321 0.214065 35.9477C0.0984176 36.0634 0.0334473 36.2202 0.0334473 36.3838C0.0334473 36.5473 0.0984176 36.7042 0.214065 36.8198C0.329713 36.9355 0.486566 37.0004 0.650117 37.0004H1.26679C1.43034 37.0004 1.58719 36.9355 1.70284 36.8198C1.81848 36.7042 1.88345 36.5473 1.88346 36.3838C1.88345 36.2202 1.81848 36.0634 1.70284 35.9477C1.58719 35.8321 1.43034 35.7671 1.26679 35.7671Z" fill="black"/>
</svg>
