<svg width="27" height="35" viewBox="0 0 27 35" fill="none" xmlns="http://www.w3.org/2000/svg">
<path d="M26.3507 30.2799C26.3507 31.4272 25.895 32.5274 25.0837 33.3387C24.2725 34.1499 23.1723 34.6056 22.025 34.6056H4.72219C3.57494 34.6056 2.47468 34.1499 1.66345 33.3387C0.852227 32.5274 0.396484 31.4272 0.396484 30.2799V4.3257C0.396484 3.17846 0.852227 2.0782 1.66345 1.26697C2.47468 0.455743 3.57494 0 4.72219 0L16.6179 0L26.3507 9.73283V30.2799ZM4.72219 2.16285C4.14856 2.16285 3.59843 2.39072 3.19282 2.79634C2.78721 3.20195 2.55934 3.75208 2.55934 4.3257V25.9542L7.36952 21.144C7.53999 20.974 7.76233 20.8657 8.00132 20.8363C8.24031 20.8069 8.48227 20.8581 8.68886 20.9818L13.3736 23.7914L18.0389 17.2596C18.1302 17.1319 18.2481 17.0256 18.3846 16.9481C18.5211 16.8707 18.6728 16.8238 18.8292 16.8108C18.9856 16.7979 19.143 16.8191 19.2903 16.8731C19.4377 16.927 19.5716 17.0124 19.6826 17.1233L24.1879 21.6285V9.73283H19.8622C19.0017 9.73283 18.1765 9.39103 17.5681 8.78261C16.9597 8.17419 16.6179 7.34899 16.6179 6.48856V2.16285H4.72219Z" fill="#81D2D3"/>
</svg>
