<svg width="47" height="38" viewBox="0 0 47 38" fill="none" xmlns="http://www.w3.org/2000/svg">
<path d="M32 27L24 19L16 27" stroke="#447E7F" stroke-width="2" stroke-linecap="round" stroke-linejoin="round"/>
<path d="M24 19V37" stroke="#447E7F" stroke-width="2" stroke-linecap="round" stroke-linejoin="round"/>
<path d="M40.7809 31.78C42.7316 30.7165 44.2726 29.0337 45.1606 26.9972C46.0487 24.9607 46.2333 22.6864 45.6853 20.5334C45.1373 18.3803 43.8879 16.471 42.1342 15.1069C40.3806 13.7427 38.2226 13.0014 36.0009 13H33.4809C32.8755 10.6585 31.7472 8.48464 30.1808 6.64195C28.6144 4.79927 26.6506 3.33567 24.4371 2.36118C22.2236 1.3867 19.818 0.926686 17.4011 1.01573C14.9843 1.10478 12.619 1.74057 10.4833 2.8753C8.34747 4.01003 6.49672 5.61417 5.07014 7.56713C3.64356 9.52009 2.67828 11.771 2.24686 14.1508C1.81544 16.5305 1.92911 18.977 2.57932 21.3065C3.22954 23.636 4.39938 25.7877 6.0009 27.6" stroke="#447E7F" stroke-width="2" stroke-linecap="round" stroke-linejoin="round"/>
<path d="M32 27L24 19L16 27" stroke="#447E7F" stroke-width="2" stroke-linecap="round" stroke-linejoin="round"/>
</svg>
