<svg width="361" height="225" viewBox="0 0 361 225" fill="none" xmlns="http://www.w3.org/2000/svg">
<g clip-path="url(#clip0_25727_20017)">
<path d="M55.2517 196.747C56.0115 182.625 51.6655 168.776 47.0764 155.586C39.7116 134.398 33.1167 114.728 39.8939 92.538C41.1299 88.4887 42.7102 84.4293 45.5163 81.2405C50.1764 75.9662 57.7134 73.81 64.7845 74.3263C69.718 74.6907 74.4692 76.2193 78.9469 78.244C79.737 78.5983 89.6953 84.2167 89.5231 84.3888C98.9646 75.2171 107.018 65.4279 117.919 57.6431C128.728 49.919 140.753 43.9159 153.527 40.0893C173.18 34.2077 197.007 33.1448 211.21 53.1787C215.516 59.2527 218.433 66.5313 220.409 74.0428C231.441 77.0899 242.27 81.1291 252.816 85.5327C273.746 94.2691 296.853 105.273 311.471 123.06C320.812 134.418 322.118 150.636 318.461 164.808C315.979 174.405 308.665 181.633 306.355 191.088C302.85 205.433 312.576 217.976 324.469 224.839H46.5193C46.5193 224.839 54.6743 207.346 55.2517 196.747Z" fill="#F7F7F7"/>
<path d="M167.874 139.227H169.373V164.444H167.874V139.227Z" fill="#356493"/>
<path d="M216.468 167.966H218.818V219.048H216.468V167.966Z" fill="#356493"/>
<path d="M172.23 167.966H174.58V219.048H172.23V167.966Z" fill="#356493"/>
<path d="M274.75 114.404H276.705V202.376H274.75V114.404Z" fill="#356493"/>
<path d="M201.08 1.92432H294.301V66.7437H201.08V1.92432Z" fill="#356493"/>
<path d="M202.488 2.90625H292.893V65.7617H202.488V2.90625Z" fill="white"/>
<path d="M250.507 37.3657L236.628 37.5581C236.729 44.9481 242.97 50.9815 250.507 50.9815C250.537 50.9815 250.557 50.9815 250.588 50.9815L250.507 37.3657Z" fill="#356493"/>
<path d="M252.705 35.3918L252.898 48.9975C260.445 48.8963 266.584 42.7818 266.584 35.3918C266.584 27.9208 260.313 21.7861 252.695 21.7861C245.077 21.7861 238.806 27.931 238.806 35.3918H252.705Z" fill="#FA6325"/>
<path d="M240.012 52.328L245.32 44.695L244.794 44.3306L239.678 51.6801L230.884 51.5181L230.874 52.166L240.012 52.328Z" fill="#356493"/>
<path d="M260.302 30.2189L269.004 19.2656L286.783 19.1036L286.773 18.4658L268.7 18.6278L259.806 29.8241L260.302 30.2189Z" fill="#356493"/>
<path d="M276.025 15.7627H287.26V13.981H276.025V15.7627ZM286.622 15.1249H276.673V14.6288H286.622V15.1249Z" fill="#356493"/>
<path d="M276.025 12.503H287.26V10.7314H276.025V12.503ZM286.622 11.8653H276.673V11.3692H286.622V11.8653Z" fill="#356493"/>
<path d="M214.037 31.5346H225.271V29.7529H214.037V31.5346ZM224.623 30.8969H214.675V30.4008H224.623V30.8969Z" fill="#356493"/>
<path d="M225.666 21.3003H236.9V19.5186H225.666V21.3003ZM236.262 20.6625H226.314V20.1664H236.262V20.6625Z" fill="#356493"/>
<path d="M204.494 21.27H215.729V19.4883H204.494V21.27ZM215.09 20.6322H205.142V20.1362H215.09V20.6322Z" fill="#356493"/>
<path d="M226.65 18.1318H237.885V16.3501H226.65V18.1318ZM237.236 17.4839H227.288V16.9879H237.236V17.4839Z" fill="#356493"/>
<path d="M229.334 56.5595H240.568V54.7778H229.334V56.5595ZM239.93 55.9218H229.982V55.4257H239.93V55.9218Z" fill="#356493"/>
<path d="M229.435 60.2851H240.67V58.5034H229.435V60.2851ZM240.032 59.6372H230.084V59.1412H240.032V59.6372Z" fill="#356493"/>
<path d="M134.493 92.9325C134.26 91.5254 133.977 90.0373 133.014 88.9845C131.819 87.6786 129.884 87.385 128.121 87.2534C125.031 87.0205 121.85 87.061 118.923 88.0835C115.64 89.2274 112.865 91.5558 110.758 94.2992C109.41 96.0505 108.306 97.9739 107.222 99.9075C104.862 104.078 102.521 108.29 100.799 112.764C99.0771 117.239 97.9729 122.017 98.1755 126.805C98.2363 128.283 105.409 129.731 106.564 129.852C109.896 130.206 112.925 129.083 115.833 127.504C118.69 125.955 121.435 124.102 124.555 123.232C129.003 121.986 133.814 122.847 138.312 121.824C139.174 121.632 140.085 121.318 140.551 120.569C141.179 119.577 140.784 118.281 140.328 117.198C138.748 113.422 136.712 109.747 135.932 105.688C135.142 101.558 135.182 97.1641 134.493 92.9325Z" fill="#94224C"/>
<path d="M111.072 202C109.663 202.719 108.964 204.703 108.539 206.111C108.164 207.366 108.083 208.216 108.296 209.502C108.802 212.468 109.086 215.475 109.147 218.481C110.109 218.916 111.183 219.068 112.226 218.927C112.176 217.337 112.135 215.738 112.085 214.148C112.642 214.563 112.976 215.383 113.28 215.991C113.726 216.902 114.182 217.813 114.627 218.734C114.82 219.129 115.033 219.534 115.387 219.777C115.63 219.939 115.924 220.01 116.208 220.081C117.981 220.486 119.774 220.799 121.587 221.012C123.613 221.245 125.761 221.346 127.615 220.475C127.696 220.435 127.787 220.394 127.848 220.324C127.949 220.212 127.979 220.05 128 219.888C128.141 218.896 128.212 217.722 127.453 217.084C127.169 216.841 126.804 216.72 126.45 216.578C125.274 216.133 124.12 215.556 123.025 214.867C121.283 213.774 119.703 212.397 118.487 210.808C117.18 209.117 116.552 207.001 115.093 205.311C114.101 204.177 111.416 201.322 109.988 203.013C109.704 203.357 109.461 203.732 109.268 204.136" fill="black"/>
<path d="M149.525 212.508C149.485 212.468 149.455 212.427 149.414 212.387C148.067 210.848 147.013 209.077 145.635 207.558C144.268 206.06 143.346 204.298 141.593 203.175C140.57 202.517 139.415 201.98 138.2 202.021C135.535 202.112 135.211 205.007 135.302 207.072C135.373 208.753 135.839 210.413 136.042 212.093C136.265 213.966 136.356 215.859 136.336 217.752C137.511 218.157 138.828 218.552 139.932 218.005C139.922 217.378 139.598 213.581 140.084 213.571C140.925 213.561 141.806 217.044 142.059 217.671C142.14 217.874 142.221 218.086 142.383 218.238C142.556 218.41 142.809 218.491 143.042 218.562C145.848 219.433 148.421 220.141 151.42 220.202C152.088 220.212 152.777 220.202 153.405 219.969C154.601 219.534 154.53 218.866 154.479 217.702C154.449 216.942 154.327 216.102 153.709 215.657C152.24 214.594 150.782 213.895 149.525 212.508Z" fill="black"/>
<path d="M176.848 90.7055C175.774 90.4625 174.629 90.3005 173.566 90.5637C171.195 91.1306 171.104 92.9123 172.806 94.1575C173.647 94.775 174.71 95.1395 175.764 95.4938C178.266 96.3441 180.373 96.9718 182.035 98.8041C182.349 99.1483 182.744 99.5633 183.26 99.4925C183.706 99.4418 183.97 99.0268 183.939 98.6624C183.909 98.2979 183.656 97.974 183.412 97.6703C182.42 96.4352 181.396 95.2204 180.343 94.0259C181.68 94.5118 182.703 95.4229 183.777 96.2429C184.466 96.7693 186.077 98.1764 187.191 97.7715C188.386 97.3362 186.016 95.5748 185.449 95.0686C183.149 92.9832 180.14 91.4445 176.848 90.7055Z" fill="#F65D2F"/>
<path d="M187.151 93.0334C186.088 92.0312 185.389 91.3327 183.91 90.7861C182.593 90.3002 181.245 89.7535 179.786 89.6523C177.355 89.4802 174.974 89.5105 172.726 88.7209C170.345 87.8908 167.843 87.2834 165.3 86.919C164.844 86.8582 164.348 86.8076 163.963 87.0101C163.74 87.1316 163.598 87.3239 163.466 87.5163C162.281 89.1663 161.045 90.9885 161.42 92.8816C163.355 93.0638 165.28 93.3371 167.174 93.6915C167.964 93.8433 168.785 94.0154 169.382 94.4608C169.929 94.8759 170.223 95.463 170.71 95.9186C171.875 97.0119 173.86 97.1232 175.552 97.5687C176.818 97.9027 177.436 98.4798 178.348 99.239C178.449 99.32 178.54 99.401 178.672 99.4415C178.946 99.5427 179.28 99.4314 179.472 99.2491C179.665 99.0568 179.726 98.8037 179.726 98.5608C179.736 97.4371 178.53 96.9005 177.7 96.1514C176.717 95.2606 175.592 94.4102 175.137 93.2359C175.116 93.1752 175.096 93.1246 175.086 93.0638C175.066 92.9423 175.066 92.8209 175.137 92.7196C175.268 92.5374 175.572 92.4969 175.836 92.4767C177.467 92.3552 179.27 92.3754 180.84 92.0009C181.762 92.5678 183.079 92.4665 184.061 92.9322C184.376 93.0841 184.639 93.2865 184.933 93.4485C185.368 93.6915 188.053 94.6026 187.425 93.3371C187.354 93.2258 187.253 93.1246 187.151 93.0334Z" fill="#FF8B66"/>
<path d="M136.417 181.005C135.171 179.416 133.337 180.084 131.878 180.975C130.511 181.815 129.062 182.513 127.725 183.364C127.482 183.516 127.249 183.688 127.097 183.931C126.914 184.234 126.884 184.609 126.894 184.963C126.945 186.451 127.573 187.859 128.231 189.195C129.629 192.029 131.27 194.712 133.023 197.344C134.137 199.014 134.654 200.918 135.231 202.811C135.556 203.884 135.697 205.139 136.396 206.04C137.794 207.842 139.962 209.148 141.583 210.757C142.515 211.679 143.407 212.64 144.47 213.42C145.534 214.199 146.78 214.766 148.087 214.766C148.462 214.766 148.867 214.705 149.12 214.432C149.596 213.906 149.181 213.065 148.745 212.499C146.01 208.824 143.741 204.936 142.414 200.523C141.401 197.142 140.509 193.72 139.537 190.318C138.767 187.605 138.189 183.252 136.417 181.005Z" fill="#FF8B66"/>
<path d="M120.34 212.448C120.259 212.529 119.651 208.925 119.641 208.733C119.58 205.969 119.195 202.892 119.286 200.027C119.357 197.87 120.137 195.734 120.401 193.558C121.191 187.018 122.579 180.549 124.554 174.263C125.365 171.681 126.287 169.009 125.922 166.326C125.557 163.644 123.43 160.971 120.715 161.042C119.134 161.082 117.696 162.054 116.744 163.31C115.802 164.565 115.285 166.104 114.91 167.632C114.262 170.244 113.948 172.917 113.775 175.599C113.512 179.75 113.583 183.91 113.249 188.051C113.087 190.106 112.813 192.151 112.357 194.165C112.185 194.894 111.992 195.664 111.911 196.413C111.861 196.949 111.942 197.445 111.851 197.982C111.577 199.5 111.101 201.009 110.524 202.436C110.361 202.831 110.189 203.246 110.209 203.671C110.25 204.39 110.807 204.947 111.283 205.483C112.074 206.384 112.712 207.417 113.157 208.53C113.553 209.532 113.735 210.626 114.191 211.598C114.626 212.539 114.94 213.521 115.346 214.473C115.437 214.685 115.538 214.908 115.7 215.07C115.883 215.242 116.126 215.333 116.359 215.414C117.433 215.758 118.567 215.93 119.692 215.91C120.441 215.9 121.231 215.789 121.809 215.313C121.839 214.898 120.239 212.549 120.34 212.448Z" fill="#FF8B66"/>
<path d="M133.175 104.351C132.526 100.525 132.081 96.7791 131.665 92.9322C131.645 92.7602 131.625 92.5678 131.503 92.4463C131.361 92.2844 131.128 92.254 130.916 92.2439C127.492 92.011 124.078 92.7399 120.724 93.4688C119.823 93.6611 118.911 93.8636 118.009 94.0559C117.614 94.147 117.209 94.228 116.855 94.4305C116.328 94.7241 115.892 95.2606 115.295 95.3416C115.335 95.625 115.365 95.9186 115.396 96.2021C116.368 104.412 116.358 112.916 116.834 121.186C116.996 123.899 116.125 126.855 116.166 129.619C116.237 134.61 116.51 139.54 116.257 144.531C116.145 146.707 115.983 148.894 115.538 151.02C115.021 153.51 114.119 155.909 113.491 158.369C111.881 164.646 111.982 171.175 111.455 177.593C110.928 184.001 109.034 190.025 108.254 196.392C108.223 196.615 108.203 196.858 108.305 197.06C108.416 197.273 108.649 197.394 108.872 197.496C111.252 198.579 113.826 199.095 116.389 199.621C117.766 199.895 119.164 200.178 120.552 200.016C121.231 199.935 122.548 191.503 122.72 190.733C125.253 179.709 127.968 168.776 130.48 157.741C131.716 148.722 133.276 138.781 135.16 127.928C135.495 125.995 135.414 123.859 135.505 121.895C135.667 118.483 135.677 114.738 135.079 111.367C134.664 109.049 133.773 106.649 133.175 104.351Z" fill="black"/>
<path d="M142.08 194.793C142.414 194.621 140.621 188.597 140.499 188.071C139.871 185.145 139.294 182.22 138.747 179.284C137.673 173.585 136.721 167.855 135.758 162.135C135.302 159.412 134.887 156.699 134.998 153.925C135.09 151.607 134.006 149.279 133.479 147.011C132.8 144.126 132.03 141.251 131.2 138.386C128.94 130.54 126.55 122.624 126.094 114.414C126.043 113.422 126.053 112.318 126.722 111.59C127.208 111.063 127.998 110.77 128.231 110.091C128.363 109.697 128.272 109.261 128.181 108.856C127.005 103.855 125.82 98.8647 124.645 93.8638C121.343 93.5398 117.868 93.5196 114.616 94.1776C110.807 94.9469 106.39 97.0931 104.678 100.859C100.778 109.443 104.982 122.047 108.771 129.984C112.944 138.74 118.79 147.264 120.471 156.982C120.907 159.513 120.937 162.085 121.231 164.625C121.525 167.136 122.437 169.343 123.044 171.732C125.253 180.428 128.049 189.012 129.295 197.921C131.453 198.66 134.077 198.64 136.255 197.982C138.514 197.303 140.064 195.805 142.08 194.793Z" fill="black"/>
<path d="M124.939 27.2119C124.675 27.4447 124.442 27.6978 124.219 27.961C122.325 30.259 119.661 31.8686 118.06 34.4298C117.199 35.7964 116.672 37.3757 116.51 38.9853C116.348 40.6556 116.713 42.5588 118.101 43.5002C120.339 45.0187 123.936 44.0469 126.489 44.3708C129.467 44.7454 132.354 45.6767 135.15 46.7397C135.849 47.013 136.629 47.2864 137.338 47.0434C137.754 46.9017 138.088 46.5878 138.402 46.274C139.516 45.1402 141.147 43.5711 141.218 41.921C141.644 42.9536 141.806 44.0874 141.674 45.1908C142.302 44.0975 143.092 42.8928 143.467 41.6882C143.852 40.4531 143.822 38.9549 143.64 37.6895C143.386 35.9179 142.647 34.4095 141.917 32.8708C141.603 32.2027 141.279 31.5244 141.006 30.8158C140.205 28.7506 139.729 26.2704 137.804 24.9139C136.579 24.0534 134.978 23.8611 133.489 24.0838C130.673 24.4988 127.167 25.2075 124.939 27.2119Z" fill="black"/>
<path d="M141.422 94.3599L138.879 98.6116C140.125 96.6983 140.976 95.2912 141.422 94.3599Z" fill="#F8C7C9"/>
<path d="M135.01 52.2268C134.463 51.7004 133.824 51.2651 133.095 50.9411C132.68 50.7589 132.254 50.6071 131.818 50.4754C128.506 49.4631 124.839 48.8456 121.404 49.21C118.578 49.5137 115.012 49.6352 112.338 50.6475C110.615 51.2954 109.38 52.1255 108.62 53.1379C106.756 55.8104 105.601 58.2198 105.155 60.376C105.054 59.9306 104.588 63.7167 103.767 71.7343C103.666 79.347 103.504 83.6191 103.281 84.5605L103.575 93.3981C103.646 94.4307 103.838 95.0685 104.142 95.3317C104.598 96.6983 106.29 97.1741 109.207 96.7591C114.566 96.0302 119.865 95.0887 125.203 94.3092C127.462 93.9752 129.884 93.6715 131.93 94.6737C132.457 94.9268 135.182 88.873 135.405 88.2758C136.063 86.4941 137.299 83.4875 136.793 81.5742L138.434 76.2696C138.474 76.4518 138.677 74.579 139.021 70.6208C139.123 70.3373 138.981 67.4927 138.576 62.097C138.332 58.7867 137.532 54.626 135.01 52.2268Z" fill="white"/>
<path d="M120.432 49.5543C120.847 48.9266 121.313 48.2889 122.012 48.0155C122.499 47.8232 123.046 47.8434 123.562 47.8333C124.778 47.8131 125.973 47.6106 127.189 47.6005C128.405 47.5904 129.661 47.803 130.644 48.5116C131.272 48.9671 131.788 49.6049 132.508 49.939C133.136 50.2224 134.341 50.2325 133.369 49.3822C132.629 48.7343 132.163 47.8839 131.262 47.4385C130.796 47.2057 130.299 47.0538 129.793 46.9222C126.439 45.9808 123.269 46.0516 119.946 47.1551C119.743 47.2259 119.561 47.3272 119.379 47.4284C118.538 47.9042 117.717 48.3597 116.897 48.8558C114.435 50.3237 111.639 51.2347 108.782 51.4878C107.627 51.5891 106.412 51.5992 105.419 52.1863C104.284 52.8443 103.656 54.1098 103.139 55.3245C101.863 58.3413 101.316 61.6314 100.06 64.5975C98.8542 67.4522 98.8745 70.6714 98.2464 73.6983C97.1625 78.8915 96.2507 84.1455 95.9975 89.4501C95.8759 91.9506 95.8961 94.5624 95.9873 97.0628C96.0278 97.9638 96.3115 98.7635 96.0785 99.6443C95.7644 100.808 94.8932 101.77 94.5691 102.955C94.2449 104.149 94.7008 105.465 94.3259 106.599C94.1436 107.156 93.7789 107.621 93.4851 108.117C92.4214 109.899 92.4721 112.045 91.8136 113.969C91.1956 115.75 90.4966 117.562 89.3721 119.091C89.1796 119.354 88.9669 119.648 88.9669 119.972C88.9669 120.427 89.3721 120.761 89.7368 121.025C93.2622 123.616 97.0004 126.603 100.941 128.536C102.339 129.214 102.147 128.404 102.572 127.068C102.906 126.005 103.261 124.942 103.616 123.879C104.325 121.754 105.064 119.638 105.773 117.512L113.27 100.525C114.242 97.2855 115.114 94.6231 115.873 92.5074C116.431 89.8854 117.342 86.4334 118.609 82.1411C119.531 78.5271 119.622 74.083 119.561 70.3576C119.47 65.7212 118.315 61.1859 118.062 56.5596C118.011 55.446 117.889 54.0996 118.234 53.0164C118.599 51.8421 119.713 50.6273 120.392 49.6049C120.412 49.6049 120.422 49.5847 120.432 49.5543Z" fill="#AC2957"/>
<path d="M137.866 93.813C137.724 91.7074 138.504 89.3385 139.092 87.324C139.466 87.6074 139.831 87.8909 140.186 88.1845C142.354 89.9156 144.278 91.5859 147.267 92.0819C152.129 93.1044 157.053 93.8434 161.997 94.2989C162.827 94.3799 163.982 88.7514 164.529 88.063C165.512 86.828 166.515 86.0282 164.347 85.3297C163.769 85.1475 163.202 84.945 162.635 84.7223C161.014 84.1149 159.423 83.4164 157.792 82.8596C155.321 82.0093 152.889 80.9767 150.468 79.9745C149.941 79.7619 149.414 79.5392 148.938 79.2254C147.409 78.2333 146.821 76.3909 146.173 74.7711C145.069 71.9771 144.106 69.1325 143.144 66.2979C142.374 64.0405 142.587 61.6716 141.786 59.4141C140.895 56.9137 140.479 54.7574 138.443 52.8239C137.288 51.7305 135.911 50.9106 134.644 49.9691C134.107 49.5642 133.56 49.1491 133.044 48.7138C132.831 48.5316 131.332 47.499 131.311 47.3472C131.382 47.7926 131.453 48.2279 131.524 48.6733C131.544 48.7948 131.565 48.9264 131.615 49.0378C131.656 49.139 131.717 49.2301 131.787 49.3111C132.233 49.9387 132.74 50.4348 133.307 50.9308C133.844 51.4167 134.158 52.0342 134.472 52.6923C137.41 58.9181 137.886 65.6197 137.835 72.4529C137.754 75.0951 137.521 77.221 137.126 78.8306C136.67 80.6831 136.204 82.7989 135.384 84.5199C133.976 87.5062 132.051 90.8266 132.345 94.2584C132.638 97.6295 132.314 101.021 133.267 104.351C134.117 107.328 135.515 110.111 136.914 112.875C138.19 115.396 139.466 117.927 140.743 120.447C141.401 117.663 141.057 114.758 140.712 111.924C140.297 108.563 140.084 105.09 139.446 101.77C138.929 99.2492 137.866 96.4046 137.866 93.813Z" fill="#AC2957"/>
<path d="M128.9 40.6255C128.85 40.5749 128.789 40.5243 128.728 40.4636C128.242 40.0283 127.685 39.7043 127.087 39.4411C126.591 39.2184 126.064 39.0463 125.527 39.0666C123.278 39.1374 123.653 41.3443 123.501 42.9539C123.359 44.4015 123.086 45.839 122.782 47.2664C122.549 48.4002 122.478 49.5239 121.779 50.4552C121.708 50.5565 121.627 50.6577 121.617 50.7792C121.596 50.9209 121.667 51.0525 121.738 51.174C122.701 52.9253 124.139 54.3831 125.78 55.5068C127.138 56.428 128.86 57.4403 130.562 57.1872C132.041 56.9645 133.054 54.2717 133.49 53.0266C133.591 52.7532 133.672 52.4394 133.571 52.1661C133.429 51.7713 132.983 51.5992 132.598 51.4271C131.038 50.7185 131.382 47.8738 131.241 46.4768C131.018 44.2801 130.542 42.1947 128.9 40.6255Z" fill="#FF8B66"/>
<path d="M131.332 48.319C131.271 46.9827 131.18 45.7983 130.836 44.4924C130.552 43.4294 129.65 42.4677 128.921 41.668C128.202 40.8784 127.087 40.4532 126.044 40.4431C125.152 40.4329 124.291 40.8277 124.494 41.8603C124.686 42.8322 125.041 43.7331 125.507 44.6037C126.236 45.9906 127.239 47.3066 128.658 47.9849C129.478 48.3898 130.441 48.5417 131.332 48.319Z" fill="#F65D2F"/>
<path d="M128.536 22.6263C127.259 22.8287 126.094 23.4058 125.152 24.2966C122.66 26.6756 122.012 30.2491 122.235 33.5392C122.275 34.1769 122.255 34.9159 122.447 35.5334C122.65 36.1813 123.076 36.7482 123.461 37.2949C123.542 37.4063 123.612 37.5176 123.673 37.6492C123.734 37.7909 123.764 37.9428 123.785 38.1048C124.109 39.8156 124.727 41.3948 125.963 42.64C126.804 43.4903 127.766 44.2192 128.83 44.7659C130.025 45.3834 131.119 45.7276 132.446 45.2822C133.631 44.8772 134.574 43.9864 135.1 42.8526C137.43 37.8719 138.018 30.3301 134.908 25.5519C133.581 23.4867 131.545 22.1404 128.536 22.6263Z" fill="#FF8B66"/>
<path d="M105.833 97.579C104.901 96.3237 103.949 95.0786 102.976 93.8638C100.768 95.7669 98.2253 97.2652 95.4901 98.2775C96.9185 100.94 99.3599 102.813 101.7 104.635C103.554 106.072 105.681 107.034 106.512 109.322C106.867 110.304 107.089 111.134 107.181 111.812L107.667 112.855C107.9 113.128 108.244 113.736 108.7 114.667C108.812 114.829 109.004 114.89 109.268 114.859L113.229 103.481C113.208 103.521 109.105 101.912 108.731 101.578C107.596 100.545 106.755 98.8141 105.833 97.579Z" fill="#FF8B66"/>
<path d="M112.144 54.8689C110.746 52.8544 108.466 51.923 105.579 52.7531C103.675 53.2998 102.044 54.545 100.565 55.8711C98.2549 57.9464 96.6745 60.4974 94.5877 62.7246C92.8655 64.5569 90.6267 66.126 88.712 67.7862C85.9464 70.1955 83.0997 72.7162 81.6409 76.0772C80.3138 79.1243 80.8001 81.6146 81.9854 83.9531C83.1504 86.2612 84.9941 88.4174 86.4124 90.7964C87.466 92.5579 88.7424 94.2687 89.9479 95.9289C91.123 97.5588 92.7541 98.9558 93.757 100.687C97.3938 98.8343 101.112 96.9109 103.837 93.8739C103.918 93.7828 104.009 93.6714 104.009 93.5398C104.009 93.4183 103.918 93.3171 103.837 93.2361C102.773 92.1023 93.8482 82.5459 95.0537 81.6855C99.9366 78.365 104.809 75.0547 109.692 71.7343C110.493 71.1876 111.303 70.6308 111.88 69.8514C113.856 67.1383 114.18 61.034 113.41 57.7945C113.137 56.6708 112.711 55.6889 112.144 54.8689Z" fill="#AC2957"/>
<path d="M129.59 96.5262C125.132 97.9637 120.543 98.9254 115.873 99.381C115.316 99.4316 115.316 100.302 115.873 100.252C120.614 99.7859 125.284 98.8242 129.823 97.3664C130.35 97.1842 130.127 96.344 129.59 96.5262Z" fill="#454F54"/>
<path d="M126.023 98.3688C125.84 97.8424 125 98.0651 125.182 98.6017C126.408 102.206 127.147 106.002 128.069 109.687C128.201 110.233 129.042 110 128.91 109.454C127.988 105.759 127.248 101.963 126.023 98.3688Z" fill="#454F54"/>
<path d="M113.492 101.456C111.73 106.477 109.967 111.499 108.204 116.52C108.022 117.046 108.863 117.279 109.045 116.753C110.808 111.731 112.57 106.71 114.333 101.689C114.526 101.163 113.675 100.93 113.492 101.456Z" fill="#454F54"/>
<path d="M116.652 51.1029C112.974 57.6931 114.697 65.397 115.791 72.4225C116.469 76.7553 116.733 81.0475 115.639 85.3297C114.605 89.3385 112.843 93.1853 111.333 97.0322C111.131 97.5586 111.972 97.7813 112.174 97.265C113.592 93.651 115.152 90.0471 116.267 86.3218C117.432 82.4041 117.442 78.4256 116.946 74.3965C116.024 66.8952 113.461 58.6245 117.412 51.5382C117.675 51.0523 116.925 50.617 116.652 51.1029Z" fill="#94224C"/>
<path d="M136.741 54.8286C139.892 61.672 140.591 69.4467 138.869 76.7658C138.473 78.4361 137.926 80.066 137.288 81.6553C136.528 83.518 135.546 85.239 135.07 87.213C134.178 90.9789 134.533 95.1598 135.313 98.9054C135.424 99.4521 136.265 99.2192 136.154 98.6726C135.293 94.5828 134.968 89.8754 136.366 85.8666C137.005 84.0343 137.987 82.3336 138.656 80.5114C139.294 78.7905 139.75 76.9986 140.094 75.1967C141.411 68.2015 140.469 60.852 137.491 54.3933C137.258 53.8771 136.508 54.3225 136.741 54.8286Z" fill="#94224C"/>
<path d="M94.1015 81.7058C92.663 81.2705 91.346 80.5923 90.1506 79.6913C89.7049 79.3573 89.2693 80.1064 89.715 80.4404C90.9712 81.392 92.3692 82.0905 93.8786 82.5461C94.4054 82.7081 94.6283 81.8678 94.1015 81.7058Z" fill="#94224C"/>
<path d="M94.6704 80.2377C93.4953 79.5696 92.5126 78.6585 91.763 77.5348C91.4489 77.0691 90.6993 77.5044 91.0133 77.9701C91.844 79.2153 92.928 80.2377 94.2348 80.9868C94.7211 81.2602 95.1567 80.511 94.6704 80.2377Z" fill="#94224C"/>
<path d="M112.63 67.209C112.539 69.0413 110.685 69.8107 109.439 70.7926C108.162 71.805 107.463 73.2425 106.055 74.1232C104.576 75.0444 102.935 75.753 101.385 76.5325L96.482 79.0228C95.9856 79.2759 96.4212 80.0251 96.9176 79.772C98.8019 78.8204 100.686 77.8587 102.57 76.9071C104.181 76.0871 106.096 75.3886 107.474 74.194C108.092 73.6575 108.537 73.0096 109.044 72.3719C109.682 71.562 110.604 71.0457 111.435 70.4586C112.549 69.6689 113.44 68.6161 113.501 67.209C113.532 66.6421 112.66 66.6522 112.63 67.209Z" fill="#94224C"/>
<path d="M101.67 90.8169C101.346 90.4727 100.981 90.169 100.626 89.8653C100.12 89.4401 99.9375 88.9036 99.7045 88.3063C99.0157 86.5348 97.8709 84.9657 96.4932 83.6699C96.088 83.2852 95.47 83.9027 95.8752 84.2874C97.3441 85.6642 98.4078 87.294 99.117 89.1871C99.4108 89.9666 99.9376 90.412 100.556 90.9485C101.315 91.6167 101.943 92.4164 102.49 93.2769C102.784 93.7527 103.544 93.3174 103.24 92.8416C102.774 92.1026 102.257 91.4344 101.67 90.8169Z" fill="#94224C"/>
<path d="M146.405 74.1637C146.486 72.5642 145.443 71.3595 144.734 70.0233C142.849 66.5206 143.042 62.4612 141.451 58.8472C141.938 60.7301 142.221 62.6738 142.292 64.6174C142.353 66.3181 142.809 67.8366 143.488 69.4159C143.832 70.2359 144.278 71.0052 144.744 71.7645C145.382 72.7971 145.554 73.6474 145.524 74.8521C145.504 75.4797 145.706 76.0264 146.03 76.5629C146.294 76.9982 147.58 78.1016 147.023 78.6584C145.939 79.7416 145.331 81.0171 145.159 82.5356C145.098 83.0924 145.97 83.0823 146.03 82.5356C146.142 81.5031 146.527 80.5819 147.175 79.7619C147.469 79.3873 148.117 79.0127 148.117 78.4762C148.117 77.8486 147.692 77.3222 147.337 76.8565C146.618 75.9555 146.344 75.3177 146.405 74.1637Z" fill="#94224C"/>
<path d="M147.895 80.1165C147.399 81.3616 147.227 82.6675 147.359 83.9937C147.419 84.5504 148.291 84.5504 148.23 83.9937C148.098 82.7283 148.26 81.5236 148.736 80.3493C148.939 79.8229 148.098 79.6002 147.895 80.1165Z" fill="#94224C"/>
<path d="M152.049 81.2905C152.859 81.4221 153.629 81.5132 154.368 81.8979C154.946 82.2016 155.442 82.6369 156.03 82.9507C156.476 83.1836 156.972 83.2544 157.468 83.3152C158.299 83.4265 159.099 83.6189 159.89 83.872C161.591 84.4085 163.192 85.0766 164.428 86.3522C164.489 86.4129 164.55 86.4838 164.58 86.5648C164.631 86.7368 164.509 86.9089 164.398 87.0608C162.838 89.1259 162.402 91.7985 162.017 94.3496C164.114 92.3654 164.205 88.9741 166.049 86.747C166.17 86.6053 166.302 86.4534 166.312 86.2611C166.343 85.5625 163.273 84.368 162.726 84.1149C160.984 83.3253 159.17 82.6875 157.276 82.4142C156.07 82.2421 155.189 81.2602 154.085 80.8147C153.031 80.3896 151.775 80.5718 150.762 80.0352C149.668 79.4481 148.685 78.6281 147.561 78.1118C148.371 78.4864 148.898 79.9846 149.638 80.5515C150.286 81.0678 151.228 81.1589 152.049 81.2905Z" fill="#94224C"/>
<path d="M101.913 128.668C97.547 126.046 93.282 123.252 89.1387 120.306C90.8406 117.421 92.0563 114.293 92.7451 111.013C92.9376 110.071 93.0997 109.191 93.6366 108.371C94.0114 107.804 94.3964 107.338 94.6395 106.7C95.1967 105.263 94.7105 103.532 95.7134 102.246C96.0578 101.811 95.4398 101.193 95.0954 101.629C94.2951 102.651 94.2039 103.825 94.0722 105.07C93.9811 105.951 93.7784 106.7 93.2517 107.429C92.735 108.158 92.3703 108.806 92.1373 109.677C91.6713 111.398 91.3775 113.129 90.7798 114.819C90.1214 116.702 89.2197 118.504 88.1864 120.205C88.0547 120.417 88.156 120.66 88.3384 120.802C92.6033 123.849 96.9797 126.724 101.478 129.427C101.954 129.7 102.389 128.951 101.913 128.668Z" fill="#94224C"/>
<path d="M131.606 60.9125C131.575 60.71 131.261 60.7809 131.292 60.9833C132.193 66.4398 132.467 71.9671 131.95 77.4742C131.818 78.8813 131.656 80.2986 131.373 81.6854C131.109 82.9306 130.724 84.1454 130.329 85.3602C129.681 87.3444 128.698 89.4298 128.719 91.5556C128.719 91.7581 129.043 91.7682 129.043 91.5658C129.022 89.4095 130.046 87.2836 130.704 85.2691C131.099 84.0543 131.464 82.8395 131.727 81.5943C132.011 80.2479 132.153 78.8611 132.284 77.4843C132.811 71.9469 132.507 66.3892 131.606 60.9125Z" fill="#B4D2D0"/>
<path d="M130.086 68.0394C130.076 67.9989 130.076 67.9686 130.066 67.9483C130.076 67.8673 130.066 67.7762 130.015 67.675C130.015 67.594 130.005 67.5232 130.005 67.4422C129.995 67.3106 129.843 67.2093 129.732 67.3207C129.722 67.3308 129.711 67.3409 129.711 67.3511C129.661 67.3511 129.6 67.3814 129.58 67.432C129.489 67.594 129.418 67.7864 129.397 67.9787C129.235 67.9787 129.073 67.9585 128.931 67.9483C128.557 67.9078 128.182 67.8269 127.807 67.7762C127.604 67.7459 127.594 68.0698 127.797 68.1002C128.324 68.171 128.85 68.3026 129.387 68.2925C129.408 68.5051 129.478 68.7177 129.61 68.8898C129.691 68.991 129.843 68.9303 129.884 68.8189C129.955 68.6165 129.995 68.414 130.015 68.2115C130.056 68.1812 130.096 68.1204 130.086 68.0394Z" fill="#B4D2D0"/>
<path d="M130.289 74.933C130.279 74.7913 130.107 74.7103 130.015 74.8217C129.934 74.7609 129.793 74.7812 129.762 74.9027C129.732 74.9938 129.712 75.0849 129.691 75.176C129.144 75.095 128.597 74.9836 128.06 74.8318C127.858 74.7711 127.777 75.0849 127.969 75.1355C128.516 75.2873 129.073 75.3987 129.641 75.4898C129.62 75.7125 129.63 75.9352 129.712 76.1478C129.752 76.2592 129.934 76.33 130.005 76.1883C130.046 76.1073 130.076 76.0263 130.096 75.9454C130.127 75.9251 130.157 75.8947 130.178 75.8542C130.279 75.5505 130.319 75.257 130.289 74.933Z" fill="#B4D2D0"/>
<path d="M129.499 83.5582C129.499 83.5075 129.509 83.4671 129.509 83.4164C129.509 83.3557 129.468 83.3051 129.417 83.2747C129.397 83.2342 129.357 83.2038 129.306 83.1937C129.296 83.1735 129.296 83.1532 129.286 83.133C129.225 82.9913 129.033 83.052 128.992 83.1634C128.931 83.3355 128.87 83.5075 128.83 83.6796C128.354 83.5582 127.878 83.4367 127.402 83.3051C127.199 83.2443 127.118 83.5582 127.31 83.6088C127.797 83.7404 128.283 83.872 128.769 83.9935C128.749 84.0947 128.749 84.1858 128.759 84.2769C128.759 84.3579 128.759 84.449 128.779 84.5401C128.8 84.6414 128.931 84.692 129.012 84.6414C129.033 84.6515 129.053 84.6616 129.073 84.6717C129.134 84.692 129.225 84.6616 129.255 84.6009C129.336 84.4389 129.387 84.287 129.417 84.1149C129.509 83.953 129.529 83.7606 129.499 83.5582Z" fill="#B4D2D0"/>
<path d="M132.962 197.141C132.263 196.342 132.111 195.147 131.979 194.135C131.838 192.961 131.817 191.786 131.706 190.612C131.574 189.215 131.26 187.808 130.997 186.431C130.683 184.771 130.247 183.161 129.74 181.552C127.704 175.022 125.324 168.563 123.875 161.862C123.156 158.521 122.73 155.12 122.325 151.728C122.133 150.088 122.001 148.428 121.616 146.819C121.261 145.31 120.684 143.863 120.066 142.445C118.729 139.368 117.29 136.341 115.923 133.274C114.585 130.277 113.106 127.372 111.627 124.446C110.148 121.531 108.76 118.484 108.325 115.214C108.274 114.799 107.646 114.961 107.697 115.366C108.112 118.494 109.409 121.429 110.797 124.234C112.245 127.159 113.765 130.034 115.102 133.021C116.48 136.088 117.878 139.155 119.266 142.223C119.934 143.701 120.532 145.209 120.937 146.788C121.352 148.388 121.474 150.048 121.667 151.688C122.072 155.079 122.507 158.471 123.196 161.821C123.895 165.172 124.878 168.472 125.901 171.742C126.924 175.012 128.018 178.251 129.042 181.511C129.548 183.121 129.994 184.73 130.318 186.391C130.602 187.818 130.916 189.276 131.057 190.723C131.179 191.958 131.199 193.203 131.351 194.428C131.483 195.522 131.726 196.726 132.476 197.587C132.77 197.891 133.236 197.445 132.962 197.141Z" fill="#454F54"/>
<path d="M132.689 143.346C131.736 141.221 131.321 138.902 130.895 136.635C130.44 134.175 129.852 131.796 129.143 129.397C127.623 124.203 125.932 119.061 124.209 113.928C124.078 113.544 123.45 113.685 123.581 114.08C125.303 119.213 126.995 124.355 128.515 129.548C129.214 131.948 129.811 134.327 130.267 136.787C130.703 139.125 131.139 141.484 132.121 143.66C132.293 144.025 132.861 143.721 132.689 143.346Z" fill="#454F54"/>
<path d="M107.029 53.4113C106.634 53.2898 106.462 53.9073 106.857 54.0288C110.362 55.1322 111.953 58.5843 111.973 62.0464C111.973 62.4615 112.621 62.4716 112.611 62.0565C112.581 58.3008 110.808 54.6058 107.029 53.4113Z" fill="#94224C"/>
<path d="M96.7979 98.49C95.1872 96.3843 93.6372 94.2382 92.148 92.0415C91.915 91.7074 91.3477 92.001 91.5807 92.3452C93.1003 94.5824 94.6908 96.7893 96.342 98.9354C96.5852 99.2594 97.041 98.8139 96.7979 98.49Z" fill="#94224C"/>
<path d="M135.546 56.4988C135.445 57.5213 135.029 58.564 134.422 59.384C134.118 59.799 133.672 60.1533 133.145 60.1837C132.527 60.2039 132.061 59.6877 131.696 59.2625C131.16 58.6247 130.552 57.6529 129.579 57.8351C129.184 57.906 128.961 58.402 128.779 58.7057C128.495 59.1916 128.12 59.6269 127.634 59.9407C126.003 60.9733 124.119 59.4244 123.015 58.321C121.708 57.005 120.604 55.4156 119.783 53.7554C119.712 53.6238 119.651 53.4821 119.591 53.3404C119.509 53.148 119.226 53.2999 119.307 53.4922C119.986 55.0714 121.009 56.5393 122.123 57.8351C123.177 59.0701 124.625 60.4671 126.337 60.5886C127.077 60.6392 127.766 60.3153 128.303 59.8294C128.678 59.4852 128.941 59.06 129.194 58.6348C129.417 58.2603 129.64 58.0781 130.096 58.1995C130.39 58.2805 130.633 58.5235 130.835 58.7361C131.443 59.3738 131.94 60.3862 132.912 60.5076C133.804 60.619 134.452 59.961 134.908 59.2726C135.435 58.4729 135.769 57.4808 135.87 56.5393C135.89 56.2964 135.566 56.2964 135.546 56.4988Z" fill="#B4D2D0"/>
<path d="M137.177 30.8665C137.177 30.664 136.853 30.6539 136.853 30.8564C136.863 31.8788 137.076 32.8911 137.076 33.9237C137.076 35.1183 136.904 36.3837 136.64 37.5478C136.418 38.55 136.043 39.5219 135.739 40.4937C135.425 41.4858 135.02 42.4475 134.442 43.3282C133.328 45.0391 131.19 45.7882 129.316 44.8771C127.634 44.0571 125.902 42.8524 125.021 41.1517C124.93 40.9695 124.646 41.1214 124.737 41.3036C125.649 43.0549 127.422 44.2798 129.154 45.1504C130.815 45.9805 132.75 45.5857 134.067 44.3001C135.597 42.8018 136.134 40.3621 136.742 38.3982C137.106 37.2239 137.248 35.9787 137.35 34.7538C137.461 33.4378 137.198 32.1724 137.177 30.8665Z" fill="#DA4118"/>
<path d="M131.686 28.5486C131.747 28.5486 131.818 28.5486 131.879 28.5486C131.818 28.5385 131.757 28.5385 131.686 28.5486Z" fill="black"/>
<path d="M233.884 92.4265C231.402 96.162 231.402 101.345 230.601 105.627C229.761 110.092 228.474 114.576 225.779 118.302C225.587 118.565 225.384 118.838 225.091 119C224.584 119.284 223.966 119.172 223.409 119.02C220.907 118.342 218.627 117.077 216.753 115.285C216.145 114.708 215.537 114.019 215.517 113.189C215.507 112.693 215.71 112.217 215.912 111.762C217.776 107.622 219.904 103.603 222.284 99.7355C224.189 96.6276 227.481 93.1351 226.944 89.1668C226.762 87.79 226.651 86.5246 226.853 85.1175C226.944 84.4999 227.066 83.8622 227.441 83.3661C227.816 82.8499 228.393 82.536 228.96 82.2526C230.672 81.3719 232.435 80.562 233.975 79.4079C235.95 77.9198 237.784 76.3507 239.537 74.6095C239.871 74.2754 240.215 73.9312 240.661 73.7591C240.914 73.6579 241.218 73.6377 241.421 73.8098C241.583 73.9515 241.634 74.1843 241.644 74.407C241.674 75.5105 240.884 76.4519 240.144 77.2719C239.354 78.1527 238.574 79.0536 237.814 79.9546C237.571 80.238 237.328 80.5316 237.176 80.8758C236.801 81.7667 237.267 82.1918 237.855 82.7587C238.513 83.3864 239.121 84.0849 239.658 84.8138C239.891 85.1377 240.124 85.5123 240.043 85.897C239.982 86.2108 239.729 86.4436 239.486 86.6562C238.372 87.6483 237.257 88.6505 236.143 89.6426C235.829 89.6426 235.028 90.7156 234.826 90.9687C234.451 91.404 234.208 91.9304 233.884 92.4265Z" fill="#FF8B66"/>
<path d="M236.031 78.2336C235.899 78.7803 235.839 79.3573 235.565 79.8432C235.423 80.1064 235.221 80.3392 235.028 80.562C234.126 81.6047 232.951 82.8194 232.404 84.095C232.1 84.7935 231.807 85.5122 231.371 86.15C230.885 86.8688 231.959 86.6056 232.283 86.5752C232.82 86.5246 233.397 86.7776 233.782 87.1623C234.045 87.4255 234.299 87.628 234.582 87.8507C234.846 88.0633 235.109 88.2658 235.413 88.3974C236.163 88.7213 237.074 88.5593 237.743 88.0734C238.412 87.5976 238.837 86.8384 239.04 86.0387C239.121 85.7248 239.161 85.4009 239.09 85.0871C238.949 84.4797 238.452 83.9431 238.006 83.5281C237.49 83.0523 237.064 82.5056 236.477 82.1209C235.757 81.6553 236.153 81.4427 236.406 80.7644C236.608 80.238 236.72 79.6812 236.75 79.1244C236.781 78.5778 236.7 77.9805 236.305 77.606C236.153 77.7781 236.082 78.0008 236.031 78.2336C236.031 78.2235 236.031 78.2235 236.031 78.2336Z" fill="#F65D2F"/>
<path d="M228.889 88.114C229.163 88.1849 229.446 88.1849 229.73 88.1342C231.037 87.9014 231.959 86.7372 232.546 85.5528C232.789 85.0568 233.053 84.5607 233.215 84.0343C233.397 83.4269 233.519 82.8296 233.944 82.3235C234.208 82.0198 234.542 81.7971 234.836 81.5339C235.099 81.301 235.342 81.0378 235.575 80.7746C236.153 80.1065 236.69 79.246 236.619 78.3349C236.578 77.7984 236.264 76.8468 235.575 76.9986C235.221 77.0796 234.734 78.1628 234.36 78.426C233.904 78.75 233.417 79.0233 232.941 79.3169C231.574 80.1571 230.388 81.2302 229.294 82.3943C228.302 83.4573 226.853 84.6417 227.39 86.2614C227.603 86.9296 228.17 87.9217 228.889 88.114Z" fill="#FF8B66"/>
<path d="M235.706 85.826C235.574 86.2917 235.463 86.7675 235.493 87.2433C235.544 87.8507 235.908 88.4783 236.496 88.6302C236.618 88.6606 236.749 88.6707 236.861 88.6302C237.154 88.5391 237.286 88.1949 237.357 87.8912C237.499 87.2433 237.428 86.5549 237.55 85.9273C237.691 85.2187 238.299 84.5606 238.694 83.9836C239.17 83.275 239.606 82.4651 239.505 81.6249C239.444 81.0884 239.181 80.6126 238.917 80.1368C238.471 79.3269 237.55 79.6509 237.296 80.4C236.901 81.554 236.354 82.617 236.081 83.8115C235.959 84.3582 235.969 84.915 235.807 85.4515C235.777 85.5831 235.736 85.7046 235.706 85.826Z" fill="#FF8B66"/>
<path d="M237.895 87.4461C237.935 87.77 238.006 88.094 238.179 88.3673C238.361 88.6406 238.685 88.833 239.009 88.7722C239.506 88.671 239.688 88.0737 239.739 87.5777C239.85 86.5957 239.891 85.4821 240.174 84.5407C240.458 83.6296 241.046 82.5262 240.367 81.6353C240.134 81.3316 239.668 81.1696 239.344 81.3721C239.181 81.4733 239.09 81.6454 238.999 81.8074C237.986 83.6397 237.601 85.3809 237.895 87.4461Z" fill="#FF8B66"/>
<path d="M240.123 88.1037C240.285 88.4276 240.539 88.6099 240.913 88.5289C241.197 88.4681 241.4 88.2049 241.491 87.9316C241.572 87.6583 241.562 87.3647 241.552 87.0711C241.511 86.2309 241.46 85.3704 241.623 84.5403C241.693 84.1759 241.795 83.8216 241.744 83.4571C241.704 83.1332 241.521 82.8092 241.238 82.6473C239.505 81.6248 239.738 87.3242 240.123 88.1037Z" fill="#FF8B66"/>
<path d="M255.137 184.062C253.425 183.506 251.561 183.708 249.819 184.164C245.858 185.196 242.251 187.545 239.698 190.744C244.875 192.404 250.73 191.837 255.492 189.205C256.383 188.719 257.305 188.041 257.487 187.049C257.741 185.682 256.454 184.498 255.137 184.062Z" fill="#242638"/>
<path d="M240.742 203.823C240.813 204.643 240.904 205.443 240.985 206.202C243.882 206.212 246.79 206.374 249.667 206.688C249.282 206.637 249.879 204.187 249.991 203.955C252.24 203.965 254.124 206.496 256.282 207.174C259.28 208.115 262.492 207.974 265.592 207.832C267.415 207.751 269.026 207.65 270.789 207.083C270.951 207.032 271.123 206.971 271.234 206.84C271.366 206.678 271.376 206.465 271.376 206.253C271.386 205.24 271.285 204.218 271.072 203.226C271.012 202.942 270.931 202.649 270.718 202.466C270.515 202.294 270.252 202.254 269.988 202.213C266.291 201.636 262.796 199.865 260.101 197.273C257.021 194.307 256.12 191.23 255.178 187.15C254.489 184.153 253.8 181.147 253.111 178.15C251.055 178.636 248.988 179.112 246.931 179.598C246.283 179.75 245.635 179.902 245.067 180.246C243.588 181.127 243.062 183.03 243.041 184.761C243.001 188.952 242.687 191.827 241.309 195.836C240.488 198.245 240.519 201.14 240.742 203.823Z" fill="#FA6325"/>
<path d="M269.391 205.271C268.287 205.544 267.152 205.574 266.017 205.574C264.832 205.574 263.637 205.625 262.451 205.574C260.061 205.493 257.528 205.038 255.279 204.198C253.273 203.449 251.906 201.566 249.748 201.201C248.644 201.019 247.499 201.09 246.384 200.989C245.108 200.867 243.842 200.604 242.606 200.239C242.211 200.128 242.028 200.746 242.434 200.857C243.599 201.191 244.784 201.434 245.989 201.586C247.235 201.738 248.522 201.647 249.758 201.849C250.882 202.031 251.723 202.74 252.605 203.408C253.466 204.066 254.408 204.562 255.431 204.927C257.7 205.736 260.243 206.131 262.644 206.212C263.829 206.253 265.014 206.202 266.2 206.202C267.324 206.202 268.459 206.151 269.553 205.878C269.948 205.797 269.796 205.169 269.391 205.271Z" fill="#242638"/>
<path d="M256.666 194.368C255.461 194.621 254.367 195.229 253.111 195.218C252.695 195.208 252.685 195.856 253.1 195.856C254.417 195.877 255.562 195.259 256.818 194.996C257.223 194.905 257.072 194.287 256.666 194.368Z" fill="#242638"/>
<path d="M259.158 197.071C258.074 197.78 256.849 198.114 255.603 198.427C255.197 198.529 255.349 199.156 255.755 199.055C257.051 198.731 258.338 198.367 259.472 197.638C259.807 197.415 259.503 196.848 259.158 197.071Z" fill="#242638"/>
<path d="M254.468 188.243C254.255 187.069 253.971 185.915 253.637 184.771C253.516 184.376 252.898 184.528 253.009 184.923C253.333 186.006 253.586 187.099 253.809 188.203C253.911 188.719 254.002 189.245 254.083 189.762C254.154 190.237 254.275 190.713 254.336 191.189C254.316 191.199 254.306 191.219 254.285 191.24C254.093 191.483 253.769 191.574 253.435 191.614C253.374 190.774 253.019 189.903 252.817 189.094C252.533 187.96 252.188 186.846 252.037 185.692C251.986 185.277 251.358 185.439 251.408 185.844C251.55 186.937 251.854 187.99 252.138 189.043C252.259 189.519 252.351 190.005 252.492 190.47C252.604 190.855 252.756 191.23 252.786 191.635C252.736 191.635 252.685 191.635 252.644 191.635C252.138 191.645 251.631 191.604 251.125 191.584C250.679 189.539 250.557 187.433 250.041 185.399C249.94 184.994 249.311 185.145 249.413 185.55C249.909 187.524 250.041 189.569 250.456 191.564C249.838 191.543 249.22 191.523 248.602 191.493C248.633 191.452 248.653 191.392 248.653 191.331C248.663 190.906 248.612 190.501 248.562 190.076C248.491 189.509 248.471 188.932 248.42 188.355C248.319 187.342 248.197 186.33 248.187 185.307C248.187 184.892 247.539 184.882 247.549 185.297C247.559 186.32 247.67 187.332 247.782 188.344C247.832 188.81 247.853 189.286 247.893 189.752C247.934 190.278 248.045 190.784 248.025 191.311C248.025 191.361 248.035 191.412 248.045 191.452C247.498 191.412 246.951 191.371 246.414 191.311C246.414 191.29 246.424 191.28 246.424 191.26C246.424 190.359 246.465 189.468 246.505 188.567C246.556 187.605 246.374 186.623 246.515 185.672C246.576 185.267 245.958 185.085 245.897 185.5C245.766 186.381 245.897 187.261 245.877 188.152C245.857 189.185 245.776 190.207 245.776 191.24C245.188 191.159 244.601 191.068 244.013 190.946C243.608 190.865 243.426 191.483 243.841 191.564C246.13 192.019 248.41 192.131 250.74 192.222C250.811 192.252 250.902 192.252 250.983 192.232C251.662 192.262 252.34 192.313 253.029 192.282C253.556 192.262 254.245 192.201 254.65 191.817C254.833 191.857 255.035 191.766 255.025 191.523C254.934 190.43 254.66 189.316 254.468 188.243Z" fill="#242638"/>
<path d="M197.616 102.357C197.859 103.066 198.051 103.775 198.173 104.514C198.386 105.779 198.396 107.065 198.335 108.34C198.295 109.302 198.203 110.253 198.092 111.215C197.859 113.078 197.484 114.951 197.646 116.834C197.96 120.326 200.381 121.703 202.904 123.657C206.683 126.572 210.238 129.214 214.888 130.632C215.618 130.854 216.377 131.037 217.127 130.925C217.907 130.804 218.596 130.379 219.244 129.933C221.676 128.242 223.519 126.137 225.373 123.859C227.197 121.622 227.876 118.555 228.716 115.801C230.155 111.063 231.269 106.214 232.029 101.325C232.211 100.181 233.042 97.9132 232.272 96.8705C232.039 96.5566 231.654 96.3947 231.3 96.2428C230.672 95.9897 230.054 95.7366 229.425 95.4734C227.896 94.8458 226.346 94.2182 224.695 94.0764C224.603 94.0663 224.512 94.0663 224.431 94.1068C224.35 94.1574 224.31 94.2384 224.279 94.3295C223.671 95.7468 223.104 97.1843 222.385 98.5408C219.224 104.544 216.074 110.547 212.913 116.55C212.903 116.57 207.564 111.539 207.169 111.124C205.264 109.18 203.117 107.247 201.455 105.101C200.594 103.987 199.703 102.904 198.791 101.841C198.001 100.93 196.603 99.8973 196.056 98.8445C196.643 99.9783 197.2 101.142 197.616 102.357Z" fill="#356493"/>
<path d="M258.673 153.166C259.058 152.872 259.615 153.298 259.99 153.652C261.003 154.614 262.35 155.181 263.718 155.454C265.086 155.727 266.504 155.737 267.902 155.727C271.133 155.707 274.365 155.606 277.566 155.16C277.789 155.13 278.042 155.089 278.194 154.917C278.316 154.786 278.356 154.593 278.387 154.411C278.741 152.528 279.795 149.258 277.252 148.428C274.811 147.639 272.359 147.072 269.928 146.323C267.466 145.563 265.015 144.673 262.857 143.245C260.75 141.848 258.987 139.985 257.022 138.386C255.056 136.787 252.757 135.41 250.234 135.248C249.434 135.197 248.624 135.278 247.894 135.602C246.314 136.311 245.443 138.113 245.412 139.844C245.382 141.575 246.061 143.235 246.881 144.754C247.529 145.938 248.32 147.072 248.887 148.287C249.525 149.663 249.971 151.192 250.386 152.65C250.467 152.933 250.548 153.227 250.761 153.419C250.974 153.622 251.268 153.692 251.551 153.753C253.253 154.118 254.965 154.492 256.708 154.533C257.315 154.543 258.045 154.452 258.318 153.905C258.44 153.672 258.45 153.379 258.643 153.196C258.653 153.186 258.663 153.176 258.673 153.166Z" fill="#FA6325"/>
<path d="M233.204 139.469C230.965 139.186 228.727 138.892 226.488 138.609C223.742 138.254 220.977 137.9 218.211 137.931C215.375 137.951 212.548 138.376 209.762 138.923C208.091 139.247 206.399 139.641 204.92 140.492C202.884 141.666 201.435 143.64 200.351 145.715C199.247 147.841 198.477 150.18 198.437 152.569C198.416 153.905 198.497 156.254 199.581 157.226C200.442 157.995 202.337 158.157 203.421 158.44C207.128 159.412 210.938 159.969 214.767 160.111C222.324 160.384 230.125 159.048 237.084 156.213C237.753 167.814 238.604 179.395 239.627 190.977C241.613 189.65 243.821 188.638 246.121 187.99C247.022 187.737 247.944 187.545 248.866 187.342C251.621 186.755 254.387 186.168 257.143 185.581C257.112 184.619 256.585 183.789 256.271 182.878C255.856 181.673 255.836 180.377 255.704 179.112C255.39 176.085 254.995 173.068 254.549 170.062C253.698 164.261 252.635 158.369 251.611 152.67C251.125 149.977 250.517 147.112 248.552 145.209C246.83 143.549 244.226 142.577 242.109 141.494C239.435 140.097 236.183 139.844 233.204 139.469Z" fill="#D4DEE8"/>
<path d="M223.154 139.692C223.053 138.042 221.371 137.981 219.335 137.93C216.113 137.849 212.922 138.295 209.772 138.912C208.1 139.236 206.408 139.631 204.929 140.481C202.893 141.656 201.444 143.63 200.36 145.705C199.256 147.831 198.486 150.169 198.446 152.559C198.405 154.624 198.405 156.416 200.533 157.165C202.64 157.904 205 157.782 207.107 157.124C209.68 156.324 211.96 154.776 214.057 153.085C217.876 149.987 221.715 145.827 222.982 140.947C223.124 140.451 223.174 140.036 223.154 139.692Z" fill="#242638"/>
<path d="M251.135 131.108C247.012 127.504 242.818 123.971 238.341 120.822C234.937 118.433 230.712 114.536 226.204 115.447C225.404 115.609 224.664 115.963 223.945 116.338C218.1 119.304 212.721 123.171 208.04 127.767C205.498 130.257 202.945 133.092 199.48 133.902C198.264 134.185 196.562 133.831 196.502 132.586C191.041 139.297 181.975 142.213 176.362 148.803C177.588 151.466 178.915 154.249 181.286 155.991C182.542 156.912 184.021 157.479 185.5 157.985C188.478 159.007 191.578 159.817 194.729 159.807C201.506 159.777 207.655 155.93 212.883 151.628C215.932 149.117 218.535 146.222 221.443 143.569C224.583 140.705 226.235 136.817 228.848 133.568C228.889 133.517 228.939 133.466 229 133.456C229.071 133.456 229.122 133.507 229.172 133.557C230.084 134.539 231.107 135.501 232.131 136.382C233.65 137.647 235.241 138.811 236.74 140.097C238.685 141.767 240.508 143.58 242.312 145.392C243.649 146.738 245.807 149.896 247.65 149.856C249.342 149.815 252.473 148.003 254.033 147.194C254.975 146.708 255.876 146.161 256.758 145.564C257.953 144.744 259.564 144.005 260.455 142.83C260.759 142.425 262.086 140.816 261.945 140.472C261.884 140.32 261.762 140.219 261.641 140.117C258.125 137.131 254.61 134.145 251.135 131.108Z" fill="#D4DEE8"/>
<path d="M261.923 140.543C261.69 140.806 261.569 141.12 261.427 141.423C261.194 141.919 260.728 142.334 260.312 142.679C259.401 143.438 258.347 144.055 257.385 144.754C256.047 145.716 254.71 146.677 253.241 147.426C252.461 146.86 251.651 146.323 250.881 145.746C249.463 144.673 248.105 143.539 246.727 142.415C244.114 140.259 241.703 137.911 239.231 135.603C236.769 133.315 234.156 131.189 231.714 128.881C230.509 127.747 229.364 126.532 228.087 125.479C227.236 124.781 226.791 125.51 226.345 126.238C224.663 129.012 222.516 131.401 220.439 133.871C218.443 136.25 216.488 138.66 214.381 140.937C210.339 145.321 205.415 149.299 199.823 151.496C198.243 152.114 196.592 152.539 194.92 152.782C194.393 152.863 193.867 152.964 193.34 153.035C193.147 153.065 192.793 153.146 192.631 152.994C192.408 152.792 192.377 152.336 192.317 152.053C192.063 150.757 191.638 149.502 190.888 148.408C190.118 147.285 189.045 146.424 187.92 145.675C187.576 145.442 187.251 145.999 187.596 146.222C188.619 146.92 189.602 147.69 190.331 148.712C191.03 149.694 191.456 150.879 191.668 152.063C191.76 152.549 191.851 153.035 192.165 153.43C192.428 153.764 192.914 153.713 193.289 153.673C194.414 153.561 195.579 153.349 196.683 153.106C199.519 152.498 202.184 151.283 204.645 149.795C207.198 148.257 209.62 146.434 211.818 144.42C214.097 142.324 216.144 139.986 218.139 137.617C220.155 135.228 222.232 132.859 224.187 130.419C225.17 129.184 226.082 127.899 226.902 126.562C227.044 126.33 227.176 126.077 227.358 125.864C227.48 125.722 227.621 125.904 227.733 125.996C228.391 126.532 228.989 127.15 229.607 127.737C232.069 130.065 234.601 132.292 237.134 134.55C239.737 136.858 242.159 139.358 244.793 141.626C242.452 140.411 239.687 140.016 237.114 139.702C236.911 139.672 236.901 139.996 237.103 140.026C240.051 140.391 243.151 140.867 245.684 142.537C247.973 144.055 249.564 146.505 250.374 149.087C250.435 149.279 250.749 149.208 250.688 149.016C250.172 147.376 249.371 145.847 248.298 144.531C248.774 144.916 249.25 145.29 249.726 145.665C250.648 146.394 251.641 147.042 252.593 147.74C252.309 147.872 252.016 147.993 251.722 148.095C251.529 148.165 251.6 148.479 251.793 148.408C253.88 147.649 255.683 146.364 257.476 145.078C257.516 145.098 257.557 145.098 257.608 145.078C258.6 144.673 259.421 144.015 260.16 143.235C260.181 143.215 260.191 143.195 260.201 143.165C260.262 143.124 260.322 143.073 260.383 143.033C260.788 142.729 261.173 142.365 261.477 141.96C261.751 141.595 261.842 141.12 262.146 140.775C262.288 140.624 262.065 140.391 261.923 140.543Z" fill="#242638"/>
<path d="M241.461 151.628C241.106 153.106 239.789 153.996 238.766 155.009C238.472 155.302 238.918 155.758 239.212 155.474C240.326 154.381 241.694 153.409 242.079 151.8C242.18 151.405 241.562 151.223 241.461 151.628Z" fill="#242638"/>
<path d="M243.334 153.571C242.382 154.178 241.369 154.654 240.315 155.039C239.93 155.181 240.072 155.808 240.467 155.666C241.582 155.262 242.645 154.776 243.648 154.138C243.983 153.915 243.679 153.348 243.334 153.571Z" fill="#242638"/>
<path d="M243.781 182.291C243.345 179.436 242.758 176.622 242.261 173.777C241.795 171.054 241.552 168.3 241.127 165.567C240.701 162.864 240.316 160.121 240.701 157.387C240.762 156.982 240.114 156.972 240.063 157.377C239.688 159.969 240.023 162.571 240.408 165.142C240.61 166.478 240.843 167.814 241.015 169.161C241.198 170.548 241.319 171.945 241.542 173.321C241.998 176.166 242.616 178.98 243.062 181.825C243.295 183.293 243.558 184.781 243.68 186.269C243.751 187.109 243.73 187.96 243.71 188.81C243.923 188.719 244.136 188.638 244.348 188.557C244.358 187.869 244.369 187.18 244.328 186.492C244.257 185.085 243.994 183.678 243.781 182.291Z" fill="#242638"/>
<path d="M217.755 168.523H172.796C169.898 168.523 167.558 166.175 167.558 163.29V163.188C167.558 160.293 169.909 157.955 172.796 157.955H217.755C220.652 157.955 222.992 160.303 222.992 163.188V163.29C223.002 166.175 220.652 168.523 217.755 168.523Z" fill="#A9BDD2"/>
<path d="M168.46 160.242C171.985 161.852 175.845 162.54 179.674 162.996C183.564 163.451 187.454 163.887 191.365 164.241C199.834 165.01 208.404 164.626 216.772 163.097C218.443 162.793 220.084 162.601 221.523 161.72C221.705 161.609 222.1 161.416 222.597 161.163C222.86 161.781 223.002 162.469 223.002 163.178V163.279C223.002 164.16 222.779 164.99 222.394 165.719C221.381 166.954 220.419 168.037 218.869 168.391C218.859 168.391 218.838 168.402 218.828 168.402C218.808 168.402 218.788 168.412 218.767 168.412C218.524 168.462 218.281 168.493 218.038 168.503C218.028 168.503 218.028 168.503 218.018 168.503C217.927 168.503 217.846 168.513 217.754 168.513H172.795C169.898 168.513 167.558 166.164 167.558 163.279C167.558 162.986 168.095 161.255 168.287 160.516C168.338 160.424 168.399 160.333 168.46 160.242Z" fill="#D9E0E1"/>
<path d="M192.236 86.393C192.823 86.6157 193.573 86.7473 193.999 86.2917C194.637 85.6135 194.313 84.3177 195.001 83.5989C195.275 83.3155 195.447 82.9511 195.66 82.617C196.43 81.4427 196.369 79.7926 195.518 78.6689C195.072 78.0818 194.465 77.6768 193.887 77.2415C193.34 76.8265 192.854 76.2697 192.256 75.9559C190.686 75.1359 188.68 75.1865 186.958 75.1966C184.962 75.2067 182.764 75.2877 181.305 76.6442C180.981 76.9378 180.707 77.3023 180.606 77.7274C180.464 78.3045 180.657 78.9119 180.91 79.4484C181.467 80.5822 182.338 81.5237 183.21 82.4348C183.969 83.2345 184.76 84.0342 185.702 84.6113C186.776 85.2592 187.91 85.4718 189.126 85.2085C190.352 84.9555 190.929 85.7451 192.013 86.2715C192.084 86.3322 192.155 86.3626 192.236 86.393Z" fill="#58120E"/>
<path d="M193.585 148.489C196.046 146.991 198.336 145.22 200.494 143.327C201.578 142.375 202.631 141.383 203.675 140.381C204.424 139.662 205.447 139.227 206.045 138.376C206.217 138.133 206.359 137.86 206.349 137.566C206.339 137.273 206.187 137.01 206.045 136.757C204.505 134.135 202.966 131.503 201.426 128.881C200.007 126.461 199.612 124.285 199.531 121.481C199.359 115.619 200.717 109.697 199.602 103.876C198.944 100.455 195.864 98.278 192.399 96.8101C190.069 95.818 187.567 95.1398 185.531 94.6134C180.912 93.4087 175.168 92.5482 170.467 93.6314C166.638 94.5121 161.886 95.6966 159.81 99.4017C158.594 101.568 158.807 104.21 158.918 106.69C159.283 114.86 160.164 122.412 163.072 130.085C166.455 138.994 171.055 147.254 177.214 154.503C177.416 154.746 177.629 154.989 177.923 155.11C178.379 155.302 178.906 155.14 179.372 154.958C180.689 154.472 181.985 153.926 183.282 153.389C186.797 151.931 190.333 150.464 193.585 148.489Z" fill="#356493"/>
<path d="M175.673 90.4928C173.829 91.1812 173.11 93.2869 171.58 94.4105C170.03 95.5545 171.894 98.308 172.755 99.4216C173.727 100.667 174.943 101.72 176.139 102.752C180.12 106.194 184.111 109.626 188.092 113.068C188.346 113.29 188.619 113.523 188.954 113.594C189.45 113.706 189.977 113.432 190.301 113.047C190.625 112.653 190.787 112.157 190.939 111.671C191.547 109.717 192.074 107.733 192.357 105.708C192.611 103.947 193.279 101.325 192.996 99.3102C192.803 97.9031 190.858 98.2169 190.301 97.0122C189.946 96.2327 190.301 95.3115 189.865 94.5523C189.46 93.8335 188.609 93.4893 187.88 93.1957C184.496 91.8494 181.032 90.4928 177.395 90.3207C176.827 90.2904 176.22 90.2904 175.673 90.4928Z" fill="#285786"/>
<path d="M187.313 90.8272C187.273 88.1749 187.364 85.7251 187.222 84.8545C186.928 83.1133 186.067 81.1291 184.325 80.8254C181.691 80.3699 180.516 82.6678 180.019 84.7634C179.483 87.0411 179.077 89.3492 178.814 91.6776C178.733 92.3659 178.682 93.1454 178.358 93.7832C178.034 94.4108 177.365 94.755 176.788 95.1701C176.605 95.3017 176.403 95.4535 176.332 95.6763C176.231 95.9901 176.433 96.3241 176.636 96.5772C177.163 97.2454 177.791 97.8224 178.429 98.3792C180.951 100.596 183.677 102.59 186.564 104.322C187.141 104.666 187.921 104.99 188.438 104.554C188.62 104.403 188.722 104.18 188.823 103.957C189.502 102.418 189.937 100.768 190.109 99.0979C188.306 99.1992 188.002 97.8528 187.719 96.3343C187.384 94.5323 187.334 92.6696 187.313 90.8272Z" fill="#FF8B66"/>
<path d="M187.314 90.827C187.284 88.934 187.324 87.1523 187.294 85.9678C187.122 85.8261 186.949 85.6945 186.767 85.573C185.703 84.8239 184.488 84.4898 183.353 83.8521C182.685 83.4775 182.158 83.4573 181.418 83.7508C180.122 84.2671 179.818 86.1197 179.99 87.3446C180.132 88.3671 180.192 89.2984 180.537 90.2905C180.902 91.3332 181.408 92.3253 182.046 93.2364C183.404 95.1497 185.501 96.6884 187.811 96.8402C187.456 95.18 187.345 92.9327 187.314 90.827Z" fill="#F65D2F"/>
<path d="M193.23 88.3973C193.068 89.1869 192.885 89.9664 192.652 90.7358C191.933 93.0945 190.424 95.8481 187.506 95.4634C186.027 95.271 185.105 94.2283 183.981 93.3881C182.836 92.5276 181.975 91.08 181.357 89.8146C180.334 87.7089 180.182 85.6539 180.253 83.3357C180.283 82.293 180.384 81.2604 180.506 80.2278C180.617 79.3471 180.587 78.3449 180.952 77.535C181.418 76.5025 182.279 75.6926 183.231 75.065C185.804 73.3643 188.57 73.4351 191.315 74.6398C191.974 74.9334 192.581 75.3889 192.916 76.0267C193.291 76.7454 193.382 77.5148 193.513 78.3145C193.655 79.1851 193.706 80.0557 193.736 80.9365C193.757 81.7058 193.828 82.4853 193.817 83.2446C193.777 84.9757 193.574 86.6966 193.23 88.3973Z" fill="#FF8B66"/>
<path d="M195.51 75.7333C194.932 75.0854 194.527 74.4577 194.122 73.5871C193.737 72.7671 193.342 71.5119 192.288 71.3803C191.944 71.3398 191.589 71.4511 191.245 71.3904C190.556 71.279 190.708 70.4793 190.333 70.044C190.039 69.6998 189.533 69.639 189.087 69.7099C188.641 69.7808 188.216 69.9427 187.76 69.9832C186.716 70.0642 185.825 69.4366 184.883 69.1126C184.123 68.8596 183.323 68.9102 182.553 69.1329C181.013 69.5783 179.666 70.7526 179.159 72.2812C179.088 72.5039 179.017 72.7469 178.855 72.919C178.48 73.3239 177.812 73.1518 177.275 73.2733C176.637 73.415 176.171 73.9819 175.968 74.5995C175.705 75.4397 175.573 76.6747 175.522 77.5656C175.451 78.7095 175.522 79.8636 175.654 81.0075C175.917 83.2852 176.495 85.5326 177.376 87.6484C177.467 87.861 177.559 88.0837 177.721 88.2558C178.025 88.5898 178.541 88.6809 178.967 88.5291C179.392 88.3671 179.706 87.9824 179.808 87.5471C179.899 87.2029 179.858 86.8284 179.939 86.4842C180.02 86.14 180.203 85.8262 180.365 85.5124C180.831 84.6013 181.094 83.5889 181.145 82.5665C181.165 82.121 181.145 81.6554 181.287 81.2302C181.611 80.228 182.685 79.2865 183.627 78.8917C185.004 78.3248 186.139 77.768 187.243 76.7152C187.527 76.452 187.811 76.1584 188.185 76.0471C188.773 75.875 189.452 76.4115 189.978 76.6545C190.738 77.0189 191.498 77.3732 192.268 77.7377C192.612 77.8996 193.19 78.1224 193.352 78.4868C193.534 78.9018 193.453 79.5092 193.463 79.9445C193.494 80.6431 193.625 81.3416 193.869 81.9996C194.041 82.0097 194.193 81.8781 194.304 81.7465C194.76 81.2302 195.074 80.5924 195.196 79.9142C195.246 79.651 195.287 79.2967 195.408 79.0537C195.55 78.7804 195.864 78.7905 196.118 78.6994C196.573 78.5374 196.806 77.9806 196.736 77.5048C196.665 77.029 196.361 76.614 196.016 76.2698C195.834 76.0876 195.662 75.9155 195.51 75.7333Z" fill="#58120E"/>
<path d="M181.569 82.7994C181.478 82.4046 181.305 82.1414 181.022 81.8781C180.728 81.6149 180.525 81.291 180.171 81.0987C179.958 80.9772 179.603 80.8354 179.36 80.8354C179.137 80.8354 178.945 81.0075 178.773 81.1493C178.509 81.3821 178.276 81.6554 178.094 81.9591C177.841 82.3742 177.78 82.8804 177.831 83.3561C177.881 83.8319 178.043 84.2976 178.226 84.7532C178.509 85.4618 178.823 86.1603 179.178 86.8284C179.462 87.3548 179.917 88.1343 180.657 87.8408C181.082 87.6687 181.295 87.0107 181.447 86.626C181.933 85.4314 181.842 84.0142 181.569 82.7994Z" fill="#FF8B66"/>
<path d="M170.619 144.268H170.558C169.028 144.268 167.782 143.023 167.782 141.494V114.171C167.782 112.643 169.028 111.397 170.558 111.397H170.619C172.148 111.397 173.395 112.643 173.395 114.171V141.494C173.395 143.023 172.159 144.268 170.619 144.268Z" fill="#A9BDD2"/>
<path d="M198.324 138.66C198.821 138.862 199.327 139.044 199.834 139.156C200.168 139.227 200.523 139.257 200.867 139.277C201.617 139.328 202.397 139.297 203.086 139.591C203.754 139.874 204.504 140.138 205.152 140.472C206.044 140.755 206.57 141.251 207.29 141.869C207.898 142.395 207.908 141.929 208.181 141.535C208.475 141.12 209.002 141.099 209.377 140.735C209.751 140.37 209.782 139.844 209.964 139.388C210.238 138.68 211.008 138.285 211.079 137.455C211.099 137.242 211.058 137.02 211.028 136.807C210.744 135.157 210.967 132.545 209.002 132.019C206.419 131.33 203.359 130.47 200.675 130.551C199.479 130.591 198.324 131.158 197.078 131.199C195.771 131.239 194.454 131.017 193.239 130.521C192.904 131.523 192.56 132.525 192.226 133.537C191.952 134.347 191.679 135.197 191.861 136.028C193.3 136.453 194.708 136.979 196.065 137.607C196.795 137.941 197.554 138.346 198.324 138.66Z" fill="#FF8B66"/>
<path d="M205.336 138.912C205.235 139.581 205.265 140.593 204.981 141.21C204.607 142.02 203.513 142.719 202.874 143.316C202.54 143.64 201.436 144.733 202.033 145.209C202.408 145.503 203.573 144.845 203.918 144.713C205.468 144.126 207.159 143.448 207.95 141.879C208.152 141.484 208.243 141.048 208.325 140.623C208.466 139.884 208.598 139.135 208.699 138.386C208.75 138.042 208.791 137.657 208.608 137.353C208.325 136.888 207.666 136.837 207.149 136.969C206.643 137.1 205.974 137.11 205.66 137.596C205.488 137.86 205.437 138.184 205.397 138.497C205.377 138.639 205.356 138.781 205.336 138.912Z" fill="#FF8B66"/>
<path d="M179.087 85.5632C179.208 85.877 179.36 86.1807 179.543 86.454C180.08 87.2537 180.91 86.7273 180.738 85.8365C180.667 85.472 180.545 85.0772 180.718 84.7533C180.778 84.6419 180.87 84.5508 180.92 84.4395C180.971 84.318 180.961 84.1763 180.951 84.0447C180.92 83.6701 180.829 83.2955 180.708 82.9412C180.616 82.678 180.485 82.4148 180.292 82.2123C180.1 82.0099 179.826 81.858 179.553 81.8682C178.195 81.8985 178.57 83.8017 178.783 84.6318C178.874 84.9558 178.965 85.2696 179.087 85.5632Z" fill="#F65D2F"/>
<path d="M193.523 77.667C193.523 77.4949 193.249 77.4847 193.249 77.6568C193.269 79.3879 193.583 81.0785 193.563 82.8197C193.543 83.9535 193.512 85.1076 193.371 86.2313C193.32 86.6666 193.198 87.0917 193.138 87.5372C193.067 88.0534 192.955 88.5697 192.844 89.086C192.672 89.906 192.489 90.7361 192.155 91.5055C191.517 92.9734 190.423 94.8664 188.751 95.3118C188.153 95.4738 187.485 95.4029 186.907 95.2207C185.773 94.8563 184.79 93.9756 183.939 93.1758C182.389 91.7282 181.376 89.9465 180.809 87.9016C180.799 87.8712 180.778 87.8409 180.758 87.8307C180.748 87.77 180.708 87.7194 180.637 87.7093C179.745 87.5979 179.38 86.9298 179.026 86.2009C178.59 85.2999 178.094 84.3686 178.003 83.3664C177.922 82.4856 178.378 81.2405 179.34 81.0481C180.13 80.8862 180.829 81.696 181.103 82.3338C181.174 82.4958 181.407 82.3642 181.346 82.2022C181.011 81.4328 180.302 80.7444 179.421 80.7647C178.459 80.7951 177.851 81.9289 177.76 82.7691C177.618 84.0345 178.256 85.229 178.793 86.3325C179.198 87.1525 179.613 87.8206 180.556 87.9725C181.163 90.1692 182.278 92.0218 183.959 93.5605C184.841 94.3704 185.834 95.16 186.988 95.5244C187.535 95.6965 188.123 95.6965 188.68 95.6054C190.483 95.322 191.659 93.2669 192.347 91.7687C192.672 91.0702 192.864 90.3211 193.036 89.5719C193.269 88.4989 193.543 87.4562 193.644 86.3629C193.766 85.1886 193.826 84.0041 193.847 82.8197C193.867 81.0886 193.543 79.3879 193.523 77.667Z" fill="#DA4118"/>
<path d="M191.02 75.9254C190.767 76.0772 190.514 76.219 190.261 76.3708C190.23 76.391 190.2 76.4113 190.18 76.4417C190.139 76.5328 190.24 76.6138 190.321 76.6543C190.828 76.8972 191.324 77.1503 191.831 77.3932C192.114 77.535 192.408 77.6767 192.662 77.869C193.229 78.2942 193.614 78.9219 194.09 79.4483C194.13 79.4989 194.181 79.5394 194.242 79.5394C194.323 79.5293 194.363 79.4483 194.394 79.3774C194.566 78.9117 194.556 78.3955 194.485 77.8994C194.404 77.3021 194.232 76.6947 193.877 76.2088C193.512 75.7229 192.935 75.3787 192.327 75.4091C191.861 75.4395 191.426 75.6824 191.02 75.9254Z" fill="#58120E"/>
<path d="M169.626 99.4624C169.647 99.8775 169.728 100.293 169.809 100.697C170.143 102.398 170.751 104.18 170.852 105.891C171.004 108.351 170.589 110.811 170.234 113.25C169.89 115.67 168.674 120.296 171.369 121.683C172.382 122.209 173.547 122.311 174.671 122.493C182.755 123.779 189.887 129.144 198.062 129.68C197.84 130.338 195.54 139.338 195.398 139.287C191.771 137.901 187.881 137.182 184.001 137.192C183.232 137.192 182.462 137.222 181.702 137.253C177.65 137.425 173.537 137.688 169.576 136.797C168.026 136.453 166.516 135.926 164.976 135.542C163.67 135.218 161.927 135.4 160.752 134.813C159.202 134.044 158.513 132.211 157.986 130.683C155.383 123.141 155.312 114.971 155.849 107.004C155.96 105.344 156.102 103.653 156.71 102.094C158.503 97.4783 163.031 95.2714 167.56 94.1882C168.755 93.9048 169.961 93.6213 171.156 93.3277C172.321 93.0544 173.395 93.186 174.59 93.1455C174.621 93.2974 174.469 93.429 174.337 93.5099C172.179 94.8665 169.505 96.5874 169.626 99.4624Z" fill="#356493"/>
<path d="M200.878 111.367C201.01 111.61 201.263 111.894 201.507 111.762C202.003 109.515 201.821 107.125 200.97 104.989C199.258 100.647 195.033 97.7108 190.576 96.3037C192.642 97.0427 194.425 98.4397 195.813 100.14C197.191 101.841 198.133 103.846 198.893 105.901C199.896 108.593 200.098 109.95 200.878 111.367Z" fill="#242638"/>
<path d="M183.595 77.8086C182.815 76.0269 181.437 74.5894 179.685 73.739C179.502 73.6479 179.33 73.9213 179.523 74.0124C181.235 74.8425 182.562 76.2192 183.311 77.9604C183.392 78.1528 183.676 77.9908 183.595 77.8086Z" fill="#58120E"/>
<path d="M195.155 78.1931C194.223 77.6768 193.463 77.0897 192.409 76.8163C191.822 76.6645 191.244 76.5025 190.687 76.2292C190.211 75.9963 189.816 75.6521 189.38 75.3485C187.628 74.1033 186.159 75.9558 184.903 76.9985C184.741 77.1301 184.963 77.363 185.126 77.2314C185.825 76.6544 186.422 75.966 187.212 75.5104C188.236 74.9132 189.006 75.4598 189.826 76.0773C190.566 76.6341 191.437 76.8973 192.318 77.1302C193.341 77.3934 194.081 77.9704 194.983 78.4664C195.165 78.5677 195.337 78.2943 195.155 78.1931Z" fill="#58120E"/>
<path d="M191.719 73.6176C190.838 73.6176 189.977 73.6682 189.126 73.3847C188.396 73.1519 187.738 72.8684 186.958 72.9393C185.783 73.0507 185.023 74.1035 184.334 74.9336C184.202 75.0956 184.425 75.3284 184.557 75.1664C185.327 74.2452 186.066 73.2126 187.383 73.243C188.143 73.2632 188.842 73.6581 189.572 73.8403C190.26 74.0124 191.01 73.9415 191.719 73.9314C191.922 73.9314 191.932 73.6176 191.719 73.6176Z" fill="#58120E"/>
<path d="M178.49 75.9355C177.356 76.8263 177.021 78.446 177.376 79.7924C177.427 79.9949 177.741 79.9139 177.69 79.7216C177.356 78.4764 177.67 76.9883 178.713 76.1683C178.875 76.0468 178.652 75.814 178.49 75.9355Z" fill="#58120E"/>
<path d="M190.392 102.226C189.794 102.944 189.42 103.815 188.771 104.493C187.799 105.506 186.644 104.503 185.712 103.957C183.767 102.803 182.024 101.416 180.393 99.8467C179.593 99.0773 178.803 98.2877 177.982 97.5284C177.253 96.8502 176.422 96.263 175.754 95.5139C175.004 94.6838 174.913 93.5196 175.622 92.6389C176.139 92.0011 177.01 91.7278 177.749 91.4342C177.942 91.3532 177.79 91.0799 177.597 91.1508C176.807 91.4646 175.987 91.7582 175.409 92.4061C174.842 93.0236 174.68 93.965 174.923 94.7547C175.227 95.7164 176.159 96.344 176.878 96.9717C177.922 97.8625 178.894 98.8445 179.877 99.8062C180.778 100.677 181.69 101.517 182.673 102.296C183.726 103.127 184.861 103.815 185.995 104.524C186.776 105.01 187.637 105.587 188.548 105.091C189.521 104.574 189.936 103.278 190.605 102.469C190.747 102.307 190.524 102.074 190.392 102.226Z" fill="#242638"/>
<path d="M239.162 152.296C238.372 152.812 237.45 153.004 236.538 153.156C235.565 153.318 234.593 153.46 233.62 153.632C231.27 154.027 228.91 154.31 226.539 154.462C224.24 154.604 221.889 154.665 219.59 154.482C217.3 154.3 215.092 153.591 212.812 153.338C212.397 153.298 212.387 153.936 212.802 153.976C215.082 154.229 217.29 154.908 219.58 155.12C221.94 155.343 224.371 155.231 226.732 155.09C229.092 154.948 231.442 154.644 233.772 154.26C234.796 154.088 235.829 153.936 236.852 153.764C237.764 153.612 238.696 153.389 239.466 152.873C239.81 152.63 239.506 152.063 239.162 152.296Z" fill="#242638"/>
<path d="M192.754 98.6624C192.582 98.2879 192.014 98.5916 192.187 98.9661C192.855 100.383 192.703 101.953 192.399 103.451C192.105 104.868 191.731 106.295 191.386 107.703C191.001 109.262 190.333 110.729 189.603 112.147C189.522 112.309 189.421 112.552 189.269 112.663C189.158 112.734 188.813 112.46 188.742 112.41C188.033 111.954 187.405 111.367 186.777 110.81C184.427 108.715 182.188 106.478 179.604 104.655C177.568 103.218 175.481 101.922 173.891 99.9582C172.696 98.4802 172.017 96.6378 172.371 94.7346C172.442 94.3297 171.824 94.1475 171.753 94.5625C170.791 99.8064 175.978 102.843 179.584 105.435C182.208 107.308 184.467 109.646 186.878 111.762C187.405 112.218 187.942 112.663 188.529 113.037C188.854 113.25 189.198 113.392 189.573 113.23C189.938 113.068 190.14 112.521 190.302 112.207C190.657 111.499 190.991 110.79 191.295 110.051C192.065 108.168 192.44 106.123 192.916 104.149C193.331 102.337 193.574 100.414 192.754 98.6624Z" fill="#242638"/>
<path d="M171.408 98.5108C171.671 98.197 171.226 97.7313 170.962 98.0451C170.395 98.7234 169.767 99.3409 169.22 100.029C168.754 100.616 168.207 101.396 168.298 102.196C168.409 103.107 168.987 103.917 169.402 104.716C169.949 105.769 170.101 107.035 170.192 108.209C170.375 110.719 169.878 113.119 169.453 115.569C169.058 117.856 168.966 120.185 170.162 122.26C170.364 122.614 170.932 122.311 170.729 121.956C169.513 119.851 169.746 117.502 170.172 115.204C170.587 112.936 170.972 110.73 170.851 108.401C170.8 107.308 170.628 106.215 170.304 105.162C170.05 104.332 169.513 103.603 169.159 102.813C168.744 101.892 169.129 101.214 169.696 100.465C170.202 99.7863 170.851 99.189 171.408 98.5108Z" fill="#242638"/>
<path d="M169.483 123.1C168.967 124.335 167.741 125.105 167.052 126.228C166.839 126.583 167.386 126.907 167.599 126.552C168.318 125.368 169.544 124.578 170.091 123.272C170.263 122.888 169.645 122.716 169.483 123.1Z" fill="#242638"/>
<path d="M169.95 124.092C169.423 125.044 168.977 126.026 168.633 127.058C168.501 127.453 169.119 127.625 169.251 127.23C169.575 126.258 170 125.317 170.497 124.426C170.699 124.052 170.152 123.728 169.95 124.092Z" fill="#242638"/>
<path d="M196.907 129.64C196.106 129.204 195.205 129.063 194.323 128.891C193.28 128.688 192.287 128.293 191.284 127.939C189.086 127.149 186.918 126.269 184.679 125.621C182.45 124.983 180.141 124.608 177.963 123.829C176.909 123.454 175.906 122.968 174.822 122.685C173.769 122.412 172.664 122.321 171.591 122.118C171.185 122.037 171.003 122.655 171.418 122.736C172.431 122.928 173.455 123.029 174.457 123.252C175.541 123.495 176.565 123.981 177.598 124.376C179.766 125.185 182.076 125.56 184.304 126.178C186.482 126.785 188.6 127.635 190.727 128.405C191.74 128.779 192.763 129.184 193.827 129.427C194.749 129.64 195.731 129.721 196.582 130.176C196.947 130.389 197.271 129.842 196.907 129.64Z" fill="#242638"/>
<path d="M192.368 138.356C191.609 138.396 190.899 138.143 190.18 137.941C189.481 137.749 188.772 137.708 188.043 137.698C186.483 137.668 184.933 137.718 183.373 137.708C180.252 137.698 177.071 137.627 174.052 136.757C173.657 136.645 173.475 137.263 173.88 137.374C176.828 138.224 179.938 138.326 182.988 138.346C184.598 138.356 186.219 138.316 187.83 138.336C188.64 138.346 189.4 138.386 190.18 138.609C190.899 138.812 191.598 139.034 192.348 138.994C192.763 138.984 192.784 138.336 192.368 138.356Z" fill="#242638"/>
<path d="M212.456 117.603C212.588 117.209 211.97 117.036 211.838 117.431C211.464 118.514 210.41 121.146 211.879 121.855C212.244 122.037 212.578 121.481 212.203 121.308C211.585 121.005 211.818 119.982 211.919 119.456C212.041 118.828 212.244 118.211 212.456 117.603Z" fill="#242638"/>
<path d="M214.068 118.403C213.997 117.998 213.379 118.15 213.44 118.555C213.521 119.061 213.622 119.567 213.643 120.073C213.663 120.488 214.301 120.498 214.281 120.083C214.261 119.526 214.159 118.97 214.068 118.403Z" fill="#242638"/>
<path d="M201.901 129.69C200.473 127.817 199.926 125.56 199.622 123.262C199.48 122.179 199.379 121.095 199.247 120.012C199.085 118.737 198.862 117.481 198.73 116.196C198.477 113.614 198.771 111.003 198.467 108.431C198.163 105.911 196.958 103.694 196.218 101.294C196.097 100.9 195.468 101.051 195.59 101.446C196.35 103.876 197.586 106.133 197.859 108.705C198.001 110.071 197.94 111.458 197.94 112.825C197.94 114.1 198.011 115.376 198.143 116.651C198.275 117.886 198.497 119.101 198.649 120.336C198.791 121.47 198.893 122.614 199.055 123.758C199.379 126.056 200.027 128.263 201.456 130.136C201.689 130.47 202.144 130.024 201.901 129.69Z" fill="#242638"/>
<path d="M263.423 144.288C262.562 146.019 261.164 147.264 259.594 148.337C259.26 148.57 259.554 149.137 259.898 148.904C261.57 147.76 263.069 146.454 263.981 144.622C264.153 144.247 263.606 143.913 263.423 144.288Z" fill="#242638"/>
<path d="M266.098 146.1C265.054 147.618 263.757 148.914 262.157 149.825C261.802 150.028 262.106 150.595 262.461 150.392C264.163 149.42 265.54 148.034 266.645 146.424C266.878 146.09 266.331 145.766 266.098 146.1Z" fill="#242638"/>
<path d="M277.809 149.998C277.687 151.081 277.495 152.518 276.512 153.187C275.935 153.581 275.124 153.51 274.466 153.48C273.716 153.45 272.956 153.429 272.207 153.399C271.335 153.359 270.474 153.267 269.613 153.227C268.732 153.187 267.851 153.217 266.979 153.217C266.078 153.217 265.217 153.136 264.325 152.944C263.474 152.761 262.633 152.549 261.772 152.458C261.357 152.407 261.347 153.055 261.762 153.095C262.694 153.197 263.606 153.45 264.528 153.642C265.47 153.834 266.412 153.865 267.374 153.855C268.317 153.855 269.259 153.834 270.211 153.895C271.214 153.956 272.207 154.057 273.22 154.057C274.557 154.067 276.097 154.442 277.191 153.46C278.123 152.63 278.325 151.162 278.457 149.998C278.498 149.603 277.859 149.593 277.809 149.998Z" fill="#242638"/>
<path d="M190.646 85.4819C190.099 83.9431 189.552 82.4145 189.532 80.7644C189.532 80.562 189.207 80.5518 189.207 80.7543C189.228 82.1614 189.602 83.4977 190.068 84.8137C190.271 85.4009 190.575 85.988 190.565 86.6157C190.555 87.1623 190.119 87.6685 189.805 88.0836C189.683 88.2455 189.957 88.4075 190.079 88.2455C190.393 87.8204 190.717 87.4053 190.848 86.889C190.96 86.4132 190.808 85.9172 190.646 85.4819Z" fill="#F65D2F"/>
<path d="M166.911 165.608H222.953V169.03H166.911V165.608Z" fill="#93A2B2"/>
<path d="M205.873 140.795C205.144 139.722 203.401 139.591 202.246 139.348C201.243 139.145 200.22 139.105 199.227 138.892C198.235 138.68 197.424 137.941 196.512 137.526C196.33 137.445 196.158 137.718 196.35 137.799C197.1 138.143 197.758 138.67 198.518 138.983C199.491 139.388 200.565 139.317 201.588 139.52C202.277 139.651 202.965 139.803 203.644 139.965C204.303 140.127 205.194 140.34 205.599 140.937C205.701 141.119 205.984 140.967 205.873 140.795Z" fill="#F65D2F"/>
<path d="M208.181 138.001C208.121 137.809 207.807 137.88 207.867 138.072C208.212 139.145 208.566 140.471 207.989 141.534C207.888 141.717 208.161 141.879 208.262 141.696C208.891 140.562 208.556 139.165 208.181 138.001Z" fill="#F65D2F"/>
<path d="M210.006 139.014C209.925 138.538 209.925 138.052 209.833 137.576C209.722 137.03 209.519 136.513 209.418 135.967C209.378 135.764 209.064 135.835 209.104 136.038C209.195 136.523 209.357 136.989 209.479 137.465C209.621 137.991 209.6 138.538 209.692 139.075C209.732 139.297 210.036 139.216 210.006 139.014Z" fill="#F65D2F"/>
<path d="M200.351 144.096C200.452 143.924 200.179 143.772 200.068 143.934C198.984 145.624 198.011 147.396 196.745 148.955C196.613 149.117 196.836 149.35 196.968 149.188C198.031 147.882 198.882 146.434 199.774 145.007C199.662 145.219 199.561 145.442 199.5 145.685C199.338 146.282 199.369 146.92 199.267 147.538C199.237 147.74 199.541 147.831 199.571 147.629C199.662 147.011 199.672 146.384 199.804 145.776C199.916 145.24 200.28 144.804 200.432 144.278C200.452 144.197 200.412 144.126 200.351 144.096Z" fill="#242638"/>
<path d="M228.453 132.231C228.139 130.773 228.2 129.275 227.511 127.919C227.42 127.736 227.136 127.888 227.228 128.071C227.906 129.397 227.835 130.885 228.139 132.302C228.18 132.505 228.494 132.434 228.453 132.231Z" fill="#242638"/>
<path d="M229.092 131.806C228.96 130.834 228.899 129.852 228.737 128.88C228.697 128.678 228.393 128.749 228.423 128.951C228.595 129.923 228.646 130.905 228.778 131.877C228.808 132.079 229.122 132.008 229.092 131.806Z" fill="#242638"/>
<path d="M282.094 131.361H284.049V219.332H282.094V131.361Z" fill="#356493"/>
<path d="M228.605 131.361H230.561V219.332H228.605V131.361Z" fill="#356493"/>
<path d="M285.377 133.345L228.636 132.666L228.606 130.611L247.469 112.106L277.637 113.22L285.377 131.198V133.345Z" fill="#93A2B2"/>
<path d="M285.559 130.551L228.453 130.52L247.468 112.106L277.637 113.22L285.559 130.551Z" fill="#D9E5F2"/>
<path d="M272.093 106.994C272.428 107.055 272.752 107.136 273.076 107.247C276.915 108.614 276.176 112.653 276.429 116.004C276.571 117.877 276.713 119.76 276.855 121.632C276.885 121.987 276.885 122.351 276.753 122.685C276.52 123.272 275.892 123.606 275.376 123.91C274.525 124.416 273.795 124.821 273.623 124.538C272.032 121.754 265.387 123.252 265.387 123.252C265.387 123.252 266.967 122.908 266.957 122.108C266.927 120.164 266.643 118.201 266.481 116.267C266.228 113.311 265.012 110.142 267.302 107.875C267.676 107.5 268.102 107.146 268.608 106.974C269.074 106.812 269.581 106.802 270.067 106.812C270.746 106.842 271.435 106.873 272.093 106.994Z" fill="#B1C2C4"/>
<path d="M296.062 115.7C295.778 115.943 295.414 116.004 295.039 116.004C294.553 116.004 294.056 115.994 293.57 115.994C291.199 115.974 288.819 115.953 286.448 115.933C283.207 115.903 279.955 115.882 276.713 115.852C273.177 115.822 269.642 115.791 266.106 115.761C262.865 115.731 259.623 115.71 256.381 115.68C254.021 115.66 251.65 115.639 249.29 115.619C248.348 115.609 247.568 115.629 246.747 115.042C246.301 114.728 245.937 114.273 245.795 113.736C246.342 114.07 246.97 114.222 247.588 114.374C250.647 115.123 254.021 114.779 257.151 114.789C260.818 114.799 264.475 114.809 268.143 114.809C271.931 114.819 275.72 114.83 279.519 114.83C282.69 114.84 285.871 114.84 289.042 114.85C290.166 114.85 291.301 114.85 292.425 114.86C292.993 114.86 293.55 114.86 294.117 114.86C294.563 114.86 294.948 114.779 295.262 114.425C295.424 114.242 295.535 114.03 295.677 113.827C295.718 113.767 295.778 113.696 295.86 113.696C295.89 113.696 295.92 113.716 295.951 113.736C296.174 113.878 296.386 114.03 296.589 114.192C296.619 114.212 296.65 114.242 296.67 114.283C296.69 114.323 296.68 114.374 296.67 114.425C296.569 114.85 296.457 115.295 296.153 115.609C296.113 115.66 296.082 115.68 296.062 115.7Z" fill="#B1C2C4"/>
<path d="M264.72 122.746C265.631 122.756 266.553 122.766 267.465 122.776C269.005 122.796 270.545 122.807 272.084 122.817C272.763 122.827 273.462 122.867 274.131 122.867C274.972 122.857 275.671 122.098 275.934 121.359C276.278 120.387 276.035 119.496 275.954 118.524C275.954 118.504 275.833 116.874 275.833 116.874C275.833 116.874 275.671 114.759 275.671 114.748C275.397 111.104 276.126 107.581 272.115 105.82C270.828 105.253 269.288 105.202 268.012 105.799C265.054 107.186 265.297 110.193 265.53 112.876C265.611 113.827 265.692 114.748 265.763 115.599C265.783 115.872 265.814 116.135 265.834 116.398C265.905 117.208 265.966 117.957 266.026 118.615C266.057 118.96 266.087 119.284 266.107 119.577C266.199 120.731 266.259 121.47 266.259 121.612C266.259 121.693 266.249 121.774 266.239 121.845C266.077 122.726 264.882 122.746 264.72 122.746Z" fill="#D9E0E1"/>
<path d="M265.783 115.589C265.712 114.738 265.631 113.817 265.55 112.866C265.317 110.183 265.073 107.166 268.032 105.789C268.964 105.354 270.037 105.263 271.061 105.476C272.56 105.82 273.624 106.609 274.485 107.632C275.822 109.525 275.488 112.106 275.69 114.749C275.69 114.759 275.852 116.874 275.852 116.874C275.852 116.874 275.974 118.504 275.974 118.525C275.984 118.595 275.984 118.676 275.994 118.747C272.712 117.816 269.328 117.259 265.914 117.087C265.894 116.864 265.874 116.631 265.854 116.389C265.833 116.135 265.813 115.862 265.783 115.589Z" fill="#B1C2C4"/>
<path d="M304.187 78.5883C304.339 78.7705 304.451 78.973 304.552 79.1856C305.221 80.6636 304.734 82.0403 304.37 83.5082C303.762 85.958 303.154 88.4079 302.556 90.8577C301.847 93.7125 301.148 96.5571 300.439 99.4119C299.771 102.125 299.102 104.828 298.423 107.541C298.058 109.029 297.684 110.507 297.319 111.995C297.147 112.673 296.61 115.417 296.032 115.72C295.87 115.548 295.121 114.971 295.019 114.88C295.09 114.617 295.161 114.344 295.232 114.081C295.637 112.552 296.053 111.013 296.458 109.485C297.106 107.055 297.755 104.615 298.403 102.186C299.153 99.3916 299.892 96.5875 300.642 93.7935C301.341 91.1614 302.05 88.5294 302.749 85.9074C303.043 84.8242 303.326 83.741 303.62 82.6579C303.782 82.0606 303.954 81.4734 304.096 80.8762C304.208 80.4206 304.228 79.9347 304.147 79.469C304.106 79.1957 303.954 78.3352 303.681 78.2036C303.884 78.2846 304.046 78.4263 304.187 78.5883Z" fill="#C6D2D4"/>
<path d="M273.765 124.649L258.66 124.426V124.406C258.671 123.465 259.44 122.705 260.383 122.715L273.785 122.827L273.765 124.649Z" fill="#B1C2C4"/>
<path d="M267.465 122.776C266.553 122.766 265.631 122.756 264.72 122.746C264.871 122.746 266.067 122.726 266.249 121.825C266.259 121.754 266.269 121.683 266.269 121.592C266.269 121.481 266.229 120.954 266.168 120.124L275.762 121.744C275.427 122.341 274.83 122.847 274.141 122.857C273.472 122.867 272.773 122.817 272.094 122.807C270.555 122.807 269.005 122.786 267.465 122.776Z" fill="#C6D2D4"/>
<path d="M302.961 78.0313C303.923 78.0415 304.622 78.9424 304.379 79.8738L298.868 101.224L298.048 104.402L295.545 114.08C295.373 114.738 294.786 115.194 294.107 115.184L247.112 114.789C246.139 114.779 245.44 113.858 245.703 112.926L255.135 78.7298C255.317 78.082 255.905 77.6365 256.573 77.6467L302.961 78.0313Z" fill="#D9E0E1"/>
<path d="M247.437 112.602L256.544 78.75L303.154 79.1448L297.501 101.588L296.732 104.666L294.635 112.997L247.437 112.602Z" fill="#ECF0F3"/>
<path d="M247.437 112.602C248.308 109.383 251.023 107.551 253.404 105.394C255.916 103.127 258.024 100.444 260.404 98.045C262.785 95.6458 265.561 93.4693 268.823 92.5784C271.082 91.9609 273.513 91.9913 275.681 91.0802C278.852 89.7439 280.868 86.6563 283.512 84.4494C286.774 81.7364 290.907 80.4507 295.03 79.7826C297.147 79.4384 299.295 79.2562 301.433 79.1044C302.901 79.0031 303.104 78.9829 302.851 80.2483C301.433 87.4156 299.265 94.5019 297.482 101.588L296.712 104.666L294.615 112.997L247.437 112.602Z" fill="#D4DEE8"/>
<path d="M274.455 122.665C274.628 122.715 274.79 122.614 274.931 122.523C275.094 122.412 275.245 122.28 275.377 122.138C275.519 121.997 275.641 121.845 275.742 121.663C275.853 121.45 275.924 121.227 275.965 120.994C276.056 120.458 275.985 119.921 275.914 119.395C275.843 118.747 275.772 118.099 275.742 117.441C275.722 116.935 275.691 116.429 275.63 115.933C275.61 115.811 275.803 115.801 275.823 115.923C275.975 117.067 276.015 118.231 276.117 119.385C276.167 119.891 276.238 120.377 276.167 120.883C276.107 121.339 275.944 121.794 275.63 122.138C275.387 122.412 275.094 122.695 274.749 122.827C274.648 122.867 274.526 122.877 274.415 122.847C274.303 122.817 274.334 122.634 274.455 122.665Z" fill="#C6D2D4"/>
<path d="M263.221 113.584C263.221 113.787 265.399 113.979 268.103 113.999C270.798 114.02 272.986 113.878 272.986 113.665C272.986 113.463 270.808 113.271 268.103 113.25C265.409 113.23 263.231 113.382 263.221 113.584Z" fill="#B1C2C4"/>
<path d="M228.291 130.237H285.883V131.199H228.291V130.237Z" fill="#D9E0E1"/>
<path d="M93.0187 34.9872L89.392 17.5347L107.029 15.1152C107.029 15.1152 109.795 33.0841 93.0187 34.9872Z" fill="#FA6325"/>
<path d="M84.6717 0.264199C93.8499 -1.37577 102.613 4.71844 104.254 13.8901L96.5548 15.2669C95.6734 10.347 90.9728 7.07717 86.0494 7.95789C81.126 8.83862 77.8539 13.5358 78.7353 18.4557C79.6166 23.3756 84.3171 26.6455 89.2405 25.7647C89.3013 25.7546 89.3723 25.7445 89.433 25.7242L90.8108 33.4179C90.75 33.4281 90.6791 33.4483 90.6183 33.4584C81.4401 35.0984 72.6772 29.0042 71.0361 19.8325C69.395 10.6709 75.4935 1.91429 84.6717 0.264199Z" fill="#356493"/>
<path d="M24 225.001C24 225.001 99.4416 225.001 192.5 225.001C285.558 225.001 361 225.001 361 225.001C361 225.001 285.558 222.258 192.5 222.258C99.4416 222.258 24 225.001 24 225.001Z" fill="#E0E0E0"/>
<path d="M131.585 32.1325C130.866 32.3349 130.116 32.4564 129.367 32.4767C129.903 31.5959 130.44 30.7051 130.977 29.8244C129.387 31.4643 126.743 31.606 124.95 33.0334C124.22 33.6105 123.663 34.3798 123.126 35.1391C120.979 38.1761 118.871 41.6787 119.439 45.3535C119.388 45.0093 118.193 44.1184 117.939 43.7945C117.413 43.1263 116.957 42.3975 116.582 41.6281C115.832 40.0894 115.407 38.3886 115.356 36.6778C115.295 34.8961 115.822 33.1752 116.734 31.6567C117.514 30.3508 118.537 29.2979 119.307 27.9819C120.087 26.6659 121.343 25.5017 122.549 24.5704C124.99 22.6976 128.009 21.5536 131.089 21.3917C134.442 21.2196 140.905 22.0497 139.659 26.8582C138.95 29.5814 136.265 32.1122 133.824 33.3574C134.442 32.1426 135.06 30.9177 135.678 29.7029C134.553 30.8569 133.125 31.6972 131.585 32.1325Z" fill="black"/>
<path d="M123.188 37.8623C122.337 37.3156 121.486 36.0198 121.374 35.1188C121.324 34.6937 121.283 34.2685 121.334 33.8433C121.415 33.1954 121.739 32.5577 122.306 32.2438C124.555 30.9987 125.032 35.3922 124.9 36.6373C124.738 38.2571 123.968 38.3785 123.188 37.8623Z" fill="#FF8B66"/>
<path d="M122.458 36.3336C121.901 35.3618 121.972 34.4203 122.165 33.3776C122.246 32.9221 122.661 32.5576 123.137 32.6285C123.897 32.75 123.775 33.5396 123.786 34.1166C123.786 34.2077 123.786 34.2988 123.816 34.3899C123.897 34.7139 124.1 34.9163 124.089 35.2707C124.079 35.4934 124.039 35.7464 123.968 35.959C123.786 36.4652 123.299 37.1232 122.722 36.6575C122.61 36.5664 122.529 36.4551 122.458 36.3336Z" fill="#F65D2F"/>
<path d="M1.04771 161.73C1.06797 161.507 1.34149 161.396 1.50358 161.548C2.49636 162.449 5.19107 165.445 7.20703 172.957C7.20703 172.957 7.17664 172.937 7.12599 172.896C7.14625 172.947 7.15638 172.977 7.14625 172.977C7.13612 172.987 7.0652 172.906 6.94364 172.754C5.68746 171.793 0.43988 167.399 1.04771 161.73Z" fill="#E0E0E0"/>
<path d="M6.23537 151.587C6.16446 152.771 6.70138 153.905 7.10659 155.019C8.56538 158.967 8.56538 163.441 7.11672 167.399C7.22816 169.019 7.36998 171.034 7.53207 173.352C8.0386 176.045 9.34543 178.991 11.1081 181.926C10.48 180.124 10.1052 178.201 10.0748 176.298C10.0546 174.982 10.2065 173.645 10.632 172.4C10.9866 171.347 11.6248 170.558 12.0908 169.576C12.5568 171.509 13.043 173.524 12.8202 175.508C12.5568 177.816 12.0199 180.084 11.331 182.291C11.4526 182.483 11.5741 182.675 11.6957 182.868C12.3643 184.214 13.3976 185.459 14.2486 186.694C14.9678 187.737 15.5959 188.972 16.4266 189.914C16.609 190.126 16.7913 190.329 16.9433 190.561C16.7508 189.964 16.7001 189.286 16.4368 188.719C16.2139 188.233 15.9809 187.828 15.8391 187.292C15.2616 185.085 15.1502 182.767 15.525 180.519C17.1459 181.866 18.1995 183.85 18.5135 185.935C18.6655 186.958 18.6351 188.01 18.4122 189.023C18.1893 190.005 17.5207 190.855 17.8246 191.888C17.8854 192.11 17.9968 192.313 18.0981 192.515C18.5439 193.386 19.0605 194.216 19.4759 195.097C19.9622 196.119 20.3167 197.05 20.5801 197.86C20.3775 197.121 20.4788 196.069 20.5092 195.35C20.5396 194.317 20.6814 193.285 20.9549 192.282C21.2487 191.199 21.8059 190.329 22.2719 189.326C22.667 188.476 22.9405 187.707 23.5382 186.958C23.7915 187.98 23.7206 189.144 23.7408 190.197C24.3993 188.203 25.1186 186.107 25.7264 183.88C24.3689 181.825 23.1431 179.669 22.2314 177.371C21.9173 176.571 21.4817 175.812 21.2994 174.972C21.0866 173.939 20.8334 172.836 20.8131 171.783C21.8869 172.562 23.133 173.129 23.7712 174.415C24.4702 175.498 24.9565 176.703 25.2806 177.948C25.7669 179.79 25.8176 181.623 25.8176 183.506C26.4963 180.924 27.013 178.15 26.9015 175.265C26.7901 172.289 25.8986 169.292 24.9159 166.286C24.4094 164.747 23.8016 163.249 23.3356 161.7C23.2343 161.346 23.1431 160.991 23.0722 160.637C23.0722 160.667 23.0823 160.698 23.0823 160.728C21.4412 160.394 20.0027 159.311 19.0605 157.924C18.1184 156.537 17.6423 154.877 17.5004 153.207C18.6756 154.3 19.9621 155.282 21.036 156.476C21.8667 157.398 22.5657 158.471 22.8899 159.655C22.7683 158.886 22.6872 158.106 22.5961 157.306C22.2415 154.3 22.9101 151.303 24.2879 148.894C25.1591 147.305 26.162 145.877 27.094 144.49C27.0839 144.48 27.0839 144.46 27.0737 144.43C27.0535 144.501 27.0433 144.531 27.0433 144.531C24.0447 137.343 24.3486 133.335 24.5816 132.019C24.6222 131.796 24.8957 131.715 25.0578 131.877C29.0087 135.997 27.5397 142.678 27.1345 144.207C27.1345 144.308 27.1345 144.379 27.1244 144.43C27.6107 143.711 28.0665 143.012 28.4819 142.294C29.7279 140.198 30.508 138.042 31.0044 136.037C31.5514 133.709 31.6932 131.593 31.6324 129.771V129.781C28.492 125.398 27.3067 119.658 28.4717 114.384C30.0318 116.398 31.6324 118.484 32.3112 120.944C33.0608 123.667 32.605 126.572 31.7844 129.295C31.8249 129.964 31.8351 130.632 31.8249 131.29C31.8047 132.363 31.7034 133.436 31.5413 134.489C31.3387 135.784 31.1158 136.989 30.6295 138.204C30.0521 139.651 29.5152 141.069 28.725 142.415C27.4992 144.541 25.8479 146.606 24.5411 149.005C23.6598 150.554 23.0925 152.336 22.8899 154.209C26.2126 147.548 29.3126 145.199 30.437 144.521C30.6295 144.399 30.8727 144.561 30.8524 144.784C30.3763 150.463 24.3892 153.794 22.981 154.502C22.9304 154.543 22.8899 154.583 22.8595 154.604C22.7885 155.474 22.8088 156.355 22.9101 157.246C23.214 160.212 24.2372 163.158 25.2199 166.164C26.0202 168.604 26.7597 171.064 27.0737 173.524C27.0332 170.811 27.1953 168.057 27.8031 165.405C27.9956 164.575 28.2286 163.765 28.5325 162.965C28.644 162.672 29.7279 160.89 29.7482 160.931C30.8929 163.411 30.6498 166.266 29.7684 168.786C29.4037 169.839 28.9175 170.851 28.3704 171.813C28.0665 172.35 27.5093 172.917 27.2865 173.483C27.2156 173.656 27.175 173.757 27.1548 173.747C27.1446 173.747 27.1446 173.716 27.1548 173.666C27.1345 173.696 27.1244 173.706 27.1041 173.726C27.1649 174.222 27.2054 174.729 27.2257 175.225C27.3371 178.252 26.7698 181.127 26.0506 183.789C25.3414 186.381 24.4905 188.78 23.7307 191.047C23.7104 191.624 23.6496 192.293 23.5382 193.052C23.599 192.616 24.1663 191.989 24.3993 191.614C24.6829 191.169 24.9767 190.723 25.2908 190.288C25.7973 189.579 26.3342 188.891 26.9218 188.243C27.8031 187.271 28.7959 186.32 29.9812 185.712C29.8596 188.162 28.8162 190.399 27.1852 192.232C26.5064 192.991 25.7466 193.69 24.9463 194.307C24.6526 194.53 23.1026 195.309 23.0216 195.623C22.667 197.05 22.1503 198.69 21.4209 200.553C21.1272 203.398 21.3399 205.797 21.7856 207.508C21.8565 207.791 21.9376 208.054 22.0085 208.308H26.3646L28.7757 224.525H13.7522L15.6972 208.308H21.8971C21.816 208.065 21.7451 207.812 21.6641 207.538C21.4412 206.708 21.2589 205.726 21.1778 204.602L21.1677 204.592C21.1677 204.663 21.1575 204.694 21.1575 204.694C21.1778 204.471 20.4991 203.762 20.3674 203.56C20.0837 203.145 19.8102 202.73 19.5468 202.304C19.02 201.454 18.5135 200.594 18.0678 199.703C17.4599 198.498 16.7609 197.334 16.2645 196.079C16.0315 195.491 15.8897 194.935 15.7884 194.327C15.7681 194.165 15.6263 192.616 15.6364 192.616C15.8391 192.708 16.0214 192.849 16.1936 192.991C17.8044 194.287 19.1821 195.451 19.9824 197.415C20.5801 198.873 21.1373 200.715 21.0968 202.315C21.1069 201.879 21.1272 201.434 21.1677 200.978C21.1474 200.978 21.1373 200.877 21.1373 200.685C21.0461 200.341 20.8942 199.753 20.7625 198.984C20.4788 198.012 20.0128 196.696 19.2733 195.188C18.939 194.51 18.554 193.801 18.1083 193.052C16.4975 192.718 9.92286 191.068 7.98794 185.753C7.9069 185.54 8.09938 185.328 8.32225 185.388C9.52777 185.733 12.8708 187.069 17.4903 192.029C17.0041 191.26 16.4773 190.45 15.91 189.63C14.5322 187.605 12.9417 185.419 11.4222 183.02C9.35555 179.76 7.80559 176.409 7.26868 173.382V173.372V173.362C7.14711 171.084 7.03568 169.1 6.94451 167.491C4.42202 162.631 4.1485 156.648 6.23537 151.587Z" fill="#E0E0E0"/>
<path d="M30.6091 138.528C31.4196 137.262 32.848 136.503 34.3169 136.179C35.7858 135.865 37.3054 135.936 38.8047 136.007C36.8495 138.416 33.4862 139.591 30.4572 138.933C30.4572 138.781 30.5281 138.649 30.6091 138.528Z" fill="#E0E0E0"/>
</g>
<defs>
<clipPath id="clip0_25727_20017">
<rect width="361" height="225" fill="white" transform="matrix(-1 0 0 1 361 0.000976562)"/>
</clipPath>
</defs>
</svg>
