<svg width="374" height="190" viewBox="0 0 374 190" fill="none" xmlns="http://www.w3.org/2000/svg">
<g clip-path="url(#clip0_25727_21251)">
<path d="M246.926 35.5283V177.054" stroke="#835938" stroke-width="0.5484" stroke-miterlimit="10"/>
<path d="M308.584 35.5286H206.162" stroke="#835938" stroke-width="0.5484" stroke-miterlimit="10"/>
<path d="M277.754 105.997H154.509" stroke="#835938" stroke-width="0.5484" stroke-miterlimit="10"/>
<path d="M99.6206 176.539H37.9615V105.997H99.6206H128.096V176.539H99.6206Z" fill="#CB874A"/>
<path d="M66.5101 105.997H128.096V176.539H66.5101V105.997Z" fill="#DAA568"/>
<path d="M88.2878 126.152C88.2878 126.152 88.5086 126.152 88.8029 126.152C88.9501 126.078 89.1708 125.931 89.3915 126.299C89.6123 126.52 89.9066 125.858 90.2009 126.152C90.3481 126.299 90.4952 126.225 90.6424 126.078C90.7895 126.005 90.9367 125.858 91.0838 125.931C91.231 126.005 91.3782 126.078 91.5989 125.784C91.7461 125.563 91.9668 125.931 92.114 126.152C92.2611 125.858 92.4818 126.52 92.629 125.858C92.7762 125.637 92.9969 125.563 93.2176 126.005C93.4384 126.299 93.5855 126.078 93.8063 126.299C94.027 126.372 94.1742 126.446 94.3949 126.152C94.6156 125.931 94.7628 125.49 94.9835 125.931C95.2043 126.299 95.3514 126.667 95.5722 126.446C95.7929 126.446 95.9401 126.446 96.1608 126.667C96.308 126.299 96.5287 126.005 96.6758 126.225C96.823 126.52 97.0437 126.372 97.1909 126.225C97.3381 126.299 97.5588 126.078 97.7059 126.078C97.8531 125.71 98.0003 125.784 98.1474 126.152C98.2946 126.005 98.4417 126.005 98.5889 126.225C98.8832 125.931 99.104 126.52 99.3983 126.078C99.619 126.005 99.8397 126.152 99.9869 126.225C100.355 126.225 100.502 126.225 100.502 126.225V106.365H88.2878V126.152Z" fill="#EBCA92"/>
<path d="M45.3191 126.152C45.3191 126.152 45.5398 126.152 45.8341 126.152C45.9813 126.078 46.202 125.931 46.4228 126.299C46.6435 126.52 46.9378 125.858 47.2322 126.152C47.3793 126.299 47.5264 126.225 47.6736 126.078C47.8208 126.005 47.9679 125.858 48.1151 125.931C48.2622 126.005 48.4094 126.078 48.6301 125.784C48.7773 125.563 48.998 125.931 49.1452 126.152C49.2923 125.858 49.5131 126.52 49.6602 125.858C49.8074 125.637 50.0281 125.563 50.2489 126.005C50.4696 126.299 50.6168 126.078 50.8375 126.299C51.0583 126.372 51.2054 126.446 51.4261 126.152C51.6469 125.931 51.794 125.49 52.0148 125.931C52.2355 126.299 52.3827 126.667 52.6034 126.446C52.8241 126.446 52.9713 126.446 53.192 126.667C53.3392 126.299 53.5599 126.005 53.7071 126.225C53.8542 126.52 54.075 126.372 54.2222 126.225C54.3693 126.299 54.59 126.078 54.7372 126.078C54.8843 125.71 55.0315 125.784 55.1787 126.152C55.3258 126.005 55.473 126.005 55.6201 126.225C55.9145 125.931 56.1352 126.52 56.4295 126.078C56.6503 126.005 56.871 126.152 57.0181 126.225C57.386 126.225 57.5332 126.225 57.5332 126.225V106.365H45.3927V126.152H45.3191Z" fill="#EBCA92"/>
<path d="M84.8313 172.493H84.0219V168.595H83.4333L84.4634 167.197L85.4199 168.595H84.8313V172.493Z" fill="#15181A"/>
<path d="M82.4758 172.493H81.5929V168.595H81.0778L82.0344 167.197L83.0645 168.595H82.4758V172.493Z" fill="#15181A"/>
<path d="M81.2995 172.788H85.1992V173.67H81.2995V172.788Z" fill="#15181A"/>
<path d="M74.3091 169.33C74.5298 169.036 74.8241 168.889 75.2656 168.889C75.6335 168.889 75.9278 169.036 76.1485 169.257C76.3693 169.036 76.6636 168.889 77.0315 168.889C77.3994 168.889 77.6937 169.036 77.9144 169.257C78.1352 169.036 78.4295 168.889 78.7974 168.889C79.1653 168.889 79.5332 169.036 79.7539 169.33C79.3124 168.08 78.2823 167.197 77.0315 167.197C75.7807 167.197 74.7505 168.08 74.3091 169.33Z" fill="#15181A"/>
<path d="M77.7675 173.67C78.2825 173.67 78.6504 173.302 78.6504 172.787C78.6504 172.714 78.5768 172.64 78.5032 172.64C78.4297 172.64 78.3561 172.714 78.3561 172.787C78.3561 173.082 78.1354 173.376 77.7675 173.376C77.4731 173.376 77.1788 173.155 77.1788 172.787V167.418C77.1788 167.344 77.1052 167.271 77.0317 167.271C76.9581 167.271 76.8845 167.344 76.8845 167.418V172.787C76.8845 173.229 77.2524 173.67 77.7675 173.67Z" fill="#15181A"/>
<path d="M69.3791 167.418V169.404C69.3791 170.213 70.0413 170.875 70.8507 170.875C71.6601 170.875 72.3223 170.213 72.3223 169.404V167.344L69.3791 167.418Z" fill="#15181A"/>
<path d="M70.8509 173.817C70.9245 173.817 70.998 173.743 70.998 173.67V170.286C70.998 170.213 70.9245 170.139 70.8509 170.139C70.7773 170.139 70.7037 170.213 70.7037 170.286V173.67C70.6302 173.743 70.7037 173.817 70.8509 173.817Z" fill="#15181A"/>
<path d="M69.6005 173.891H72.0286C72.1022 173.891 72.1758 173.817 72.1758 173.744C72.1758 173.67 72.1022 173.597 72.0286 173.597H69.6005C69.5269 173.597 69.4534 173.67 69.4534 173.744C69.4534 173.817 69.5269 173.891 69.6005 173.891Z" fill="#15181A"/>
<path d="M71.2186 168.154H71.1451L71.2186 168.227L71.7337 169.11L71.3658 168.301H71.7337H71.8809L71.8073 168.154L71.4394 167.418H71.0715L71.513 168.154H71.2186Z" fill="#15181A"/>
<path d="M189.902 176.539H128.316V105.997H189.902H218.377V176.539H189.902Z" fill="#CB874A"/>
<path d="M156.791 105.997H218.377V176.539H156.791V105.997Z" fill="#DAA568"/>
<path d="M178.79 126.152C178.79 126.152 179.011 126.152 179.305 126.152C179.452 126.078 179.673 125.931 179.893 126.299C180.114 126.52 180.409 125.858 180.703 126.152C180.85 126.299 180.997 126.225 181.144 126.078C181.291 125.931 181.439 125.858 181.586 125.931C181.733 126.005 181.88 126.078 182.101 125.784C182.248 125.563 182.469 125.931 182.616 126.152C182.763 125.858 182.984 126.52 183.131 125.858C183.278 125.637 183.499 125.563 183.72 126.005C183.94 126.299 184.087 126.078 184.308 126.299C184.529 126.372 184.676 126.446 184.897 126.152C185.118 125.931 185.265 125.49 185.485 125.931C185.706 126.299 185.853 126.667 186.074 126.446C186.295 126.446 186.442 126.446 186.663 126.667C186.81 126.299 187.031 126.005 187.178 126.225C187.325 126.52 187.546 126.372 187.693 126.225C187.84 126.299 188.061 126.078 188.208 126.078C188.355 125.71 188.502 125.784 188.649 126.152C188.797 126.005 188.944 126.005 189.091 126.225C189.385 125.931 189.606 126.52 189.9 126.078C190.121 126.005 190.342 126.152 190.489 126.225C190.857 126.225 191.004 126.225 191.004 126.225V106.365H178.79V126.152Z" fill="#EBCA92"/>
<path d="M135.231 126.152C135.231 126.152 135.452 126.152 135.746 126.152C135.893 126.078 136.114 125.931 136.335 126.299C136.556 126.52 136.85 125.858 137.144 126.152C137.291 126.299 137.439 126.225 137.586 126.078C137.733 126.005 137.88 125.858 138.027 125.931C138.174 126.005 138.322 126.078 138.542 125.784C138.689 125.563 138.91 125.931 139.057 126.152C139.204 125.858 139.425 126.52 139.572 125.858C139.72 125.637 139.94 125.563 140.161 126.005C140.382 126.299 140.529 126.078 140.75 126.299C140.97 126.372 141.118 126.446 141.338 126.152C141.559 125.931 141.706 125.49 141.927 125.931C142.148 126.299 142.295 126.667 142.516 126.446C142.736 126.446 142.883 126.446 143.104 126.667C143.251 126.299 143.472 126.005 143.619 126.225C143.766 126.52 143.987 126.372 144.134 126.225C144.281 126.299 144.502 126.078 144.649 126.078C144.796 125.71 144.944 125.784 145.091 126.152C145.238 126.005 145.385 126.005 145.532 126.225C145.827 125.931 146.047 126.52 146.342 126.078C146.562 126.005 146.783 126.152 146.93 126.225C147.298 126.225 147.445 126.225 147.445 126.225V106.365H135.305V126.152H135.231Z" fill="#EBCA92"/>
<path d="M178.276 172.493H177.393V168.595H176.804L177.834 167.197L178.791 168.595H178.276V172.493Z" fill="#15181A"/>
<path d="M175.921 172.493H175.038V168.595H174.449L175.479 167.197L176.436 168.595H175.921V172.493Z" fill="#15181A"/>
<path d="M174.745 172.788H178.645V173.67H174.745V172.788Z" fill="#15181A"/>
<path d="M167.754 169.33C167.975 169.036 168.269 168.889 168.711 168.889C169.079 168.889 169.373 169.036 169.594 169.257C169.815 169.036 170.109 168.889 170.477 168.889C170.845 168.889 171.139 169.036 171.36 169.257C171.58 169.036 171.875 168.889 172.243 168.889C172.611 168.889 172.978 169.036 173.199 169.33C172.758 168.08 171.728 167.197 170.477 167.197C169.226 167.197 168.122 168.08 167.754 169.33Z" fill="#15181A"/>
<path d="M171.213 173.67C171.728 173.67 172.096 173.302 172.096 172.787C172.096 172.714 172.022 172.64 171.949 172.64C171.875 172.64 171.801 172.714 171.801 172.787C171.801 173.082 171.581 173.376 171.213 173.376C170.918 173.376 170.624 173.155 170.624 172.787V167.418C170.624 167.344 170.551 167.271 170.477 167.271C170.403 167.271 170.33 167.344 170.33 167.418V172.787C170.256 173.229 170.698 173.67 171.213 173.67Z" fill="#15181A"/>
<path d="M162.75 167.418V169.404C162.75 170.213 163.412 170.875 164.222 170.875C165.031 170.875 165.693 170.213 165.693 169.404V167.344L162.75 167.418Z" fill="#15181A"/>
<path d="M164.222 173.817C164.296 173.817 164.369 173.744 164.369 173.67V170.287C164.369 170.213 164.296 170.139 164.222 170.139C164.148 170.139 164.075 170.213 164.075 170.287V173.67C164.075 173.744 164.148 173.817 164.222 173.817Z" fill="#15181A"/>
<path d="M162.972 173.891H165.4C165.473 173.891 165.547 173.817 165.547 173.744C165.547 173.67 165.473 173.597 165.4 173.597H162.972C162.898 173.597 162.824 173.67 162.824 173.744C162.824 173.817 162.898 173.891 162.972 173.891Z" fill="#15181A"/>
<path d="M164.663 168.154H164.516L164.59 168.227L165.105 169.11L164.737 168.301H165.105H165.252L165.178 168.154L164.884 167.418H164.516L164.958 168.154H164.663Z" fill="#15181A"/>
<path d="M280.109 176.539H218.45V105.997H280.109H308.584V176.539H280.109Z" fill="#CB874A"/>
<path d="M246.998 105.997H308.584V176.539H246.998V105.997Z" fill="#DAA568"/>
<path d="M271.647 126.152C271.647 126.152 271.868 126.152 272.162 126.152C272.309 126.078 272.53 125.931 272.751 126.299C272.972 126.52 273.266 125.858 273.56 126.152C273.707 126.299 273.855 126.225 274.002 126.078C274.149 126.005 274.296 125.858 274.443 125.931C274.59 126.005 274.738 126.078 274.958 125.784C275.105 125.563 275.326 125.931 275.473 126.152C275.62 125.858 275.841 126.52 275.988 125.858C276.136 125.637 276.356 125.563 276.577 126.005C276.798 126.299 276.945 126.078 277.166 126.299C277.386 126.372 277.534 126.446 277.754 126.152C277.975 125.931 278.122 125.49 278.343 125.931C278.564 126.299 278.711 126.667 278.932 126.446C279.152 126.446 279.299 126.446 279.52 126.667C279.667 126.299 279.888 126.005 280.035 126.225C280.182 126.52 280.403 126.372 280.55 126.225C280.697 126.299 280.918 126.078 281.065 126.078C281.212 125.71 281.36 125.784 281.507 126.152C281.654 126.005 281.801 126.005 281.948 126.225C282.243 125.931 282.463 126.52 282.758 126.078C282.978 126.005 283.199 126.152 283.346 126.225C283.714 126.225 283.861 126.225 283.861 126.225V106.365H271.721V126.152H271.647Z" fill="#EBCA92"/>
<path d="M218.45 126.152C218.45 126.152 218.671 126.152 218.965 126.152C219.112 126.078 219.333 125.931 219.554 126.299C219.774 126.52 220.069 125.858 220.363 126.152C220.51 126.299 220.657 126.225 220.804 126.078C220.952 125.931 221.099 125.858 221.246 125.931C221.393 126.005 221.54 126.078 221.761 125.784C221.908 125.563 222.129 125.931 222.276 126.152C222.423 125.858 222.644 126.52 222.791 125.858C222.938 125.637 223.159 125.563 223.38 126.005C223.6 126.299 223.748 126.078 223.968 126.299C224.189 126.372 224.336 126.446 224.557 126.152C224.778 125.931 224.925 125.49 225.146 125.931C225.366 126.299 225.514 126.667 225.734 126.446C225.955 126.446 226.102 126.446 226.323 126.667C226.47 126.299 226.691 126.005 226.838 126.225C226.985 126.52 227.206 126.372 227.353 126.225C227.5 126.299 227.721 126.078 227.868 126.078C228.015 125.71 228.162 125.784 228.31 126.152C228.457 126.005 228.604 126.005 228.751 126.225C229.045 125.931 229.266 126.52 229.56 126.078C229.781 126.005 230.002 126.152 230.149 126.225C230.517 126.225 230.664 126.225 230.664 126.225V106.365H218.524V126.152H218.45Z" fill="#EBCA92"/>
<path d="M268.484 172.493H267.601V168.595H267.012L268.042 167.197L269.072 168.595H268.484V172.493Z" fill="#15181A"/>
<path d="M266.129 172.493H265.247V168.595H264.658L265.688 167.197L266.645 168.595H266.129V172.493Z" fill="#15181A"/>
<path d="M264.952 172.787H268.852V173.67H264.952V172.787Z" fill="#15181A"/>
<path d="M257.961 169.33C258.182 169.036 258.476 168.889 258.918 168.889C259.286 168.889 259.58 169.036 259.801 169.257C260.022 169.036 260.316 168.889 260.684 168.889C261.052 168.889 261.346 169.036 261.567 169.257C261.788 169.036 262.082 168.889 262.45 168.889C262.818 168.889 263.186 169.036 263.406 169.33C262.965 168.08 261.935 167.197 260.684 167.197C259.433 167.197 258.329 168.08 257.961 169.33Z" fill="#15181A"/>
<path d="M261.42 173.67C261.935 173.67 262.303 173.302 262.303 172.787C262.303 172.714 262.229 172.64 262.156 172.64C262.082 172.64 262.008 172.714 262.008 172.787C262.008 173.082 261.788 173.376 261.42 173.376C261.125 173.376 260.831 173.155 260.831 172.787V167.418C260.831 167.344 260.758 167.271 260.684 167.271C260.61 167.271 260.537 167.344 260.537 167.418V172.787C260.463 173.229 260.905 173.67 261.42 173.67Z" fill="#15181A"/>
<path d="M252.959 167.418V169.404C252.959 170.213 253.621 170.875 254.431 170.875C255.24 170.875 255.902 170.213 255.902 169.404V167.344L252.959 167.418Z" fill="#15181A"/>
<path d="M254.429 173.817C254.503 173.817 254.576 173.743 254.576 173.67V170.286C254.576 170.213 254.503 170.139 254.429 170.139C254.355 170.139 254.282 170.213 254.282 170.286V173.67C254.282 173.743 254.355 173.817 254.429 173.817Z" fill="#15181A"/>
<path d="M253.179 173.891H255.607C255.68 173.891 255.754 173.817 255.754 173.744C255.754 173.67 255.68 173.597 255.607 173.597H253.179C253.105 173.597 253.031 173.67 253.031 173.744C253.031 173.817 253.105 173.891 253.179 173.891Z" fill="#15181A"/>
<path d="M254.872 168.154H254.725L254.799 168.227L255.314 169.11L254.946 168.301H255.314H255.461L255.387 168.154L255.093 167.418H254.725L255.167 168.154H254.872Z" fill="#15181A"/>
<path d="M189.902 106.07H128.316V35.5283H150.39H162.531H189.902H218.377V106.07H189.902Z" fill="#CB874A"/>
<path d="M156.791 35.5283H218.377V106.07H156.791V35.5283Z" fill="#DAA568"/>
<path d="M178.79 55.3154C178.79 55.3154 179.011 55.3154 179.305 55.3154C179.452 55.2418 179.673 55.0947 179.893 55.4625C180.114 55.6832 180.409 55.0212 180.703 55.3154C180.85 55.4625 180.997 55.3889 181.144 55.2418C181.291 55.0947 181.439 55.0212 181.586 55.0947C181.733 55.1683 181.88 55.2418 182.101 54.9476C182.248 54.7269 182.469 55.0947 182.616 55.3154C182.763 55.0212 182.984 55.6832 183.131 55.0212C183.278 54.8005 183.499 54.7269 183.72 55.1683C183.94 55.4625 184.087 55.2418 184.308 55.4625C184.529 55.5361 184.676 55.6096 184.897 55.3154C185.118 55.0947 185.265 54.6534 185.485 55.0947C185.706 55.4625 185.853 55.8303 186.074 55.6096C186.295 55.6096 186.442 55.6096 186.663 55.8303C186.81 55.4625 187.031 55.1683 187.178 55.389C187.325 55.6832 187.546 55.5361 187.693 55.389C187.84 55.4625 188.061 55.2418 188.208 55.2418C188.355 54.874 188.502 54.9476 188.649 55.3154C188.797 55.1683 188.944 55.1683 189.091 55.389C189.385 55.0947 189.606 55.6832 189.9 55.2418C190.121 55.1683 190.342 55.3154 190.489 55.389C190.857 55.389 191.004 55.389 191.004 55.389V35.5283H178.79V55.3154Z" fill="#EBCA92"/>
<path d="M178.276 101.878H177.393V97.9791H176.804L177.834 96.5815L178.791 97.9791H178.276V101.878Z" fill="#15181A"/>
<path d="M175.921 101.878H175.038V97.9791H174.449L175.479 96.5815L176.436 97.9791H175.921V101.878Z" fill="#15181A"/>
<path d="M174.745 102.172H178.645V103.055H174.745V102.172Z" fill="#15181A"/>
<path d="M167.754 98.7147C167.975 98.4205 168.269 98.2734 168.711 98.2734C169.079 98.2734 169.373 98.4205 169.594 98.6412C169.815 98.4205 170.109 98.2734 170.477 98.2734C170.845 98.2734 171.139 98.4205 171.36 98.6412C171.58 98.4205 171.875 98.2734 172.243 98.2734C172.611 98.2734 172.978 98.4205 173.199 98.7147C172.758 97.4642 171.728 96.5815 170.477 96.5815C169.226 96.5815 168.122 97.4642 167.754 98.7147Z" fill="#15181A"/>
<path d="M171.213 103.055C171.728 103.055 172.096 102.687 172.096 102.172C172.096 102.099 172.022 102.025 171.949 102.025C171.875 102.025 171.801 102.099 171.801 102.172C171.801 102.466 171.581 102.761 171.213 102.761C170.918 102.761 170.624 102.54 170.624 102.172V96.8024C170.624 96.7288 170.551 96.6553 170.477 96.6553C170.403 96.6553 170.33 96.7288 170.33 96.8024V102.172C170.256 102.613 170.698 103.055 171.213 103.055Z" fill="#15181A"/>
<path d="M162.75 96.8021V98.7881C162.75 99.5973 163.412 100.259 164.222 100.259C165.031 100.259 165.693 99.5973 165.693 98.7881V96.7285L162.75 96.8021Z" fill="#15181A"/>
<path d="M164.222 103.202C164.296 103.202 164.369 103.128 164.369 103.055V99.671C164.369 99.5975 164.296 99.5239 164.222 99.5239C164.148 99.5239 164.075 99.5975 164.075 99.671V103.055C164.075 103.128 164.148 103.202 164.222 103.202Z" fill="#15181A"/>
<path d="M162.972 103.275H165.4C165.473 103.275 165.547 103.202 165.547 103.128C165.547 103.055 165.473 102.981 165.4 102.981H162.972C162.898 102.981 162.824 103.055 162.824 103.128C162.824 103.202 162.898 103.275 162.972 103.275Z" fill="#15181A"/>
<path d="M164.663 97.5378H164.516L164.59 97.6114L165.105 98.4205L164.737 97.6849H165.105H165.252L165.178 97.5378L164.884 96.8022H164.516L164.958 97.4643L164.663 97.5378Z" fill="#15181A"/>
<path d="M280.109 35.2342H177.687V0H218.45H230.59H280.109H308.584V35.2342H280.109Z" fill="#CB874A"/>
<path d="M206.162 0H308.584V35.2342H206.162V0Z" fill="#DAA568"/>
<path d="M246.925 17.2861C246.925 17.2861 247.145 17.2861 247.44 17.2861C247.587 17.2125 247.808 17.0654 248.028 17.4332C248.249 17.5803 248.543 17.0654 248.838 17.2861C248.985 17.4332 249.132 17.3597 249.279 17.2125C249.426 17.139 249.573 16.9919 249.721 17.0654C249.868 17.139 250.015 17.139 250.236 16.9919C250.383 16.8448 250.604 17.139 250.751 17.2861C250.898 17.0654 251.119 17.6539 251.266 17.0654C251.413 16.9183 251.634 16.8448 251.854 17.2125C252.075 17.4332 252.222 17.2861 252.443 17.4332C252.664 17.5068 252.811 17.5803 253.032 17.2861C253.252 17.139 253.4 16.6976 253.62 17.0654C253.841 17.3597 253.988 17.7274 254.209 17.5068C254.43 17.5068 254.577 17.5068 254.798 17.6539C254.945 17.3597 255.165 17.0654 255.313 17.2125C255.46 17.5068 255.68 17.3597 255.828 17.2125C255.975 17.2861 256.196 17.0654 256.343 17.0654C256.49 16.6976 256.637 16.8448 256.784 17.139C256.931 16.9919 257.078 16.9919 257.226 17.2125C257.52 16.9919 257.741 17.4332 258.035 17.0654C258.256 16.9919 258.476 17.139 258.624 17.2125C258.992 17.2125 259.139 17.2125 259.139 17.2125V0H246.998V17.2861H246.925Z" fill="#EBCA92"/>
<path d="M184.897 17.2861C184.897 17.2861 185.118 17.2861 185.412 17.2861C185.559 17.2125 185.78 17.0654 186.001 17.4332C186.222 17.5803 186.516 17.0654 186.81 17.2861C186.957 17.4332 187.105 17.3597 187.252 17.2125C187.399 17.139 187.546 16.9919 187.693 17.0654C187.84 17.139 187.988 17.139 188.208 16.9919C188.355 16.8448 188.576 17.139 188.723 17.2861C188.87 17.0654 189.091 17.6539 189.238 17.0654C189.386 16.9183 189.606 16.8448 189.827 17.2125C190.048 17.4332 190.195 17.2861 190.416 17.4332C190.636 17.5068 190.784 17.5803 191.004 17.2861C191.225 17.139 191.372 16.6976 191.593 17.0654C191.814 17.3597 191.961 17.7274 192.182 17.5068C192.402 17.5068 192.549 17.5068 192.77 17.6539C192.917 17.3597 193.138 17.0654 193.285 17.2125C193.432 17.5068 193.653 17.3597 193.8 17.2125C193.947 17.2861 194.168 17.0654 194.315 17.0654C194.462 16.6976 194.61 16.8448 194.757 17.139C194.904 16.9919 195.051 16.9919 195.198 17.2125C195.493 16.9919 195.713 17.4332 196.008 17.0654C196.228 16.9919 196.449 17.139 196.596 17.2125C196.964 17.2125 197.111 17.2125 197.111 17.2125V0H184.971V17.2861H184.897Z" fill="#EBCA92"/>
<path d="M226.397 29.9379H225.514V26.1129H224.925L225.956 24.7153L226.912 26.1129H226.397V29.9379Z" fill="#15181A"/>
<path d="M223.968 29.9379H223.159V26.1129H222.57L223.527 24.7153L224.557 26.1129H223.968V29.9379Z" fill="#15181A"/>
<path d="M222.792 30.3057H226.691V31.1884H222.792V30.3057Z" fill="#15181A"/>
<path d="M215.801 26.7753C216.022 26.481 216.316 26.3339 216.758 26.3339C217.126 26.3339 217.42 26.481 217.641 26.7017C217.861 26.481 218.156 26.3339 218.524 26.3339C218.892 26.3339 219.186 26.481 219.407 26.7017C219.627 26.481 219.922 26.3339 220.29 26.3339C220.657 26.3339 221.025 26.481 221.246 26.7753C220.805 25.5248 219.775 24.6421 218.524 24.6421C217.273 24.6421 216.243 25.5248 215.801 26.7753Z" fill="#15181A"/>
<path d="M219.26 31.1149C219.775 31.1149 220.143 30.6735 220.143 30.2322C220.143 30.1586 220.069 30.0851 219.995 30.0851C219.922 30.0851 219.848 30.1586 219.848 30.2322C219.848 30.5264 219.628 30.8206 219.26 30.8206C218.965 30.8206 218.671 30.6 218.671 30.2322V24.8624C218.671 24.7889 218.597 24.7153 218.524 24.7153C218.45 24.7153 218.377 24.7889 218.377 24.8624V30.2322C218.377 30.7471 218.745 31.1149 219.26 31.1149Z" fill="#15181A"/>
<path d="M210.871 24.9361V26.9222C210.871 27.7313 211.534 28.3933 212.343 28.3933C213.152 28.3933 213.814 27.7313 213.814 26.9222V24.8625L210.871 24.9361C210.871 24.9361 210.871 24.8626 210.871 24.9361Z" fill="#15181A"/>
<path d="M212.343 31.3356C212.417 31.3356 212.49 31.2621 212.49 31.1885V27.8048C212.49 27.7313 212.417 27.6577 212.343 27.6577C212.27 27.6577 212.196 27.7313 212.196 27.8048V31.1885C212.122 31.2621 212.196 31.3356 212.343 31.3356Z" fill="#15181A"/>
<path d="M211.093 31.409H213.521C213.594 31.409 213.668 31.3354 213.668 31.2619C213.668 31.1883 213.594 31.1147 213.521 31.1147H211.093C211.019 31.1147 210.946 31.1883 210.946 31.2619C210.946 31.3354 211.019 31.409 211.093 31.409Z" fill="#15181A"/>
<path d="M212.784 25.5981H212.637L212.711 25.6717L213.226 26.5544L212.858 25.7452H213.226H213.373L213.299 25.5981L212.932 24.8625H212.637L213.005 25.5981H212.784Z" fill="#15181A"/>
<path d="M280.109 106.071H218.45V35.5286H243.172H255.386H280.109H308.584V106.071H280.109Z" fill="#CB874A"/>
<path d="M246.998 35.5286H308.584V106.071H246.998V35.5286Z" fill="#DAA568"/>
<path d="M271.647 55.3156C271.647 55.3156 271.868 55.3156 272.162 55.3156C272.309 55.2421 272.53 55.095 272.751 55.4628C272.972 55.6834 273.266 55.0214 273.56 55.3156C273.707 55.4627 273.855 55.3892 274.002 55.2421C274.149 55.1685 274.296 55.0214 274.443 55.095C274.59 55.1685 274.738 55.2421 274.958 54.9478C275.105 54.7272 275.326 55.095 275.473 55.3156C275.62 55.0214 275.841 55.6834 275.988 55.0214C276.136 54.8007 276.356 54.7272 276.577 55.1685C276.798 55.4628 276.945 55.2421 277.166 55.4628C277.386 55.5363 277.534 55.6099 277.754 55.3156C277.975 55.095 278.122 54.6536 278.343 55.095C278.564 55.4628 278.711 55.8305 278.932 55.6099C279.152 55.6099 279.299 55.6099 279.52 55.8305C279.667 55.4628 279.888 55.1685 280.035 55.3892C280.182 55.6834 280.403 55.5363 280.55 55.3892C280.697 55.4628 280.918 55.2421 281.065 55.2421C281.212 54.8743 281.36 54.9478 281.507 55.3156C281.654 55.1685 281.801 55.1685 281.948 55.3892C282.243 55.095 282.463 55.6834 282.758 55.2421C282.978 55.1685 283.199 55.3156 283.346 55.3892C283.714 55.3892 283.861 55.3892 283.861 55.3892V35.5286H271.721V55.3156H271.647Z" fill="#EBCA92"/>
<path d="M268.484 101.878H267.601V97.9791H267.012L268.042 96.5815L269.072 97.9791H268.484V101.878Z" fill="#15181A"/>
<path d="M266.129 101.878H265.247V97.9791H264.658L265.688 96.5815L266.645 97.9791H266.129V101.878Z" fill="#15181A"/>
<path d="M264.952 102.172H268.852V103.055H264.952V102.172Z" fill="#15181A"/>
<path d="M257.961 98.7147C258.182 98.4205 258.476 98.2734 258.918 98.2734C259.286 98.2734 259.58 98.4205 259.801 98.6412C260.022 98.4205 260.316 98.2734 260.684 98.2734C261.052 98.2734 261.346 98.4205 261.567 98.6412C261.788 98.4205 262.082 98.2734 262.45 98.2734C262.818 98.2734 263.186 98.4205 263.406 98.7147C262.965 97.4642 261.935 96.5815 260.684 96.5815C259.433 96.5815 258.329 97.4642 257.961 98.7147Z" fill="#15181A"/>
<path d="M261.42 103.055C261.935 103.055 262.303 102.687 262.303 102.172C262.303 102.098 262.229 102.025 262.156 102.025C262.082 102.025 262.008 102.098 262.008 102.172C262.008 102.466 261.788 102.76 261.42 102.76C261.125 102.76 260.831 102.54 260.831 102.172V96.8022C260.831 96.7286 260.758 96.655 260.684 96.655C260.61 96.655 260.537 96.7286 260.537 96.8022V102.172C260.463 102.613 260.905 103.055 261.42 103.055Z" fill="#15181A"/>
<path d="M252.959 96.8021V98.7881C252.959 99.5973 253.621 100.259 254.431 100.259C255.24 100.259 255.902 99.5973 255.902 98.7881V96.7285L252.959 96.8021Z" fill="#15181A"/>
<path d="M254.429 103.202C254.503 103.202 254.576 103.128 254.576 103.055V99.671C254.576 99.5975 254.503 99.5239 254.429 99.5239C254.355 99.5239 254.282 99.5975 254.282 99.671V103.055C254.282 103.128 254.355 103.202 254.429 103.202Z" fill="#15181A"/>
<path d="M253.179 103.275H255.607C255.68 103.275 255.754 103.202 255.754 103.128C255.754 103.055 255.68 102.981 255.607 102.981H253.179C253.105 102.981 253.031 103.055 253.031 103.128C253.031 103.202 253.105 103.275 253.179 103.275Z" fill="#15181A"/>
<path d="M254.872 97.5378H254.725L254.799 97.6114L255.314 98.4205L254.946 97.6849H255.314H255.461L255.387 97.5378L255.093 96.8022H254.725L255.167 97.4643L254.872 97.5378Z" fill="#15181A"/>
<path d="M308.584 105.997H128.095" stroke="#835938" stroke-miterlimit="10"/>
<path d="M246.926 35.5283V177.054" stroke="#835938" stroke-miterlimit="10"/>
<path d="M156.791 35.5283V176.539" stroke="#835938" stroke-miterlimit="10"/>
<path d="M128.096 105.997L128.316 176.539" stroke="#835938" stroke-miterlimit="10"/>
<path d="M66.4355 105.997V176.539" stroke="#835938" stroke-miterlimit="10"/>
<path d="M218.45 55.4625C218.45 55.4625 218.671 55.4625 218.965 55.4625C219.112 55.389 219.333 55.2419 219.554 55.6097C219.774 55.8303 220.069 55.1683 220.363 55.4625C220.51 55.6097 220.657 55.5361 220.804 55.389C220.952 55.3154 221.099 55.1683 221.246 55.2419C221.393 55.3154 221.54 55.389 221.761 55.0947C221.908 54.8741 222.129 55.2419 222.276 55.4625C222.423 55.1683 222.644 55.8303 222.791 55.1683C222.938 54.9476 223.159 54.8741 223.38 55.3154C223.6 55.6097 223.748 55.389 223.968 55.6097C224.189 55.6832 224.336 55.7568 224.557 55.4625C224.778 55.2419 224.925 54.8005 225.146 55.2419C225.366 55.6097 225.514 55.9774 225.734 55.7568C225.955 55.7568 226.102 55.7568 226.323 55.9774C226.47 55.6097 226.691 55.3154 226.838 55.5361C226.985 55.8303 227.206 55.6832 227.353 55.5361C227.5 55.6097 227.721 55.389 227.868 55.389C228.015 55.0212 228.162 55.0947 228.31 55.4625C228.457 55.3154 228.604 55.3154 228.751 55.5361C229.045 55.2419 229.266 55.8303 229.56 55.389C229.781 55.3154 230.002 55.4625 230.149 55.5361C230.517 55.5361 230.664 55.5361 230.664 55.5361V35.749H218.524V55.4625H218.45Z" fill="#EBCA92"/>
<path d="M135.231 55.3154C135.231 55.3154 135.452 55.3154 135.746 55.3154C135.893 55.2418 136.114 55.0947 136.335 55.4625C136.556 55.6832 136.85 55.0212 137.144 55.3154C137.291 55.4625 137.439 55.3889 137.586 55.2418C137.733 55.1683 137.88 55.0212 138.027 55.0947C138.174 55.1683 138.322 55.2418 138.542 54.9476C138.689 54.7269 138.91 55.0947 139.057 55.3154C139.204 55.0212 139.425 55.6832 139.572 55.0212C139.72 54.8005 139.94 54.7269 140.161 55.1683C140.382 55.4625 140.529 55.2418 140.75 55.4625C140.97 55.5361 141.118 55.6096 141.338 55.3154C141.559 55.0947 141.706 54.6534 141.927 55.0947C142.148 55.4625 142.295 55.8303 142.516 55.6096C142.736 55.6096 142.883 55.6096 143.104 55.8303C143.251 55.4625 143.472 55.1683 143.619 55.389C143.766 55.6832 143.987 55.5361 144.134 55.389C144.281 55.4625 144.502 55.2418 144.649 55.2418C144.796 54.874 144.944 54.9476 145.091 55.3154C145.238 55.1683 145.385 55.1683 145.532 55.389C145.827 55.0947 146.047 55.6832 146.342 55.2418C146.562 55.1683 146.783 55.3154 146.93 55.389C147.298 55.389 147.445 55.389 147.445 55.389V35.5283H135.305V55.3154H135.231Z" fill="#EBCA92"/>
<path d="M308.584 35.5286H128.095" stroke="#835938" stroke-miterlimit="10"/>
<path d="M206.162 0V35.5285" stroke="#815737" stroke-miterlimit="10"/>
<path d="M147.079 115.339C146.932 115.339 146.785 115.192 146.711 115.044C143.179 93.7127 142.517 82.2377 147.888 66.4963C147.962 66.2756 148.183 66.2021 148.33 66.2756C148.551 66.3492 148.624 66.5699 148.551 66.717C143.253 82.3112 143.915 93.7127 147.447 114.897C147.447 115.118 147.3 115.339 147.079 115.339Z" fill="#674C3C"/>
<path d="M147.816 67.4526C144.578 84.7387 144.725 99.671 147.816 120.267H187.328C191.595 107.836 191.669 91.7267 189.314 71.2776L177.836 62.4507L167.756 58.6992L147.816 67.4526Z" fill="#674C3C"/>
<path d="M156.718 94.0808C155.541 101.584 155.909 110.337 157.16 121.224L179.233 118.796C181.956 110.705 181.735 103.864 179.233 93.1245L156.718 94.0808Z" fill="#52372A"/>
<path d="M149.876 110.925C149.729 110.925 149.508 110.778 149.508 110.631C148.552 102.76 148.552 98.4938 149.508 90.6967C149.508 90.476 149.729 90.3289 149.876 90.4024C150.097 90.4024 150.244 90.6231 150.17 90.7702C149.214 98.5674 149.214 102.76 150.17 110.557C150.244 110.704 150.097 110.925 149.876 110.925C149.876 110.925 149.95 110.925 149.876 110.925Z" fill="#8B6A53"/>
<path d="M154.952 155.869C154.879 156.605 154.805 157.414 154.805 158.149C154.29 165.946 154.952 173.817 155.835 181.614C155.909 182.35 155.983 183.085 156.13 183.821C156.35 185.881 156.645 187.94 156.866 190H86.0826C85.9354 189.044 85.7146 188.087 85.5675 187.205C85.4203 186.322 85.2732 185.439 85.126 184.557C84.9789 183.674 84.8317 182.791 84.6846 181.982C84.4638 180.511 84.1695 179.113 83.9488 177.642C83.8752 177.127 83.8016 176.612 83.728 176.097C83.5073 174.7 83.3601 173.376 83.213 171.978C83.1394 171.39 83.0658 170.801 82.9922 170.213C82.9186 169.771 82.9187 169.33 82.8451 168.889C82.8451 168.742 82.8451 168.521 82.7715 168.374C82.6979 167.712 82.6243 166.976 82.6243 166.314C82.5508 165.432 82.4772 164.549 82.4772 163.74C82.4772 163.151 82.4036 162.563 82.4036 161.974C82.4036 161.533 82.33 161.092 82.33 160.577C82.1829 154.913 82.6243 149.175 83.8016 143.511C84.2431 141.599 86.3033 139.98 88.2163 139.98H154.732C156.645 139.98 157.748 141.599 157.16 143.511C156.056 147.63 155.32 151.75 154.952 155.869Z" fill="#15345C"/>
<path d="M154.805 158.149C145.166 159.326 135.675 159.768 125.815 159.547C124.27 159.547 122.725 159.621 121.18 159.621C111.835 159.621 102.785 159.032 93.5876 157.708C91.0124 157.34 88.3635 156.972 85.7883 156.458L85.5675 154.177C88.2899 154.692 91.0859 155.06 93.8084 155.428C104.477 156.899 114.926 157.487 125.889 157.267C135.822 157.487 145.387 156.972 155.1 155.796L154.805 158.149Z" fill="#10294A"/>
<path d="M155.835 181.614C145.902 182.865 136.116 183.38 125.815 183.159C123.093 183.233 120.444 183.233 117.795 183.159C109.922 183.012 102.27 182.497 94.4704 181.394C92.263 181.099 89.9821 180.732 87.7747 180.364L87.9955 182.644C90.2764 183.012 92.5574 183.38 94.7647 183.674C103.521 184.851 112.203 185.366 121.106 185.366C122.136 185.366 123.24 185.366 124.27 185.366C124.785 185.366 125.3 185.366 125.741 185.366C136.043 185.586 145.902 185.071 155.982 183.821L155.835 181.614Z" fill="#10294A"/>
<path d="M95.5745 190H86.0828C83.2868 174.479 80.4172 159.032 83.8019 143.511C84.2433 141.599 86.3035 139.98 88.2166 139.98H93.4407C95.3538 139.98 96.4574 141.599 95.8688 143.511C91.6748 159.032 93.5879 174.553 95.5745 190Z" fill="#0F2847"/>
<path d="M186.296 130.05L219.039 163.372L219.407 163.74C219.922 164.255 220.437 164.622 221.025 164.917L245.674 176.612C248.765 178.083 252.517 176.759 253.989 173.67C255.387 170.728 254.724 169.771 251.928 168.227L227.647 152.338L229.634 153.883L199.54 118.207C196.376 114.456 190.784 114.014 187.032 117.104C183.279 120.267 182.838 125.857 185.928 129.609C186.002 129.756 186.149 129.903 186.296 130.05Z" fill="#FEC0B3"/>
<path d="M152.45 112.397V112.47C154.51 122.253 170.55 141.526 179.011 141.526C181.219 141.526 179.6 132.11 180.998 130.492C183.647 127.476 184.456 116.295 182.028 112.029C181.955 111.882 180.483 111.735 179.085 111.661C177.466 111.587 175.995 110.558 175.259 109.087C175.112 108.792 174.965 108.498 174.818 108.204C173.787 106.218 172.904 103.57 172.831 100.112C172.831 100.039 172.831 100.039 172.831 99.9653C172.757 98.9355 172.831 97.8322 172.978 96.7288C172.904 96.5817 172.831 96.4346 172.831 96.4346H162.456C162.235 96.4346 162.088 96.6552 162.088 96.8024C162.088 96.9495 162.088 97.023 162.162 97.1701C162.162 97.2437 162.162 97.2437 162.162 97.3173C162.162 97.3173 162.162 97.3173 162.162 97.3908C162.235 98.2735 162.309 99.0826 162.309 99.9653C162.309 101.142 162.309 102.246 162.162 103.349C162.015 104.673 161.573 105.85 160.911 106.953C159.292 109.822 156.202 111.882 152.67 112.102C152.597 112.029 152.45 112.176 152.45 112.397Z" fill="#FEC0B3"/>
<path d="M160.986 106.88C167.167 103.864 170.772 101.583 172.832 99.8916C176.438 96.8757 175.555 95.6252 175.702 95.331C175.775 94.8896 175.775 94.1541 175.775 93.6392V93.5656C174.451 93.0507 172.391 92.3887 171.287 92.3887C169.595 92.3887 166.357 94.0069 165.401 94.0069C164.665 94.0069 163.561 95.4045 162.899 96.3608C162.678 96.655 162.458 96.9493 162.384 97.0964C162.384 97.0964 162.31 97.0964 162.237 97.0964C162.237 97.1699 162.237 97.1699 162.237 97.2435C162.237 97.2435 162.237 97.2435 162.237 97.3171C162.31 98.1997 162.384 99.0089 162.384 99.8916C162.384 101.069 162.384 102.172 162.237 103.275C162.016 104.599 161.575 105.776 160.986 106.88Z" fill="#F6A19A"/>
<path d="M168.416 100.48C168.49 100.48 168.49 100.48 168.563 100.48C182.47 100.48 186.222 76.7208 186.369 74.8083C186.884 66.2756 183.279 56.4924 168.784 55.5361C168.637 55.5361 168.563 55.5361 168.416 55.5361C168.269 55.5361 168.195 55.5361 168.048 55.5361C153.553 56.5659 152.302 66.202 152.817 74.7347C152.964 76.6472 154.362 100.48 168.269 100.48C168.342 100.48 168.416 100.48 168.416 100.48Z" fill="#FEC0B3"/>
<path d="M195.127 138.657C195.053 138.73 194.98 138.877 194.98 138.951C194.833 141.746 198.291 144.909 195.716 152.118C194.465 155.575 189.241 159.915 186.371 164.991C183.281 170.507 182.619 176.613 182.619 176.613L179.602 190.074H115.22C121.916 166.167 126.772 157.561 133.173 127.917C134.498 121.812 137.809 113.5 142.959 111.955C147.448 110.631 157.16 110.705 157.16 110.705L176.585 136.891C177.174 137.627 178.351 137.333 178.425 136.377C178.94 130.786 179.896 117.693 177.909 111.367C177.909 111.367 184.164 110.484 189.609 111.146C191.448 111.367 193.214 111.808 194.538 112.47C200.057 115.192 208.15 128.138 208.15 128.138C203 135.273 196.157 137.333 195.127 138.657Z" fill="#FCEEEF"/>
<path d="M138.029 119.679C141.56 116.295 147.152 116.368 150.611 119.899L180.999 162.048L220.879 166.903C222.571 167.123 223.895 168.521 224.042 170.286C224.116 172.272 222.571 173.891 220.658 173.964L177.393 175.803C175.922 175.877 174.45 175.362 173.273 174.332L172.684 173.817L138.249 132.551C138.102 132.404 137.955 132.257 137.808 132.11C134.35 128.653 134.497 123.062 138.029 119.679Z" fill="#FEC0B3"/>
<path d="M243.468 169.625C244.425 170.36 243.91 171.905 242.732 171.831C237.508 171.684 228.384 171.463 225.662 171.831C211.535 173.891 220.659 174.332 208.739 173.45L209.254 166.535C209.254 166.535 222.277 162.122 228.458 162.637C233.461 163.004 239.789 166.976 243.468 169.625Z" fill="#FEC0B3"/>
<path d="M151.935 82.8263C153.039 85.1066 154.805 86.2836 155.982 85.4009C157.086 84.5182 157.159 81.9437 156.056 79.6634C154.952 77.3831 153.186 76.2061 152.009 77.0888C150.832 77.898 150.832 80.4725 151.935 82.8263Z" fill="#FEC0B3"/>
<path d="M180.704 82.8263C179.601 85.1066 177.835 86.2836 176.657 85.4009C175.554 84.5182 175.48 81.9437 176.584 79.6634C177.687 77.3831 179.453 76.2061 180.631 77.0888C181.734 77.898 181.808 80.4725 180.704 82.8263Z" fill="#FEC0B3"/>
<path d="M189.24 111.146C189.755 121.812 191.3 127.917 195.126 138.657C196.156 137.333 202.999 135.273 208.076 128.138C208.076 128.138 199.982 115.192 194.464 112.47C193.066 111.808 191.374 111.367 189.534 111.146C189.387 111.146 189.24 111.146 189.24 111.146Z" fill="#F9E2E4"/>
<path d="M146.196 143.143L161.574 134.317C161.574 134.317 148.256 95.1102 134.939 119.752C128.684 131.301 146.196 143.143 146.196 143.143Z" fill="#F9E2E4"/>
<path d="M347.066 190L346.257 185.66H358.103L358.691 190H347.066Z" fill="#834A28"/>
<path d="M333.821 190L334.41 185.66H346.256L345.446 190H333.821Z" fill="#834A28"/>
<path d="M35.4585 190L34.6491 185.66H46.4954L47.084 190H35.4585Z" fill="#834A28"/>
<path d="M24.9382 190L25.6004 185.66H37.373L36.6373 190H24.9382Z" fill="#834A28"/>
<path d="M17 182H358V190H17V182Z" fill="#9A6135"/>
<path d="M17 182H358V187H17V182Z" fill="#864E29"/>
<path d="M0 175H374V184H0V175Z" fill="#B57C57"/>
<path d="M0 175H374V178H0V175Z" fill="#C8936B"/>
<path d="M199.539 175.215C198.656 175.215 197.994 174.553 197.994 173.67C197.994 172.788 198.656 172.125 199.539 172.125H228.971H294.162H323.594C324.403 172.125 325.065 172.714 325.139 173.523C325.139 173.597 325.139 173.597 325.139 173.67C325.139 174.553 324.476 175.215 323.594 175.215H294.162H228.971H199.539Z" fill="#122C50"/>
<path d="M227.426 173.67C227.426 174.553 228.088 175.215 228.971 175.215H323.594C324.476 175.215 325.139 174.553 325.139 173.67C325.139 172.788 324.476 172.125 323.594 172.125H228.971C228.088 172.125 227.426 172.861 227.426 173.67Z" fill="#122C50"/>
<path d="M245.527 109.454C246.116 107.615 247.808 106.365 249.721 106.365H338.31C339.635 106.365 340.812 106.953 341.621 107.836L342.872 109.307C343.829 110.41 344.27 111.955 343.755 113.5L325.14 175.362H227.353L226.102 173.891L245.527 109.454Z" fill="#122C50"/>
<path d="M227.427 175.215H325.213L343.829 113.353C344.638 110.557 342.578 107.689 339.635 107.689H250.972C249.059 107.689 247.367 108.939 246.778 110.778L227.427 175.215Z" fill="#15355C"/>
<path d="M296.076 150.5C291.484 150.5 287.762 146.778 287.762 142.188C287.762 137.597 291.484 133.875 296.076 133.875C300.668 133.875 304.391 137.597 304.391 142.188C304.391 146.778 300.668 150.5 296.076 150.5Z" fill="#122C50"/>
<path d="M148.037 68.7031C150.465 72.0867 149.361 74.6613 153.114 76.7209C155.91 70.6156 156.94 68.7031 163.93 65.4665C170.993 69.3651 180.706 70.3214 186.151 76.7209L188.799 75.6175C188.799 75.2497 188.652 75.7646 188.652 75.3968C188.652 75.3968 188.652 75.7646 189.094 76.4267L189.535 75.6911C189.535 58.6992 181.147 51.7848 171.876 50.8285C165.107 50.1665 157.896 52.6675 153.114 56.7131C149.803 59.5083 147.816 63.7011 147.816 67.6733C147.816 67.7468 148.037 68.7031 148.037 68.7031Z" fill="#F6A19A"/>
<path d="M153.113 76.7945C155.689 69.4387 156.939 67.7469 163.929 64.5103C170.993 68.4089 180.705 70.395 186.15 76.7945H189.535C190.124 46.268 164.592 47.0771 153.113 56.7868C146.859 62.0094 145.167 72.3075 153.113 76.7945Z" fill="#674C3C"/>
<path d="M186.149 69.1444C186.076 69.1444 186.002 69.1444 185.929 69.0709C179.674 63.1862 175.113 59.4348 164.885 58.1108C164.738 58.1108 164.591 57.9636 164.591 57.743C164.591 57.5958 164.738 57.4487 164.959 57.4487C175.333 58.7728 179.969 62.5242 186.37 68.556C186.517 68.7031 186.517 68.8502 186.37 68.9973C186.297 69.1444 186.223 69.1444 186.149 69.1444Z" fill="#8B6A53"/>
<path d="M76.8121 132.478V134.685H104.625V132.478C104.625 131.448 103.742 130.565 102.712 130.565H78.7252C77.6951 130.492 76.8121 131.374 76.8121 132.478Z" fill="#4C2220"/>
<path d="M76.665 135.935L76.8857 138.068L76.9593 138.656L77.6951 146.674L77.7686 147.116L79.2402 163.445L79.3138 163.887L80.2703 174.626C80.2703 174.994 80.5646 175.215 80.9325 175.215H100.799C101.167 175.215 101.387 174.994 101.461 174.626L102.418 163.887L102.491 163.445L103.963 147.116L104.036 146.674L104.772 138.656L104.846 138.068L105.066 135.935C105.066 135.567 104.772 135.199 104.404 135.199H77.2536C76.8857 135.199 76.5914 135.567 76.665 135.935Z" fill="#F6D5C2"/>
<path d="M76.6637 135.935L76.8844 138.068L76.958 138.656H104.624L104.697 138.068L104.918 135.935C104.918 135.567 104.624 135.199 104.256 135.199H77.2523C76.8844 135.199 76.5901 135.567 76.6637 135.935Z" fill="#DADADA"/>
<path d="M75.7079 138.068H105.728C106.096 138.068 106.39 137.7 106.317 137.333L105.581 133.802C105.507 133.508 105.287 133.287 104.992 133.287H76.4437C76.1494 133.287 75.9287 133.508 75.8551 133.802L75.1193 137.333C75.1193 137.7 75.34 138.068 75.7079 138.068Z" fill="#602C29"/>
<path d="M77.6203 147.116L79.1655 163.446V163.887H102.269V163.446L103.814 147.116H77.6203Z" fill="#DADADA"/>
<path d="M77.3266 146.674L78.8718 163.446H102.564L104.109 146.674H77.3266Z" fill="#AB774D"/>
<path d="M91.6745 161.901C91.7481 161.754 91.8217 161.607 91.8953 161.386L92.0424 161.165C92.116 161.092 92.116 161.018 92.116 160.945L92.3367 160.43C92.4103 160.283 92.4103 160.062 92.4839 159.915C92.4839 159.841 92.5575 159.768 92.5575 159.621L92.6311 159.326C92.6311 159.179 92.7046 158.958 92.7046 158.738C92.7782 158.002 92.7047 157.193 92.4839 156.458C92.4839 156.384 92.4103 156.237 92.4103 156.163L92.2632 155.869L92.1896 155.722L92.116 155.575L91.9689 155.354C91.7481 155.06 91.5274 154.692 91.3066 154.471C91.0859 154.177 90.8652 153.957 90.6444 153.662C90.4237 153.442 90.2765 153.147 90.1294 152.927C89.9822 152.632 89.9086 152.412 89.8351 152.118C89.8351 151.97 89.8351 151.823 89.7615 151.676C89.7615 151.603 89.7615 151.529 89.7615 151.456C89.7615 151.382 89.7615 151.308 89.7615 151.235C89.7615 151.088 89.8351 150.941 89.8351 150.72C89.9086 150.573 89.9086 150.426 89.9822 150.205C90.0558 149.911 90.203 149.543 90.3501 149.249C90.4973 148.955 90.6444 148.587 90.718 148.293C90.7916 148.145 90.7916 148.072 90.8652 147.925C93.514 148.072 95.5742 151.235 95.5742 155.06C95.5742 158.591 93.8083 161.533 91.5274 162.121C91.601 162.048 91.601 161.974 91.6745 161.901Z" fill="#4C2220"/>
<path d="M91.3066 162.195L91.5273 162.122C91.4538 162.122 91.3802 162.195 91.3066 162.195Z" fill="#4C2220"/>
<path d="M90.5701 147.925C90.4966 147.998 90.4966 148.072 90.423 148.145C90.2022 148.44 89.9815 148.734 89.7608 149.028C89.3929 149.617 89.025 150.279 88.8043 151.088C88.8043 151.161 88.7307 151.308 88.7307 151.382C88.7307 151.456 88.6571 151.603 88.6571 151.676C88.6571 151.897 88.6571 152.118 88.6571 152.265C88.6571 152.338 88.6571 152.485 88.6571 152.559C88.6571 152.633 88.7307 152.78 88.7307 152.853C88.7307 152.927 88.8043 153.074 88.8043 153.147L88.8778 153.295L88.9514 153.442C89.3193 154.177 89.8344 154.766 90.2758 155.281C90.4966 155.575 90.7173 155.795 90.8645 156.09L91.0116 156.31L91.0852 156.384L91.1588 156.458L91.2323 156.678C91.2323 156.752 91.3059 156.825 91.3059 156.899C91.5267 157.487 91.6738 158.076 91.6738 158.738C91.6738 158.885 91.6738 159.106 91.6738 159.253V159.473C91.6738 159.547 91.6738 159.621 91.6738 159.694C91.6738 159.841 91.6738 160.062 91.6002 160.209L91.5267 160.724C91.5267 160.797 91.5267 160.871 91.4531 161.018L91.3795 161.239L91.3059 161.754C91.3059 161.901 91.2323 162.048 91.2323 162.121C91.0852 162.121 90.8644 162.195 90.7173 162.195C87.9949 162.195 85.8611 158.958 85.8611 154.986C85.8611 151.161 87.9949 147.998 90.5701 147.925Z" fill="#4C2220"/>
<path opacity="0.35" d="M75.7072 138.068H76.8109L77.6203 146.674L79.1654 163.519L80.1955 174.7C80.1955 175.068 80.4899 175.288 80.8577 175.288H100.724C104.035 175.288 90.0551 176.024 84.1688 163.519C83.9481 163.078 83.8009 162.71 83.5802 162.269C81.5935 157.487 80.7106 151.897 80.4163 146.674C80.1955 143.659 80.1955 140.716 80.1955 138.068C80.1955 136.303 80.2691 134.685 80.2691 133.287C80.2691 132.184 80.3427 131.227 80.3427 130.492H78.7975C77.7674 130.492 76.8845 131.374 76.8845 132.404V133.287H76.5166C76.2223 133.287 76.0016 133.508 75.928 133.802L75.1922 137.333C75.1186 137.7 75.3393 138.068 75.7072 138.068Z" fill="#DADADA"/>
<path opacity="0.35" d="M77.3265 146.674L78.8717 163.446H79.166L77.6209 146.674H77.3265Z" fill="#DADADA"/>
<path opacity="0.35" d="M76.8113 133.287V132.404C76.8113 131.374 77.6943 130.492 78.7244 130.492H80.2695C80.2695 131.227 80.2695 132.184 80.1959 133.287" fill="#DADADA"/>
<path opacity="0.35" d="M75.1932 137.333L75.929 133.802C76.0026 133.508 76.2233 133.287 76.5176 133.287H76.8855H80.3438C80.3438 134.685 80.2702 136.303 80.2702 138.068H76.9591H75.8554C75.3404 138.068 75.1196 137.701 75.1932 137.333Z" fill="#DADADA"/>
<path opacity="0.11" d="M98.2231 138.068H105.728C106.096 138.068 106.39 137.7 106.317 137.333L105.581 133.802C105.507 133.508 105.287 133.287 104.992 133.287H104.624V132.404C104.624 131.374 103.742 130.492 102.711 130.492H98.9589C98.8117 131.448 98.3702 136.45 98.2231 138.068Z" fill="#DADADA"/>
<path opacity="0.11" d="M98.2231 173.67C99.0325 173.744 99.6947 173.155 99.6947 172.346L101.461 141.158C101.534 140.348 100.946 139.686 100.136 139.686C99.3268 139.613 98.6646 140.201 98.6646 141.01L96.8987 172.199C96.8251 172.935 97.4137 173.597 98.2231 173.67Z" fill="#DADADA"/>
</g>
<defs>
<clipPath id="clip0_25727_21251">
<rect width="374" height="190" fill="white" transform="matrix(-1 0 0 1 374 0)"/>
</clipPath>
</defs>
</svg>
