<svg width="372" height="244" viewBox="0 0 372 244" fill="none" xmlns="http://www.w3.org/2000/svg">
<g clip-path="url(#clip0_25727_20983)">
<path d="M315.818 215.023C315.083 200.762 319.269 186.793 323.682 173.473C330.778 152.092 337.116 132.237 330.594 109.828C329.404 105.737 327.89 101.637 325.175 98.4229C320.697 93.0992 313.428 90.9243 306.624 91.4437C301.876 91.8116 297.301 93.3589 292.985 95.3931C292.217 95.7502 282.633 101.42 282.807 101.593C273.71 92.3418 265.954 82.4519 255.463 74.5963C245.057 66.8057 233.473 60.7354 221.174 56.8833C202.245 50.9538 179.304 49.8717 165.632 70.095C161.489 76.2194 158.677 83.5773 156.773 91.1515C146.151 94.2245 135.713 98.3146 125.568 102.751C105.406 111.57 83.167 122.671 69.0839 140.622C60.0954 152.092 58.8299 168.452 62.3561 182.768C64.7465 192.452 71.7989 199.745 74.0162 209.299C77.3801 223.777 68.0239 236.448 56.5801 243.362H324.234C324.223 243.373 316.359 225.725 315.818 215.023Z" fill="#F7F7F7"/>
<path d="M311.169 3.24658H133.238V119.999H311.169V3.24658Z" fill="white"/>
<path d="M311.168 119.998C311.168 118.873 311.114 74.4554 311.028 3.24637L311.168 3.38703C262.343 3.39785 200.419 3.40867 133.248 3.4195H133.238L133.411 3.24637C133.411 44.7642 133.4 84.2803 133.4 119.998L133.238 119.836C237.93 119.934 309.741 119.998 311.168 119.998C309.741 119.998 237.93 120.063 133.238 120.161H133.075V119.998C133.075 84.2803 133.064 44.7642 133.064 3.24637V3.07324H133.238H133.248C200.419 3.08406 262.332 3.09488 311.168 3.1057H311.309V3.24637C311.212 74.4554 311.168 118.873 311.168 119.998Z" fill="#263238"/>
<path d="M246.074 31.3037L246.009 20.6348C242.873 20.6564 239.66 21.9008 237.205 24.0648C234.306 26.6184 232.456 30.4705 232.965 35.1233C233.019 35.6318 233.105 36.1512 233.214 36.6706C233.214 36.6814 233.214 36.6922 233.224 36.7031L246.074 33.814V31.3037Z" fill="#356493"/>
<path d="M259.325 28.014C257.529 24.2594 253.992 21.2513 248.952 20.7427C248.822 20.7319 248.681 20.7211 248.541 20.7103C248.454 20.6995 248.368 20.6995 248.281 20.6886C248.022 20.6778 247.773 20.667 247.502 20.667C247.492 20.667 247.481 20.667 247.47 20.667C247.459 20.667 247.448 20.667 247.438 20.667L247.502 31.3359L247.524 33.8462L260.385 36.6487H260.396C260.59 35.7506 260.688 34.8201 260.677 33.8787C260.666 31.8986 260.201 29.8643 259.325 28.014Z" fill="#1773EE"/>
<path d="M259.325 28.014C257.529 24.2594 253.992 21.2513 248.952 20.7427C248.822 20.7319 248.681 20.7211 248.541 20.7103C248.454 20.6995 248.368 20.6995 248.281 20.6886C248.022 20.6778 247.773 20.667 247.502 20.667C247.492 20.667 247.481 20.667 247.47 20.667C247.459 20.667 247.448 20.667 247.438 20.667L247.502 31.3359L247.524 33.8462L260.385 36.6487H260.396C260.59 35.7506 260.688 34.8201 260.677 33.8787C260.666 31.8986 260.201 29.8643 259.325 28.014Z" fill="#0043C8"/>
<path d="M246.756 35.145L233.906 38.0341C235.226 43.9204 240.483 48.3243 246.756 48.3243C253.073 48.3243 258.341 43.8771 259.628 37.9475L246.767 35.145" fill="#356493"/>
<path d="M239.034 70.2463H235.973V98.4659H239.034V70.2463Z" fill="#356493"/>
<path d="M244.94 75.9053H241.879V98.4658H244.94V75.9053Z" fill="#356493"/>
<path d="M250.846 64.187H247.785V98.6392H250.846V64.187Z" fill="#356493"/>
<path d="M256.751 65.626H253.689V98.4659H256.751V65.626Z" fill="#356493"/>
<path d="M262.657 71.8477H259.596V98.4658H262.657V71.8477Z" fill="#1773EE"/>
<path d="M268.551 75.375H265.49V98.4657H268.551V75.375Z" fill="#1773EE"/>
<path d="M274.458 67.8118H271.396V98.466H274.458V67.8118Z" fill="#356493"/>
<path d="M280.364 73.3301H277.303V98.455H280.364V73.3301Z" fill="#356493"/>
<path d="M286.27 68.9155H283.209V98.466H286.27V68.9155Z" fill="#356493"/>
<path d="M292.174 78.3398H289.113V98.4658H292.174V78.3398Z" fill="#356493"/>
<path d="M298.071 74.5098H295.01V98.4661H298.071V74.5098Z" fill="#356493"/>
<path d="M183.566 38.9429L201.067 39.1809C200.937 48.5081 193.074 56.1148 183.566 56.1148C183.534 56.1148 183.501 56.1148 183.469 56.1148L183.566 38.9429Z" fill="#FA6325"/>
<path d="M212.502 62.6505C212.502 62.6613 212.372 62.6721 212.123 62.6829C211.842 62.6938 211.496 62.7046 211.052 62.7154C210.09 62.7262 208.759 62.737 207.148 62.7587H207.094L207.061 62.7154C205.504 60.7461 203.481 58.2033 201.285 55.4441C199.576 53.2692 197.986 51.235 196.634 49.5037L196.721 49.547C194.611 49.5253 192.848 49.5145 191.572 49.5037C190.977 49.4929 190.501 49.4821 190.133 49.4712C189.798 49.4604 189.625 49.4496 189.625 49.4388C189.625 49.428 189.798 49.4171 190.133 49.4063C190.501 49.3955 190.977 49.3847 191.572 49.3738C192.848 49.363 194.611 49.3414 196.721 49.3306H196.775L196.807 49.3738C198.17 51.0943 199.771 53.1177 201.491 55.2818C203.665 58.0626 205.666 60.6162 207.213 62.5964L207.137 62.5531C208.749 62.5747 210.079 62.5856 211.042 62.5964C211.485 62.6072 211.831 62.618 212.112 62.6288C212.372 62.6288 212.502 62.6397 212.502 62.6505Z" fill="#263238"/>
<path d="M180.798 36.4542L180.549 53.6262C171.041 53.4963 163.297 45.7814 163.297 36.4542C163.297 27.0296 171.193 19.2822 180.798 19.2822C190.403 19.2822 198.299 27.0405 198.299 36.4542H180.798Z" fill="#356493"/>
<path d="M216.698 61.8066H209.732V64.1871H216.698V61.8066Z" fill="#263238"/>
<path d="M151.15 21.2083H144.541V23.0694H151.15V21.2083Z" fill="#263238"/>
<path d="M171.527 35.4806C171.527 35.4914 171.397 35.5022 171.149 35.513C170.867 35.5238 170.521 35.5347 170.078 35.5455C169.115 35.5563 167.785 35.5671 166.173 35.5888H166.119L166.087 35.5455C164.529 33.5762 162.506 31.0334 160.311 28.2742C158.602 26.0993 157.012 24.065 155.659 22.3338L155.746 22.3771C153.637 22.3554 151.874 22.3446 150.597 22.3338C150.002 22.3229 149.527 22.3121 149.159 22.3013C148.823 22.2905 148.65 22.2797 148.65 22.2688C148.65 22.258 148.823 22.2472 149.159 22.2364C149.527 22.2256 150.002 22.2147 150.597 22.2039C151.874 22.1931 153.637 22.1715 155.746 22.1606H155.8L155.833 22.2039C157.195 23.9244 158.796 25.9478 160.516 28.1119C162.69 30.8927 164.691 33.4463 166.238 35.4265L166.162 35.3832C167.774 35.4048 169.104 35.4156 170.067 35.4265C170.51 35.4373 170.857 35.4481 171.138 35.4589C171.397 35.4589 171.527 35.4697 171.527 35.4806Z" fill="#263238"/>
<path d="M301.218 100.121H233.398V100.446H301.218V100.121Z" fill="#263238"/>
<path d="M231.484 50.3042H231.268V103.854H231.484V50.3042Z" fill="#263238"/>
<path d="M295.02 23.21H266.465V23.7402H295.02V23.21Z" fill="#263238"/>
<path d="M295.02 26.0884H266.465V26.6186H295.02V26.0884Z" fill="#263238"/>
<path d="M295.02 28.9663H266.465V29.4965H295.02V28.9663Z" fill="#263238"/>
<path d="M372 244.001C372 244.001 288.724 244.001 186 244.001C83.276 244.001 0 244.001 0 244.001C0 244.001 83.276 241.263 186 241.263C288.724 241.263 372 244.001 372 244.001Z" fill="#E0E0E0"/>
<path d="M156.741 193.069C156.666 193.069 156.601 193.069 156.525 193.069C154.805 193.069 153.107 193.967 152.09 195.417C151.074 196.856 150.738 198.706 150.544 200.492C150.187 203.716 150.154 207.006 150.489 210.23C150.771 212.935 151.896 215.489 152.134 218.248C152.393 221.343 151.69 224.242 151.798 227.261C151.852 228.755 152.426 230.302 153.605 231.113C154.167 231.503 154.838 231.698 155.487 231.871C157.715 232.444 160.008 232.758 162.312 232.801C163.004 232.812 164.302 232.92 164.129 231.817C163.891 230.323 162.82 229.166 162.052 227.889C160.116 224.686 160.17 220.866 160.268 217.22C160.311 215.586 159.921 213.985 159.856 212.318C159.781 210.241 159.802 208.163 159.824 206.086C159.846 203.597 159.835 201.217 160.278 198.793C160.624 196.899 159.975 194.346 158.212 193.426C157.747 193.199 157.25 193.101 156.741 193.069Z" fill="#FFAA3F"/>
<path d="M151.669 224.123C151.485 224.156 151.302 224.232 151.15 224.351C150.804 224.643 150.685 225.14 150.696 225.606C150.707 226.071 150.815 226.525 150.847 226.98C150.891 227.694 150.728 228.43 150.393 229.047C150.09 229.609 149.625 230.129 149.625 230.778C149.625 232.433 152.535 232.412 153.703 232.769C154.936 233.148 156.201 233.515 157.38 234.024C162.583 236.242 167.937 236.588 173.194 234.23C172.934 233.451 172.61 232.661 172.037 232.098C170.598 230.659 168.662 231.016 166.921 230.605C164.811 230.107 163.254 228.084 161.112 227.532C159.847 227.207 158.581 227.575 157.283 227.229C156.018 226.893 154.817 226.244 153.833 225.335C153.443 224.967 153.075 224.556 152.61 224.307C152.34 224.156 151.994 224.069 151.669 224.123Z" fill="#0043C8"/>
<path d="M169.428 230.648C169.472 230.691 169.504 230.735 169.547 230.778C169.785 231.038 169.926 231.524 169.634 231.708C169.504 231.784 169.353 231.773 169.201 231.752C166.129 231.341 162.614 230.486 160.094 228.484C158.59 227.294 156.513 224.578 158.774 223.009C159.185 222.727 159.758 222.857 160.148 223.171C161.77 224.221 162.452 226.374 164.074 227.424C165.286 228.376 166.53 229.057 167.914 229.707C168.455 229.966 169.006 230.226 169.428 230.648Z" fill="#1773EE"/>
<path d="M172.761 236.794C173.539 236.08 173.831 235.052 173.096 234.143C172.598 234.63 171.895 234.825 171.235 234.998C169.862 235.355 168.477 235.712 167.071 235.799C163.545 236.026 159.889 234.273 156.59 233.137C156.157 232.985 149.83 230.756 149.765 230.962C149.473 232.001 149.419 232.801 149.484 233.689C149.516 234.121 149.57 234.576 149.646 235.084C149.57 234.543 155.541 235.907 155.984 236.026C158.029 236.588 160.073 237.173 162.15 237.584C163.188 237.79 164.237 237.898 165.286 238.028C166.855 238.222 168.185 238.06 169.775 237.854C170.824 237.703 171.949 237.53 172.761 236.794Z" fill="white"/>
<path d="M166.054 236.156C166.054 236.037 166.044 235.907 165.946 235.842C165.892 235.799 165.817 235.777 165.752 235.766C164.27 235.409 162.799 235.322 161.306 234.846C159.716 234.327 158.158 233.689 156.568 233.137C156.136 232.985 149.808 230.756 149.743 230.962C149.451 232.001 149.397 232.801 149.462 233.689C149.494 234.121 149.549 234.576 149.624 235.084C149.549 234.543 155.519 235.907 155.963 236.026C158.007 236.588 160.051 237.173 162.128 237.584C163.264 237.8 164.529 238.374 165.633 238.45C165.762 237.757 165.881 237.054 166.011 236.361C166.044 236.285 166.054 236.221 166.054 236.156Z" fill="#B1C7D5"/>
<path d="M172.436 236.415C169.051 238.882 164.724 238.157 161.025 237.043C157.444 235.961 153.886 234.5 150.089 234.781C149.786 234.803 149.862 235.301 150.165 235.279C154.2 234.965 157.996 236.729 161.825 237.789C165.427 238.796 169.516 239.142 172.739 236.794C172.988 236.61 172.685 236.231 172.436 236.415Z" fill="#0043C8"/>
<path d="M163.211 226.72C162.886 226.807 162.562 226.915 162.248 227.045C162.356 226.828 162.475 226.623 162.594 226.428C162.767 226.158 162.378 225.876 162.205 226.136C161.956 226.536 161.74 226.947 161.567 227.38C160.615 227.921 159.793 228.69 159.176 229.653C159.003 229.923 159.392 230.204 159.566 229.945C160.031 229.22 160.626 228.603 161.307 228.127C161.069 228.949 160.961 229.815 160.993 230.691C161.004 231.016 161.469 230.929 161.458 230.616C161.426 229.631 161.588 228.657 161.934 227.748C162.356 227.521 162.811 227.348 163.276 227.229C163.589 227.131 163.514 226.645 163.211 226.72Z" fill="#B1C7D5"/>
<path d="M165.762 228.538C165.253 228.646 164.767 228.841 164.323 229.111C164.41 228.808 164.529 228.505 164.669 228.224C164.81 227.943 164.42 227.651 164.28 227.932C164.02 228.441 163.847 228.982 163.739 229.533C163.306 229.901 162.939 230.345 162.657 230.853C162.506 231.124 162.895 231.416 163.047 231.146C163.22 230.832 163.425 230.55 163.653 230.302C163.62 230.843 163.663 231.394 163.793 231.946C163.869 232.26 164.334 232.174 164.258 231.871C164.107 231.189 164.074 230.496 164.172 229.815C164.658 229.436 165.221 229.165 165.837 229.036C166.14 228.971 166.065 228.473 165.762 228.538Z" fill="#B1C7D5"/>
<path d="M131.776 195.839C131.701 195.828 131.636 195.828 131.56 195.817C129.851 195.709 128.099 196.488 126.995 197.873C125.892 199.247 125.459 201.076 125.157 202.84C124.616 206.042 124.389 209.31 124.54 212.556C124.67 215.272 125.643 217.891 125.719 220.672C125.806 223.777 124.94 226.623 124.865 229.652C124.832 231.146 125.319 232.725 126.455 233.613C126.995 234.035 127.644 234.273 128.293 234.489C130.392 235.171 132.252 235.355 134.437 235.16C135.421 235.074 136.492 234.597 136.806 233.602C136.914 233.245 136.914 232.866 136.871 232.498C136.795 231.827 136.6 231.178 136.298 230.583C135.8 229.609 134.837 228.808 134.459 227.802C133.961 226.493 134.253 225.108 134.221 223.755C134.188 222.284 134.059 220.78 134.015 219.287C133.918 215.867 133.864 212.437 134.102 209.018C134.264 206.54 134.383 204.16 134.967 201.768C135.421 199.907 134.924 197.31 133.215 196.282C132.782 196.034 132.285 195.893 131.776 195.839Z" fill="#FFAA3F"/>
<path d="M124.94 226.503C124.745 226.525 124.572 226.579 124.41 226.698C124.053 226.969 123.901 227.456 123.891 227.921C123.869 228.386 123.956 228.841 123.966 229.306C123.966 230.02 123.772 230.745 123.393 231.34C123.058 231.881 122.56 232.368 122.528 233.017C122.43 234.662 125.34 234.835 126.487 235.268C127.687 235.722 128.931 236.166 130.088 236.75C135.151 239.304 140.483 239.986 145.87 237.962C145.653 237.172 145.372 236.361 144.842 235.766C143.49 234.24 141.532 234.478 139.823 233.959C137.747 233.331 136.308 231.21 134.199 230.529C132.955 230.128 131.668 230.41 130.402 229.988C129.158 229.576 128.001 228.851 127.071 227.878C126.703 227.488 126.357 227.055 125.903 226.774C125.6 226.579 125.264 226.482 124.94 226.503Z" fill="#0043C8"/>
<path d="M142.29 234.154C142.333 234.197 142.366 234.24 142.398 234.284C142.615 234.565 142.734 235.052 142.431 235.225C142.301 235.301 142.15 235.268 141.998 235.247C138.959 234.641 135.487 233.559 133.085 231.405C131.658 230.129 129.743 227.272 132.079 225.854C132.501 225.595 133.075 225.768 133.442 226.103C135 227.261 135.562 229.447 137.12 230.605C138.277 231.633 139.478 232.39 140.819 233.126C141.36 233.407 141.89 233.699 142.29 234.154Z" fill="#1773EE"/>
<path d="M145.254 240.505C146.076 239.845 146.422 238.828 145.741 237.876C145.211 238.33 144.508 238.471 143.837 238.601C142.442 238.871 141.046 239.131 139.629 239.131C136.103 239.131 132.545 237.151 129.31 235.809C128.878 235.636 122.691 232.996 122.626 233.201C122.269 234.218 122.172 235.008 122.182 235.906C122.193 236.339 122.226 236.794 122.269 237.302C122.226 236.761 128.099 238.493 128.543 238.644C130.554 239.337 132.555 240.051 134.611 240.592C135.638 240.862 136.677 241.035 137.715 241.23C139.272 241.522 140.603 241.446 142.204 241.349C143.275 241.284 144.41 241.187 145.254 240.505Z" fill="white"/>
<path d="M138.603 239.445C138.614 239.326 138.603 239.196 138.516 239.12C138.462 239.066 138.397 239.044 138.332 239.023C136.872 238.568 135.412 238.395 133.952 237.822C132.394 237.205 130.869 236.469 129.322 235.82C128.89 235.647 122.703 233.006 122.638 233.212C122.281 234.229 122.183 235.019 122.194 235.917C122.205 236.35 122.237 236.804 122.281 237.313C122.237 236.772 128.111 238.503 128.554 238.655C130.566 239.347 132.567 240.061 134.622 240.602C135.747 240.895 136.969 241.544 138.073 241.695C138.235 241.003 138.408 240.321 138.57 239.629C138.581 239.564 138.592 239.499 138.603 239.445Z" fill="#B1C7D5"/>
<path d="M144.951 240.105C141.436 242.356 137.152 241.349 133.518 240.008C130.003 238.709 126.541 237.01 122.734 237.054C122.431 237.054 122.474 237.551 122.777 237.551C126.823 237.497 130.511 239.499 134.275 240.808C137.812 242.042 141.879 242.648 145.232 240.505C145.503 240.332 145.221 239.932 144.951 240.105Z" fill="#0043C8"/>
<path d="M136.309 229.836C135.974 229.901 135.649 229.988 135.336 230.096C135.455 229.89 135.585 229.696 135.725 229.501C135.909 229.241 135.541 228.927 135.357 229.187C135.087 229.566 134.849 229.966 134.654 230.388C133.67 230.864 132.816 231.578 132.134 232.509C131.95 232.769 132.318 233.072 132.502 232.823C133.01 232.119 133.638 231.546 134.351 231.113C134.059 231.914 133.908 232.769 133.886 233.645C133.876 233.97 134.351 233.916 134.362 233.591C134.384 232.606 134.6 231.643 135 230.756C135.433 230.561 135.898 230.41 136.363 230.323C136.655 230.269 136.612 229.771 136.309 229.836Z" fill="#B1C7D5"/>
<path d="M138.753 231.805C138.234 231.881 137.736 232.044 137.282 232.292C137.39 231.989 137.52 231.708 137.682 231.427C137.833 231.156 137.466 230.842 137.314 231.113C137.033 231.611 136.817 232.13 136.687 232.671C136.233 233.007 135.843 233.429 135.53 233.926C135.356 234.197 135.724 234.511 135.897 234.24C136.092 233.948 136.308 233.677 136.546 233.439C136.481 233.98 136.503 234.532 136.59 235.095C136.644 235.409 137.12 235.365 137.065 235.041C136.947 234.348 136.957 233.656 137.098 232.985C137.606 232.639 138.18 232.401 138.807 232.314C139.099 232.26 139.056 231.762 138.753 231.805Z" fill="#B1C7D5"/>
<path d="M165.849 153.92C166.13 150.469 166.205 147.515 166.076 145.069C165.935 142.97 163.512 140.341 162.798 138.382C161.511 134.844 160.516 131.035 159.294 127.432C159.175 127.086 159.034 126.707 158.753 126.502C158.504 126.328 158.19 126.307 157.888 126.285C154.664 126.144 151.43 126.534 148.326 127.443C147.558 127.67 146.757 127.941 146.184 128.525C145.092 129.639 145.135 131.468 145.286 133.059C145.892 139.464 147.623 145.664 148.726 151.984C149.191 154.645 148.942 157.112 149.256 159.72C149.689 163.312 150.576 166.905 151.225 170.454C151.452 171.666 151.668 172.889 151.668 174.122C151.668 176.016 151.138 177.855 150.749 179.705C150.035 183.157 149.819 186.695 149.602 190.212C149.289 195.482 149.115 200.762 149.04 206.042C148.964 211.041 149.364 216.051 149.624 221.039C153.399 222.533 157.509 223.052 161.5 222.543C161.63 222.533 161.76 222.511 161.857 222.414C161.976 222.305 161.998 222.143 162.03 221.981C162.279 220.336 162.636 218.68 162.831 217.047C163.015 215.402 162.906 213.671 162.906 212.026C163.025 208.163 163.199 204.3 163.382 200.437C163.577 196.434 163.61 192.387 163.966 188.383C164.659 180.614 165.492 172.834 166.26 165.12C166.379 164.957 166.238 161.213 165.849 153.92Z" fill="#356493"/>
<path d="M158.786 135.656C157.509 137.008 155.584 137.766 154.773 139.53C153.615 142.04 152.458 144.539 151.29 147.05C151.333 146.963 148.391 152.092 148.153 150.729C147.536 147.136 146.996 143.544 146.52 139.93C146.206 137.56 145.287 133.989 146.628 131.76C147.093 131.003 147.937 130.614 148.726 130.278C151.56 129.066 154.383 127.865 157.217 126.653C157.444 126.556 157.693 126.458 157.942 126.513C158.374 126.61 158.58 127.119 158.71 127.562C159.348 129.683 160.613 132.258 159.618 134.455C159.402 134.909 159.11 135.299 158.786 135.656Z" fill="#242638"/>
<path d="M130.11 166.58C128.866 172.315 125.394 177.087 124.528 183.006C123.652 189.022 123.047 195.081 122.809 201.162C122.571 207.167 122.928 213.065 123.187 219.048C123.22 219.849 123.263 220.65 123.295 221.461C123.306 221.645 123.317 221.829 123.414 221.981C123.523 222.154 123.717 222.229 123.901 222.305C125.783 223.03 127.709 223.701 129.688 223.993C131.678 224.285 133.744 224.21 135.626 223.474C136.07 218.193 136.07 212.946 135.962 207.665C135.907 204.592 135.972 201.162 136.492 198.132C137.411 192.776 137.822 187.334 138.968 181.967C139.12 181.242 139.282 180.506 139.52 179.803C140.234 177.758 141.737 176.113 142.527 174.09C144.225 169.761 144.831 165.098 146.183 160.651C148.281 153.769 149.287 146.671 150.942 139.681C151.516 137.268 152.933 135.688 153.733 133.426C154.025 132.615 155.215 124.175 154.187 124.121C147.784 123.775 141.359 123.775 134.956 124.11C134.209 124.153 133.398 124.218 132.846 124.749C132.435 125.149 132.23 125.733 132.068 126.296C129.428 135.461 131.397 145.112 131.181 154.483C131.094 158.346 130.921 162.793 130.11 166.58Z" fill="#356493"/>
<path d="M154.198 79.9415C154.263 79.5195 154.003 79.1191 153.744 78.7837C151.245 75.5917 147.276 73.7306 143.338 73.9037C142.116 73.9578 140.861 74.2175 139.834 74.91C138.795 75.6025 138.017 76.7927 138.006 78.0912C142.17 81.175 147.622 81.6727 152.662 80.9586C153.3 80.872 154.101 80.6232 154.198 79.9415Z" fill="#242638"/>
<path d="M161.587 85.0162C161.144 84.3886 160.527 83.9234 159.911 83.4797C154.394 79.606 147.623 77.7557 141.014 78.3076C139.662 78.4158 138.159 78.7187 137.348 79.8657C136.72 80.753 136.655 81.9432 136.623 83.0469C136.136 100.262 137.759 117.456 139.381 134.584C139.403 134.866 139.446 135.169 139.619 135.385C139.814 135.623 140.138 135.688 140.43 135.742C144.443 136.424 148.554 136.467 152.588 135.872C155.357 135.461 158.191 134.768 160.906 135.472C161.403 127.14 161.912 118.819 162.409 110.487C162.604 107.252 162.799 104.017 162.875 100.782C162.972 96.897 162.896 93.0125 162.658 89.1496C162.55 87.6997 162.409 86.174 161.587 85.0162Z" fill="white"/>
<path d="M158.297 52.8039C157.735 52.6199 157.227 52.2737 156.675 52.0789C156.113 51.8841 155.442 51.8625 154.998 52.2737C154.349 52.8796 154.587 53.9833 154.836 54.8598C155.777 58.1708 156.156 61.655 155.95 65.0959C156.48 63.6351 157.367 62.3583 158.07 60.9841C158.773 59.6099 159.293 58.041 159.011 56.5045C158.957 56.2231 158.882 55.9418 158.903 55.6605C158.979 54.8706 159.833 54.1564 159.487 53.4531C159.271 53.0311 158.741 52.9445 158.297 52.8039Z" fill="#242638"/>
<path d="M156.427 55.1951C155.995 53.3773 155.01 52.0464 153.994 50.5532C153.085 49.2114 151.376 49.4278 149.97 49.2331C148.91 49.0924 147.85 49.1249 146.812 49.4062C144.605 50.0013 142.723 51.5703 141.609 53.6586C140.452 55.8335 140.181 58.4304 140.419 60.9191C140.657 63.4186 141.674 65.7017 142.29 68.093C142.582 69.2508 142.344 70.7224 142.193 71.891C142.009 73.2327 141.695 74.5528 141.263 75.8188C141.155 76.1218 141.046 76.4247 141.057 76.7493C141.079 77.3228 141.512 77.7881 141.912 78.1776C144.508 80.688 147.461 82.798 150.63 84.421C151.3 83.3282 153.756 79.0974 152.177 78.0803C151.863 77.8855 151.452 77.853 151.225 77.5609C151.052 77.3336 151.041 77.009 151.041 76.7169C151.041 75.1479 151.041 73.5898 151.041 72.0208C152.393 72.0317 153.723 71.3283 154.535 70.1922C155.097 69.4023 155.411 68.4501 155.659 67.4979C156.665 63.7432 157.336 59.0364 156.427 55.1951Z" fill="#FF8B66"/>
<path d="M172.078 101.918C172.381 102.935 172.662 103.974 172.9 105.023C173.592 108.139 174.479 112.532 172.922 115.508C172.305 116.698 171.159 117.553 169.893 117.791C168.627 118.029 167.275 117.618 166.302 116.731C165.177 115.681 164.647 114.112 164.171 112.608C163.479 110.455 162.797 108.302 162.105 106.159C161.499 104.287 161.337 102.589 160.991 100.673C160.937 100.381 160.894 100.089 160.861 99.7968C160.569 97.3947 160.796 94.8952 160.623 92.4606C160.364 88.8033 159.92 85.0486 160.169 81.3589C162.029 81.7051 163.63 83.0036 164.777 84.5834C165.923 86.1631 166.68 88.0026 167.427 89.8313C168.746 93.099 170.185 96.3127 171.342 99.6454C172.446 102.816 173.938 105.954 174.349 109.34C174.663 111.927 174.36 114.642 173.203 116.947" fill="#D4DEE8"/>
<path d="M140.387 75.6783C142.128 77.8099 144.237 79.6061 146.574 80.937C146.92 81.1318 147.277 81.3374 147.493 81.6728C148.001 82.4843 148.012 83.891 148.283 84.8324C148.629 86.0659 148.694 87.2129 148.748 88.5113C148.878 91.7358 148.942 94.9603 148.942 98.1739C148.932 103.53 148.531 108.864 148.11 114.199C147.699 119.252 147.569 124.327 147.05 129.38C146.941 130.408 145.535 139.8 145.838 139.843C141.62 139.172 137.228 138.621 133.399 136.478C131.982 135.688 130.619 134.714 129.073 134.292C130.771 126.632 130.5 118.581 129.895 110.791C129.267 102.805 127.861 94.8845 125.676 87.202C125.568 86.8125 125.449 86.3905 125.536 85.9902C125.601 85.6764 125.784 85.4058 125.957 85.157C127.666 82.7548 130.014 80.9695 132.545 79.6386C133.789 78.9894 135.292 78.6756 136.471 77.9614C136.828 77.745 139.77 74.8776 139.759 74.856C139.954 75.1481 140.17 75.4186 140.387 75.6783Z" fill="#D4DEE8"/>
<path d="M132.653 137.917C133.519 138.404 134.536 138.588 135.347 138.058C137.802 136.467 136.418 131.695 135.888 129.445C135.239 126.685 134.6 123.915 133.984 121.145C133.346 118.31 131.972 115.714 132.805 112.695C132.967 112.089 133.227 111.526 133.454 110.953C135.509 105.856 136.299 100.251 137.023 94.7869C137.348 92.2874 137.618 89.6797 136.872 87.2884C135.963 84.3885 132.361 81.4562 129.376 82.7114C127.386 83.5445 126.272 84.9079 125.525 86.5742C125.558 86.7907 125.612 86.9962 125.677 87.2018C127.862 94.8843 129.268 102.805 129.895 110.79C130.274 115.659 130.523 120.55 130.252 125.441C130.014 129.694 128.219 133.968 131.777 137.268C132.026 137.517 132.329 137.733 132.653 137.917Z" fill="#242638"/>
<path d="M145.361 47.7182C144.777 47.61 144.193 47.5018 143.609 47.3828C142.949 47.2529 142.214 47.3395 141.705 47.8048C141.435 48.0428 141.251 48.3566 141.045 48.6488C140.31 49.6875 139.326 50.4991 138.352 51.2889C137.919 51.646 137.454 52.0139 136.913 52.1221C136.697 52.1654 136.459 52.1762 136.275 52.3169C136.027 52.5117 135.983 52.8795 136.005 53.2042C136.081 54.7731 136.87 56.0499 137.703 57.2943C138.417 58.3547 138.698 59.4259 139.207 60.6161C140.494 63.6458 141.921 66.9893 141.803 70.3761C142.051 70.3004 142.322 70.387 142.592 70.4302C143.393 70.5384 143.252 69.8459 143.36 69.2508C143.63 67.6602 143.868 65.9614 144.02 64.3167C144.182 62.5746 144.128 60.8217 144.258 59.0905C145.415 59.0255 146.281 59.1878 147.211 58.1924C147.99 57.37 148.357 56.223 148.595 55.0977C148.66 54.8056 148.725 54.4918 148.952 54.3078C149.233 54.0806 149.644 54.1672 150.001 54.2213C151.159 54.3944 152.489 54.0698 153.398 53.2691C154.469 52.3277 153.203 51.1916 152.381 50.4558C150.423 48.7137 147.816 48.1943 145.361 47.7182Z" fill="#242638"/>
<path d="M151.603 71.9773C150.641 71.6744 149.711 71.1442 148.867 70.549C148.002 69.9323 147.179 69.2289 146.433 68.4499C145.719 67.7033 145.07 66.8809 144.508 65.9937C144.194 66.513 144.4 67.1947 144.627 67.7682C144.908 68.4823 145.189 69.1965 145.46 69.9215C146.379 72.2695 147.342 74.6932 149.126 76.4029C150.057 77.2901 151.192 77.9394 152.404 78.2964C152.339 78.2207 152.263 78.1558 152.177 78.0909C151.863 77.8961 151.452 77.8636 151.225 77.5715C151.052 77.3443 151.041 77.0196 151.041 76.7275C151.041 75.1585 151.041 73.6004 151.041 72.0314C151.236 72.0206 151.42 71.999 151.603 71.9773Z" fill="#F65D2F"/>
<path d="M125.871 209.115V211.279C125.882 210.565 125.882 209.84 125.871 209.115Z" fill="#0043C8"/>
<path d="M125.86 211.279C125.849 211.528 125.849 211.777 125.838 212.026C125.849 212.47 125.849 212.913 125.86 213.368V211.279Z" fill="#0043C8"/>
<path d="M133.929 150.934C133.431 154.526 132.642 158.065 132.036 161.635C131.755 163.345 131.517 165.065 131.376 166.797C131.246 168.398 131.149 169.967 130.5 171.449C129.84 172.964 129.159 174.458 128.661 176.037C128.131 177.714 127.774 179.478 127.428 181.209C126.747 184.585 126.281 188.005 125.979 191.446C125.535 196.369 125.438 201.303 125.438 206.248C125.438 207.568 125.427 208.888 125.492 210.208C125.47 212.513 125.384 214.818 125.481 217.112C125.535 218.313 125.503 219.514 125.492 220.715C125.492 221.407 125.362 222.165 125.438 222.868C125.546 222.911 125.665 222.944 125.773 222.987C125.643 222.197 125.806 221.299 125.806 220.52C125.816 219.319 125.838 218.107 125.784 216.906C125.719 215.283 125.795 213.66 125.838 212.037C125.784 207.838 125.816 203.629 125.946 199.42C126.152 192.354 126.844 185.289 128.477 178.429C128.758 177.271 129.061 176.124 129.472 175.009C129.883 173.884 130.392 172.791 130.868 171.687C131.722 169.74 131.701 167.63 131.917 165.531C132.425 160.618 133.669 155.836 134.34 150.956C134.394 150.653 133.972 150.653 133.929 150.934Z" fill="#242638"/>
<path d="M139.293 177.909C137.984 177.52 136.838 177.152 135.886 176.07C135.702 175.854 135.388 176.167 135.583 176.384C136.589 177.531 137.79 177.942 139.185 178.342C139.444 178.418 139.563 177.985 139.293 177.909Z" fill="#242638"/>
<path d="M164.01 174.652C163.069 175.951 162.182 177.087 160.635 177.574C160.376 177.66 160.473 178.093 160.732 178.007C162.398 177.487 163.35 176.286 164.367 174.879C164.54 174.652 164.172 174.425 164.01 174.652Z" fill="#242638"/>
<path d="M154.773 78.8267C157.423 80.0819 160.57 80.6445 162.333 83.0359C163.523 84.6481 163.815 86.8013 163.858 88.8464C163.902 90.6534 164.031 92.5686 163.696 94.3648C163.426 95.8147 163.22 97.0483 163.274 98.5415C163.318 99.8832 163.469 101.225 163.61 102.556C163.739 103.843 164.172 104.882 164.561 106.105C165.308 108.507 165.805 110.985 166.303 113.463C166.53 114.61 166.757 115.757 166.898 116.915C167.439 121.362 166.692 125.831 166.368 130.256C166.303 131.111 166.108 132.041 166.216 132.885C166.325 133.729 167.698 136.77 167.201 137.506C167.157 137.571 167.082 137.603 167.017 137.625C164.767 138.49 162.322 138.512 159.921 138.534C158.937 138.545 157.963 138.544 156.979 138.555C156.936 135.201 156.871 131.857 156.849 128.503C156.828 125.517 156.546 122.476 156.633 119.479C156.806 113.712 156.568 107.955 155.843 102.21C155.443 99.0609 154.664 96.0852 154.134 92.9582C153.572 89.6146 152.847 86.3036 151.852 83.0683C151.603 82.2676 151.344 81.4453 151.344 80.6013C151.355 79.3136 152.014 78.0801 151.917 76.7925C152.717 77.7014 153.702 78.3182 154.773 78.8267Z" fill="#D4DEE8"/>
<path d="M170.37 133.491C170.478 133.048 170.575 132.604 170.705 132.15C171.127 130.613 171.787 129.12 172.241 127.584C173.171 124.413 173.874 121.156 174.339 117.878C174.653 115.681 174.859 113.43 174.469 111.256C174.08 109.07 173.02 106.949 171.257 105.726C170.727 105.358 170.121 105.077 169.494 104.991C168.142 104.807 166.79 105.521 165.881 106.603C164.204 108.605 164.789 112.392 164.972 114.88C165.2 117.921 165.556 121.037 164.907 124.056C164.226 127.194 163.847 130.343 163.447 133.535C164.767 133.243 166.26 133.308 167.341 134.152C168.174 134.812 168.672 135.839 169.407 136.619C169.894 135.58 170.132 134.541 170.37 133.491Z" fill="#D4DEE8"/>
<path d="M165.415 135.893C166.421 136.315 167.492 136.521 168.563 136.727C168.758 136.759 168.963 136.802 169.136 136.716C169.504 136.543 169.515 135.98 169.417 135.569C168.963 133.556 167.492 132.312 165.599 131.879C165.199 131.792 164.777 131.749 164.377 131.847C163.393 132.095 162.776 132.723 162.992 133.805C163.22 134.876 164.539 135.526 165.415 135.893Z" fill="#242638"/>
<path d="M166.271 113.247C166.52 112.143 166.953 111.126 167.818 110.563C168.456 110.141 169.267 110.152 170.003 110.293C170.652 110.412 171.279 110.607 171.907 110.801C170.879 109.503 169.181 108.843 167.591 109.124C168.326 108.648 169.148 108.313 170.003 108.15C170.165 108.118 170.338 108.096 170.457 107.988C170.587 107.88 170.641 107.663 170.533 107.534C169.386 106.787 167.926 106.982 166.585 106.971C166.379 106.971 166.141 106.96 165.99 106.798C165.871 106.679 165.828 106.495 165.784 106.322C165.146 103.27 164.021 100.327 163.318 97.265C162.561 93.9972 161.999 90.6862 161.631 87.3535C161.771 99.8511 166.606 112.197 164.876 124.565C165.244 121.936 165.514 119.295 165.838 116.655C165.957 115.703 166.012 114.415 166.271 113.247Z" fill="#242638"/>
<path d="M168.563 136.737C168.53 136.856 168.487 136.976 168.444 137.084C167.805 138.977 168 141.022 167.503 142.948C167.351 143.522 164.907 148.315 164.874 148.25C164.452 147.504 164.117 146.681 163.728 145.913C163.154 144.766 162.397 143.901 161.683 142.851C161.391 142.429 161.121 141.996 160.959 141.498C160.483 140.016 161.943 138.599 162.7 137.452C162.916 137.127 163.014 136.737 163.122 136.359C163.36 135.461 163.598 134.563 163.836 133.675C165.22 133.924 166.583 134.346 167.892 134.92C168.13 135.028 168.379 135.147 168.53 135.363C168.822 135.742 168.714 136.251 168.563 136.737Z" fill="#FF8B66"/>
<path d="M161.749 141.748C161.641 141.856 161.555 141.942 161.49 142.018C161.371 142.386 161.598 142.765 161.825 143.078C162.388 143.868 162.95 144.604 163.577 145.307C163.556 144.463 163.577 143.63 163.74 142.797C163.815 142.375 163.923 141.964 163.934 141.531C163.999 139.464 162.496 140.979 161.749 141.748Z" fill="#F65D2F"/>
<path d="M168.563 136.737C168.714 136.261 168.811 135.742 168.541 135.363C168.39 135.147 168.141 135.028 167.903 134.92C166.605 134.346 165.242 133.924 163.847 133.675C163.803 133.827 163.76 133.989 163.717 134.141C165.393 134.465 166.854 135.655 167.795 137.149C167.946 137.398 168.087 137.646 168.216 137.906C168.281 137.625 168.346 137.354 168.444 137.084C168.487 136.965 168.53 136.856 168.563 136.737Z" fill="#F65D2F"/>
<path d="M140.084 140.525C139.911 142.31 138.829 143.901 137.877 145.329C136.753 147.006 135.574 148.64 134.211 150.101C134.016 150.307 134.308 150.631 134.503 150.426C135.898 148.932 137.099 147.266 138.245 145.567C139.251 144.074 140.333 142.419 140.517 140.536C140.538 140.254 140.116 140.244 140.084 140.525Z" fill="#242638"/>
<path d="M165.015 148.142C164.28 146.519 163.263 145.059 162.517 143.446C162.398 143.187 162.019 143.403 162.138 143.663C162.884 145.275 163.89 146.736 164.637 148.359C164.756 148.618 165.123 148.402 165.015 148.142Z" fill="#242638"/>
<path d="M153.042 138.241C150.814 138.415 148.575 138.631 146.358 138.252C146.087 138.209 145.968 138.642 146.239 138.685C148.499 139.064 150.771 138.869 153.032 138.696C153.302 138.663 153.324 138.22 153.042 138.241Z" fill="#242638"/>
<path d="M160.873 140.114C160.516 140.525 160.169 140.958 159.867 141.423C159.672 141.715 159.477 142.029 159.38 142.375C159.261 142.754 159.261 143.154 159.174 143.544C159.023 144.28 158.644 144.929 158.277 145.578C158.223 145.665 158.168 145.762 158.168 145.87C158.158 146.076 158.341 146.238 158.536 146.27C158.731 146.303 158.915 146.227 159.088 146.151C159.877 145.773 160.537 145.08 160.905 144.247C161.067 143.879 161.175 143.468 161.413 143.143C161.705 142.754 162.149 142.516 162.495 142.18C162.906 141.78 163.187 141.228 163.274 140.644C163.328 140.244 163.285 139.811 163.014 139.519C162.722 139.205 162.246 139.172 161.857 139.324C161.457 139.486 161.154 139.789 160.873 140.114Z" fill="#FF8B66"/>
<path d="M145.967 94.4516C145.859 91.5409 145.945 88.3164 144.647 85.6546C144.009 84.3562 142.906 83.9883 141.77 83.3282C140.364 82.5167 139.293 81.2615 138.298 79.9631C138.125 79.7359 137.822 80.0497 137.995 80.2769C138.839 81.3806 139.726 82.4301 140.829 83.2417C141.813 83.9666 143.122 84.2588 143.912 85.2543C144.745 86.3147 145.026 87.8944 145.22 89.2145C145.426 90.6212 145.469 92.0603 145.523 93.4778C145.772 100.684 145.999 107.988 145.166 115.162C144.928 117.153 144.626 119.133 144.323 121.113C144.031 122.974 143.825 124.824 143.63 126.696C143.533 127.659 143.382 128.59 143.198 129.521C143.187 129.542 143.176 129.575 143.176 129.607C143.176 129.618 143.176 129.629 143.176 129.65C143.122 130.559 142.895 131.436 142.83 132.334C142.754 133.362 142.581 134.39 142.505 135.428C142.419 136.684 142.019 137.896 142.008 139.172C142.008 139.464 142.43 139.475 142.43 139.183C142.451 137.603 142.895 136.067 143.057 134.498C143.154 133.632 143.176 132.767 143.306 131.912C143.414 131.198 143.533 130.484 143.587 129.759C143.76 128.893 143.901 128.027 144.009 127.14C144.215 125.311 144.388 123.483 144.669 121.665C144.939 119.934 145.199 118.202 145.437 116.471C146.378 109.211 146.248 101.766 145.967 94.4516Z" fill="#242638"/>
<path d="M159.153 112.922C158.871 109.362 158.482 105.824 157.93 102.307C157.379 98.7363 156.622 95.198 155.832 91.6814C155.432 89.9068 155.021 88.1647 154.307 86.4984C153.917 85.5895 153.734 84.7779 153.842 83.7825C153.95 82.8519 154.231 81.943 154.426 81.0341C154.48 80.7528 154.08 80.6337 154.015 80.9151C153.723 82.3325 153.193 83.7825 153.442 85.254C153.561 85.9465 153.896 86.6066 154.166 87.245C154.534 88.0998 154.75 88.9979 154.977 89.896C155.854 93.3802 156.589 96.9401 157.206 100.489C158.45 107.674 158.99 114.967 159.239 122.26C159.38 126.393 159.423 130.537 159.423 134.671C159.423 134.963 159.845 134.974 159.845 134.682C159.856 127.421 159.715 120.161 159.153 112.922Z" fill="#242638"/>
<path d="M156.969 58.6469C156.947 57.0887 156.72 55.5522 156.493 54.0157C156.461 53.7993 156.147 53.8859 156.179 54.0915C156.385 55.4548 156.569 56.829 156.634 58.214C156.698 59.6207 156.623 61.0382 156.536 62.4448C156.396 64.8578 155.92 67.3681 154.708 69.4564C154.222 70.2896 153.583 71.0687 152.729 71.5015C151.647 72.0533 150.306 71.5664 149.332 70.9929C148.359 70.4194 147.515 69.5755 146.736 68.7423C145.882 67.8334 145.168 66.8054 144.735 65.6152C144.66 65.4096 144.379 65.5719 144.454 65.7775C144.909 67.011 145.644 68.039 146.509 68.9803C147.342 69.8892 148.262 70.7549 149.311 71.3716C150.209 71.9018 151.323 72.2373 152.339 71.9992C153.27 71.7828 154.016 71.0037 154.578 70.2355C155.974 68.3311 156.612 65.6368 156.785 63.2888C156.915 61.7415 156.991 60.1942 156.969 58.6469Z" fill="#C92603"/>
<path d="M155.075 48.1618C154.404 48.0861 153.701 48.1402 153.074 47.8913C152.068 47.5018 151.397 46.4414 150.391 46.106C149.515 45.8138 145.005 46.5388 146.032 48.2592C146.627 49.2547 148.996 49.2547 149.959 49.6875C151.17 50.2394 152.338 51.105 152.847 52.3926C152.911 52.5549 152.976 52.7389 153.117 52.8471C153.322 52.9986 153.615 52.912 153.863 52.912C154.447 52.912 154.923 53.3773 155.378 53.756C155.832 54.1347 160.094 57.0562 160.234 55.4656C160.256 55.26 160.158 55.0653 160.05 54.8921C159.726 54.3836 159.207 54.0373 158.828 53.572C158.201 52.8038 157.974 51.765 157.66 50.802C157.346 49.839 156.881 48.8327 156.005 48.4107C155.713 48.2592 155.399 48.1943 155.075 48.1618Z" fill="#242638"/>
<path d="M134.794 130.429C131.938 128.86 127.46 130.516 126.205 133.665C126.13 133.859 126.433 133.957 126.508 133.762C127.676 130.83 131.971 129.272 134.621 130.732C134.804 130.819 134.978 130.527 134.794 130.429Z" fill="#94224C"/>
<path d="M164.139 126.945C163.891 128.114 163.664 129.282 163.35 130.44C163.101 131.36 162.56 132.323 162.863 133.297C162.928 133.502 163.242 133.427 163.177 133.221C162.885 132.28 163.48 131.23 163.718 130.332C164.01 129.25 164.215 128.135 164.453 127.043C164.486 126.837 164.183 126.74 164.139 126.945Z" fill="#242638"/>
<path d="M169.601 131.089C168.531 129.358 166.043 128.752 164.258 129.444C164.063 129.52 164.139 129.845 164.334 129.769C165.978 129.141 168.336 129.639 169.32 131.251C169.428 131.435 169.71 131.273 169.601 131.089Z" fill="#242638"/>
<path d="M123.177 218.821C127.017 220.715 131.484 221.277 135.789 221.137C135.8 221.028 135.8 220.92 135.81 220.801C131.495 220.942 127.006 220.379 123.166 218.442C123.166 218.572 123.166 218.702 123.177 218.821Z" fill="#242638"/>
<path d="M154.577 176.405C153.982 174.025 153.474 171.612 153.084 169.188C152.673 166.624 152.403 164.016 152.089 161.441C151.775 158.93 151.462 156.431 151.127 153.931C150.791 151.464 150.521 148.965 150.661 146.476C150.672 146.26 150.359 146.249 150.348 146.465C150.218 148.856 150.467 151.237 150.77 153.607C151.094 156.095 151.419 158.595 151.732 161.083C152.057 163.67 152.327 166.277 152.717 168.853C153.106 171.428 153.647 173.971 154.274 176.492C154.317 176.697 154.631 176.622 154.577 176.405Z" fill="#242638"/>
<path d="M155.249 179.77C154.211 179.175 153.324 178.353 152.523 177.444C152.383 177.282 152.156 177.52 152.296 177.671C153.118 178.591 154.027 179.446 155.087 180.052C155.26 180.16 155.422 179.879 155.249 179.77Z" fill="#242638"/>
<path d="M156.2 178.656C155.238 178.072 154.286 177.466 153.334 176.87C153.161 176.762 152.999 177.044 153.172 177.163C154.123 177.758 155.075 178.375 156.038 178.948C156.211 179.045 156.384 178.764 156.2 178.656Z" fill="#242638"/>
<path d="M156.524 217.588C154.761 217.371 153.052 216.971 151.397 216.397C151.419 215.25 151.44 214.114 151.462 212.967C151.527 209.375 151.494 205.782 151.44 202.19C151.397 198.673 151.332 195.189 151.765 191.694C152.197 188.124 152.944 184.618 153.517 181.069C153.55 180.863 153.247 180.766 153.214 180.971C152.673 184.336 151.992 187.669 151.538 191.045C151.062 194.605 151.083 198.143 151.127 201.736C151.17 205.404 151.213 209.061 151.148 212.729C151.127 213.909 151.105 215.088 151.083 216.267C150.488 216.051 149.904 215.813 149.32 215.553C149.331 215.672 149.331 215.802 149.342 215.921C149.915 216.17 150.488 216.397 151.073 216.614C151.04 218.248 151.008 219.892 150.986 221.526C151.094 221.559 151.202 221.591 151.3 221.624C151.321 219.99 151.343 218.356 151.386 216.722C152.814 217.209 154.285 217.566 155.789 217.804C157.876 218.118 159.953 218.074 162.051 218.085C162.257 218.085 162.473 218.085 162.679 218.096C162.7 217.988 162.711 217.869 162.733 217.761C160.656 217.717 158.59 217.847 156.524 217.588Z" fill="#242638"/>
<path d="M156.33 114.675L147.547 141.347C147.168 142.494 145.978 143.111 144.897 142.732L113.767 131.814C112.675 131.436 112.101 130.191 112.48 129.044L121.263 102.372C121.274 102.329 121.295 102.275 121.317 102.231C121.577 101.658 122.226 101.366 122.82 101.582L155.573 113.073C156.168 113.279 156.503 113.917 156.373 114.534C156.362 114.577 156.351 114.621 156.33 114.675Z" fill="#3B4760"/>
<path d="M152.988 115.822L145.535 138.458C145.211 139.432 144.205 139.951 143.285 139.627L116.872 130.365C115.952 130.04 115.455 128.99 115.779 128.016L123.232 105.38C123.242 105.337 123.264 105.304 123.275 105.261C123.502 104.774 124.043 104.525 124.551 104.709L152.35 114.459C152.858 114.632 153.139 115.173 153.031 115.703C153.02 115.746 153.009 115.789 152.988 115.822Z" fill="#414D65"/>
<path d="M156.33 114.675L152.317 126.87C151.885 128.19 150.489 128.904 149.202 128.449L118.775 117.77C117.488 117.315 116.807 115.887 117.239 114.556L121.252 102.361C121.263 102.318 121.285 102.264 121.306 102.221C121.566 101.647 122.215 101.355 122.81 101.571L155.562 113.063C156.157 113.268 156.492 113.907 156.363 114.523C156.363 114.578 156.352 114.621 156.33 114.675Z" fill="#4C576E"/>
<path d="M156.373 114.534L121.316 102.231C121.576 101.658 122.225 101.366 122.82 101.582L155.572 113.073C156.156 113.279 156.502 113.907 156.373 114.534Z" fill="#3B4760"/>
<path d="M137.088 121.924L135.682 126.188L130.836 124.489L132.242 120.226C132.383 119.793 132.837 119.566 133.248 119.717L136.59 120.886C137.001 121.037 137.228 121.502 137.088 121.924Z" fill="black"/>
<path d="M135.681 126.198C135.432 126.956 130.587 125.257 130.835 124.5L131.582 122.217L136.428 123.915L135.681 126.198Z" fill="white"/>
<path d="M135.228 85.6655C136.061 87.7863 136.158 90.0045 135.855 92.2552C135.595 94.2137 135.639 96.1397 135.217 98.0549C134.146 102.913 132.783 107.707 131.107 112.37C130.468 114.156 130.782 115.368 131.128 117.207C131.485 119.101 131.875 120.983 132.286 122.866C132.859 125.42 133.475 127.962 134.157 130.494C134.73 132.604 135.844 134.444 135.271 136.749C134.925 138.123 133.995 139.205 133 140.114C131.961 141.066 130.944 141.304 129.549 141.174C127.645 140.99 126.023 137.755 125.331 136.143C121.274 126.686 118.549 117.553 119.663 107.09C120.16 102.416 120.539 97.7411 121.783 93.1965C122.81 89.4419 123.773 86.4122 126.51 83.5988C127.072 83.0254 127.667 82.4843 128.359 82.1056C130.944 80.699 133.064 81.8784 134.492 84.2264C134.795 84.6701 135.033 85.157 135.228 85.6655Z" fill="#D4DEE8"/>
<path d="M133.096 133.07C133.301 133.026 133.507 133.005 133.712 133.015C134.437 133.08 135.021 133.74 135.248 134.465C135.681 135.818 135.345 138.328 134.242 139.291C133.247 140.168 131.906 140.557 130.673 140.86C130.143 140.99 129.559 141.109 129.061 140.849C127.925 140.265 127.633 139.107 127.936 137.885C128.325 136.316 130.078 134.195 131.473 133.546C131.949 133.318 132.457 133.189 132.966 133.08C133.009 133.091 133.052 133.08 133.096 133.07Z" fill="#242638"/>
<path d="M136.471 137.863C137.628 138.772 139.197 140.038 139.705 141.304C140.3 142.797 138.883 144.539 138.115 145.74C137.434 146.811 136.633 147.796 135.79 148.716C134.935 149.657 134.556 150.133 133.897 148.835C132.902 146.876 131.939 145.134 131.376 142.938C131.322 142.711 131.257 142.483 131.16 142.278C131.052 142.061 130.9 141.867 130.76 141.683C130.014 140.741 128.402 139.54 129.116 138.242C129.927 136.77 131.095 135.504 132.469 134.628C133.583 135.796 134.784 136.532 136.006 137.495C136.146 137.614 136.298 137.733 136.471 137.863Z" fill="#FF8B66"/>
<path d="M133.951 135.97L133.94 135.959C133.875 135.905 133.81 135.851 133.735 135.796C133.724 135.786 133.713 135.786 133.702 135.775C133.637 135.721 133.572 135.677 133.518 135.623C133.507 135.613 133.486 135.602 133.475 135.58C133.421 135.537 133.367 135.483 133.302 135.439C133.28 135.418 133.259 135.396 133.237 135.385C133.183 135.342 133.14 135.299 133.086 135.255C133.053 135.234 133.032 135.201 132.999 135.18C132.956 135.136 132.913 135.104 132.869 135.061C132.826 135.017 132.783 134.974 132.739 134.931C132.718 134.909 132.685 134.877 132.664 134.855C132.599 134.79 132.523 134.714 132.458 134.639C131.074 135.526 129.906 136.781 129.105 138.253C128.391 139.54 130.014 140.741 130.749 141.694C130.901 141.878 131.041 142.072 131.149 142.289C131.171 142.321 131.182 142.364 131.193 142.397C131.863 140.135 132.664 137.874 134.167 136.132C134.102 136.078 134.027 136.024 133.951 135.97Z" fill="#F65D2F"/>
<path d="M138.958 143.587C138.925 143.392 138.806 143.273 138.612 143.013C138.341 142.656 137.054 140.914 136.848 141.823C136.632 142.764 137.638 144.582 138.06 145.361C137.984 145.21 138.86 144.247 138.914 144.03C138.958 143.825 138.968 143.695 138.958 143.587Z" fill="#F65D2F"/>
<path d="M130.522 115.064C130.62 115.172 130.717 115.324 130.814 115.497C130.674 114.48 130.685 113.549 131.106 112.381C131.161 112.229 131.215 112.067 131.269 111.905C130.912 111.407 130.512 110.952 130.101 110.509C128.813 109.135 127.569 108.745 125.85 108.28C127.71 108.778 128.803 110.747 129.69 112.532C128.218 111.439 126.207 111.212 124.562 111.97C125.796 111.407 127.948 112.749 128.857 113.495C129.43 113.96 130.046 114.523 130.522 115.064Z" fill="#242638"/>
<path d="M143.296 144.799C141.998 143.749 141.1 142.916 140.332 141.325C140.159 140.957 139.986 140.568 139.705 140.287C138.991 139.54 137.909 138.674 136.882 138.599C136.709 138.588 136.514 138.599 136.395 138.728C136.276 138.847 136.254 139.031 136.244 139.205C136.146 140.254 136.157 140.644 136.828 141.466C137.639 142.472 138.721 143.425 139.813 144.074C139.964 144.16 140.127 144.258 140.256 144.377C140.451 144.539 140.592 144.755 140.765 144.939C141.414 145.632 142.55 145.751 143.318 145.21C143.393 145.156 143.469 145.08 143.458 144.983C143.447 144.929 143.393 144.885 143.35 144.842C143.328 144.831 143.307 144.81 143.296 144.799Z" fill="#FF8B66"/>
<path d="M276.479 239.672C277.031 239.715 277.593 239.726 278.167 239.802C279.302 239.932 280.287 239.889 281.357 239.38C282.861 238.655 284.029 237.227 284.375 235.593C284.602 234.543 284.483 233.407 283.953 232.487C283.423 231.557 282.45 230.864 281.379 230.789C280.265 230.702 278.978 231.265 278.048 231.838C277.28 232.304 276.804 233.093 276.306 233.818C275.841 234.489 275.225 235.084 274.976 235.874C274.727 236.653 274.543 237.389 273.894 237.973C273.808 238.049 273.721 238.114 273.667 238.211C273.516 238.449 273.602 238.774 273.797 238.969C273.981 239.174 274.251 239.272 274.511 239.358C275.181 239.553 275.83 239.629 276.479 239.672Z" fill="#242638"/>
<path d="M273.539 75.4509C272.479 75.0722 271.743 74.1417 271.072 73.2436C270.532 72.5294 269.991 71.8044 269.526 71.0362C266.411 65.8424 266.778 59.3177 262.7 54.5243C262.203 53.9291 261.63 53.3989 261.143 52.793C260.602 52.1113 260.224 51.1916 259.445 50.7371C258.558 50.2177 257.844 50.5099 256.935 50.7047C254.631 51.2024 252.609 51.7434 250.759 53.3124C248.845 54.9246 247.503 57.1969 247.006 59.6423C246.454 62.315 246.908 65.1174 247.731 67.7143C247.839 66.9244 248.196 66.167 248.736 65.5719C248.509 67.6494 249.331 69.6945 250.143 71.6205C251.019 73.698 252.035 75.927 254.026 76.9982C253.885 76.1326 253.744 75.2778 253.604 74.4122C253.777 75.4509 256.438 76.1759 257.249 76.4031C258.709 76.7926 260.245 76.9982 261.586 77.734C261.229 76.6412 261.013 75.505 260.927 74.3689C260.97 75.0289 263.717 75.1047 264.15 75.083C264.864 75.0397 265.664 74.9099 266.346 75.1696C267.07 75.4509 267.362 76.3382 268.184 76.4031C268.823 76.4572 269.601 76.0785 270.261 76.046C271.375 75.9811 272.479 75.8837 273.539 75.4509Z" fill="#242638"/>
<path d="M248.487 124.305C248.022 124.089 247.535 123.862 247.027 123.905C246.886 123.916 246.735 123.948 246.594 123.916C246.389 123.883 246.215 123.742 246.042 123.613C245.783 123.429 245.502 123.288 245.21 123.18C244.928 123.072 244.593 123.007 244.323 123.169C244.117 123.288 243.998 123.526 243.966 123.764C243.89 124.294 244.171 124.803 244.442 125.257C244.615 125.549 244.777 125.842 244.95 126.123C245.112 126.393 245.296 126.686 245.599 126.772C245.804 126.826 246.021 126.772 246.226 126.707C247.178 126.393 248.022 125.766 248.584 124.944C248.682 124.803 248.779 124.608 248.682 124.457C248.66 124.392 248.573 124.348 248.487 124.305Z" fill="#F65D2F"/>
<path d="M244.722 218.8C244.928 217.977 245.036 217.133 244.971 216.289C244.841 214.688 243.987 213.076 242.537 212.394C242.202 212.232 241.823 212.134 241.456 212.188C240.742 212.297 240.255 212.935 239.866 213.541C238.222 216.073 236.805 218.746 235.636 221.526C234.782 223.571 233.387 226.309 230.78 226.017C229.19 225.833 227.611 225.671 226.021 225.53C225.934 225.519 225.837 225.519 225.783 225.584C225.729 225.638 225.729 225.735 225.729 225.811C225.837 227.726 226.853 229.144 228.292 230.302C230.758 232.303 233.235 234.294 235.701 236.296C236.156 236.664 236.642 237.043 237.216 237.151C241.066 237.844 240.439 230.107 240.861 228.213C241.434 225.638 242.916 223.377 243.965 220.964C244.268 220.25 244.538 219.535 244.722 218.8Z" fill="#FF8B66"/>
<path d="M264.787 122.228C262.256 122.487 259.66 122.758 257.378 123.916C259.314 139.757 252.467 151.865 247.502 166.256C244.593 174.696 243.836 183.255 242.094 191.943C240.331 200.751 237.724 209.386 234.317 217.696C234.155 218.086 233.993 218.497 234.09 218.897C234.176 219.254 234.436 219.525 234.696 219.784C237.854 222.857 241.997 224.881 246.356 225.487C247.329 222.186 249.038 219.276 250.423 216.116C251.18 214.374 253.235 211.312 253.235 209.375C254.468 206.161 255.626 202.98 256.383 199.626C258.048 192.279 259.433 184.867 260.525 177.412C260.785 175.659 261.023 173.895 261.661 172.24C262.31 170.53 263.359 169.015 264.344 167.479C271.558 156.269 276.198 142.397 273.159 129.315C271.948 123.786 269.979 121.697 264.787 122.228Z" fill="#356493"/>
<path d="M264.332 167.479C264.332 167.479 264.332 167.468 264.332 167.479C264.462 167.273 264.592 167.078 264.711 166.873C264.765 166.797 264.808 166.71 264.862 166.635C264.927 166.527 265.003 166.408 265.068 166.299C265.143 166.18 265.219 166.061 265.284 165.942C265.316 165.888 265.349 165.845 265.37 165.791C269.308 159.299 272.336 152.006 273.526 144.55C273.548 144.388 273.58 144.226 273.602 144.063C274.262 139.616 274.272 135.104 273.429 130.679C272.996 129.11 272.358 126.924 271.709 125.095C270.389 122.726 268.345 121.86 264.775 122.217C262.244 122.477 259.648 122.747 257.366 123.905C257.637 126.102 257.734 128.233 257.691 130.3C259.292 130.3 261.206 130.019 261.963 129.964C261.909 129.964 262.774 139.086 262.796 139.941C262.883 143.36 263.596 146.563 263.185 150.015C262.72 153.91 262.688 157.805 261.996 161.69C261.195 166.213 260.211 170.746 258.88 175.107C257.518 179.576 257.247 184.283 256.631 188.892C255.614 196.467 253.461 203.976 250.671 211.085C248.875 215.662 246.517 221.289 242.58 224.578C243.802 224.989 245.068 225.292 246.344 225.465C247.318 222.165 249.027 219.254 250.411 216.095C251.32 214.017 252.423 212.08 253.223 209.96C254.467 206.659 255.581 203.045 256.36 199.604C258.026 192.268 259.41 184.867 260.503 177.423C260.503 177.412 260.503 177.401 260.514 177.379C260.773 175.626 261.011 173.863 261.65 172.207C261.963 171.396 262.363 170.617 262.807 169.87C263.283 169.069 263.813 168.279 264.332 167.479Z" fill="#D6DDE5"/>
<path d="M285.23 221.894C285.273 221.396 285.316 220.888 285.348 220.39C285.586 217.501 286.106 212.004 283.034 210.37C280.492 209.029 276.749 209.104 276.284 212.524C276.003 214.558 276.706 216.895 276.912 218.929C277.193 221.71 277.463 224.491 277.745 227.272C277.874 228.592 278.004 229.934 277.755 231.232C277.225 233.97 275.062 236.188 274.564 238.936C277.085 239.51 279.789 239.261 282.158 238.244C282.85 237.952 283.553 237.54 283.867 236.859C284.04 236.491 284.072 236.08 284.105 235.669C284.472 231.07 284.851 226.482 285.23 221.894Z" fill="#FF8B66"/>
<path d="M280.708 118.516C277.636 117.034 273.505 117.294 270.346 118.441C268.734 119.036 266.279 120.031 265.316 121.557C264.895 122.228 264.711 123.018 264.57 123.797C263.142 131.468 266.528 138.978 267.274 146.498C268.107 154.862 268.291 163.28 267.815 171.666C267.512 177.011 268.215 181.372 269.373 186.523C269.719 188.07 269.968 189.639 270.206 191.208C272.012 203.24 273.137 215.38 273.58 227.543C277.95 228.257 282.482 227.889 286.679 226.482C287.252 226.287 287.512 219.633 287.512 218.627C287.534 215.402 287.436 212.178 287.328 208.953C287.112 202.526 286.625 196.077 285.446 189.747C284.97 187.215 284.386 184.694 284.267 182.119C284.148 179.706 284.44 177.293 284.754 174.901C285.37 170.162 286.052 165.423 286.733 160.694C287.371 156.269 288.009 151.843 288.648 147.418C288.756 146.66 288.864 145.903 289.08 145.167C289.307 144.399 289.632 143.663 289.881 142.905C291.936 136.37 289.253 128.027 285.349 122.704C284.115 120.994 282.59 119.425 280.708 118.516Z" fill="#356493"/>
<path d="M285.382 122.693C284.03 120.907 282.321 119.295 280.71 118.516C280.299 118.321 279.866 118.148 279.422 118.008C277.238 117.694 274.966 117.38 272.835 117.834C270.921 118.246 269.082 118.949 267.319 119.804C266.497 120.291 265.772 120.864 265.339 121.546C264.918 122.217 264.734 123.007 264.593 123.786C264.225 125.733 264.204 127.724 264.366 129.726C264.842 129.629 265.242 129.542 265.329 129.51C270.001 128.265 271.862 134.758 274.209 137.755C274.469 138.09 274.761 138.436 275.161 138.577C277.421 139.356 281.661 135.991 283.197 134.671C285.404 132.788 288.627 129.748 287.6 126.664C287.178 125.43 286.377 124.013 285.382 122.693Z" fill="#D6DDE5"/>
<path d="M280.535 92.0278C280.395 88.4138 280.2 84.6159 278.242 81.5645C275.473 77.2363 269.632 75.6025 264.624 76.7061C258.242 78.1236 253.559 82.1488 251.45 88.1974C249.113 94.8952 248.886 102.231 249.946 109.2C250.238 111.104 252.477 125.528 254.392 125.56C262.958 125.723 271.568 123.764 279.216 119.912C280.027 119.501 280.87 119.025 281.249 118.202C281.53 117.607 281.509 116.915 281.476 116.255C281.163 108.183 280.849 100.1 280.535 92.0278Z" fill="white"/>
<path d="M239.92 235.983C239.953 235.929 239.974 235.896 239.985 235.874C240.039 235.788 240.082 235.669 240.017 235.593C239.974 235.55 239.898 235.539 239.844 235.539C238.373 235.442 237.097 234.652 235.821 233.981C234.458 233.267 233.106 232.715 231.764 231.947C230.888 231.438 230.012 230.843 229.093 230.399C228.206 229.967 227.914 229.793 227.503 228.863C227.146 228.041 227.016 227.11 227.146 226.223C227.178 225.974 227.243 225.725 227.308 225.487C227.351 225.335 227.405 225.184 227.46 225.032C227.503 224.924 223.371 223.875 222.971 223.593C222.711 223.409 222.451 223.204 222.138 223.15C221.662 223.063 221.208 223.344 220.829 223.647C220.234 224.113 219.953 224.556 219.877 225.022C219.791 225.552 219.996 226.136 220.342 226.861C220.926 228.062 221.748 229.133 222.689 230.064C224.063 231.438 225.675 232.531 227.308 233.559C227.946 233.959 228.595 234.37 229.342 234.479C229.969 234.576 230.596 234.446 231.224 234.479C231.851 234.511 232.543 234.76 232.814 235.344C232.608 235.755 231.721 236.967 231.797 237.411C231.862 237.801 232.879 238.352 233.192 238.58C234.252 239.38 235.334 240.127 236.459 240.819C236.643 240.938 239.39 236.837 239.92 235.983Z" fill="#242638"/>
<path d="M265.75 70.7552C265.307 69.7597 264.95 68.656 264.322 67.7579C263.879 67.1087 263.468 65.8427 262.581 66.4811C260.547 67.9419 258.611 69.5216 256.762 71.2096C256.675 71.2962 256.578 71.3827 256.545 71.5126C256.524 71.6424 256.589 71.7723 256.643 71.8913C257.421 73.417 257.919 75.0725 258.276 76.7388C258.503 77.8533 259.358 80.2338 258.233 81.067C258.146 81.1319 258.038 81.1968 257.995 81.2942C257.941 81.4024 257.962 81.5431 257.984 81.6621C258.103 82.2681 258.254 82.8524 258.417 83.4475C258.838 85.0056 259.249 86.5529 259.693 88.1003C263.381 85.2761 267.113 82.3654 269.752 78.535C270.25 77.8209 269.276 77.3231 268.909 76.7713C268.616 76.3277 268.487 75.8299 268.26 75.3538C267.502 73.8173 266.269 72.4215 265.75 70.7552Z" fill="#FF8B66"/>
<path d="M263.782 68.7968C263.155 67.3252 262.095 67.0006 260.937 67.217C259.845 68.1367 258.752 69.0565 257.649 69.9762C257.39 70.1926 257.119 70.4307 257.022 70.7553C256.946 71.0041 256.989 71.2638 257.033 71.5235C257.26 72.8652 257.617 74.1745 257.93 75.4946C260.126 75.3864 262.041 73.9906 263.252 72.2485C263.869 71.3504 264.215 69.8139 263.782 68.7968Z" fill="#F65D2F"/>
<path d="M284.928 235.409C284.885 234.662 284.766 233.829 284.344 233.624C283.922 234.186 283.836 234.922 283.695 235.614C283.565 236.285 283.349 237.086 282.646 237.324C281.975 237.551 281.078 237.595 280.374 237.638C279.401 237.703 278.427 237.66 277.465 237.508C277.194 237.465 274.955 236.761 274.89 236.837C274.306 237.432 273.679 237.779 273.041 238.287C272.695 238.558 271.819 239.142 271.84 239.65C271.851 240.213 271.905 240.787 272.002 241.338C272.111 241.966 272.089 242.334 272.662 242.529C273.722 242.886 275.204 242.788 276.318 242.853C278.038 242.951 279.769 242.983 281.489 242.94C282.776 242.907 284.301 243.135 284.809 241.587C284.917 241.252 284.939 240.884 284.961 240.527C285.036 239.174 285.112 237.811 284.971 236.458C284.961 236.242 284.961 235.842 284.928 235.409Z" fill="#242638"/>
<path d="M258.265 116.915C257.973 110.542 257.691 104.158 257.399 97.7844C257.27 94.9062 257.021 92.028 256.977 89.1497C256.956 87.6565 256.977 86.1525 257.107 84.6701C257.215 83.4798 257.096 82.1814 257.334 81.0128C257.507 80.1688 257.994 79.3465 258.773 78.9786C258.751 78.6539 258.719 78.3185 258.697 77.9939C257.929 78.5133 257.032 78.8162 256.199 79.2166C255.366 79.6278 254.544 80.1904 254.144 81.0236C253.895 81.543 253.819 82.1489 253.462 82.5926C253.029 83.1228 252.305 83.2851 251.731 83.6638C251.256 83.9776 250.899 84.4429 250.574 84.9081C248.368 88.0028 246.713 91.4869 245.707 95.1551C244.452 99.7537 243.944 104.428 243.738 109.222C243.533 113.874 243.305 119.339 245.296 123.678C245.966 125.138 247.048 126.491 248.724 126.729C249.622 126.859 250.542 126.642 251.385 126.318C251.894 126.123 254.717 124.868 254.706 124.327C254.749 125.863 253.419 139.692 254.284 140.006C255.917 140.601 257.756 139.4 258.492 137.831C259.227 136.262 259.152 134.444 259.054 132.713C258.762 127.443 258.513 122.174 258.265 116.915Z" fill="#FA6325"/>
<path d="M285.273 114.502C283.423 110.347 283.932 105.705 284.473 101.334C284.981 97.2869 285.446 93.1102 285.154 89.0201C284.949 86.1852 284.484 83.3394 282.537 81.1429C281.552 80.0392 280.189 79.3683 278.848 78.7299C276.901 77.7994 274.911 76.8472 272.758 76.5875C271.926 76.4901 271.039 76.4793 270.325 76.0573C269.589 75.6245 269.081 74.7913 268.259 74.6182C268.097 75.6461 267.718 76.6308 267.145 77.4964C266.204 78.9247 264.776 79.9851 263.867 81.435C262.742 83.2204 262.494 85.3953 262.277 87.4944C261.985 90.3402 261.693 93.1319 261.639 95.9776C261.563 99.6349 261.91 103.292 262.645 106.863C263.381 110.412 264.787 113.788 265.966 117.218C267.707 122.282 269.384 127.476 271.623 132.334C272.412 134.076 273.267 135.364 275.3 135.732C277.831 136.197 281.293 133.946 283.521 132.854C286.117 131.588 288.864 130.094 290.93 128.028C291.471 127.541 292.001 126.978 292.196 126.275C292.466 125.29 291.979 124.251 291.449 123.386C289.556 120.313 286.744 117.802 285.273 114.502Z" fill="#FA6325"/>
<path d="M260.19 51.0943C256.934 51.0835 254.619 52.9121 253.31 55.8336C252.088 58.5712 251.612 61.6442 251.764 64.6306C251.872 66.8488 252.272 70.3005 253.786 71.9993C254.792 73.1246 256.328 73.7522 257.832 73.6224C258.513 73.5574 259.184 73.3518 259.811 73.0922C263.986 71.3609 268.832 65.572 268.172 60.7569C267.848 58.4089 267.75 55.7903 266.214 53.8535C264.776 52.014 262.493 51.0943 260.19 51.0943Z" fill="#FF8B66"/>
<path d="M268.908 105.424C268.886 103.952 268.626 102.697 268.032 101.398C267.978 101.29 267.934 101.182 267.88 101.074C267.74 100.803 266.377 97.806 265.89 98.2821C264.549 99.6022 263.954 101.55 263.921 103.443C263.889 105.326 264.365 107.187 264.873 109.005C259.898 111.353 255.16 114.231 250.768 117.553C250.585 117.694 250.401 117.835 250.303 118.029C250.163 118.3 250.195 118.624 250.249 118.917C250.541 120.54 251.244 122.087 252.359 123.299C252.737 123.71 253.17 124.11 253.711 124.229C254.013 124.294 254.338 124.273 254.652 124.229C256.004 124.024 256.934 123.18 257.951 122.347C259.27 121.265 260.449 119.955 261.617 118.722C262.699 117.575 263.662 116.298 264.776 115.194C265.793 114.177 267.123 113.669 268.183 112.641C268.594 112.24 268.983 111.764 269.081 111.202C269.146 110.823 269.07 110.433 269.016 110.055C268.8 108.518 268.929 106.971 268.908 105.424Z" fill="#FF8B66"/>
<path d="M268.909 105.424C268.887 103.952 268.628 102.697 268.033 101.398C267.979 101.29 267.935 101.182 267.881 101.074C267.741 100.803 266.378 97.806 265.891 98.2821C264.55 99.6022 263.955 101.55 263.923 103.443C263.89 105.326 264.366 107.187 264.874 109.005C262.311 110.217 259.812 111.559 257.4 113.041C256.275 113.723 255.204 114.534 254.015 115.086C252.76 115.67 251.581 116.406 250.489 117.261C250.37 117.358 250.24 117.456 250.164 117.597C250.077 117.748 250.067 117.932 250.067 118.105C250.056 119.241 250.402 120.345 250.77 121.416C251.051 122.249 251.343 123.072 251.635 123.894C251.83 124.435 252.079 125.019 252.609 125.236C253.074 125.42 253.604 125.247 254.069 125.041C257.065 123.688 259.401 121.07 261.619 118.733C262.7 117.586 263.663 116.309 264.777 115.205C265.794 114.188 267.124 113.68 268.184 112.652C268.595 112.251 268.985 111.775 269.082 111.212C269.147 110.834 269.071 110.444 269.017 110.066C268.801 108.518 268.931 106.971 268.909 105.424Z" fill="#F65D2F"/>
<path d="M267.999 101.409C267.912 101.193 267.826 100.977 267.761 100.749C267.61 100.241 267.599 99.7538 267.318 99.2885C267.015 98.8124 266.268 97.8278 265.619 97.936C265.262 97.9901 265.057 98.3688 264.916 98.7042C264.3 100.208 263.954 101.821 263.921 103.444C263.889 105.326 264.365 107.187 264.873 109.005C262.234 110.25 259.659 111.645 257.172 113.182C255.928 113.95 254.706 114.751 253.505 115.573C252.64 116.168 251.017 116.98 251.753 118.289C252.055 118.819 252.661 119.122 253.267 119.187C253.873 119.252 254.478 119.101 255.062 118.906C255.711 118.69 256.339 118.408 256.955 118.116C259.627 116.85 262.147 115.259 264.44 113.388C265.717 112.349 266.95 111.191 267.664 109.709C268.313 108.378 268.497 106.863 268.594 105.391C268.648 104.558 268.659 103.714 268.507 102.892C268.41 102.362 268.194 101.896 267.999 101.409Z" fill="#FF8B66"/>
<path d="M270.736 101.918C270.13 101.907 269.265 101.734 268.681 101.896C268.075 102.069 267.393 102.686 266.853 103.022C266.82 103.043 266.788 103.065 266.744 103.086C266.571 103.195 266.398 103.314 266.269 103.465C265.728 104.071 265.922 105.348 266.712 105.694C267.469 106.03 268.453 104.623 268.929 104.158C269.07 104.028 269.211 103.887 269.384 103.822C269.654 103.725 269.957 103.79 270.238 103.801C270.747 103.811 271.222 103.606 271.688 103.4C271.926 103.292 272.163 103.184 272.347 103C272.531 102.816 272.629 102.524 272.52 102.286C272.012 101.94 271.352 101.918 270.736 101.918Z" fill="#FF8B66"/>
<path d="M270.444 92.9153C270.033 93.1101 269.547 93.6403 269.146 93.9108C267.47 95.0578 265.858 96.3021 265.134 98.2822C265.058 98.4986 264.993 98.7259 265.058 98.9423C265.339 99.9053 266.551 100.046 267.243 99.4184C267.578 99.1154 267.6 98.7475 267.773 98.3472C268.065 97.6763 268.379 97.1244 268.443 96.3778C268.476 96.367 268.508 96.3562 268.541 96.3454C269.136 96.1073 269.622 95.6745 270.044 95.1984C270.401 94.7872 271.039 94.2029 271.126 93.6511C271.191 93.1534 270.942 92.6664 270.444 92.9153Z" fill="#FF8B66"/>
<path d="M272.521 97.6438C271.915 97.2651 271.223 96.7566 270.476 96.7674C269.643 96.7782 268.681 96.6375 267.913 96.9838C267.026 97.3733 266.204 98.055 265.403 98.596C264.906 98.9423 264.841 99.137 264.949 99.7538C265.003 100.078 265.155 100.403 265.414 100.598C265.728 100.825 266.171 100.847 266.539 100.728C266.669 100.684 266.788 100.63 266.896 100.565C267.437 100.23 267.794 99.6781 268.367 99.3535C268.973 99.0072 269.665 98.8124 270.357 98.8016C270.465 98.8016 270.584 98.8016 270.682 98.8341C270.79 98.8665 270.887 98.9315 270.995 98.9964C271.59 99.3535 272.272 99.5482 272.964 99.559C273.267 99.559 273.581 99.5266 273.829 99.3535C274.078 99.1911 274.24 98.8557 274.132 98.5744C273.97 98.0983 272.942 97.9035 272.521 97.6438Z" fill="#FF8B66"/>
<path d="M273.515 100.576C273.039 100.316 272.639 100.111 272.12 99.9484C271.082 99.6238 269.967 99.5047 268.886 99.6238C267.566 99.7644 264.884 100.327 265.068 102.134C265.089 102.329 265.143 102.524 265.251 102.697C265.922 103.768 266.744 102.881 267.447 102.286C267.512 102.231 267.577 102.177 267.653 102.123C267.826 101.983 268.01 101.853 268.215 101.766C268.377 101.701 268.561 101.669 268.734 101.647C269.394 101.539 270.043 101.442 270.703 101.333C270.8 101.323 270.898 101.301 270.995 101.312C271.082 101.323 271.168 101.355 271.255 101.377C272.001 101.615 272.845 101.528 273.526 101.139C273.613 101.085 273.71 101.03 273.732 100.933C273.764 100.792 273.645 100.652 273.515 100.576Z" fill="#FF8B66"/>
<path d="M264.777 114.708C264.571 113.69 264.842 113.95 263.609 113.853C260.061 113.582 256.459 115.497 252.911 115.671C251.97 115.714 250.986 115.66 250.131 115.259C248.119 114.318 246.021 114.004 244.68 116.331C243.923 117.651 244.02 119.274 244.15 120.799C244.215 121.643 244.301 122.542 244.799 123.234C244.82 123.256 244.842 123.288 244.864 123.31C245.015 123.494 245.221 123.656 245.459 123.667C245.632 123.678 245.794 123.602 245.956 123.526C247.341 122.877 248.833 121.871 250.272 121.427C250.791 121.265 252.067 121.784 252.619 121.892C253.409 122.044 254.198 122.185 254.988 122.304C257.043 122.617 259.131 122.834 261.218 122.769C263.1 122.715 264.452 122.12 266.324 122.693C265.426 121.092 264.885 119.295 264.723 117.467C264.647 116.601 264.939 115.519 264.777 114.708Z" fill="#FF8B66"/>
<path d="M245.599 115.108C244.572 115.465 243.555 115.844 242.755 116.568C242.668 116.644 242.592 116.72 242.517 116.785C241.857 117.412 241.651 117.791 241.792 118.797C241.911 119.609 241.954 120.431 241.911 121.243C241.879 121.816 241.814 122.39 241.943 122.953C242.106 123.613 242.528 124.175 242.971 124.705C243.566 125.42 244.323 126.123 245.113 126.577C246.032 127.118 245.221 125.539 245.113 125.127C244.907 124.348 245.567 123.613 245.199 122.79C245.048 122.466 244.821 122.173 244.756 121.827C244.658 121.308 244.929 120.788 244.875 120.258C244.831 119.815 244.55 119.414 244.539 118.971C244.539 118.527 244.81 118.181 244.907 117.77C245.026 117.293 244.994 116.817 245.199 116.363C245.307 116.103 245.48 115.757 245.686 115.562C245.816 115.443 246.075 115.4 246.173 115.281C246.551 114.826 245.978 114.978 245.599 115.108Z" fill="#FF8B66"/>
<path d="M279.995 111.559C279.302 111.191 278.491 111.159 277.702 111.148C276.263 111.126 274.824 111.159 273.407 111.375C272.791 111.472 272.174 111.591 271.569 111.732C270.011 112.078 268.464 112.457 266.928 112.868C266.16 113.074 265.393 113.279 264.625 113.496C264.192 113.615 263.748 113.647 263.337 113.831C263.089 113.95 262.418 114.156 262.277 114.405C262.223 114.502 262.212 114.621 262.202 114.729C262.093 116.504 262.093 118.278 262.223 120.053C262.277 120.778 262.31 122.25 262.894 122.791C263.045 122.931 263.272 122.964 263.478 122.985C265.804 123.223 268.14 122.812 270.444 122.401C271.266 122.25 272.088 122.109 272.91 121.957C273.775 121.806 274.641 121.654 275.484 121.406C276.631 121.07 277.929 120.626 278.935 119.966C279.595 119.534 280.525 118.744 280.806 118.008C281.152 117.088 281.228 115.952 281.185 114.967C281.163 113.766 281.217 112.208 279.995 111.559Z" fill="#FA6325"/>
<path d="M261.38 114.307C258.47 114.74 255.55 115.065 252.608 115.259C252.11 115.292 252.11 116.071 252.608 116.038C255.615 115.833 258.611 115.508 261.585 115.065C262.072 114.989 261.866 114.242 261.38 114.307Z" fill="#EA5022"/>
<path d="M252.457 115.292C251.906 115.14 251.354 115.27 250.781 115.13C249.915 114.924 249.093 114.578 248.304 114.156C247.86 113.918 247.471 114.589 247.914 114.827C248.585 115.184 249.266 115.476 249.98 115.714C250.337 115.833 250.705 115.92 251.062 115.995C251.462 116.071 251.851 115.93 252.241 116.039C252.738 116.168 252.944 115.422 252.457 115.292Z" fill="#EA5022"/>
<path d="M247.654 114.058C245.816 114.837 244.052 115.779 242.397 116.904C241.986 117.185 242.376 117.856 242.787 117.575C244.377 116.493 246.086 115.562 247.86 114.816C248.314 114.621 248.119 113.863 247.654 114.058Z" fill="#EA5022"/>
<path d="M242.982 120.529C242.517 120.897 242.084 121.308 241.694 121.762C241.37 122.141 241.922 122.693 242.246 122.314C242.636 121.86 243.068 121.449 243.533 121.081C243.696 120.951 243.674 120.67 243.533 120.529C243.371 120.367 243.144 120.399 242.982 120.529Z" fill="#F65D2F"/>
<path d="M254.566 83.2852C253.831 84.4646 253.355 85.7523 252.879 87.0507C252.371 88.4357 251.873 89.8315 251.44 91.249C251.008 92.6557 250.672 94.0948 250.467 95.5447C250.424 95.8585 250.391 96.1723 250.359 96.4861C250.337 96.735 250.24 97.1353 250.326 97.3842C250.521 97.9252 251.029 97.8819 251.538 97.9468C252.23 98.0442 252.922 98.1524 253.593 98.3472C253.723 98.3905 253.863 98.4338 253.993 98.477C254.285 98.5744 253.798 99.0072 253.755 99.0505C253.517 99.3102 253.268 99.5483 253.02 99.7863C252.576 100.208 252.014 100.544 251.624 101.02C251.321 101.388 251.386 101.875 251.516 102.297C251.722 102.978 252.079 103.617 252.338 104.277C252.609 104.958 252.857 105.651 253.095 106.343C253.593 107.804 254.015 109.287 254.361 110.78C254.426 111.072 254.891 110.953 254.815 110.65C254.188 107.988 253.333 105.391 252.262 102.87C252.133 102.578 252.003 102.286 251.905 101.972C251.754 101.496 252.057 101.182 252.392 100.912C252.933 100.479 253.452 100.014 253.939 99.5158C254.177 99.2669 254.783 98.8125 254.664 98.3905C254.555 98.0009 253.82 97.8927 253.506 97.8062C252.901 97.6331 252.273 97.5573 251.657 97.4707C251.419 97.4383 250.791 97.4924 250.781 97.1245C250.781 96.7566 250.835 96.3887 250.867 96.0208C251.029 94.506 251.397 93.0127 251.819 91.5628C252.219 90.2103 252.695 88.8902 253.171 87.5701C253.679 86.1743 254.166 84.7676 254.956 83.5016C255.129 83.2636 254.718 83.0255 254.566 83.2852Z" fill="#242638"/>
<path d="M267.729 82.5275C267.87 81.5753 268.054 80.6448 268.356 79.7359C268.616 78.9568 269.157 78.2968 269.341 77.4852C269.384 77.2905 269.081 77.1931 269.038 77.3987C268.995 77.5934 268.93 77.7774 268.854 77.9505C268.8 77.8964 268.713 77.8748 268.649 77.9613C267.405 79.5086 267.318 81.5862 266.983 83.4581C266.972 83.5338 267.004 83.5879 267.048 83.6204C266.896 85.2543 266.907 86.8882 267.091 88.522C267.221 89.7123 267.459 90.9025 267.772 92.0603C267.881 92.4607 267.935 92.742 267.534 93.0125C267.21 93.2289 266.875 93.4345 266.55 93.6509C265.955 94.0296 265.371 94.4192 264.776 94.7979C264.517 94.9602 264.755 95.3714 265.014 95.209C265.609 94.8303 266.193 94.4408 266.788 94.0621C267.264 93.7591 267.837 93.4886 268.205 93.0558C268.475 92.7312 268.324 92.2875 268.227 91.9413C268.032 91.2271 267.87 90.5022 267.74 89.7772C267.318 87.4292 267.296 85.0054 267.621 82.6466C267.686 82.6249 267.718 82.5816 267.729 82.5275Z" fill="#242638"/>
<path d="M266.106 95.4147C265.717 95.155 265.187 95.339 264.851 95.0252C264.44 94.6465 264.116 94.0946 263.77 93.6402C263.586 93.4021 263.25 93.7376 263.434 93.9756C263.813 94.4625 264.159 95.0252 264.602 95.4364C264.959 95.7718 265.479 95.5662 265.868 95.8151C266.128 95.9882 266.366 95.577 266.106 95.4147Z" fill="#242638"/>
<path d="M271.006 86.4772C270.367 88.3166 270.011 90.221 269.924 92.1687C269.913 92.4717 270.389 92.4717 270.4 92.1687C270.476 90.2643 270.833 88.4032 271.46 86.607C271.557 86.3149 271.103 86.185 271.006 86.4772Z" fill="#242638"/>
<path d="M282.396 109.47C282.082 112.641 281.357 115.746 280.276 118.743C280.146 119.09 280.016 119.425 279.886 119.761C279.681 120.269 279.486 120.54 278.945 120.68C278.112 120.897 277.29 121.124 276.457 121.34C274.846 121.773 273.202 122.336 271.514 122.39C271.211 122.401 271.211 122.877 271.514 122.866C273.245 122.812 274.921 122.238 276.587 121.795C277.496 121.557 278.394 121.308 279.302 121.07C280.027 120.875 280.178 120.312 280.427 119.674C281.725 116.406 282.536 112.954 282.882 109.459C282.893 109.167 282.417 109.167 282.396 109.47Z" fill="#242638"/>
<path d="M252.662 109.168C252.197 107.079 251.57 105.034 250.834 103.022C250.726 102.74 250.272 102.859 250.38 103.151C250.996 104.818 251.516 106.506 251.948 108.215C252.165 109.07 252.348 109.936 252.521 110.801C252.619 111.321 252.759 111.819 252.5 112.316C252.316 112.673 251.927 112.933 251.613 113.16C251.364 113.333 251.602 113.745 251.851 113.571C252.402 113.171 252.932 112.738 253.106 112.046C253.192 111.678 253.084 111.256 253.019 110.899C252.911 110.325 252.792 109.752 252.662 109.168Z" fill="#242638"/>
<path d="M230.857 233.494C226.811 231.762 223.361 228.711 221.068 224.859C220.938 224.643 220.624 224.837 220.743 225.054C223.09 229.003 226.617 232.098 230.759 233.872C230.986 233.959 231.084 233.591 230.857 233.494Z" fill="#D6DDE5"/>
<path d="M284.343 240.43C280.504 241.155 276.566 241.122 272.748 240.332C272.51 240.289 272.413 240.657 272.651 240.7C276.545 241.501 280.547 241.533 284.452 240.798C284.679 240.754 284.581 240.386 284.343 240.43Z" fill="#D6DDE5"/>
<path d="M265.187 68.3096C264.819 68.5801 264.603 69.1536 264.343 69.5215C263.932 70.0842 263.467 70.6035 262.959 71.0796C261.985 71.9994 260.828 72.7243 259.552 73.1571C257.291 73.9254 254.738 73.3844 253.408 71.296C252.672 70.1383 252.413 68.6126 252.164 67.2925C251.883 65.7776 251.807 64.2411 251.894 62.7046C251.98 61.1898 252.283 59.729 252.618 58.2575C252.932 56.8941 253.278 55.5091 254.154 54.3946C254.284 54.2323 254.003 54.07 253.884 54.2323C253.018 55.3251 252.661 56.6669 252.348 58.0086C252.002 59.5018 251.699 60.9734 251.58 62.499C251.461 64.0572 251.547 65.6261 251.807 67.1735C252.034 68.5585 252.348 70.0841 253.04 71.3177C254.133 73.2978 256.393 74.0661 258.546 73.7306C261.12 73.3303 263.327 71.4908 264.787 69.4241C264.981 69.1536 265.133 68.7424 265.392 68.5477C265.566 68.407 265.349 68.1798 265.187 68.3096Z" fill="#DA4118"/>
<path d="M278.21 72.0535C275.365 69.2186 273.202 65.7128 271.947 61.904C272.759 62.7155 273.894 63.1808 275.041 63.17C274.738 63.17 273.862 61.9473 273.646 61.7092C273.126 61.1249 272.64 60.5298 272.175 59.9022C271.353 58.8093 270.606 57.7381 270.184 56.4613C269.341 53.9618 267.113 51.8626 264.755 50.7914C262.645 49.8284 260.212 49.5904 257.951 50.1097C257.378 50.2396 256.815 50.4235 256.307 50.7049C255.063 51.3974 253.841 52.7824 253.289 54.0916C254.63 54.6218 255.323 56.0718 255.917 57.381C256.512 58.6903 257.248 60.1294 258.611 60.5947C258.34 59.5559 258.33 58.4415 258.589 57.3919C258.643 59.1231 260.049 60.4973 261.455 61.5036C262.591 62.326 263.089 62.9103 263.586 64.2304C264.106 65.6046 264.116 67.1194 264.441 68.5477C265.122 71.5558 267.405 74.2825 270.401 74.9967C270.033 74.1635 269.773 73.2762 269.644 72.3673C271.98 74.6288 275.268 75.8948 278.513 75.7649C277.02 75.0832 275.82 73.774 275.257 72.2266C276.436 72.7027 277.734 72.8975 279 72.7677C278.719 72.5404 278.459 72.3024 278.21 72.0535Z" fill="#242638"/>
<path d="M277.291 181.004C275.928 182.021 274.446 182.4 272.759 182.346C272.348 182.335 272.337 182.962 272.748 182.984C274.619 183.038 276.231 182.595 277.735 181.469C278.059 181.21 277.616 180.755 277.291 181.004Z" fill="#D6DDE5"/>
<path d="M277.205 184.283C275.961 184.867 274.577 184.921 273.235 184.716C272.835 184.661 272.824 185.289 273.224 185.354C274.674 185.57 276.167 185.473 277.508 184.845C277.876 184.661 277.573 184.11 277.205 184.283Z" fill="#D6DDE5"/>
<path d="M286.572 222.879C286.561 221.342 286.582 219.795 286.604 218.259C286.637 214.764 286.658 211.269 286.409 207.785C286.171 204.452 285.555 201.162 284.873 197.895C284.181 194.573 283.532 191.251 282.927 187.907C282.624 186.198 282.353 184.488 282.256 182.757C282.169 181.047 282.386 179.413 282.634 177.725C283.132 174.328 283.5 170.919 283.749 167.489C284.246 160.629 284.235 153.747 283.738 146.887C283.457 143.014 283.002 139.151 282.407 135.309C282.342 134.909 281.726 135.061 281.791 135.461C283.922 149.095 284.03 163.021 282.148 176.687C281.921 178.364 281.607 180.03 281.596 181.729C281.585 183.374 281.802 185.018 282.072 186.641C282.613 189.996 283.262 193.328 283.965 196.65C284.668 199.994 285.371 203.348 285.696 206.757C286.117 211.236 285.998 215.738 285.977 220.228C285.977 220.747 286.171 226.677 285.858 226.774C286.052 226.709 286.258 226.655 286.453 226.59C287.004 226.406 286.593 223.864 286.593 223.431C286.583 223.247 286.572 223.063 286.572 222.879Z" fill="#D6DDE5"/>
<path d="M267.372 127.487C265.133 128.623 262.418 128.277 259.995 128.569C259.584 128.612 259.747 129.229 260.147 129.185C262.645 128.893 265.36 129.218 267.675 128.049C268.032 127.865 267.729 127.303 267.372 127.487Z" fill="#B7C0CA"/>
<path d="M259.055 173.646C257.984 174.101 256.881 174.339 255.713 174.328C254.566 174.317 253.43 174.057 252.316 173.83C251.916 173.754 251.743 174.36 252.143 174.436C253.376 174.685 254.609 174.934 255.864 174.956C257.076 174.977 258.244 174.674 259.358 174.198C259.726 174.047 259.423 173.484 259.055 173.646Z" fill="#D6DDE5"/>
<path d="M259.26 174.285C257.324 175.41 255.182 175.832 252.997 176.157C252.586 176.221 252.749 176.838 253.149 176.773C255.399 176.438 257.584 175.994 259.574 174.836C259.92 174.631 259.617 174.079 259.26 174.285Z" fill="#D6DDE5"/>
<path d="M246.183 221.007C243.122 220.152 240.245 218.529 237.865 216.441C237.562 216.17 237.097 216.614 237.411 216.884C239.877 219.048 242.841 220.736 246.01 221.624C246.399 221.721 246.573 221.115 246.183 221.007Z" fill="#D6DDE5"/>
<path d="M286.756 221.667C283.64 223.669 279.66 223.604 276.134 223.106C275.734 223.052 275.723 223.68 276.123 223.745C279.757 224.253 283.868 224.275 287.069 222.23C287.394 222.003 287.091 221.44 286.756 221.667Z" fill="#D6DDE5"/>
<path d="M333.17 0.0127432L287.789 26.2727L315.003 73.3375L360.385 47.0776L333.17 0.0127432Z" fill="#263238"/>
<path d="M332.567 0.159283L287.832 26.0454L314.965 72.9698L359.7 47.0836L332.567 0.159283Z" fill="#6798CA"/>
<path d="M310.746 20.9059L311.46 20.354L311.092 19.8779L307.252 14.8789L306.463 15.3334L310.378 20.419L310.746 20.9059Z" fill="#0E4669"/>
<path d="M332.71 0.158444L288.199 25.9146L294.081 36.0862L338.591 10.3301L332.71 0.158444Z" fill="#4A78A7"/>
<path d="M318.717 21.2303L318.35 20.7433L315.602 17.1726L315.235 16.6857L313.893 14.9328L313.526 14.4459L311.817 12.2277L308.972 8.52711L308.604 8.04019C307.652 6.80666 305.792 6.63354 304.461 7.66148C303.12 8.68941 302.806 10.5289 303.758 11.7624L304.126 12.2493L306.484 15.3115L307.263 14.857L304.84 11.6975C304.169 10.821 304.396 9.52258 305.337 8.79762C306.279 8.07265 307.598 8.19168 308.269 9.05731L311.049 12.6713L314.542 17.2159L314.91 17.7028L314.932 17.6812L317.679 21.2519C318.642 22.5071 318.361 24.3465 317.052 25.3528C315.743 26.3591 313.893 26.1644 312.931 24.9092L310.237 21.4034L310.259 21.3817L309.891 20.8948L305.868 15.6686L300.016 8.06183C298.848 6.53615 299.237 4.27469 300.881 2.99788C302.525 1.7319 304.818 1.93748 305.986 3.46316L312.444 11.8598L313.223 11.4053L306.7 2.91132L306.333 2.4244C304.883 0.541653 302.049 0.281964 300.005 1.85092C297.961 3.41988 297.485 6.23318 298.934 8.11593L299.302 8.60285L305.078 16.1122L307.403 19.1419L307.771 19.6288L309.167 21.4467L309.534 21.9336L312.228 25.4394L312.595 25.9263C313.839 27.5386 316.219 27.7982 317.906 26.4998C319.594 25.2122 319.951 22.8425 318.717 21.2303Z" fill="#0E4669"/>
<path d="M25.3672 172.781V193.762H53.3169V173.765L25.3672 172.781Z" fill="#E0E0E0"/>
<path d="M34.9941 178.548V181.653H43.55V178.267L34.9941 178.548Z" fill="#F5F5F5"/>
<path d="M43.8204 184.261H34.9941V185.527H43.8204V184.261Z" fill="#F5F5F5"/>
<path d="M25.3672 196.434V217.415H53.3169V197.43L25.3672 196.434Z" fill="#E0E0E0"/>
<path d="M34.9941 202.201V205.307H43.55V201.92L34.9941 202.201Z" fill="#F5F5F5"/>
<path d="M43.8204 207.914H34.9941V209.18H43.8204V207.914Z" fill="#F5F5F5"/>
<path d="M52.9497 221.559H25V242.54H52.9497V221.559Z" fill="#E0E0E0"/>
<path d="M34.8223 231.016V233.927H42.8589V230.756L34.8223 231.016Z" fill="#F5F5F5"/>
<path d="M43.1293 236.383H34.8223V237.573H43.1293V236.383Z" fill="#F5F5F5"/>
</g>
<defs>
<clipPath id="clip0_25727_20983">
<rect width="372" height="244" fill="white" transform="translate(0 0.000488281)"/>
</clipPath>
</defs>
</svg>
