<svg width="496" height="238" viewBox="0 0 496 238" fill="none" xmlns="http://www.w3.org/2000/svg">
<path d="M357.195 121.315H370.673C379.829 121.315 388.551 125.133 394.807 131.84L423.499 162.703L457.697 185.652C460.499 187.531 462.177 190.677 462.177 194.06V217.504C462.177 219.265 460.756 220.689 458.999 220.689H385.038H357.214H197.038C195.617 220.689 194.473 219.542 194.473 218.117V151.584C194.473 148.537 194.769 145.491 195.38 142.503L197.906 129.921C198.913 124.915 203.313 121.295 208.424 121.295H357.195V121.315Z" fill="#B2BFDF"/>
<path d="M188.998 212.597L466.352 212.597V194.376L188.998 194.376V212.597Z" fill="#8296C9"/>
<path d="M197.927 129.921C200.67 129.921 202.722 132.473 202.13 135.164L199.96 145.194C199.723 146.302 199.604 147.43 199.604 148.557V204.308C199.604 208.898 195.895 212.617 191.316 212.617V129.98H197.927" fill="#CAD2EA"/>
<path d="M404.02 220.729C403.961 220.115 403.941 219.482 403.941 218.829C403.941 207.236 413.315 197.819 424.898 197.819C436.462 197.819 445.855 207.216 445.855 218.829C445.855 219.462 445.835 220.095 445.776 220.729H404.02Z" fill="#1F1949"/>
<path d="M424.879 237.268C434.971 237.268 443.152 229.066 443.152 218.948C443.152 208.83 434.971 200.628 424.879 200.628C414.787 200.628 406.605 208.83 406.605 218.948C406.605 229.066 414.787 237.268 424.879 237.268Z" fill="#343766"/>
<path d="M431.848 221.824C433.437 217.978 431.615 213.569 427.779 211.975C423.943 210.382 419.545 212.209 417.955 216.055C416.366 219.901 418.188 224.31 422.024 225.903C425.861 227.497 430.259 225.67 431.848 221.824Z" fill="#CAD2EA"/>
<path d="M424.882 214.615C425.448 214.615 425.908 214.155 425.908 213.586C425.908 213.018 425.448 212.558 424.882 212.558C424.315 212.558 423.855 213.018 423.855 213.586C423.855 214.155 424.315 214.615 424.882 214.615Z" fill="white"/>
<path d="M424.882 225.318C425.448 225.318 425.908 224.858 425.908 224.289C425.908 223.721 425.448 223.261 424.882 223.261C424.315 223.261 423.855 223.721 423.855 224.289C423.855 224.858 424.315 225.318 424.882 225.318Z" fill="white"/>
<path d="M420.382 215.881C420.777 216.277 421.428 216.277 421.842 215.881C422.257 215.486 422.237 214.833 421.842 214.417C421.448 214.022 420.796 214.022 420.382 214.417C419.987 214.833 419.987 215.486 420.382 215.881Z" fill="white"/>
<path d="M428.651 223.755C429.218 223.755 429.677 223.295 429.677 222.727C429.677 222.158 429.218 221.698 428.651 221.698C428.084 221.698 427.625 222.158 427.625 222.727C427.625 223.295 428.084 223.755 428.651 223.755Z" fill="white"/>
<path d="M419.554 219.976C420.126 219.976 420.58 219.521 420.58 218.948C420.58 218.374 420.126 217.919 419.554 217.919C418.981 217.919 418.527 218.374 418.527 218.948C418.527 219.502 418.981 219.976 419.554 219.976Z" fill="white"/>
<path d="M430.229 219.976C430.802 219.976 431.255 219.521 431.255 218.948C431.255 218.374 430.802 217.919 430.229 217.919C429.657 217.919 429.203 218.374 429.203 218.948C429.203 219.502 429.657 219.976 430.229 219.976Z" fill="white"/>
<path d="M421.842 223.459C422.237 223.063 422.237 222.41 421.842 221.995C421.448 221.579 420.796 221.599 420.382 221.995C419.987 222.39 419.987 223.043 420.382 223.459C420.777 223.854 421.428 223.854 421.842 223.459Z" fill="white"/>
<path d="M428.651 216.178C429.218 216.178 429.677 215.718 429.677 215.149C429.677 214.581 429.218 214.121 428.651 214.121C428.084 214.121 427.625 214.581 427.625 215.149C427.625 215.718 428.084 216.178 428.651 216.178Z" fill="white"/>
<path d="M215.11 220.768C215.051 220.155 215.031 219.522 215.031 218.869C215.031 207.276 224.405 197.858 235.988 197.858C247.572 197.858 256.945 207.256 256.945 218.869C256.945 219.502 256.925 220.135 256.866 220.768H215.11Z" fill="#1F1949"/>
<path d="M248.896 231.942C256.032 224.788 256.032 213.188 248.896 206.034C241.76 198.88 230.19 198.88 223.054 206.034C215.918 213.188 215.918 224.788 223.054 231.942C230.19 239.096 241.76 239.096 248.896 231.942Z" fill="#343766"/>
<path d="M242.938 221.869C244.527 218.023 242.705 213.613 238.869 212.02C235.033 210.427 230.634 212.254 229.045 216.1C227.456 219.946 229.278 224.355 233.114 225.948C236.951 227.542 241.349 225.715 242.938 221.869Z" fill="#CAD2EA"/>
<path d="M235.971 214.655C236.538 214.655 236.998 214.194 236.998 213.626C236.998 213.058 236.538 212.597 235.971 212.597C235.405 212.597 234.945 213.058 234.945 213.626C234.945 214.194 235.405 214.655 235.971 214.655Z" fill="white"/>
<path d="M235.971 225.358C236.538 225.358 236.998 224.897 236.998 224.329C236.998 223.761 236.538 223.301 235.971 223.301C235.405 223.301 234.945 223.761 234.945 224.329C234.945 224.897 235.405 225.358 235.971 225.358Z" fill="white"/>
<path d="M231.472 215.921C231.866 216.317 232.518 216.317 232.932 215.921C233.346 215.525 233.327 214.873 232.932 214.457C232.537 214.061 231.886 214.061 231.472 214.457C231.077 214.873 231.077 215.525 231.472 215.921Z" fill="white"/>
<path d="M239.761 223.795C240.327 223.795 240.787 223.334 240.787 222.766C240.787 222.198 240.327 221.738 239.761 221.738C239.194 221.738 238.734 222.198 238.734 222.766C238.734 223.334 239.194 223.795 239.761 223.795Z" fill="white"/>
<path d="M230.643 220.016C231.216 220.016 231.669 219.561 231.669 218.988C231.669 218.414 231.216 217.959 230.643 217.959C230.071 217.959 229.617 218.414 229.617 218.988C229.617 219.541 230.071 220.016 230.643 220.016Z" fill="white"/>
<path d="M241.319 220.016C241.891 220.016 242.345 219.561 242.345 218.988C242.345 218.414 241.891 217.959 241.319 217.959C240.747 217.959 240.293 218.414 240.293 218.988C240.293 219.541 240.747 220.016 241.319 220.016Z" fill="white"/>
<path d="M232.932 223.498C233.326 223.103 233.326 222.45 232.932 222.034C232.537 221.619 231.886 221.639 231.471 222.034C231.057 222.43 231.077 223.083 231.471 223.498C231.866 223.914 232.517 223.894 232.932 223.498Z" fill="white"/>
<path d="M239.761 216.218C240.327 216.218 240.787 215.757 240.787 215.189C240.787 214.621 240.327 214.16 239.761 214.16C239.194 214.16 238.734 214.621 238.734 215.189C238.734 215.757 239.194 216.218 239.761 216.218Z" fill="white"/>
<path d="M362.168 185.059H363.175C363.826 185.059 364.339 184.544 364.339 183.891V175.444C364.339 174.791 363.826 174.276 363.175 174.276H362.168C361.517 174.276 361.004 174.791 361.004 175.444V183.891C361.004 184.524 361.517 185.059 362.168 185.059Z" fill="#343766"/>
<path d="M343.043 185.059H344.05C344.701 185.059 345.214 184.544 345.214 183.891V175.444C345.214 174.791 344.701 174.276 344.05 174.276H343.043C342.392 174.276 341.879 174.791 341.879 175.444V183.891C341.879 184.524 342.412 185.059 343.043 185.059Z" fill="#343766"/>
<path d="M458.368 207.612H462.176V192.734H458.368C456.454 192.734 454.895 194.297 454.895 196.216V204.13C454.875 206.049 456.434 207.612 458.368 207.612Z" fill="#343766"/>
<path d="M208.189 212.597H207.695V132.868C207.695 129.189 210.675 126.201 214.345 126.201H342.376C346.046 126.201 349.026 129.189 349.026 132.868V212.558H348.533V132.868C348.533 129.466 345.77 126.696 342.376 126.696H214.326C210.932 126.696 208.169 129.466 208.169 132.868V212.597H208.189Z" fill="#8296C9"/>
<mask id="mask0_25727_22146" style="mask-type:alpha" maskUnits="userSpaceOnUse" x="211" y="130" width="135" height="40">
<path d="M216.021 169.528H340.539C343.124 169.528 345.215 167.431 345.215 164.839V134.985C345.215 132.393 343.124 130.296 340.539 130.296H216.021C213.435 130.296 211.344 132.393 211.344 134.985V164.839C211.344 167.431 213.435 169.528 216.021 169.528Z" fill="url(#paint0_linear_25727_22146)"/>
</mask>
<g mask="url(#mask0_25727_22146)">
<path d="M216.021 169.528H340.539C343.124 169.528 345.215 167.431 345.215 164.839V134.985C345.215 132.393 343.124 130.296 340.539 130.296H216.021C213.435 130.296 211.344 132.393 211.344 134.985V164.839C211.344 167.431 213.435 169.528 216.021 169.528Z" fill="url(#paint1_linear_25727_22146)"/>
</g>
<mask id="mask1_25727_22146" style="mask-type:alpha" maskUnits="userSpaceOnUse" x="391" y="130" width="28" height="28">
<path d="M418.487 157.301L415.33 156.688C413.258 156.273 411.363 155.165 410.002 153.542L391.827 131.899C391.295 131.266 391.748 130.296 392.577 130.296H393.268L418.487 157.301Z" fill="url(#paint2_linear_25727_22146)"/>
</mask>
<g mask="url(#mask1_25727_22146)">
<path d="M418.487 157.301L415.33 156.688C413.258 156.273 411.363 155.165 410.002 153.542L391.827 131.899C391.295 131.266 391.748 130.296 392.577 130.296H393.268L418.487 157.301Z" fill="url(#paint3_linear_25727_22146)"/>
</g>
<mask id="mask2_25727_22146" style="mask-type:alpha" maskUnits="userSpaceOnUse" x="358" y="130" width="42" height="31">
<path d="M398.752 151.623L388.373 138.962C386.103 136.212 383.341 133.897 380.144 132.295C377.973 131.226 375.427 130.356 372.685 130.257H361.811C360.193 130.257 358.871 131.582 358.871 133.205V156.965C358.871 158.805 360.351 160.309 362.206 160.309H394.648C399.127 160.289 401.594 155.086 398.752 151.623Z" fill="url(#paint4_linear_25727_22146)"/>
</mask>
<g mask="url(#mask2_25727_22146)">
<path d="M398.752 151.623L388.373 138.962C386.103 136.212 383.341 133.897 380.144 132.295C377.973 131.226 375.427 130.356 372.685 130.257H361.811C360.193 130.257 358.871 131.582 358.871 133.205V156.965C358.871 158.805 360.351 160.309 362.206 160.309H394.648C399.127 160.289 401.594 155.086 398.752 151.623Z" fill="url(#paint5_linear_25727_22146)"/>
<path d="M398.755 151.624L402.287 156.827C402.938 157.777 402.859 159.102 402.011 159.874C401.596 160.25 401.044 160.487 400.412 160.487H398.676L398.755 151.624Z" fill="#1F1949"/>
<path d="M397.155 161.753C398.951 161.753 400.411 160.289 400.411 158.489V150.199C400.411 148.399 398.951 146.935 397.155 146.935C397.036 146.935 396.918 147.034 396.918 147.172V161.516C396.918 161.654 397.036 161.753 397.155 161.753Z" fill="#343766"/>
</g>
<mask id="mask3_25727_22146" style="mask-type:alpha" maskUnits="userSpaceOnUse" x="457" y="195" width="6" height="10">
<path d="M459.826 204.467H462.175V195.959H459.826C458.662 195.959 457.715 196.909 457.715 198.076V202.35C457.715 203.517 458.662 204.467 459.826 204.467Z" fill="url(#paint6_linear_25727_22146)"/>
</mask>
<g mask="url(#mask3_25727_22146)">
<path d="M459.826 204.467H462.175V195.959H459.826C458.662 195.959 457.715 196.909 457.715 198.076V202.35C457.715 203.517 458.662 204.467 459.826 204.467Z" fill="url(#paint7_linear_25727_22146)"/>
</g>
<mask id="mask4_25727_22146" style="mask-type:alpha" maskUnits="userSpaceOnUse" x="194" y="196" width="4" height="5">
<path d="M194.473 200.173H197.926V196.276H194.473V200.173Z" fill="url(#paint8_linear_25727_22146)"/>
</mask>
<g mask="url(#mask4_25727_22146)">
<path d="M194.473 200.173H197.926V196.276H194.473V200.173Z" fill="url(#paint9_linear_25727_22146)"/>
</g>
<mask id="mask5_25727_22146" style="mask-type:alpha" maskUnits="userSpaceOnUse" x="194" y="202" width="4" height="4">
<path d="M194.473 205.989H197.926V202.112H194.473V205.989Z" fill="url(#paint10_linear_25727_22146)"/>
</mask>
<g mask="url(#mask5_25727_22146)">
<path d="M194.473 205.989H197.926V202.112H194.473V205.989Z" fill="url(#paint11_linear_25727_22146)"/>
</g>
<path d="M361.045 89.0474C361.045 89.0474 371.74 99.058 372.214 102.243C373.418 110.454 364.735 130.475 364.735 130.475V106.932L353.25 97.8116L361.045 89.0474Z" fill="#DA8C8D"/>
<path d="M283.669 229.79L277.453 228.999L277.335 232.777C277.335 232.777 269.225 233.747 268.277 237.308H282.801L283.669 229.79Z" fill="#1F1949"/>
<path d="M338.074 227.93L330.753 228.682L332.272 232.955C332.272 232.955 325.326 233.747 324.379 237.308H338.903L338.074 227.93Z" fill="#1F1949"/>
<path d="M468.253 26.7082H381.525C379.966 26.7082 378.723 25.4421 378.723 23.8989V2.80931C378.723 1.24638 379.986 0 381.525 0H468.253C469.812 0 471.055 1.26617 471.055 2.80931V23.8791C471.055 25.4421 469.792 26.7082 468.253 26.7082Z" fill="white"/>
<path d="M461.168 9.4169H414.557C414.222 9.4169 413.926 9.13993 413.926 8.78382V6.27127C413.926 5.93494 414.202 5.63818 414.557 5.63818H461.168C461.503 5.63818 461.799 5.91516 461.799 6.27127V8.8036C461.799 9.13993 461.503 9.4169 461.168 9.4169Z" fill="#F2F3F7"/>
<path d="M461.168 15.3124H414.557C414.222 15.3124 413.926 15.0354 413.926 14.6793V12.1668C413.926 11.8304 414.202 11.5337 414.557 11.5337H461.168C461.503 11.5337 461.799 11.8107 461.799 12.1668V14.6991C461.799 15.0354 461.503 15.3124 461.168 15.3124Z" fill="#F2F3F7"/>
<path d="M437.428 21.2279H414.379C414.143 21.2279 413.945 21.0301 413.945 20.7927V17.8845C413.945 17.6471 414.143 17.4492 414.379 17.4492H437.428C437.665 17.4492 437.862 17.6471 437.862 17.8845V20.7729C437.862 21.0301 437.665 21.2279 437.428 21.2279Z" fill="#F2F3F7"/>
<path d="M393.442 21.8016C397.888 21.8016 401.493 18.1877 401.493 13.7298C401.493 9.27184 397.888 5.65796 393.442 5.65796C388.995 5.65796 385.391 9.27184 385.391 13.7298C385.391 18.1877 388.995 21.8016 393.442 21.8016Z" fill="#F2F3F7"/>
<path d="M390.205 10.1292L393.086 13.3737L401.828 4.90625L404.255 7.31988L393.126 18.1812L387.719 12.2461L390.205 10.1292Z" fill="#8296C9"/>
<path d="M468.253 58.0854H381.525C379.966 58.0854 378.723 56.8193 378.723 55.2761V34.2063C378.723 32.6434 379.986 31.397 381.525 31.397H468.253C469.812 31.397 471.055 32.6631 471.055 34.2063V55.2761C471.055 56.839 469.792 58.0854 468.253 58.0854Z" fill="white"/>
<path d="M461.168 40.8141H414.557C414.222 40.8141 413.926 40.5372 413.926 40.181V37.6487C413.926 37.3124 414.202 37.0156 414.557 37.0156H461.168C461.503 37.0156 461.799 37.2926 461.799 37.6487V40.181C461.799 40.5372 461.503 40.8141 461.168 40.8141Z" fill="#F2F3F7"/>
<path d="M461.168 46.7096H414.557C414.222 46.7096 413.926 46.4327 413.926 46.0766V43.5442C413.926 43.2079 414.202 42.9111 414.557 42.9111H461.168C461.503 42.9111 461.799 43.1881 461.799 43.5442V46.0766C461.799 46.4327 461.503 46.7096 461.168 46.7096Z" fill="#F2F3F7"/>
<path d="M437.428 52.6054H414.379C414.143 52.6054 413.945 52.4075 413.945 52.1701V49.2817C413.945 49.0443 414.143 48.8464 414.379 48.8464H437.428C437.665 48.8464 437.862 49.0443 437.862 49.2817V52.1701C437.862 52.4075 437.665 52.6054 437.428 52.6054Z" fill="#F2F3F7"/>
<path d="M393.442 53.179C397.888 53.179 401.493 49.5652 401.493 45.1072C401.493 40.6493 397.888 37.0354 393.442 37.0354C388.995 37.0354 385.391 40.6493 385.391 45.1072C385.391 49.5652 388.995 53.179 393.442 53.179Z" fill="#F2F3F7"/>
<path d="M390.205 41.5066L393.086 44.771L401.828 36.2837L404.255 38.6973L393.126 49.5785L387.719 43.6235L390.205 41.5066Z" fill="#8296C9"/>
<path d="M468.253 89.4826H381.525C379.966 89.4826 378.723 88.2165 378.723 86.6733V65.5837C378.723 64.0208 379.986 62.7744 381.525 62.7744H468.253C469.812 62.7744 471.055 64.0406 471.055 65.5837V86.6536C471.055 88.2165 469.792 89.4826 468.253 89.4826Z" fill="white"/>
<path d="M461.168 72.1913H414.557C414.222 72.1913 413.926 71.9143 413.926 71.5582V69.0457C413.926 68.7094 414.202 68.4126 414.557 68.4126H461.168C461.503 68.4126 461.799 68.6896 461.799 69.0457V71.578C461.799 71.9143 461.503 72.1913 461.168 72.1913Z" fill="#F2F3F7"/>
<path d="M461.168 78.0868H414.557C414.222 78.0868 413.926 77.8099 413.926 77.4537V74.9214C413.926 74.5851 414.202 74.2883 414.557 74.2883H461.168C461.503 74.2883 461.799 74.5653 461.799 74.9214V77.4537C461.799 77.8099 461.503 78.0868 461.168 78.0868Z" fill="#F2F3F7"/>
<path d="M437.428 83.9826H414.379C414.143 83.9826 413.945 83.7847 413.945 83.5473V80.6589C413.945 80.4215 414.143 80.2236 414.379 80.2236H437.428C437.665 80.2236 437.862 80.4215 437.862 80.6589V83.5473C437.862 83.7847 437.665 83.9826 437.428 83.9826Z" fill="#F2F3F7"/>
<path d="M393.442 84.576C397.888 84.576 401.493 80.9621 401.493 76.5042C401.493 72.0463 397.888 68.4324 393.442 68.4324C388.995 68.4324 385.391 72.0463 385.391 76.5042C385.391 80.9621 388.995 84.576 393.442 84.576Z" fill="#F2F3F7"/>
<path d="M390.205 72.9036L393.086 76.1482L401.828 67.6807L404.255 70.0943L393.126 80.9556L387.719 75.0205L390.205 72.9036Z" fill="#8296C9"/>
<path d="M128.919 62.2994H125.249V63.7831H128.604V64.99H125.249V66.7705H129.077V68.0169H123.828V61.0728H128.9V62.2994H128.919Z" fill="#8296C9"/>
<path d="M131.306 68.0169H129.629L131.859 64.4756L129.747 61.0728H131.484L132.727 63.3281L133.99 61.0728H135.667L133.556 64.4162L135.805 68.0169H134.049L132.727 65.6428L131.306 68.0169Z" fill="#8296C9"/>
<path d="M141.274 65.0097C140.859 65.3461 140.287 65.5241 139.537 65.5241H138.097V68.0169H136.656V61.0728H139.636C140.327 61.0728 140.859 61.2508 141.274 61.6069C141.688 61.963 141.886 62.517 141.886 63.2688C141.886 64.0799 141.688 64.6734 141.274 65.0097ZM140.169 62.4972C139.991 62.3389 139.735 62.2598 139.399 62.2598H138.097V64.2975H139.399C139.735 64.2975 139.991 64.2184 140.169 64.0403C140.346 63.8821 140.445 63.6051 140.445 63.249C140.445 62.9127 140.346 62.6555 140.169 62.4972Z" fill="#8296C9"/>
<path d="M147.487 61.2508C147.743 61.3695 147.96 61.5278 148.138 61.7454C148.276 61.9234 148.394 62.1213 148.493 62.3389C148.572 62.5565 148.631 62.7939 148.631 63.0709C148.631 63.4072 148.552 63.7238 148.375 64.0403C148.217 64.3569 147.941 64.5943 147.546 64.713C147.862 64.8515 148.098 65.0295 148.217 65.2669C148.355 65.5043 148.414 65.8604 148.414 66.355V66.8298C148.414 67.1464 148.434 67.364 148.454 67.4827C148.493 67.6608 148.572 67.7993 148.73 67.8784V68.0564H147.131C147.092 67.8982 147.053 67.7795 147.033 67.6806C146.993 67.4827 146.974 67.2849 146.974 67.087V66.4342C146.974 65.9989 146.895 65.7022 146.737 65.5439C146.599 65.4054 146.322 65.3263 145.908 65.3263H144.487V68.0564H143.066V61.1123H146.382C146.855 61.0727 147.23 61.1321 147.487 61.2508ZM144.487 62.2796V64.1392H146.046C146.362 64.1392 146.579 64.0997 146.737 64.0205C147.013 63.882 147.151 63.6249 147.151 63.2292C147.151 62.8137 147.013 62.517 146.757 62.3785C146.599 62.2993 146.382 62.2598 146.086 62.2598H144.487V62.2796Z" fill="#8296C9"/>
<path d="M155.107 62.2994H151.436V63.7831H154.791V64.99H151.436V66.7705H155.265V68.0169H150.016V61.0728H155.107V62.2994Z" fill="#8296C9"/>
<path d="M157.455 65.8605C157.495 66.1771 157.593 66.4145 157.712 66.5728C157.948 66.8497 158.363 67.008 158.935 67.008C159.29 67.008 159.567 66.9684 159.784 66.8893C160.198 66.7508 160.395 66.4738 160.395 66.0782C160.395 65.8407 160.297 65.6627 160.099 65.544C159.902 65.4253 159.586 65.3066 159.133 65.2275L158.383 65.0692C157.652 64.9109 157.139 64.7329 156.863 64.535C156.39 64.2185 156.172 63.7041 156.172 63.0314C156.172 62.4181 156.409 61.884 156.863 61.4883C157.317 61.0728 157.988 60.875 158.876 60.875C159.606 60.875 160.238 61.0728 160.77 61.4487C161.283 61.8444 161.56 62.3984 161.599 63.1304H160.218C160.198 62.7149 160.001 62.4181 159.665 62.2401C159.428 62.1214 159.152 62.062 158.797 62.062C158.422 62.062 158.106 62.1412 157.889 62.2797C157.652 62.4379 157.554 62.6358 157.554 62.9127C157.554 63.1699 157.672 63.348 157.889 63.4667C158.027 63.5458 158.343 63.6447 158.817 63.7634L160.04 64.0602C160.573 64.1789 160.968 64.357 161.244 64.5548C161.658 64.8911 161.856 65.3462 161.856 65.9792C161.856 66.6123 161.619 67.1465 161.126 67.5619C160.632 67.9774 159.942 68.195 159.054 68.195C158.146 68.195 157.416 67.9972 156.903 67.5817C156.39 67.1663 156.113 66.5925 156.113 65.8803H157.455V65.8605Z" fill="#8296C9"/>
<path d="M163.865 65.8605C163.905 66.1771 164.003 66.4145 164.122 66.5728C164.359 66.8497 164.773 67.008 165.345 67.008C165.701 67.008 165.977 66.9684 166.194 66.8893C166.608 66.7508 166.806 66.4738 166.806 66.0782C166.806 65.8407 166.707 65.6627 166.51 65.544C166.312 65.4253 165.997 65.3066 165.543 65.2275L164.793 65.0692C164.063 64.9109 163.55 64.7329 163.273 64.535C162.8 64.2185 162.583 63.7041 162.583 63.0314C162.583 62.4181 162.819 61.884 163.273 61.4883C163.727 61.0728 164.398 60.875 165.286 60.875C166.016 60.875 166.648 61.0728 167.181 61.4487C167.694 61.8444 167.97 62.3984 168.009 63.1304H166.628C166.608 62.7149 166.411 62.4181 166.075 62.2401C165.839 62.1214 165.562 62.062 165.207 62.062C164.832 62.062 164.517 62.1412 164.299 62.2797C164.063 62.4379 163.964 62.6358 163.964 62.9127C163.964 63.1699 164.082 63.348 164.299 63.4667C164.438 63.5458 164.753 63.6447 165.227 63.7634L166.45 64.0602C166.983 64.1789 167.378 64.357 167.654 64.5548C168.069 64.8911 168.266 65.3462 168.266 65.9792C168.266 66.6123 168.029 67.1465 167.536 67.5619C167.042 67.9774 166.352 68.195 165.464 68.195C164.556 68.195 163.826 67.9972 163.313 67.5817C162.8 67.1663 162.523 66.5925 162.523 65.8803H163.865V65.8605Z" fill="#8296C9"/>
<path d="M229.931 23.9189H138.348C132.447 23.9189 127.672 28.7066 127.672 34.622V226.605C127.672 232.52 132.447 237.308 138.348 237.308H229.931C235.831 237.308 240.606 232.52 240.606 226.605V34.622C240.606 28.7066 235.831 23.9189 229.931 23.9189Z" fill="#343766"/>
<path d="M220.38 237.308H128.797C122.897 237.308 118.121 232.52 118.121 226.605V34.622C118.121 28.7066 122.897 23.9189 128.797 23.9189H220.38C226.28 23.9189 231.056 28.7066 231.056 34.622V226.605C231.056 232.5 226.26 237.308 220.38 237.308Z" fill="#8296C9"/>
<path d="M183.439 31.3971H165.718C165.323 31.3971 165.027 31.0806 165.027 30.7047V30.0123C165.027 29.6166 165.343 29.3198 165.718 29.3198H183.439C183.833 29.3198 184.129 29.6364 184.129 30.0123V30.7047C184.129 31.0806 183.833 31.3971 183.439 31.3971Z" fill="white"/>
<path d="M221.684 36.4419H126.727V227.673H221.684V36.4419Z" fill="#F2F3F7"/>
<path d="M235.831 75.5747C235.081 75.5747 234.449 74.9614 234.449 74.1898V57.69C234.449 56.9383 235.061 56.3052 235.831 56.3052C236.58 56.3052 237.212 56.9185 237.212 57.69V74.1898C237.192 74.9416 236.58 75.5747 235.831 75.5747Z" fill="#8296C9"/>
<path d="M235.831 101.373C235.081 101.373 234.449 100.76 234.449 99.9881V83.4884C234.449 82.7366 235.061 82.1035 235.831 82.1035C236.58 82.1035 237.212 82.7168 237.212 83.4884V99.9881C237.192 100.76 236.58 101.373 235.831 101.373Z" fill="#8296C9"/>
<path d="M235.831 127.171C235.081 127.171 234.449 126.558 234.449 125.786V109.286C234.449 108.534 235.061 107.901 235.831 107.901C236.58 107.901 237.212 108.515 237.212 109.286V125.786C237.192 126.558 236.58 127.171 235.831 127.171Z" fill="#B2BFDF"/>
<path d="M173.846 142.523C188.309 142.523 200.033 130.769 200.033 116.27C200.033 101.771 188.309 90.0168 173.846 90.0168C159.384 90.0168 147.66 101.771 147.66 116.27C147.66 130.769 159.384 142.523 173.846 142.523Z" fill="white"/>
<path d="M198.454 115.202C198.533 116.705 198.494 118.209 198.316 119.693C198.138 121.177 197.842 122.66 197.428 124.105C196.56 126.993 195.198 129.723 193.422 132.176C191.626 134.61 189.416 136.727 186.91 138.428C186.594 138.626 186.279 138.844 185.963 139.041L184.976 139.615L183.97 140.149C183.634 140.327 183.279 140.466 182.944 140.624C181.562 141.237 180.122 141.732 178.642 142.108C177.181 142.484 175.662 142.721 174.162 142.84C172.643 142.959 171.123 142.939 169.604 142.8C166.585 142.504 163.605 141.692 160.842 140.387C158.099 139.081 155.573 137.3 153.403 135.144C151.252 132.987 149.476 130.455 148.154 127.705C146.851 124.935 146.042 121.948 145.726 118.921C145.588 117.398 145.568 115.874 145.667 114.351C145.766 112.828 146.003 111.304 146.378 109.84C147.127 106.893 148.371 104.044 150.068 101.511C151.765 98.979 153.876 96.7434 156.323 94.9233C158.77 93.123 161.513 91.7381 164.414 90.8478C165.874 90.4126 167.354 90.1158 168.854 89.9378C170.354 89.7597 171.873 89.7004 173.373 89.7795C176.392 89.9378 179.372 90.6302 182.135 91.7975C183.516 92.3712 184.858 93.0834 186.121 93.8946C187.384 94.7057 188.568 95.6355 189.673 96.6445C188.548 95.6751 187.324 94.7848 186.042 94.033C184.759 93.2615 183.417 92.6086 182.036 92.0547C179.273 90.9665 176.313 90.373 173.353 90.2939C170.393 90.195 167.433 90.6104 164.611 91.5205C161.809 92.4306 159.145 93.8154 156.817 95.596C154.488 97.3963 152.455 99.5725 150.837 102.026C149.219 104.479 148.055 107.229 147.344 110.078C146.989 111.502 146.772 112.966 146.674 114.43C146.575 115.894 146.595 117.378 146.733 118.842C147.048 121.77 147.818 124.639 149.081 127.29C150.344 129.941 152.041 132.374 154.113 134.471C156.185 136.549 158.612 138.27 161.257 139.556C163.901 140.842 166.762 141.633 169.683 141.95C171.143 142.108 172.623 142.128 174.083 142.029C175.544 141.95 177.004 141.732 178.444 141.376C181.306 140.683 184.049 139.516 186.515 137.894C188.982 136.272 191.192 134.254 193.008 131.899C194.823 129.545 196.224 126.894 197.152 124.045C197.606 122.621 197.941 121.177 198.158 119.693C198.395 118.209 198.494 116.705 198.454 115.202Z" fill="#8296C9"/>
<path d="M165.341 106.279L172.899 114.866L195.987 92.49L202.42 98.8802L172.998 127.567L158.73 111.858L165.341 106.279Z" fill="#8296C9"/>
<path d="M144.189 48.0157C144.939 48.2531 145.531 48.7082 146.005 49.361C146.38 49.8952 146.636 50.4689 146.754 51.0822C146.893 51.6955 146.952 52.289 146.952 52.843C146.952 54.2674 146.676 55.4545 146.103 56.4437C145.334 57.7692 144.15 58.4418 142.531 58.4418H137.934V47.7783H142.531C143.202 47.7783 143.755 47.8575 144.189 48.0157ZM140.124 49.638V56.6019H142.176C143.222 56.6019 143.952 56.0876 144.367 55.039C144.584 54.4653 144.702 53.7926 144.702 53.0013C144.702 51.9131 144.525 51.0822 144.189 50.5085C143.854 49.9348 143.183 49.638 142.157 49.638H140.124Z" fill="#8296C9"/>
<path d="M156.502 49.658H150.878V51.9332H156.048V53.7929H150.878V56.5428H156.778V58.4618H148.707V47.7983H156.521V49.658H156.502Z" fill="#8296C9"/>
<path d="M158.496 47.7783H160.726V56.5228H166.034V58.4418H158.496V47.7783Z" fill="#8296C9"/>
<path d="M169.566 58.4418H167.355V47.7783H169.566V58.4418Z" fill="#8296C9"/>
<path d="M177.873 47.7783H180.181L176.55 58.4418H174.459L170.867 47.7783H173.235L175.544 55.8699L177.873 47.7783Z" fill="#8296C9"/>
<path d="M189.377 49.658H183.753V51.9332H188.923V53.7929H183.753V56.5428H189.653V58.4618H181.582V47.7983H189.396V49.658H189.377Z" fill="#8296C9"/>
<path d="M198.198 48.0552C198.593 48.2333 198.928 48.4707 199.185 48.807C199.402 49.084 199.579 49.3808 199.718 49.6973C199.856 50.0336 199.915 50.3897 199.915 50.825C199.915 51.3394 199.796 51.834 199.54 52.3286C199.283 52.8232 198.869 53.1595 198.277 53.3771C198.77 53.5749 199.126 53.8519 199.323 54.2278C199.52 54.5839 199.639 55.1577 199.639 55.8897V56.6019C199.639 57.0965 199.658 57.413 199.698 57.5911C199.757 57.868 199.895 58.0659 200.112 58.2044V58.4813H197.665C197.606 58.2439 197.547 58.0461 197.527 57.9076C197.468 57.6109 197.428 57.2943 197.428 56.9976L197.409 56.0084C197.409 55.3357 197.29 54.8807 197.054 54.6433C196.836 54.4257 196.402 54.3069 195.791 54.3069H193.62V58.5011H191.449V47.8376H196.521C197.231 47.7981 197.803 47.8772 198.198 48.0552ZM193.6 49.638V52.5066H195.988C196.462 52.5066 196.817 52.4473 197.054 52.3286C197.468 52.1307 197.685 51.735 197.685 51.1217C197.685 50.4689 197.488 50.0336 197.073 49.816C196.836 49.6973 196.501 49.6182 196.047 49.6182H193.6V49.638Z" fill="#8296C9"/>
<path d="M207.591 47.7783H210.117L206.565 54.4455V58.4418H204.335V54.4455L200.645 47.7783H203.269L205.479 52.4275L207.591 47.7783Z" fill="#8296C9"/>
<path d="M98.0131 158.924H66.6172V194.495H98.0131V158.924Z" fill="#ED963E"/>
<path d="M129.388 158.924H97.9922V194.495H129.388V158.924Z" fill="#F1B873"/>
<path d="M83.6663 158.924H80.0156V194.495H83.6663V158.924Z" fill="#F9E8D7"/>
<path d="M115.518 158.924H111.867V194.495H115.518V158.924Z" fill="#F2F3F7"/>
<path d="M201.457 194.515H156.898V236.714H201.457V194.515Z" fill="#F1CA89"/>
<path d="M156.899 194.515H131.719V236.714H156.899V194.515Z" fill="#F1B873"/>
<path d="M131.737 194.515H176.295L163.093 170.537H118.535L131.737 194.515Z" fill="#F1CA89"/>
<path d="M201.437 194.515H156.898L170.1 170.537H214.658L201.437 194.515Z" fill="#F1B873"/>
<path d="M182.688 194.515H178.09V236.714H182.688V194.515Z" fill="#F2F3F7"/>
<path d="M178.09 194.515L191.41 170.537H196.028L182.688 194.515H178.09Z" fill="#F9E8D7"/>
<path d="M145.117 180.152H140.52L145.117 170.537H149.715L145.117 180.152Z" fill="#F9E8D7"/>
<path d="M120.747 194.515H86.7266V236.714H120.747V194.515Z" fill="#F1B873"/>
<path d="M131.738 194.515H120.746V236.714H131.738V194.515Z" fill="#F1CA89"/>
<path d="M86.7045 194.515H61.0312V236.714H86.7045V194.515Z" fill="#F1CA89"/>
<path d="M61.0518 194.515H43.0352V236.714H61.0518V194.515Z" fill="#F1B873"/>
<path d="M113.701 209.59H94.4805V220.926H113.701V209.59Z" fill="#F9E8D7"/>
<path d="M118.537 194.337H86.7266V194.693H118.537V194.337Z" fill="#ED963E"/>
<path d="M61.2107 194.515H60.8555V208.423H61.2107V194.515Z" fill="#ED963E"/>
<path d="M131.914 194.515H131.559V229.018H131.914V194.515Z" fill="#ED963E"/>
<path d="M176.296 194.337H156.898V194.693H176.296V194.337Z" fill="#ED963E"/>
<path d="M61.0522 215.268H55.9609V221.817H61.0522V215.268Z" fill="#F9E8D7"/>
<path d="M66.1225 215.268H61.0312V221.817H66.1225V215.268Z" fill="#F2F3F7"/>
<path d="M496 236.516H0V238H496V236.516Z" fill="#343766"/>
<path d="M292.744 125.371C292.744 125.371 281.733 166.66 279.996 181.478C278.26 196.296 277.688 234.874 277.688 234.874H282.404L295.191 183.14L311.017 157.757L314.727 182.684C314.826 183.397 315.023 184.109 315.26 184.782L333.533 234.894H338.664C338.664 234.894 331.54 178.846 331.757 175.285C331.974 171.724 336.237 125.39 336.237 125.39H292.744V125.371Z" fill="#39548B"/>
<path d="M323.965 62.7347C323.965 62.7347 312.934 60.697 283.728 65.9199L281.281 82.5582L300.541 84.6552C300.541 84.6552 292.865 107.387 291.03 128.417C291.03 128.417 314.887 134.847 337.798 129.644L340.659 91.8566L352.105 99.0975L362.859 86.9897C362.859 87.0095 349.46 67.1663 323.965 62.7347Z" fill="#F9DD89"/>
<path d="M320.61 63.1305C320.61 63.1305 299.752 71.3606 282.445 70.1933L283.491 64.456C283.491 64.456 313.427 60.3805 320.866 61.7061C328.286 63.0316 320.866 61.7061 320.866 61.7061L320.61 63.1305Z" fill="#F4C54E"/>
<path d="M295.767 84.1412C295.767 84.1412 301.371 82.9541 303.7 81.0944C306.029 79.2348 297.287 95.596 297.287 102.876C297.287 110.157 299.595 126.261 303.167 128.635C306.739 131.009 330.695 129.723 330.695 129.723L329.353 133.423L286.473 130.435L295.767 84.1412Z" fill="#F4C54E"/>
<path d="M354.315 97.0203C354.315 97.0203 346.263 94.2307 343.955 92.6283C341.646 91.0258 339.258 89.0276 339.258 89.0276L338.863 97.3566H354.137L354.315 97.0203Z" fill="#F4C54E"/>
<path d="M311.037 157.737L307.584 139.714L303.617 169.627L311.037 157.737Z" fill="#343766"/>
<path d="M318.893 41.6653C318.893 41.6653 317.749 44.6131 317.571 47.185C317.472 48.6094 318.242 50.8252 318.952 52.5266C319.564 54.0104 320.906 55.0392 322.485 55.2568L324.872 55.5931L326.609 42.971L318.893 41.6653Z" fill="#343766"/>
<path d="M338.765 44.3954C338.765 44.3954 339.081 47.541 338.568 50.0536C338.272 51.4384 336.93 53.3773 335.805 54.8215C334.819 56.0679 333.24 56.7207 331.661 56.5031L329.273 56.1668L331.01 43.5447L338.765 44.3954Z" fill="#343766"/>
<path d="M335.805 49.1434C335.805 49.1434 337.404 46.1956 338.686 47.9563C339.969 49.7171 337.325 54.5642 335.213 53.5354C333.082 52.5066 335.805 49.1434 335.805 49.1434Z" fill="#C17276"/>
<path d="M320.256 46.987C320.256 46.987 319.526 43.7029 317.809 45.068C316.092 46.4133 317.335 51.7945 319.644 51.379C321.973 50.9636 320.256 46.987 320.256 46.987Z" fill="#C17276"/>
<path d="M331.897 54.94L322.366 53.6145L320.59 63.1108C320.59 63.1108 321.636 66.5729 325.267 67.0873C328.878 67.6017 331.108 64.555 331.108 64.555L331.897 54.94Z" fill="#C17276"/>
<path d="M336.339 37.8865L320.888 41.131C320.809 41.2893 320.73 41.4674 320.671 41.6454C318.322 47.3432 318.974 55.3556 323.966 59.5696C324.795 60.262 325.604 60.5984 326.393 60.6379C327.163 60.816 328.031 60.7171 329.018 60.262C334.977 57.5516 337.76 50.014 337.03 43.9008C337.03 43.7029 336.378 38.0645 336.339 37.8865Z" fill="#DA8C8D"/>
<path d="M337.305 41.6058C337.305 41.6058 336.832 44.2172 330.833 44.7514C324.834 45.2856 321.242 43.8809 321.242 43.8809L333.911 36.8972L338.509 37.6688L337.305 41.6058Z" fill="#C17276"/>
<path d="M318.934 52.5066C318.934 52.5066 324.38 51.4383 327.458 52.2494C330.537 53.0803 335.786 54.8213 335.786 54.8213C335.786 54.8213 333.3 61.1719 326.393 60.618C319.486 60.064 318.934 52.5066 318.934 52.5066Z" fill="#343766"/>
<path d="M337.208 34.3649C337.208 34.3649 344.351 33.5339 338.865 46.7496L337.247 46.5319L335.629 38.1634L337.208 34.3649Z" fill="#343766"/>
<path d="M324.559 54.4453C324.559 54.4453 326.473 54.1288 328.703 55.019C329.965 55.5334 329.137 55.7115 328.189 55.7906C327.183 55.8697 326.177 55.7312 325.229 55.3949C324.302 55.0586 323.453 54.6431 324.559 54.4453Z" fill="#F2F3F7"/>
<path d="M335.607 38.163C335.607 38.163 330.91 38.7169 330.654 41.2295C330.397 43.742 328.444 46.9272 319.603 45.4435C319.603 45.4435 315.578 39.4292 317.886 33.2764C320.195 27.1236 333.693 27.8754 337.205 34.3843L335.765 38.9543" fill="#343766"/>
<path d="M283.49 67.4828L276.88 68.5907L290.239 40.5569L286.766 37.0354C286.766 37.0354 256.081 70.3119 263.895 77.1769C267.349 80.2038 281.497 81.0941 281.497 81.0941L283.49 67.4828Z" fill="#DA8C8D"/>
<path d="M282.583 67.6411C282.583 67.6411 275.262 78.9772 276.13 81.6085L284.063 82.1031L286.253 66.6123L282.583 67.6411Z" fill="#C17276"/>
<path d="M358.063 135.381C358.063 135.381 354.491 138.369 351.945 138.29C349.4 138.191 345.473 135.381 345.473 135.381H358.063Z" fill="#DA8C8D"/>
<path d="M291.879 128.635C291.879 128.635 311.75 133.719 332.372 130.455C332.372 130.455 300.265 143.453 290.004 135.856L291.879 128.635Z" fill="#343766"/>
<path d="M334.678 98.7611L303.164 93.2611L307.801 78.6606L336.711 83.7253L334.678 98.7611Z" fill="white"/>
<path d="M364.734 97.3564H329.352V135.381H364.734V97.3564Z" fill="#F1CA89"/>
<path d="M334.52 97.3563C334.52 97.3563 337.026 125.37 355.299 130.455L366.429 133.165V138.269H328.008V97.02L334.52 97.3563Z" fill="#F1B873"/>
<path d="M349.991 97.3564H344.781V112.887H349.991V97.3564Z" fill="#F2F3F7"/>
<path d="M295.842 41.012L278.22 38.5786C277.411 38.4599 276.839 37.7081 276.957 36.897L280.963 7.85424C281.081 7.0431 281.831 6.46937 282.64 6.58807L300.262 9.02149C301.071 9.14019 301.643 9.89198 301.525 10.7031L297.519 39.7458C297.401 40.557 296.651 41.1307 295.842 41.012Z" fill="#343766"/>
<path d="M299.651 11.2986L283.016 8.99707L279.29 36.0618L295.926 38.3633L299.651 11.2986Z" fill="white"/>
<path d="M294.636 7.65646L293.689 7.51798C293.827 6.37051 293.018 5.32197 291.874 5.1637C290.729 5.00543 289.664 5.79678 289.486 6.94424L288.539 6.80576C288.085 6.74641 287.69 7.06295 287.631 7.49819L287.355 9.4568C287.296 9.91183 287.611 10.3075 288.045 10.3669L294.123 11.2176C294.577 11.2769 294.972 10.9604 295.031 10.5251L295.307 8.56652C295.386 8.13128 295.071 7.71582 294.636 7.65646Z" fill="#B2BFDF"/>
<path d="M297.527 14.1115L288.77 12.8999L288.662 13.6838L297.419 14.8954L297.527 14.1115Z" fill="#F2F3F7"/>
<path d="M297.347 15.4372L288.59 14.2256L288.482 15.0095L297.239 16.2211L297.347 15.4372Z" fill="#F2F3F7"/>
<path d="M294.282 16.3465L288.418 15.5352L288.31 16.3191L294.174 17.1304L294.282 16.3465Z" fill="#F2F3F7"/>
<path d="M287.706 12.766L284.305 12.2954L283.835 15.7054L287.237 16.176L287.706 12.766Z" fill="#F2F3F7"/>
<path d="M284.93 13.8486L285.305 14.4026L286.805 13.3145L287.12 13.7299L285.206 15.1346L284.516 14.1256L284.93 13.8486Z" fill="#8296C9"/>
<path d="M296.914 18.6227L288.156 17.4111L288.048 18.195L296.806 19.4066L296.914 18.6227Z" fill="#F2F3F7"/>
<path d="M296.738 19.9289L287.98 18.7173L287.873 19.5012L296.63 20.7128L296.738 19.9289Z" fill="#F2F3F7"/>
<path d="M293.653 20.8358L287.789 20.0244L287.681 20.8083L293.546 21.6197L293.653 20.8358Z" fill="#F2F3F7"/>
<path d="M287.077 17.2552L283.676 16.7847L283.206 20.1947L286.608 20.6653L287.077 17.2552Z" fill="#F2F3F7"/>
<path d="M284.317 18.3591L284.672 18.9131L286.172 17.8052L286.487 18.2206L284.593 19.6253L283.902 18.6163L284.317 18.3591Z" fill="#8296C9"/>
<path d="M296.285 23.1125L287.527 21.9009L287.419 22.6848L296.177 23.8964L296.285 23.1125Z" fill="#F2F3F7"/>
<path d="M296.105 24.4386L287.348 23.2271L287.24 24.011L295.997 25.2226L296.105 24.4386Z" fill="#F2F3F7"/>
<path d="M293.04 25.3484L287.176 24.5371L287.068 25.321L292.932 26.1324L293.04 25.3484Z" fill="#F2F3F7"/>
<path d="M286.464 21.767L283.062 21.2964L282.593 24.7064L285.994 25.177L286.464 21.767Z" fill="#F2F3F7"/>
<path d="M283.688 22.8506L284.063 23.4045L285.563 22.3164L285.878 22.7319L283.964 24.1365L283.273 23.1275L283.688 22.8506Z" fill="#8296C9"/>
<path d="M295.672 27.6242L286.914 26.4126L286.806 27.1965L295.564 28.4081L295.672 27.6242Z" fill="#F2F3F7"/>
<path d="M295.496 28.9303L286.738 27.7188L286.63 28.5027L295.388 29.7143L295.496 28.9303Z" fill="#F2F3F7"/>
<path d="M292.411 29.8377L286.547 29.0264L286.439 29.8103L292.303 30.6216L292.411 29.8377Z" fill="#F2F3F7"/>
<path d="M285.854 26.2572L282.453 25.7866L281.984 29.1967L285.385 29.6672L285.854 26.2572Z" fill="#F2F3F7"/>
<path d="M283.075 27.3611L283.449 27.915L284.93 26.8071L285.245 27.2226L283.351 28.6272L282.66 27.6183L283.075 27.3611Z" fill="#8296C9"/>
<path d="M295.039 32.133L286.281 30.9214L286.173 31.7053L294.931 32.9169L295.039 32.133Z" fill="#F2F3F7"/>
<path d="M294.863 33.4391L286.105 32.2275L285.998 33.0115L294.755 34.223L294.863 33.4391Z" fill="#F2F3F7"/>
<path d="M291.798 34.3484L285.934 33.5371L285.826 34.321L291.69 35.1324L291.798 34.3484Z" fill="#F2F3F7"/>
<path d="M285.222 30.7665L281.82 30.2959L281.351 33.7059L284.752 34.1765L285.222 30.7665Z" fill="#F2F3F7"/>
<path d="M282.465 31.8525L282.821 32.4065L284.32 31.3184L284.636 31.7338L282.722 33.1385L282.031 32.1295L282.465 31.8525Z" fill="#8296C9"/>
<path d="M288.817 43.1883C288.817 43.1883 292.409 41.4869 292.764 41.2692C293.573 40.7944 295.546 36.2639 294.915 36.0265C293.79 35.5913 291.126 38.4401 290.494 38.9347C290.179 39.1919 285.462 40.0228 285.462 40.0228L283.41 43.9994L288.817 43.1883Z" fill="#DA8C8D"/>
<defs>
<linearGradient id="paint0_linear_25727_22146" x1="200.073" y1="150.466" x2="498.391" y2="148.341" gradientUnits="userSpaceOnUse">
<stop/>
<stop offset="0.00468856" stop-color="#020202"/>
<stop offset="0.1251" stop-color="#3D3D3D"/>
<stop offset="0.2486" stop-color="#717171"/>
<stop offset="0.3722" stop-color="#9C9C9C"/>
<stop offset="0.4961" stop-color="#C0C0C0"/>
<stop offset="0.6205" stop-color="#DCDCDC"/>
<stop offset="0.7454" stop-color="#EFEFEF"/>
<stop offset="0.8713" stop-color="#FBFBFB"/>
<stop offset="1" stop-color="white"/>
</linearGradient>
<linearGradient id="paint1_linear_25727_22146" x1="200.073" y1="150.466" x2="498.391" y2="148.341" gradientUnits="userSpaceOnUse">
<stop stop-color="#F2F3F7"/>
<stop offset="0.0401759" stop-color="#F1F2F6"/>
<stop offset="0.5144" stop-color="#E5E8F1"/>
<stop offset="1" stop-color="#E1E5EF"/>
</linearGradient>
<linearGradient id="paint2_linear_25727_22146" x1="418.492" y1="143.796" x2="391.597" y2="143.796" gradientUnits="userSpaceOnUse">
<stop/>
<stop offset="0.00468856" stop-color="#020202"/>
<stop offset="0.1251" stop-color="#3D3D3D"/>
<stop offset="0.2486" stop-color="#717171"/>
<stop offset="0.3722" stop-color="#9C9C9C"/>
<stop offset="0.4961" stop-color="#C0C0C0"/>
<stop offset="0.6205" stop-color="#DCDCDC"/>
<stop offset="0.7454" stop-color="#EFEFEF"/>
<stop offset="0.8713" stop-color="#FBFBFB"/>
<stop offset="1" stop-color="white"/>
</linearGradient>
<linearGradient id="paint3_linear_25727_22146" x1="418.492" y1="143.796" x2="391.597" y2="143.796" gradientUnits="userSpaceOnUse">
<stop stop-color="#F2F3F7"/>
<stop offset="0.0401759" stop-color="#F1F2F6"/>
<stop offset="0.5144" stop-color="#E5E8F1"/>
<stop offset="1" stop-color="#E1E5EF"/>
</linearGradient>
<linearGradient id="paint4_linear_25727_22146" x1="344.341" y1="145.053" x2="465.075" y2="146.222" gradientUnits="userSpaceOnUse">
<stop/>
<stop offset="0.00468856" stop-color="#020202"/>
<stop offset="0.1251" stop-color="#3D3D3D"/>
<stop offset="0.2486" stop-color="#717171"/>
<stop offset="0.3722" stop-color="#9C9C9C"/>
<stop offset="0.4961" stop-color="#C0C0C0"/>
<stop offset="0.6205" stop-color="#DCDCDC"/>
<stop offset="0.7454" stop-color="#EFEFEF"/>
<stop offset="0.8713" stop-color="#FBFBFB"/>
<stop offset="1" stop-color="white"/>
</linearGradient>
<linearGradient id="paint5_linear_25727_22146" x1="344.341" y1="145.053" x2="465.075" y2="146.222" gradientUnits="userSpaceOnUse">
<stop stop-color="#F2F3F7"/>
<stop offset="0.0401759" stop-color="#F1F2F6"/>
<stop offset="0.5144" stop-color="#E5E8F1"/>
<stop offset="1" stop-color="#E1E5EF"/>
</linearGradient>
<linearGradient id="paint6_linear_25727_22146" x1="462.175" y1="200.212" x2="457.716" y2="200.212" gradientUnits="userSpaceOnUse">
<stop/>
<stop offset="0.1212" stop-color="#131313"/>
<stop offset="0.3368" stop-color="#2E2E2E"/>
<stop offset="0.555" stop-color="#424242"/>
<stop offset="0.775" stop-color="#4E4E4E"/>
<stop offset="1" stop-color="#525252"/>
</linearGradient>
<linearGradient id="paint7_linear_25727_22146" x1="462.175" y1="200.212" x2="457.716" y2="200.212" gradientUnits="userSpaceOnUse">
<stop stop-color="#F2F3F7"/>
<stop offset="0.0401759" stop-color="#F1F2F6"/>
<stop offset="0.5144" stop-color="#E5E8F1"/>
<stop offset="1" stop-color="#E1E5EF"/>
</linearGradient>
<linearGradient id="paint8_linear_25727_22146" x1="197.918" y1="198.222" x2="194.48" y2="198.222" gradientUnits="userSpaceOnUse">
<stop/>
<stop offset="0.1212" stop-color="#131313"/>
<stop offset="0.3368" stop-color="#2E2E2E"/>
<stop offset="0.555" stop-color="#424242"/>
<stop offset="0.775" stop-color="#4E4E4E"/>
<stop offset="1" stop-color="#525252"/>
</linearGradient>
<linearGradient id="paint9_linear_25727_22146" x1="197.918" y1="198.222" x2="194.48" y2="198.222" gradientUnits="userSpaceOnUse">
<stop stop-color="#F2F3F7"/>
<stop offset="0.0401759" stop-color="#F1F2F6"/>
<stop offset="0.5144" stop-color="#E5E8F1"/>
<stop offset="1" stop-color="#E1E5EF"/>
</linearGradient>
<linearGradient id="paint10_linear_25727_22146" x1="197.918" y1="204.054" x2="194.48" y2="204.054" gradientUnits="userSpaceOnUse">
<stop/>
<stop offset="0.1212" stop-color="#131313"/>
<stop offset="0.3368" stop-color="#2E2E2E"/>
<stop offset="0.555" stop-color="#424242"/>
<stop offset="0.775" stop-color="#4E4E4E"/>
<stop offset="1" stop-color="#525252"/>
</linearGradient>
<linearGradient id="paint11_linear_25727_22146" x1="197.918" y1="204.054" x2="194.48" y2="204.054" gradientUnits="userSpaceOnUse">
<stop stop-color="#F2F3F7"/>
<stop offset="0.0401759" stop-color="#F1F2F6"/>
<stop offset="0.5144" stop-color="#E5E8F1"/>
<stop offset="1" stop-color="#E1E5EF"/>
</linearGradient>
</defs>
</svg>
