<svg width="412" height="227" viewBox="0 0 412 227" fill="none" xmlns="http://www.w3.org/2000/svg">
<g clip-path="url(#clip0_25727_21904)">
<path d="M81.5209 59.1899L80.8781 59.6188C80.8781 59.6188 86.4486 63.9079 83.6633 74.9523C81.3066 83.8522 78.3071 88.1413 80.3425 99.9363L81.8422 94.5749C80.5567 91.4653 83.7705 77.4186 84.5203 75.0596C85.2702 72.915 87.6269 66.4814 81.5209 59.1899Z" fill="#8C7F31"/>
<path d="M92.234 75.7025C92.234 75.7025 79.0577 92.9661 77.3438 108.514C77.8794 110.337 77.7723 110.444 78.5221 111.945C79.4862 92.8589 93.091 75.3809 93.091 75.3809L92.234 75.7025Z" fill="#7A6C29"/>
<path d="M87.7341 105.298L87.1985 105.19C87.1985 105.19 77.5573 121.811 79.914 135.536L81.4137 135.429C79.1641 121.275 87.7341 105.298 87.7341 105.298Z" fill="#7A6C29"/>
<path d="M70.9174 87.1763L70.7031 88.6774C70.7031 88.6774 77.0235 100.258 79.7016 126.529L80.6657 123.741C79.7016 105.619 70.9174 87.1763 70.9174 87.1763Z" fill="#8C7F31"/>
<path d="M71.1322 111.945L70.918 112.589C70.918 112.589 77.2383 117.736 79.9164 129.423L80.8805 128.244C79.9164 120.095 71.1322 111.945 71.1322 111.945Z" fill="#7A6C29"/>
<path d="M81.3089 128.137C81.3089 128.137 74.5601 129.531 70.168 132.64C76.5954 134.141 82.7015 133.927 88.5933 131.782L81.3089 128.137Z" fill="#593222"/>
<path d="M69.0977 132.104C69.5262 136.286 72.2043 148.295 72.2043 148.295L86.1304 148.188L89.8798 131.032L69.0977 132.104Z" fill="#9B5D3E"/>
<path d="M84.7378 131.246C84.8449 138.859 81.9526 144.757 77.989 144.757C74.2396 144.757 70.5974 139.288 69.5262 132.104H69.0977C69.5262 136.286 72.2043 148.295 72.2043 148.295L86.1304 148.188L89.8798 131.032L84.7378 131.246Z" fill="#874C32"/>
<path d="M68.2392 165.881L67.168 147.009L95.1274 145.937L104.019 148.939V168.24L68.2392 165.881Z" fill="#DDB164"/>
<path d="M94.4847 146.044L67.168 147.009L68.2392 165.881L92.4493 167.489L94.4847 146.044Z" fill="#E8C47C"/>
<path d="M94.4824 146.044H93.9468C88.4834 149.261 79.6993 155.48 79.6993 155.48L67.38 147.009H67.0586V147.116L78.628 156.123L68.1298 164.165V164.38L80.2349 156.767L92.7684 163.629V163.415L81.199 155.909L94.3753 146.795L94.4824 146.044Z" fill="#DDB164"/>
<path d="M51.7422 211.131H104.019L102.84 164.38L95.0204 161.377L58.9195 163.951L51.7422 211.131Z" fill="#E0A361"/>
<path d="M102.84 164.38L95.0204 161.377L94.0563 176.711L56.8842 177.462L51.7422 211.131H104.019L102.84 164.38Z" fill="#CE8D5B"/>
<path d="M104.018 211.131L102.947 164.38L95.3414 161.484L94.4844 211.131H104.018Z" fill="#C9794C"/>
<path d="M134.979 115.699H133.051V141.004H134.979V115.699Z" fill="#513642"/>
<path d="M108.518 115.699H106.59V141.004H108.518V115.699Z" fill="#513642"/>
<path d="M134.979 115.913H133.051V122.883L134.979 120.524V115.913Z" fill="#3A252F"/>
<path d="M108.518 115.913H106.59V122.883L108.518 120.953V115.913Z" fill="#3A252F"/>
<path d="M134.551 138.752H105.734V146.151H134.551V138.752Z" fill="#3A252F"/>
<path d="M134.87 136.93H133.049C131.978 136.93 131.121 137.788 131.121 138.86V140.683C131.121 141.755 131.978 142.613 133.049 142.613H134.87C135.942 142.613 136.799 141.755 136.799 140.683V138.86C136.906 137.788 135.942 136.93 134.87 136.93Z" fill="#3A252F"/>
<path d="M108.413 136.93H106.592C105.521 136.93 104.664 137.788 104.664 138.86V140.683C104.664 141.755 105.521 142.613 106.592 142.613H108.413C109.485 142.613 110.342 141.755 110.342 140.683V138.86C110.342 137.788 109.485 136.93 108.413 136.93Z" fill="#3A252F"/>
<path d="M144.406 211.131C141.085 211.131 103.377 211.131 101.449 211.131C99.6275 211.131 101.556 142.827 103.163 141.541C105.519 139.61 137.335 139.074 139.049 140.683C140.978 142.184 147.405 211.131 144.406 211.131Z" fill="#723B50"/>
<path d="M106.912 150.869C119.231 146.902 132.408 151.084 142.049 160.627C140.87 149.69 139.692 141.111 139.156 140.575C137.443 138.967 105.627 139.503 103.27 141.433C102.841 141.755 102.413 146.366 101.984 153.014C103.591 152.156 105.198 151.512 106.912 150.869Z" fill="#602F43"/>
<path d="M146.55 208.772C144.514 209.415 109.806 208.772 107.985 208.772C106.164 208.772 105.2 142.184 106.699 140.897C108.199 139.61 138.408 139.181 140.122 140.682C141.729 142.184 149.335 207.914 146.55 208.772Z" fill="#96536D"/>
<path d="M136.801 113.769H104.342C103.271 113.769 103.271 117.736 104.342 117.736H136.694C137.765 117.736 138.729 116.878 138.729 115.699C138.729 114.734 137.872 113.769 136.801 113.769Z" fill="#684355"/>
<path d="M105.948 201.481C105.948 196.119 104.02 191.83 101.556 191.83C99.0923 191.83 97.1641 196.119 97.1641 201.481C97.1641 206.842 99.0923 211.131 101.556 211.131C103.913 211.131 105.948 206.735 105.948 201.481Z" fill="#513642"/>
<path d="M144.728 206.199C142.906 206.627 112.269 206.199 110.662 206.199C109.055 206.199 109.269 158.053 110.555 157.088C111.947 156.123 138.621 155.909 140.014 156.981C141.514 158.053 147.191 205.662 144.728 206.199Z" fill="#B26985"/>
<path d="M144.727 206.198C145.905 205.877 145.262 195.047 144.084 183.466C135.621 172.529 121.695 166.524 111.518 169.956C110.875 170.17 110.233 170.384 109.697 170.706C109.376 185.182 109.697 206.091 110.768 206.091C112.268 206.198 142.906 206.627 144.727 206.198Z" fill="#AD607F"/>
<path d="M139.048 153.872C137.441 153.979 111.839 153.872 110.446 153.872C109.053 153.872 109.482 141.755 110.66 141.54C111.839 141.326 136.477 141.219 137.656 141.54C138.727 141.862 141.191 153.764 139.048 153.872Z" fill="#B26985"/>
<path d="M109.699 150.762C109.806 152.585 110.021 153.872 110.556 153.872C111.949 153.872 137.552 153.979 139.158 153.872C140.23 153.764 140.123 150.869 139.694 147.974C136.373 147.116 132.302 146.58 127.91 146.58C119.662 146.687 112.699 148.296 109.699 150.762Z" fill="#AD607F"/>
<path d="M103.592 201.48C103.592 197.406 102.2 194.189 100.486 194.189C98.7715 194.189 97.3789 197.513 97.3789 201.48C97.3789 205.448 98.7715 208.772 100.486 208.772C102.2 208.772 103.592 205.448 103.592 201.48Z" fill="#6D4759"/>
<path d="M136.479 205.233C129.516 205.233 120.411 205.126 115.697 205.126C114.198 205.126 113.126 205.126 112.912 205.126C112.805 205.126 112.698 205.126 112.591 204.912C111.091 202.982 111.305 163.2 112.377 158.375V158.161H112.591C118.161 157.625 137.658 157.41 139.05 158.482C140.229 159.34 142.478 179.07 142.586 179.928C143.764 190.007 144.728 201.909 143.978 204.912L143.871 205.126H143.657C142.05 205.126 139.479 205.233 136.479 205.233ZM112.912 204.376C113.341 204.376 114.198 204.376 115.59 204.376C122.232 204.483 137.658 204.59 143.335 204.483C144.407 198.049 139.907 160.52 138.515 158.911C137.551 158.161 119.875 158.054 112.698 158.697C111.734 164.702 111.841 202.017 112.912 204.376Z" fill="#CEA1B5"/>
<path d="M140.333 165.881L112.052 166.095L111.945 166.846L140.655 166.739L140.333 165.881Z" fill="#CEA1B5"/>
<path d="M130.693 152.692C125.444 152.692 118.588 152.692 115.053 152.692H112.91C112.375 152.692 112.053 151.942 111.946 150.44C111.839 148.725 111.839 143.042 113.017 142.827C114.196 142.613 135.192 142.613 136.156 142.827C137.228 143.042 138.513 148.725 138.406 151.084C138.299 152.156 137.977 152.692 137.442 152.799C137.013 152.585 134.228 152.692 130.693 152.692ZM115.053 151.942C120.838 151.942 136.263 152.049 137.335 151.942C137.549 151.942 137.656 151.62 137.656 151.406C138.192 149.261 136.585 143.685 136.049 143.256C135.192 143.042 114.196 143.149 113.232 143.256C112.91 143.471 112.482 145.937 112.589 148.939C112.589 151.084 112.91 151.834 113.017 151.834L115.053 151.942Z" fill="#CEA1B5"/>
<path d="M105.626 158.804C106.483 156.123 110.768 155.48 110.768 155.48C110.768 155.48 105.947 153.872 105.733 153.121C104.662 155.051 104.876 156.981 105.626 158.804Z" fill="#723B50"/>
<path d="M142.907 156.766C142.693 155.372 142.586 154.086 142.371 152.906C141.193 154.729 138.301 155.265 138.301 155.265C138.301 155.265 141.3 156.123 142.907 156.766Z" fill="#723B50"/>
<path d="M140.551 167.275L139.801 167.06V165.666L140.872 165.559L141.086 166.953L140.551 167.275Z" fill="#723B50"/>
<path d="M141.62 169.527C140.977 169.741 139.691 169.419 139.691 169.419L139.906 166.846L140.656 166.739L141.62 169.527Z" fill="#723B50"/>
<path d="M114.195 144.543L113.445 144.329V142.935H114.517L114.731 144.221L114.195 144.543Z" fill="#723B50"/>
<path d="M115.268 146.902C114.625 147.116 113.34 146.794 113.34 146.794L113.554 144.221L114.304 144.114L115.268 146.902Z" fill="#723B50"/>
<path d="M108.413 136.93H106.591C106.591 136.93 106.591 136.93 106.484 136.93V137.359C106.484 138.431 107.341 139.289 108.413 139.289H110.234C110.234 139.289 110.234 139.289 110.341 139.289V138.86C110.341 137.788 109.484 136.93 108.413 136.93Z" fill="#513642"/>
<path d="M133.158 136.93C132.836 136.93 132.515 137.037 132.301 137.144C132.408 138.109 133.265 138.86 134.229 138.86H136.05C136.372 138.86 136.693 138.753 136.907 138.645C136.8 137.68 135.943 136.93 134.979 136.93H133.158Z" fill="#513642"/>
<path d="M105.842 115.806C105.842 114.734 105.092 113.769 104.128 113.769C103.164 113.769 102.414 114.626 102.414 115.806C102.414 116.878 103.164 117.843 104.128 117.843C104.985 117.843 105.842 116.878 105.842 115.806Z" fill="#513342"/>
<path d="M103.058 201.48C103.058 198.478 101.987 196.012 100.808 196.012C99.5227 196.012 98.5586 198.478 98.5586 201.48C98.5586 204.483 99.6298 206.949 100.808 206.949C102.094 206.949 103.058 204.483 103.058 201.48Z" fill="#513642"/>
<path d="M64.2768 174.888C63.2055 174.459 49.6007 173.708 48.6366 174.566C47.6725 175.424 48.4224 181.536 48.4224 181.536L65.2409 179.713C65.2409 179.82 65.348 175.424 64.2768 174.888Z" fill="#8C7F31"/>
<path d="M61.9202 178.641C62.4558 178.104 62.3487 176.282 62.2416 174.566C58.1709 174.137 49.3867 173.815 48.6368 174.566C48.1012 175.102 48.1012 177.354 48.2083 179.177C52.1719 179.391 61.1704 179.391 61.9202 178.641Z" fill="#AA9943"/>
<path d="M54.3125 180.999L59.9901 180.356V174.459C58.2761 174.351 56.2407 174.244 54.3125 174.244V180.999Z" fill="#513642"/>
<path d="M90.8408 211.131H39.7425L38.457 182.287L69.7373 179.284L92.2334 180.678L90.8408 211.131Z" fill="#E8C47C"/>
<path d="M70.0586 211.131H90.8407L92.2333 180.678L70.0586 179.284V211.131Z" fill="#DDB164"/>
<path d="M74.774 98.1134C66.097 95.6472 52.9207 78.8125 52.4922 70.7705C52.4922 70.7705 65.8827 76.8825 70.5962 83.2089C75.7382 90.0714 74.774 98.1134 74.774 98.1134Z" fill="#8C7F31"/>
<path d="M83.9872 114.09C80.9877 108.3 89.022 97.148 98.0205 95.0034C96.5207 101.437 90.2004 111.302 83.9872 114.09Z" fill="#8C7F31"/>
<path d="M77.3461 119.452C68.9904 118.272 59.7777 108.085 58.4922 104.333C58.4922 104.333 67.0621 104.976 70.9186 108.193C76.5962 112.803 77.3461 119.452 77.3461 119.452Z" fill="#8C7F31"/>
<path d="M87.3072 84.0665C86.1288 76.6678 89.2355 67.3391 104.768 64.7656C95.1273 80.8497 87.3072 84.0665 87.3072 84.0665Z" fill="#8C7F31"/>
<path d="M84.6298 64.1222C76.7026 62.9427 69.6324 53.5067 63.8477 53.7211C72.2034 51.7911 78.4166 54.2573 81.8445 57.0452C85.1654 59.9403 84.6298 64.1222 84.6298 64.1222Z" fill="#8C7F31"/>
<path d="M70.0587 179.284H69.7373L54.3114 197.084L38.6713 182.287H38.457V182.394L54.7399 200.515L70.0587 179.284Z" fill="#DDB164"/>
<path d="M39.7437 211.131H54.0984C56.348 208.879 57.7406 205.662 57.5263 202.124C57.0978 195.476 51.6345 190.114 45.2071 190.114C42.8503 190.114 40.7078 190.865 38.8867 192.152L39.7437 211.131Z" fill="#DDB164"/>
<path d="M70.0581 207.27L38.3493 202.552L38.2422 198.371L70.0581 201.373L70.4866 204.375L70.0581 207.27Z" fill="#F7D7A9"/>
<path d="M39.4213 202.66L57.311 205.341C57.5253 204.268 57.6324 203.196 57.5253 202.124C57.5253 201.48 57.4182 200.837 57.2039 200.194L39.207 198.478L39.4213 202.66Z" fill="#E8C387"/>
<path d="M42.9517 210.803C49.17 209.333 53.0207 203.096 51.5524 196.872C50.084 190.647 43.8527 186.793 37.6344 188.263C31.416 189.732 27.5653 195.97 29.0337 202.194C30.502 208.418 36.7333 212.273 42.9517 210.803Z" fill="#8C7F31"/>
<path d="M28.7109 199.55C28.7109 201.266 29.1394 202.982 29.7822 204.375C31.6033 205.555 33.7458 206.306 36.1025 206.306C42.53 206.306 47.6719 201.159 47.6719 194.725C47.6719 193.009 47.2434 191.294 46.6007 189.9C44.7796 188.72 42.6371 187.97 40.2804 187.97C33.8529 187.97 28.7109 193.117 28.7109 199.55Z" fill="#A3913A"/>
<path opacity="0.77" d="M39.3162 202.874C35.2455 202.874 31.6033 201.802 28.7109 200.087C28.7109 200.623 28.8181 201.266 28.9252 201.802C31.8175 203.518 35.4598 204.483 39.4234 204.483C44.244 204.483 48.6361 202.982 51.7427 200.515C51.7427 200.194 51.7427 199.872 51.7427 199.55C51.7427 199.336 51.7427 199.121 51.7427 198.8C48.7432 201.266 44.244 202.874 39.3162 202.874Z" fill="#FFEABB"/>
<path d="M36.1009 197.405C37.7078 195.368 38.0292 192.795 36.6366 191.722C35.244 190.65 32.7801 191.401 31.1732 193.545C29.5664 195.583 29.245 198.156 30.6376 199.228C32.0302 200.301 34.387 199.443 36.1009 197.405Z" fill="#BCA440"/>
<path d="M38.8883 191.615C40.1738 191.508 41.1379 190.757 41.0308 190.007C40.9237 189.149 39.9595 188.613 38.6741 188.613C37.3886 188.72 36.4244 189.471 36.5316 190.221C36.5316 191.079 37.6028 191.722 38.8883 191.615Z" fill="#BCA440"/>
<path d="M45.9573 208.986C47.0285 208.343 47.9926 207.163 47.7784 206.413C47.5641 205.555 46.1715 205.876 44.9932 206.841C44.029 207.592 43.6005 208.557 43.9219 209.093C44.2433 209.522 44.9932 209.522 45.9573 208.986Z" fill="#A3913A"/>
<path d="M49.3865 205.34C49.7079 204.804 49.9221 204.054 49.6008 203.732C49.2794 203.41 48.7438 203.839 48.4224 204.59C48.2082 205.233 48.2082 205.769 48.4224 205.877C48.7438 205.984 49.1723 205.769 49.3865 205.34Z" fill="#A3913A"/>
<path d="M75.3103 179.606H72.418L84.7373 211.131H88.9151L75.3103 179.606Z" fill="#E8C387"/>
<path d="M85.485 180.357L82.9141 180.142L91.3769 200.837L91.484 194.189L85.485 180.357Z" fill="#E8C387"/>
<path d="M90.3051 180.571L70.0586 207.271V201.159L87.3056 180.464L90.3051 180.571Z" fill="#E8C387"/>
<path d="M98.0179 94.8965C94.4828 95.7543 91.0549 98.0061 88.4839 100.794C86.9841 104.869 86.6628 108.943 87.4126 111.838C92.3404 107.764 96.7325 100.258 98.0179 94.8965Z" fill="#AF9B38"/>
<path d="M72.954 118.058C74.2395 116.235 74.2395 113.232 72.8468 109.908C72.3112 109.265 71.6685 108.622 70.9186 107.978C67.0621 104.762 58.4922 104.118 58.4922 104.118C59.5634 107.442 65.9909 114.948 72.954 118.058Z" fill="#AF9B38"/>
<path d="M59.7766 85.5679C65.4542 91.1437 71.4532 93.8244 74.3455 91.8943C73.8099 89.3208 72.7387 86.2112 70.5962 83.3161C65.7756 76.9897 52.4922 70.7705 52.4922 70.7705C52.7064 74.5235 55.7059 80.3137 59.7766 85.5679Z" fill="#AF9B38"/>
<path d="M81.7352 57.1526C78.3072 54.3647 72.094 51.8985 63.7383 53.8286C68.0233 53.6141 73.1652 58.8682 78.7357 62.0851C80.8782 61.4417 82.2708 60.4767 82.5922 59.0827C82.6993 58.6538 82.5922 58.2249 82.485 57.796C82.2708 57.5815 82.0565 57.3671 81.7352 57.1526Z" fill="#AF9B38"/>
<path d="M88.0563 75.7028C87.9492 77.7401 88.4848 79.563 89.7703 80.7425C90.1988 81.0642 90.6273 81.3858 91.0558 81.6003C94.2695 79.0268 99.1972 73.9872 104.768 64.7656C94.8051 66.374 89.9845 70.7703 88.0563 75.7028Z" fill="#AF9B38"/>
<path d="M83.8794 63.5859C81.7369 58.8679 70.7031 54.686 70.7031 54.686C70.7031 54.686 80.5586 57.5812 82.2726 60.1546C83.9865 62.7281 83.8794 63.5859 83.8794 63.5859Z" fill="#8C7F31"/>
<path d="M73.4884 96.6121C70.1675 87.9267 58.0625 76.8823 58.0625 76.8823C58.0625 76.8823 68.4536 84.8171 70.9174 89.964C73.3813 95.0037 73.4884 96.6121 73.4884 96.6121Z" fill="#8C7F31"/>
<path d="M88.0586 82.5651C90.3082 71.8424 99.628 68.4111 99.628 68.4111C94.8074 71.9496 90.6296 76.2387 88.0586 82.5651Z" fill="#8C7F31"/>
<path d="M84.5234 111.946C86.9873 104.44 94.486 99.1855 94.486 99.1855C90.6295 103.796 87.5229 108.193 84.5234 111.946Z" fill="#8C7F31"/>
<path d="M76.4863 118.486C72.9512 112.053 65.2383 108.622 65.2383 108.622C69.5233 111.946 73.1655 115.484 76.4863 118.486Z" fill="#8C7F31"/>
<path d="M195.184 44.4995C203.539 51.1476 208.896 64.6582 208.896 64.6582C208.896 64.6582 217.466 76.8821 218.108 81.7074C218.751 86.5326 210.395 96.9336 199.897 91.3578C189.399 85.9964 195.184 44.4995 195.184 44.4995Z" fill="#F2C468"/>
<path d="M217.681 79.9915C216.931 80.7421 216.181 81.2782 215.217 81.5999C209.968 83.4228 205.04 77.2036 201.934 68.3038C199.47 61.2268 197.541 46.3222 195.185 44.3921C195.185 44.3921 189.507 85.889 199.898 91.3576C210.396 96.8262 218.752 86.5324 218.109 81.7072C218.109 81.2782 217.895 80.6349 217.681 79.9915Z" fill="#EFA750"/>
<path d="M167.973 116.985C170.437 133.605 208.144 205.34 208.144 205.34L210.18 204.482C210.18 204.482 201.503 104.654 201.717 98.8634L194.647 97.5767L167.973 116.985Z" fill="#6589AA"/>
<path d="M184.684 114.84L202.145 107.87C201.717 102.187 201.61 99.9357 201.61 98.8634L194.539 97.5767L167.973 117.092C170.437 133.712 208.144 205.447 208.144 205.447L209.323 204.911C201.717 184.752 185.005 128.351 184.684 114.84Z" fill="#51748E"/>
<path d="M155.332 103.046C150.404 137.465 157.582 179.391 165.509 202.874L168.187 203.517C173.758 165.988 184.256 129.531 184.256 129.531L191.326 125.778L194.54 97.4697L155.332 103.046Z" fill="#6589AA"/>
<path d="M164.116 119.88L202.36 108.836L201.288 93.2876L155.332 103.045C150.404 137.465 157.582 179.391 165.509 202.874L166.902 203.195C161.76 178.64 159.831 147.973 164.116 119.88Z" fill="#51748E"/>
<path d="M216.502 76.3457C213.61 71.8422 200.755 71.7349 197.648 79.4553L217.788 88.1407C219.823 85.9961 219.395 80.8492 216.502 76.3457Z" fill="#E5D6B7"/>
<path d="M216.501 76.3461C214.895 73.8799 210.181 72.7004 205.789 73.4509C206.11 74.2015 206.432 74.8449 206.86 75.5955C208.36 78.2762 213.395 79.6701 217.894 78.9195C217.466 78.1689 217.037 77.2039 216.501 76.3461Z" fill="#F4EAD4"/>
<path d="M153.511 113.232C178.471 114.733 202.467 100.901 202.467 100.901C202.467 100.901 198.825 72.1639 199.146 66.4808C199.468 60.7978 197.646 46.8582 195.825 45.0354C194.004 43.2125 184.042 34.7416 176.864 35.5994C169.687 36.4572 156.296 38.709 152.976 42.5692C149.655 46.4293 153.19 79.9915 154.261 82.9938C155.332 85.9962 153.511 113.232 153.511 113.232Z" fill="#F2C468"/>
<path d="M156.402 113.339C164.758 111.838 172.578 93.6096 170.65 75.381C167.864 49.1103 158.759 41.4972 151.689 46.4296C150.51 56.4017 153.188 80.4206 154.153 82.8869C155.331 85.8892 153.51 113.125 153.51 113.125C154.474 113.339 155.438 113.339 156.402 113.339Z" fill="#EFA750"/>
<path d="M179.329 99.2925L166.474 108.085C166.474 108.085 169.259 83.2084 169.259 82.8867L154.262 100.472C153.94 107.227 153.512 113.232 153.512 113.232C172.044 114.304 189.934 107.013 197.968 103.153L179.329 99.2925Z" fill="#EFA750"/>
<path d="M143.226 92.7516C143.226 92.7516 131.764 85.7818 131.442 82.4578C131.121 79.1337 139.584 50.7185 144.297 46.6439C148.904 42.6765 159.402 39.0308 159.402 39.0308C159.402 39.0308 165.187 47.2873 164.544 55.2221C163.901 63.1569 158.759 70.9845 158.759 70.9845L165.08 77.6326L143.226 92.7516Z" fill="#F2C468"/>
<path d="M164.01 58.01C163.367 59.404 162.617 60.6907 161.867 62.0847C155.44 73.1291 146.334 79.7772 141.514 76.9892C136.693 74.2013 138.3 57.3667 144.727 46.3223C144.513 46.4295 144.406 46.6439 144.192 46.7512C139.585 50.7186 131.016 79.241 131.337 82.5651C131.658 85.8891 143.121 92.8589 143.121 92.8589L164.974 77.6326L158.654 70.9845C158.654 70.9845 162.724 64.8726 164.01 58.01Z" fill="#EFB652"/>
<path d="M187.468 84.4953C186.825 84.0664 185.111 85.782 184.254 85.9965C183.397 86.2109 180.184 86.1037 177.398 87.0688L182.648 90.5C183.826 90.1783 188.539 87.176 188.754 86.5326C189.075 85.8893 188.111 84.9242 187.468 84.4953Z" fill="#EA875C"/>
<path d="M141.727 92.0008C158.653 101.759 177.292 98.9706 180.185 98.5417C182.97 98.0056 185.862 93.1803 183.505 91.0358C181.149 88.8913 166.58 77.4179 162.723 76.8818C158.867 76.3457 135.407 88.2479 141.727 92.0008Z" fill="#FFA77B"/>
<path d="M174.616 97.6842C163.689 97.6842 154.905 95.218 154.905 90.6072C154.905 86.3181 162.404 82.7796 172.045 82.2435C168.081 79.4556 164.332 77.0966 162.618 76.8821C158.761 76.346 135.301 88.3555 141.621 92.0012C153.941 99.1854 167.331 99.6143 174.616 99.0782C174.723 99.0782 174.616 97.6842 174.616 97.6842Z" fill="#EA875C"/>
<path d="M199.469 64.3364C197.433 71.199 192.398 73.2363 192.398 73.2363C192.398 73.2363 197.862 74.3086 200.647 70.6628L199.469 64.3364Z" fill="#EFA750"/>
<path d="M193.039 98.9708C201.609 102.08 213.178 97.0407 216.178 92.4299C219.177 87.8191 219.82 81.6 215.857 78.5976C211.893 75.7025 203.216 73.9868 198.502 82.2433C193.789 90.4998 193.039 98.9708 193.039 98.9708Z" fill="#FFA77B"/>
<path d="M215.321 88.5698C209.75 94.2528 202.573 96.0757 199.145 92.7516C196.574 90.1782 196.896 85.353 199.574 80.7422C199.252 81.2783 198.824 81.7072 198.502 82.3506C193.789 90.6071 193.039 99.078 193.039 99.078C201.609 102.188 213.178 97.148 216.178 92.5372C217.785 90.071 218.749 87.0686 218.642 84.3879C217.678 85.7819 216.606 87.283 215.321 88.5698Z" fill="#EA875C"/>
<path d="M180.398 98.7563L198.395 101.008C198.716 101.008 199.145 100.901 199.359 100.579L211.786 80.9565C212.107 80.4204 211.786 79.6698 211.143 79.4554L193.253 75.2735C192.825 75.1663 192.396 75.3807 192.182 75.7024L179.648 97.2551C179.327 97.8984 179.755 98.7563 180.398 98.7563Z" fill="#F4EAD4"/>
<path d="M211.575 80.9568L193.685 76.775C193.257 76.6677 192.828 76.8822 192.614 77.2039L180.188 98.6493C180.295 98.6493 180.402 98.7565 180.509 98.7565L198.506 101.008C198.827 101.008 199.256 100.901 199.47 100.579L211.789 81.0641C211.682 80.9568 211.682 80.9568 211.575 80.9568Z" fill="#E5D9C1"/>
<path d="M197.969 83.3156C198.184 81.4927 198.505 79.6698 199.041 77.9542L193.577 76.6675C193.363 76.6675 193.149 76.6675 192.935 76.7747C194.863 80.4204 195.398 85.9962 194.22 92.3227C193.684 95.1106 192.827 97.7912 191.863 100.15L198.398 101.008C198.719 101.008 199.148 100.901 199.362 100.579L201.612 96.9334C199.041 93.9311 197.541 88.9986 197.969 83.3156Z" fill="#EFE5D3"/>
<path d="M202.787 81.7072L200.859 81.2783H200.752L199.359 83.6373L201.288 83.8518H201.395L202.787 81.7072Z" fill="#BFA790"/>
<path d="M194.005 43.4269C190.363 40.4246 182.65 34.8488 176.758 35.4921C172.152 36.0283 164.761 37.2078 159.297 39.0306C159.297 39.0306 153.191 41.1752 148.156 43.9631C152.763 46.4293 159.083 48.3594 166.367 49.2172C180.079 51.0401 191.863 48.4666 194.005 43.4269Z" fill="#EFA750"/>
<path d="M188.114 39.1379C184.579 36.8861 180.294 35.0632 176.759 35.4921C173.653 35.8138 169.475 36.4572 165.297 37.4222C171.296 43.6414 183.401 57.152 183.401 57.152L184.686 57.2593C184.793 57.3665 187.15 44.8209 188.114 39.1379Z" fill="#F4EAD4"/>
<path d="M176.865 35.4921C173.758 35.8138 169.58 36.4571 165.402 37.4222C168.509 40.639 173.222 45.7859 177.079 49.9677C180.507 49.7533 183.721 49.2172 186.506 48.3593C187.149 45.0353 187.791 41.4968 188.22 39.1378C184.578 36.9933 180.293 35.1704 176.865 35.4921Z" fill="#E5D6B7"/>
<path d="M166.902 37.1007C173.008 42.8909 182.864 54.7932 182.864 54.7932L184.149 54.9004C184.149 54.9004 185.863 43.7488 187.149 38.6019C183.935 36.6718 179.972 34.9561 176.758 35.2778C174.08 35.5995 170.437 36.3501 166.902 37.1007Z" fill="#FFA77B"/>
<path d="M176.758 35.278C174.08 35.5997 170.437 36.3503 166.902 37.1009C170.437 40.4249 175.044 45.679 178.472 49.6465C180.829 49.432 183.078 49.1103 185.221 48.5742C185.756 45.1429 186.506 41.1755 187.149 38.4948C183.828 36.5647 179.972 34.9563 176.758 35.278Z" fill="#EA875C"/>
<path d="M169.688 36.5647C171.08 34.4202 174.08 21.124 174.08 21.124L188.22 25.0914L186.399 38.2804C186.399 38.2804 185.328 40.9611 181.043 41.1755C174.615 41.39 169.688 36.5647 169.688 36.5647Z" fill="#DD704A"/>
<path d="M171.828 30.2382L171.721 21.5528L170.543 13.7252C170.543 13.7252 178.684 7.93495 185.112 9.3289C191.539 10.6156 194.539 13.9397 194.539 13.9397L191.968 21.5528L188.218 26.6997L171.828 30.2382Z" fill="#774346"/>
<path d="M175.795 23.9117C175.795 17.6925 181.794 12.7601 189.079 12.7601C190.793 12.7601 192.507 13.0817 194.007 13.6179C193.042 12.7601 190.15 10.4011 184.901 9.32879C178.473 8.04206 170.332 13.7251 170.332 13.7251L171.51 21.5527L171.618 30.2381L177.081 29.0586C176.331 27.4502 175.795 25.7345 175.795 23.9117Z" fill="#663439"/>
<path d="M171.721 22.4108C173.864 19.6229 177.827 17.4783 182.648 16.9422C186.504 16.5133 190.147 17.2639 192.825 18.8723L194.539 13.8326C194.539 13.8326 191.539 10.5086 185.112 9.22185C178.684 7.93513 170.543 13.6182 170.543 13.6182L171.721 21.4458V22.4108Z" fill="#663439"/>
<path d="M191.648 14.6901C191.219 17.0491 189.077 34.6344 189.077 35.2778C189.077 35.9211 182.757 35.5994 180.507 35.2778C178.257 34.9561 174.401 33.2404 173.972 31.3103C173.544 29.3803 173.865 16.2985 174.508 14.9046C175.794 12.1167 192.398 10.7227 191.648 14.6901Z" fill="#FFA77B"/>
<path d="M185.219 17.2634C187.362 17.2634 189.29 17.5851 191.111 18.1213C191.325 16.5129 191.539 15.2261 191.646 14.7972C192.396 10.8298 175.792 12.1165 174.614 15.0117C174.399 15.5478 174.185 17.9068 174.078 20.5875C176.97 18.5502 180.827 17.2634 185.219 17.2634Z" fill="#EA875C"/>
<path d="M175.794 12.1167C178.258 15.548 176.651 23.1611 176.651 23.1611L173.652 24.1261C173.652 24.1261 171.938 16.513 172.795 14.3685C173.652 12.2239 175.794 12.1167 175.794 12.1167Z" fill="#663439"/>
<path d="M174.292 25.1983C170.971 23.4826 169.9 20.6947 170.65 19.3008C171.4 17.9068 172.364 17.3707 173.435 19.0863C174.506 20.8019 174.292 25.1983 174.292 25.1983Z" fill="#FFA77B"/>
<path d="M170.867 16.8347C172.26 14.0468 188.435 10.9372 192.399 13.5107C192.399 13.5107 194.434 6.9698 193.256 5.14693C192.078 3.32407 189.292 -0.107199 186.828 0.107256C184.365 0.32171 175.795 1.28675 174.402 2.57348C173.117 3.86021 169.474 9.11434 169.367 10.2938C169.367 11.3661 170.867 16.8347 170.867 16.8347Z" fill="#557C99"/>
<path d="M186.829 9.08717e-05C185.222 0.107318 181.044 0.536227 177.937 1.17959C176.973 2.57354 176.438 4.18195 176.438 6.00481C176.438 8.79272 177.937 11.3662 180.294 13.189C185.115 12.3312 190.364 12.1168 192.399 13.4035C192.399 13.4035 194.434 6.86263 193.256 5.03977C192.078 3.21691 189.185 -0.107136 186.829 9.08717e-05Z" fill="#5D9EC6"/>
<path d="M195.611 9.86505C192.398 8.57832 177.4 7.93496 174.508 14.6903C181.042 12.2241 190.041 12.7602 191.541 15.2264C203.217 14.0469 198.825 11.259 195.611 9.86505Z" fill="#3B5D72"/>
<path d="M225.391 211.881H207.287C205.573 208.343 207.073 204.161 206.752 202.659C206.43 201.266 209.215 199.872 210.394 202.016C211.572 204.161 212.215 204.375 216.071 206.734C219.821 209.093 225.07 207.806 225.391 211.881Z" fill="#E5D8BD"/>
<path d="M158.547 211.881H170.759C171.509 208.343 168.938 204.161 168.938 202.767C168.938 201.373 165.617 199.979 164.974 202.124C163.153 208.986 158.761 206.52 158.547 211.881Z" fill="#E5D8BD"/>
<path d="M150.299 85.6747C156.191 81.2784 165.296 77.7399 165.296 77.7399L161.761 73.7725C161.761 73.7725 141.622 79.9916 136.266 89.1059L142.479 92.8589C142.372 92.7517 146.228 88.5698 150.299 85.6747Z" fill="#F4EAD4"/>
<path d="M146.976 79.8843C142.477 82.3505 138.192 85.4601 136.156 88.9986L142.369 92.7515C142.369 92.7515 146.226 88.6769 150.19 85.6745C151.047 85.0312 152.011 84.3878 152.975 83.7445C150.082 82.9939 147.833 81.5999 146.976 79.8843Z" fill="#E5D6B7"/>
<path d="M185.222 132.855L177.188 127.386L184.9 127.172L197.327 122.561L185.222 132.855Z" fill="#51748E"/>
<path d="M175.366 99.0778C179.544 100.793 184.257 101.651 186.293 100.686C188.328 99.7212 190.578 92.4297 190.149 91.6791C189.721 90.9285 185.65 89.8563 184.472 88.3551C183.293 86.8539 180.508 86.9611 178.794 87.1756C177.187 87.4973 170.546 97.1477 175.366 99.0778Z" fill="#FFA77B"/>
<path d="M190.148 91.6795C189.72 90.9289 185.649 89.8566 184.471 88.3555C186.935 90.6072 186.292 92.9662 185.435 94.5746C183.292 98.7565 177.186 99.6143 174.83 98.4348C174.401 98.2204 174.08 97.8987 173.865 97.577C173.223 98.3276 172.901 98.8637 173.758 99.1854C177.936 100.901 184.364 101.759 186.292 100.794C188.22 99.7216 190.577 92.4301 190.148 91.6795Z" fill="#EA875C"/>
<path d="M179.329 76.346C170.545 69.3762 167.117 60.9053 167.117 60.9053L167.439 71.9497C170.331 74.6304 174.509 75.8099 179.329 76.346Z" fill="#EFA750"/>
<path d="M168.617 63.3715L179.437 62.5137L179.758 65.1944L174.723 67.3389L168.617 65.516V63.3715Z" fill="#F4EAD4"/>
<path d="M176.328 85.0312C175.9 88.9987 170.758 99.2925 170.758 99.2925L173.757 99.1852C173.757 99.1852 178.149 89.7492 178.149 86.2107L176.328 85.0312Z" fill="#7F3657"/>
<path d="M177.507 91.1433L174.829 90.1782C174.4 90.071 173.865 90.2854 173.651 90.7143L172.258 94.0384C172.044 94.4673 172.258 95.0034 172.794 95.1107L175.472 96.0757C175.9 96.1829 176.436 95.9685 176.65 95.5396L178.043 92.2155C178.15 91.7866 177.935 91.3577 177.507 91.1433Z" fill="#7F3657"/>
<path d="M177.078 91.6794L174.828 90.9288C174.4 90.8215 173.971 91.036 173.864 91.3577L172.686 94.1456C172.471 94.5745 172.686 95.0034 173.114 95.1106L175.364 95.8612C175.792 95.9684 176.221 95.754 176.328 95.4323L177.506 92.6444C177.613 92.2155 177.506 91.8938 177.078 91.6794Z" fill="#492839"/>
<path d="M172.26 21.9819C172.581 21.4458 172.902 21.2313 173.331 21.8747C173.545 22.1964 173.545 22.6253 173.652 23.0542C173.652 22.1964 173.545 20.6952 173.117 19.9446C172.474 18.8723 171.831 19.194 171.403 20.0518C171.081 20.6952 171.295 21.8747 172.367 22.8397C172.152 22.6253 172.045 22.1964 172.26 21.9819Z" fill="#B24B2F"/>
<path d="M182.116 15.8696L178.045 16.4058C177.724 16.4058 177.402 16.8347 177.509 17.1564L177.724 18.4431C177.724 18.7648 178.045 19.0864 178.473 18.9792L182.544 18.4431C182.866 18.4431 183.187 18.0142 183.08 17.6925L182.866 16.4058C182.758 16.0841 182.437 15.8696 182.116 15.8696Z" fill="#774346"/>
<path d="M190.793 17.3708L186.829 16.084C186.508 15.9768 186.186 16.1913 185.972 16.513L185.543 17.7997C185.436 18.1214 185.651 18.5503 185.972 18.5503L189.936 19.837C190.257 19.9442 190.578 19.7298 190.793 19.4081L191.221 18.1214C191.221 17.9069 191.114 17.478 190.793 17.3708Z" fill="#774346"/>
<path d="M184.794 18.979C185.436 22.4103 184.472 25.3054 184.472 25.3054C184.472 25.3054 182.865 25.5199 182.223 25.1982V25.3054L185.436 26.1632C185.436 26.056 186.079 22.9464 184.794 18.979Z" fill="#DD704A"/>
<path d="M180.939 27.4502L180.617 28.308C180.724 28.4152 182.76 29.8092 186.295 29.1658L186.188 28.7369C182.867 29.2731 180.939 27.4502 180.939 27.4502Z" fill="#DD704A"/>
<path d="M183.616 34.2056C183.509 34.2056 183.402 33.7767 183.509 33.1333C183.616 32.5972 183.723 32.061 183.938 32.061C184.045 32.061 184.152 32.4899 184.045 33.1333C183.938 33.7767 183.723 34.2056 183.616 34.2056Z" fill="#DD704A"/>
<path d="M181.902 19.9443H179.438C179.438 20.0516 179.438 20.0516 179.438 20.1588C179.331 21.4455 179.76 22.7322 180.509 22.8395C181.259 23.0539 181.902 22.0889 182.009 20.8022C181.902 20.4805 181.902 20.1588 181.902 19.9443Z" fill="#3F3434"/>
<path d="M186.828 20.4805L188.971 20.8021C188.971 20.9094 188.971 20.9094 188.971 21.0166C188.971 22.3033 188.435 23.4828 187.899 23.5901C187.257 23.6973 186.828 22.7322 186.828 21.3383C186.828 21.0166 186.828 20.6949 186.828 20.4805Z" fill="#3F3434"/>
<path d="M263.42 44.4997C259.456 44.9287 254.85 38.2806 258.599 36.6722C264.277 34.2059 263.42 44.4997 263.42 44.4997Z" fill="#DD704A"/>
<path d="M377.506 109.265C377.185 109.265 376.971 109.157 376.756 108.943C376.435 108.514 376.435 107.871 376.864 107.549L386.398 99.1854C386.826 98.8637 387.469 98.8637 387.79 99.2926C388.112 99.7215 388.112 100.365 387.683 100.687L378.149 109.05C378.042 109.157 377.721 109.265 377.506 109.265Z" fill="#475151"/>
<path d="M392.933 119.559C392.826 119.559 392.611 119.559 392.504 119.452L381.149 113.876C380.614 113.661 380.506 113.018 380.721 112.589C380.935 112.053 381.578 111.946 382.006 112.16L393.361 117.736C393.897 117.95 394.004 118.594 393.79 119.023C393.683 119.344 393.361 119.559 392.933 119.559Z" fill="#475151"/>
<path d="M368.722 39.8888L361.973 38.0659L362.723 42.7839L367.329 43.1056L371.4 57.903L367.008 61.1198L368.829 68.304L375.899 60.6909L368.722 39.8888Z" fill="#849695"/>
<path d="M368.721 39.8886L367.328 39.5669L374.613 61.9774L375.898 60.6907L368.721 39.8886Z" fill="#BCC9C9"/>
<path d="M380.936 77.4185L374.188 75.8101L375.259 80.7425L379.651 80.8497L390.578 123.633L386.4 127.172L388.435 134.463L395.077 126.314L380.936 77.4185Z" fill="#849695"/>
<path d="M380.936 77.4184L379.543 77.0967L393.898 127.815L395.076 126.314L380.936 77.4184Z" fill="#BCC9C9"/>
<path d="M333.051 22.8399C336.907 17.9075 346.763 17.1569 350.405 19.1942C353.94 21.2315 354.047 27.8796 354.047 27.8796C354.047 27.8796 343.12 28.6302 340.228 25.8423C337.336 23.1616 333.051 22.8399 333.051 22.8399Z" fill="#FFA77B"/>
<path d="M388.753 205.662C388.753 202.231 386.825 199.443 384.361 199.443C381.897 199.443 379.969 202.231 379.969 205.662C379.969 209.093 381.897 211.881 384.361 211.881C386.718 211.881 388.753 209.093 388.753 205.662Z" fill="#475151"/>
<path d="M277.988 49.432C289.129 45.4646 304.019 43.9634 304.019 43.9634L312.482 61.1197L296.735 79.1339L277.988 49.432Z" fill="#F2D2A2"/>
<path d="M261.063 109.694C261.063 109.694 266.634 155.373 267.276 162.235C267.276 162.235 263.955 164.487 262.563 165.559C261.277 166.632 243.388 192.688 238.781 194.511L240.067 196.119C268.133 190.758 287.737 170.277 288.808 166.524C289.88 162.771 295.021 107.013 295.021 107.013L261.063 109.694Z" fill="#34636B"/>
<path d="M288.915 166.524C289.023 165.988 289.237 164.702 289.558 162.772C283.881 162.235 275.418 166.632 268.133 174.352C263.206 179.606 259.885 185.396 258.492 190.329C276.382 182.072 288.058 169.42 288.915 166.524Z" fill="#40737F"/>
<path d="M260.206 105.297C259.884 99.8288 255.707 86.747 255.385 84.2808C255.064 81.8146 256.885 68.7329 257.849 66.0522C258.813 63.3715 273.703 47.1802 283.238 49.0031C292.772 50.8259 295.771 61.0125 297.378 71.7352C299.092 82.458 294.057 117.521 294.057 117.521L260.206 105.297Z" fill="#4B8496"/>
<path d="M283.239 49.0033C276.49 47.7166 266.956 55.5441 261.707 61.2272C263.1 62.085 264.599 62.9428 266.099 63.6934C278.526 69.8054 290.416 68.9475 292.666 61.6561C293.202 59.8332 293.094 57.7959 292.452 55.6514C290.309 52.2201 287.417 49.7539 283.239 49.0033Z" fill="#407784"/>
<path d="M243.708 211.881H236.852L231.496 201.159L233.746 195.583L241.352 192.581L244.458 195.154C244.458 195.154 239.423 197.513 239.102 198.156C238.781 198.8 237.495 203.625 237.495 203.625L239.209 208.557C239.102 208.557 243.708 207.914 243.708 211.881Z" fill="#F2D2A2"/>
<path d="M281.951 58.7607L281.309 59.9402C285.379 62.7282 300.484 86.1037 293.199 119.13L293.735 119.773C302.412 74.3087 281.951 58.7607 281.951 58.7607Z" fill="#34636B"/>
<path d="M265.027 57.7959C275.847 61.1199 284.845 63.8006 284.845 63.8006C284.845 63.8006 284.203 53.9357 279.811 48.896C274.99 49.7538 269.419 53.8285 265.027 57.7959Z" fill="#DDB887"/>
<path d="M266.741 56.8307C266.205 51.791 265.562 44.4996 265.562 44.4996L278.417 37.5298C278.417 37.5298 281.524 49.7537 281.631 54.5789C281.845 59.2969 273.061 59.5114 266.741 56.8307Z" fill="#DD704A"/>
<path d="M283.559 33.2408C283.237 29.2734 281.738 25.0916 281.738 25.0916C281.738 25.0916 282.38 22.947 280.774 19.623C279.06 16.2989 278.417 16.9423 278.417 16.9423C278.417 16.9423 278.203 13.4038 275.203 11.9026C272.204 10.4014 271.025 14.0472 271.025 14.0472C271.025 14.0472 269.525 12.3315 266.312 12.8677C263.098 13.4038 262.669 17.0495 262.669 17.0495C262.669 17.0495 259.456 17.5856 256.349 19.7302C253.135 21.8747 253.671 27.7722 253.671 27.7722C252.171 29.9168 254.849 32.2758 254.849 32.2758C255.064 35.2781 258.385 35.4926 258.385 35.4926C258.385 35.4926 257.528 38.8166 261.598 41.819L277.667 46.537C281.523 44.7141 281.845 38.1733 281.845 38.1733C281.845 38.1733 283.88 37.2082 283.559 33.2408Z" fill="#DD704A"/>
<path d="M283.239 30.8816C282.811 31.8467 282.061 33.0262 280.561 33.0262C280.561 33.0262 276.062 36.7791 272.419 35.3852C268.777 33.9912 266.635 31.7394 266.635 31.7394C266.635 31.7394 263.314 33.4551 261.064 31.0961C258.815 28.7371 259.35 26.5925 259.35 26.5925C259.35 26.5925 255.708 27.772 255.172 24.448C254.744 21.7673 256.565 19.8372 257.208 19.1938C256.886 19.4083 256.565 19.6228 256.244 19.8372C253.03 21.9818 253.566 27.8793 253.566 27.8793C252.066 30.0238 254.744 32.3828 254.744 32.3828C254.958 35.3852 258.279 35.5996 258.279 35.5996C258.279 35.5996 257.422 38.9237 261.493 41.926L277.561 46.644C281.418 44.8211 281.739 38.2803 281.739 38.2803C281.739 38.2803 283.882 37.4225 283.56 33.4551C283.453 32.49 283.346 31.6322 283.239 30.8816Z" fill="#C65436"/>
<path d="M281.095 40.3176C283.559 40.2104 285.809 33.1334 283.452 31.9539C279.81 30.2383 281.095 40.3176 281.095 40.3176Z" fill="#FFA77B"/>
<path d="M263.848 53.1852C266.954 55.9731 279.059 53.3997 279.488 51.4696C280.023 49.6467 279.702 31.7398 278.309 28.523C277.024 25.3062 272.096 22.6255 268.668 22.6255C265.133 22.6255 258.813 27.7724 259.348 30.1314C259.884 32.5976 262.134 51.5768 263.848 53.1852Z" fill="#FFA77B"/>
<path d="M296.951 33.8844L289.131 33.0266C286.774 32.8121 284.846 34.9567 285.488 37.2084L327.053 206.306L332.623 204.483L296.951 33.8844Z" fill="#475151"/>
<path d="M330.374 206.413H382.222C382.222 206.413 405.146 190.114 404.932 188.184C404.718 186.147 362.618 28.2013 359.083 26.164C355.548 24.1267 314.519 17.9075 312.805 18.5508C310.984 19.1942 286.988 34.6349 286.988 35.7072C286.988 36.7795 327.91 206.413 330.374 206.413Z" fill="#BCC9C9"/>
<path d="M371.827 66.1594L314.516 64.6582L322.55 117.736C323.728 79.8845 347.081 63.0498 374.291 74.7376C373.434 71.7352 372.577 68.8401 371.827 66.1594Z" fill="#CCDBDB"/>
<path d="M361.651 200.73C361.651 169.634 372.471 142.505 388.754 127.172C384.469 111.409 379.862 94.5747 375.47 79.2412C373.114 123.741 348.475 158.697 318.373 158.697C317.945 158.697 317.409 158.697 316.98 158.697C323.836 185.718 329.407 206.52 330.264 206.52H361.651C361.758 204.483 361.651 202.552 361.651 200.73Z" fill="#CCDBDB"/>
<path d="M349.547 32.2759C354.153 32.2759 358.438 33.1337 362.402 34.6349C362.402 34.6349 362.402 34.5277 362.509 34.5277C360.902 29.488 359.724 26.3784 359.188 26.164C355.653 24.1267 314.625 17.9075 312.911 18.5508C312.589 18.6581 311.518 19.3014 309.911 20.2665C305.733 36.7795 308.84 52.113 317.624 59.19C318.481 44.1781 332.407 32.2759 349.547 32.2759Z" fill="#CCDBDB"/>
<path d="M355.976 187.862C352.12 185.182 323.839 65.3015 312.591 18.6577C309.913 19.9444 286.988 34.6346 286.988 35.7068C286.988 36.7791 327.91 206.413 330.374 206.413H382.222C382.222 206.413 405.146 190.114 404.932 188.184C404.932 188.184 404.932 188.077 404.932 187.969H355.976V187.862Z" fill="#93A5A4"/>
<path d="M321.587 56.08C319.337 46.9657 317.302 38.2803 315.481 30.7744C308.41 41.0682 301.661 56.9379 296.52 76.0243C298.234 82.8868 299.948 90.2855 301.876 98.0059C306.589 78.0616 314.195 62.2992 321.587 56.08Z" fill="#849695"/>
<path d="M337.118 120.202C332.833 140.146 325.656 156.444 318.371 163.95C320.621 172.743 322.763 180.785 324.477 187.433C331.333 176.818 337.761 161.055 342.688 142.398C340.974 135.321 339.046 127.922 337.118 120.202Z" fill="#849695"/>
<path d="M330.906 206.413H382.219C382.219 206.413 405.143 190.114 404.929 188.184C404.929 188.184 404.929 188.077 404.929 187.97H356.402L330.906 206.413Z" fill="#7F9391"/>
<path d="M384.682 204.912H329.941V207.914H384.682V204.912Z" fill="#475151"/>
<path d="M334.444 205.662C334.444 202.231 332.516 199.443 330.052 199.443C327.588 199.443 325.66 202.231 325.66 205.662C325.66 209.093 327.588 211.881 330.052 211.881C332.516 211.881 334.444 209.093 334.444 205.662Z" fill="#475151"/>
<path d="M371.828 66.2668L318.266 61.0127L320.944 67.3391L372.471 68.6258C372.256 67.768 372.042 67.0174 371.828 66.2668Z" fill="#93A5A4"/>
<path d="M401.93 191.401C389.182 191.723 353.617 191.723 350.939 191.079C348.796 187.219 330.371 114.198 318.48 65.5164C318.373 65.1947 309.91 34.6349 307.553 21.5532C307.125 21.7677 306.803 22.0894 306.375 22.3038C308.946 35.6 316.873 64.4441 317.302 65.8381C317.409 66.1597 325.122 97.3629 332.942 128.352C348.903 191.294 349.867 191.83 350.403 192.152C351.367 192.688 360.901 192.795 371.828 192.795C382.112 192.795 393.681 192.688 400.644 192.581C400.966 192.259 401.501 191.83 401.93 191.401Z" fill="#677575"/>
<path d="M351.474 191.187C350.938 191.294 350.403 191.508 349.867 191.723C350.081 192.152 350.189 192.259 350.296 192.259C351.26 192.795 360.794 192.902 371.721 192.902C382.004 192.902 393.574 192.795 400.537 192.688C401.073 192.259 401.501 191.83 402.037 191.508C389.717 191.723 356.402 191.83 351.474 191.187Z" fill="#4F5E5E"/>
<path d="M343.87 66.0525L317.839 65.6236L316.875 62.9429L343.87 66.0525Z" fill="#677575"/>
<path d="M332.086 205.769C332.086 203.625 330.801 201.802 329.301 201.802C327.694 201.802 326.516 203.517 326.516 205.769C326.516 207.914 327.801 209.737 329.301 209.737C330.908 209.737 332.086 208.021 332.086 205.769Z" fill="#7F9391"/>
<path d="M337.763 125.563C333.692 125.563 312.696 124.384 306.483 123.633C305.947 123.526 305.519 123.097 305.626 122.561C305.733 122.025 306.162 121.596 306.697 121.703C313.982 122.561 336.799 123.741 338.085 123.633C338.834 123.419 387.362 118.165 392.932 117.521C393.468 117.414 394.003 117.843 394.003 118.379C394.111 118.915 393.682 119.452 393.146 119.452C374.721 121.489 339.477 125.349 338.406 125.563C338.299 125.563 338.085 125.563 337.763 125.563Z" fill="#475151"/>
<path d="M387.36 100.365C387.253 100.365 387.146 100.365 387.039 100.258C363.578 91.6797 328.12 78.8124 326.406 78.3835C324.799 78.1691 303.803 77.0968 295.769 76.7751C295.233 76.7751 294.805 76.239 294.805 75.7028C294.805 75.1667 295.34 74.7378 295.876 74.7378C297.054 74.845 324.692 76.1318 326.728 76.4534C328.763 76.7751 381.682 96.1832 387.681 98.435C388.217 98.6495 388.431 99.1856 388.217 99.7217C388.217 100.151 387.789 100.365 387.36 100.365Z" fill="#475151"/>
<path d="M368.829 63.1571L354.367 62.2992L353.617 58.7607L367.65 59.7258L368.829 63.1571Z" fill="#E4EFEE"/>
<path d="M302.304 105.083C301.983 105.083 301.661 104.976 301.554 104.654C301.233 104.225 301.34 103.582 301.768 103.26C301.875 103.153 302.84 102.509 304.875 101.115C310.445 97.148 327.371 85.2458 328.335 84.1735C329.299 82.994 352.759 47.5018 361.651 33.884C361.972 33.4551 362.508 33.3479 363.043 33.5623C363.472 33.884 363.579 34.4201 363.365 34.9563C360.044 39.9959 330.906 84.2808 329.835 85.4603C329.192 86.2109 322.55 91.0361 306.053 102.724C304.446 103.903 303.161 104.761 303.054 104.868C302.625 104.976 302.411 105.083 302.304 105.083Z" fill="#475151"/>
<path d="M320.731 178.641C320.41 178.641 320.089 178.534 319.874 178.212C319.553 177.783 319.66 177.14 320.089 176.818C320.303 176.604 322.124 175.102 324.159 173.28C343.656 156.445 345.584 155.265 346.441 155.265C347.727 155.265 396.04 154.622 396.468 154.622C397.004 154.622 397.432 155.051 397.432 155.587C397.432 156.123 397.004 156.552 396.468 156.552C394.54 156.552 349.762 157.196 346.548 157.196C344.62 158.161 331.23 169.741 325.445 174.781C322.124 177.676 321.374 178.319 321.16 178.427C321.053 178.534 320.946 178.641 320.731 178.641Z" fill="#475151"/>
<path d="M312.697 145.079C312.269 141.111 293.094 117.414 293.094 116.771C293.094 116.128 292.344 101.116 292.344 101.116C292.344 101.116 260.206 101.652 260.099 102.295C259.242 107.228 257.421 122.132 262.135 129.96C266.848 137.787 287.523 153.764 287.523 153.764C287.523 153.764 287.095 156.231 287.095 156.874C287.095 156.874 279.489 184.431 280.667 201.802L281.524 202.66C292.879 188.184 313.126 149.154 312.697 145.079Z" fill="#4B8496"/>
<path d="M257.848 77.8472C258.49 93.3951 263.525 109.265 269.417 111.624C275.309 113.983 279.273 89.7494 278.63 84.388C277.88 79.0267 257.848 77.8472 257.848 77.8472Z" fill="#34636B"/>
<path d="M312.696 145.079C312.374 142.398 303.911 131.246 298.234 123.741C291.378 118.915 285.379 117.092 282.486 119.559C277.559 123.741 283.558 139.074 296.091 153.764C299.091 157.303 302.09 160.412 305.09 163.093C309.696 153.979 312.91 146.687 312.696 145.079Z" fill="#58A5B7"/>
<path d="M312.697 145.079C312.483 143.363 309.162 138.431 305.198 132.962C299.735 137.251 294.272 147.009 291.272 158.911C288.166 171.028 288.594 181.965 291.808 187.219C302.092 170.17 313.019 148.081 312.697 145.079Z" fill="#58A5B7"/>
<path d="M289.664 156.231L299.841 152.692L292.878 152.156L300.269 145.508L290.414 148.403L289.664 156.231Z" fill="#4B8496"/>
<path d="M295.342 211.882H281.415L276.273 206.627C276.273 206.627 280.344 198.156 280.451 196.226C280.666 194.404 284.951 197.728 284.951 197.728C284.951 197.728 283.237 203.411 283.986 205.019C284.843 206.735 285.272 208.343 287.521 208.557C289.771 208.665 295.234 207.485 295.342 211.882Z" fill="#F2D2A2"/>
<path d="M289.985 110.123C271.773 109.372 265.025 96.9336 262.132 92.7518C259.24 88.5699 257.954 82.2435 257.419 75.1665C256.99 68.0895 259.668 59.2969 267.167 64.0149C274.773 68.7329 282.272 82.1363 289.02 83.8519C299.84 86.5326 301.34 110.551 289.985 110.123Z" fill="#F2D2A2"/>
<path d="M289.127 83.852C286.556 83.2086 283.771 80.7424 280.986 77.74C282.057 82.458 281.307 91.0362 277.344 93.288C272.416 96.0759 265.667 91.3579 260.204 81.6002C259.133 79.7774 258.276 77.8473 257.633 76.0244C258.168 82.7797 259.454 88.7844 262.239 92.8591C265.132 97.0409 271.88 109.479 290.091 110.23C301.34 110.552 299.84 86.5327 289.127 83.852Z" fill="#DDB887"/>
<path d="M286.559 111.517C278.311 110.23 278.418 85.8893 285.488 81.6002C291.487 77.9545 310.984 115.27 286.559 111.517Z" fill="#34636B"/>
<path d="M292.664 69.9127C294.057 67.4465 294.378 62.6212 294.485 61.549C294.699 60.5839 294.164 55.3298 294.485 54.6864C294.807 54.0431 296.199 53.2925 296.628 54.1503C297.056 55.1153 298.556 59.6189 298.342 63.0501C298.127 66.3742 295.342 70.7705 295.342 70.7705L292.664 69.9127Z" fill="#FFA77B"/>
<path d="M290.63 109.908C280.56 109.908 281.203 92.4301 283.667 85.4603C286.131 78.4906 291.808 68.1968 295.451 67.7678C298.986 67.3389 301.021 70.663 301.342 77.0966C301.771 83.5302 304.021 109.908 290.63 109.908Z" fill="#FFA77B"/>
<path d="M289.023 87.1762C289.023 79.6703 290.63 73.0222 293.201 68.8403C289.773 71.8427 285.595 79.6703 283.667 85.3533C281.203 92.3231 280.56 109.801 290.63 109.801C292.558 109.801 294.165 109.265 295.451 108.3C291.701 104.976 289.023 96.7194 289.023 87.1762Z" fill="#EA875C"/>
<path d="M340.765 19.9444C341.515 18.9794 343.121 19.1938 343.55 20.2661C345.157 23.5901 345.907 28.0937 345.05 28.4154C343.978 28.737 343.229 28.9515 342.907 27.8792C342.586 26.807 339.908 21.6601 340.015 21.0167C340.122 20.8022 340.443 20.3733 340.765 19.9444Z" fill="#FFA77B"/>
<path d="M345.046 21.1239C345.796 20.1589 347.296 20.2661 347.939 21.3384C349.653 24.5552 350.724 29.0587 349.867 29.3804C348.903 29.8093 348.153 29.9166 347.724 28.9515C347.296 27.9865 344.404 22.9468 344.511 22.3034C344.511 21.9817 344.725 21.5528 345.046 21.1239Z" fill="#FFA77B"/>
<path d="M349.549 21.2313C350.299 20.2663 351.798 20.3735 352.441 21.4458C354.155 24.6626 355.226 29.1662 354.369 29.4878C353.405 29.9168 352.655 30.024 352.227 29.0589C351.798 28.0939 348.906 23.0542 349.013 22.4108C348.906 22.0892 349.227 21.6603 349.549 21.2313Z" fill="#FFA77B"/>
<path d="M312.591 61.6562C311.841 61.7634 304.556 68.5187 300.914 70.556L306.592 71.6283C306.913 71.3066 313.769 64.6585 314.09 64.1224C314.305 63.479 313.233 61.5489 312.591 61.6562Z" fill="#FFA77B"/>
<path d="M310.983 55.1151C310.233 55.3295 303.805 62.8354 300.484 65.3017L306.269 65.7306C306.59 65.4089 312.589 57.903 312.804 57.3669C313.018 56.7235 311.625 54.9006 310.983 55.1151Z" fill="#FFA77B"/>
<path d="M306.913 50.2902C306.27 50.6119 301.021 59.0828 298.129 61.978L303.914 61.4418C304.235 61.0129 308.948 52.7564 309.056 52.113C309.163 51.5769 307.663 49.9685 306.913 50.2902Z" fill="#FFA77B"/>
<path d="M301.447 79.0268C302.197 75.7028 307.232 71.4137 307.874 70.0197C308.517 68.6258 306.803 61.2271 306.16 60.3693C305.625 59.4042 303.696 57.7958 302.411 57.903C301.126 58.0103 293.198 68.3041 292.877 69.4836C292.556 70.4486 300.269 83.852 301.447 79.0268Z" fill="#FFA77B"/>
<path d="M280.239 26.5925C279.489 25.413 278.31 24.7697 277.239 24.8769C277.453 24.6624 277.561 24.448 277.668 24.2335C278.203 22.6251 276.811 20.695 274.454 19.9444C272.954 19.4083 271.347 19.5155 270.383 20.1589C269.633 18.9794 267.919 18.336 265.884 18.6577C263.42 18.9794 261.706 20.5878 261.92 22.3034C262.135 24.0191 264.277 25.0914 266.741 24.7697C267.919 24.6624 268.883 24.1263 269.633 23.5902C270.169 24.5552 271.24 25.413 272.633 25.8419C273.811 26.2709 274.99 26.2709 275.954 25.9492C275.418 26.9142 275.632 28.3082 276.489 29.4877C277.561 30.9889 279.275 31.6322 280.453 30.8816C281.203 29.9166 281.31 28.0937 280.239 26.5925Z" fill="#DD704A"/>
<path d="M278.845 84.1738C278.845 84.1738 271.025 89.2135 272.311 98.7567L276.81 101.866C273.596 93.0737 278.845 84.1738 278.845 84.1738Z" fill="#DDB887"/>
<path d="M272.526 83.9595C272.526 83.9595 266.313 88.1413 267.277 96.1834L270.813 98.7568C268.349 91.4654 272.526 83.9595 272.526 83.9595Z" fill="#DDB887"/>
<path d="M262.992 112.696C266.742 118.486 273.705 112.053 273.705 112.053C273.705 112.053 270.491 118.165 266.956 117.843C263.635 117.521 262.992 112.696 262.992 112.696Z" fill="#34636B"/>
<path d="M285.165 200.73L288.164 196.548C288.164 196.548 285.272 193.117 280.023 191.83L279.059 198.049L285.165 200.73Z" fill="#EFD9BD"/>
<path d="M241.243 197.835L245.849 196.762C245.849 196.762 245.956 192.688 243.064 188.72L238.672 192.366L241.243 197.835Z" fill="#EFD9BD"/>
<path d="M271.99 29.7021L276.275 30.1311C276.596 30.1311 276.918 30.56 276.918 30.9889L276.81 32.4901C276.81 32.919 276.489 33.2406 276.061 33.1334L271.776 32.7045C271.454 32.7045 271.133 32.2756 271.133 31.8467L271.24 30.3455C271.24 30.0238 271.561 29.7021 271.99 29.7021Z" fill="#DD704A"/>
<path d="M261.063 31.9541L265.134 30.8819C265.455 30.7746 265.777 31.0963 265.884 31.418L266.205 32.9192C266.312 33.3481 266.098 33.777 265.777 33.777L261.706 34.8493C261.385 34.9565 261.063 34.6348 260.956 34.3131L260.635 32.812C260.421 32.4903 260.635 32.0614 261.063 31.9541Z" fill="#DD704A"/>
<path d="M268.992 34.6348C268.349 38.066 269.635 41.819 269.635 41.819C269.635 41.819 271.456 42.4624 272.206 42.1407V42.2479L268.563 42.6768C268.563 42.6768 267.813 38.6022 268.992 34.6348Z" fill="#DD704A"/>
<path d="M273.168 36.2428C272.633 36.4573 272.204 36.7789 271.883 37.2079C271.99 36.1356 272.526 35.2778 273.383 35.1705C274.454 34.9561 275.632 35.8139 276.275 37.1006C275.418 36.2428 274.24 35.8139 273.168 36.2428Z" fill="#5A4949"/>
<path d="M264.706 36.9938C263.956 37.2083 263.421 37.7444 262.992 38.3878C263.099 37.2083 263.742 36.2432 264.599 36.0288C265.563 35.7071 266.634 36.3504 267.17 37.6372C266.42 36.9938 265.563 36.7793 264.706 36.9938Z" fill="#5A4949"/>
<path d="M271.56 47.9307C271.346 47.1801 271.131 45.5717 271.56 45.4644C272.096 45.3572 272.738 45.5717 273.381 46.4295C273.809 46.9656 273.702 47.9307 273.167 48.0379C272.738 48.0379 271.774 48.574 271.56 47.9307Z" fill="#3E2D34"/>
<path d="M412 210.916H0C0 210.916 103.268 227 200.751 227C298.234 227 412 210.916 412 210.916Z" fill="#E54567"/>
</g>
<defs>
<clipPath id="clip0_25727_21904">
<rect width="412" height="227" fill="white"/>
</clipPath>
</defs>
</svg>
