<svg width="41" height="45" viewBox="0 0 41 45" fill="none" xmlns="http://www.w3.org/2000/svg">
<path d="M34.3055 8.36709V41.3929C34.3055 43.3897 32.6953 44.9929 30.7055 44.9929H3.6C1.61016 44.9929 0 43.3827 0 41.3929V8.36709C0 6.37725 1.61719 4.76709 3.6 4.76709H30.6984C32.6953 4.76709 34.3055 6.37725 34.3055 8.36709Z" fill="#EDC892"/>
<path opacity="0.15" d="M5.02734 44.9999H3.6C1.61016 44.9999 0 43.3897 0 41.3999V8.36709C0 6.37725 1.61719 4.76709 3.6 4.76709H5.02734C3.0375 4.76709 1.42734 6.38428 1.42734 8.36709V41.3929C1.42734 43.3897 3.04453 44.9999 5.02734 44.9999Z" fill="black"/>
<path opacity="0.25" d="M34.3055 8.36709V41.3929C34.3055 43.3897 32.7023 44.9929 30.7055 44.9929H29.2852C31.282 44.9929 32.8852 43.3827 32.8852 41.3929V8.36709C32.8852 6.37725 31.275 4.76709 29.2852 4.76709H30.7055C32.7023 4.76709 34.3055 6.37725 34.3055 8.36709Z" fill="white"/>
<path d="M3.59766 10.2798H30.6961V41.4001H3.59766V10.2798Z" fill="#EDFAFF"/>
<path d="M26.6594 7.43906V11.8687C26.6594 12.1992 26.3922 12.4734 26.0547 12.4734H8.2375C7.90703 12.4734 7.63281 12.2062 7.63281 11.8687V7.43906C7.63281 7.10859 7.9 6.84141 8.2375 6.84141H13.4336V3.7125C13.4336 1.66641 15.093 0 17.1461 0C18.1727 0 19.1008 0.414844 19.7687 1.08984C20.4437 1.76484 20.8586 2.68594 20.8586 3.7125V6.84141H26.0547C26.3922 6.84141 26.6594 7.10156 26.6594 7.43906Z" fill="#476168"/>
<g opacity="0.15">
<path d="M26.6625 7.43897V11.8687C26.6625 12.1991 26.3953 12.4733 26.0578 12.4733H24.75C25.0805 12.4733 25.3547 12.2062 25.3547 11.8687V7.43897C25.3547 7.1085 25.0875 6.84131 24.75 6.84131H26.0578C26.3953 6.84131 26.6625 7.10147 26.6625 7.43897Z" fill="black"/>
</g>
<g opacity="0.15">
<path d="M20.0148 1.36406C19.382 0.84375 18.5594 0.527344 17.6734 0.527344C15.6203 0.527344 13.9609 2.18672 13.9609 4.23984V7.36875H8.76484C8.43438 7.36875 8.16016 7.63594 8.16016 7.96641V12.3961C8.16016 12.4242 8.16016 12.4453 8.16719 12.4664C7.86484 12.4383 7.63281 12.1781 7.63281 11.8688V7.43906C7.63281 7.10859 7.9 6.84141 8.2375 6.84141H13.4336V3.7125C13.4336 1.66641 15.093 0 17.1461 0C18.1727 0 19.1008 0.414844 19.7687 1.08984C19.8602 1.17422 19.9375 1.27266 20.0148 1.36406Z" fill="white"/>
</g>
<path d="M17.1492 5.91318C18.3297 5.91318 19.2867 4.95619 19.2867 3.77568C19.2867 2.59517 18.3297 1.63818 17.1492 1.63818C15.9687 1.63818 15.0117 2.59517 15.0117 3.77568C15.0117 4.95619 15.9687 5.91318 17.1492 5.91318Z" fill="#274148"/>
<path d="M15.1141 19.1099C15.1141 20.3544 14.643 21.4864 13.8625 22.3442C12.9836 23.3145 11.7109 23.9192 10.3047 23.9192C8.8914 23.9192 7.62578 23.3145 6.73984 22.3442C5.95937 21.4864 5.48828 20.3544 5.48828 19.1099C5.48828 16.4521 7.63984 14.2935 10.3047 14.2935C12.9555 14.2935 15.1141 16.445 15.1141 19.1099Z" fill="#F26768"/>
<path d="M13.8648 22.3441C12.9859 23.3144 11.7133 23.9191 10.307 23.9191C8.89375 23.9191 7.62812 23.3144 6.74219 22.3441C7.28359 21.9222 7.89531 21.5918 8.57031 21.3808C8.80234 21.3105 8.96406 21.0925 8.96406 20.8465C8.96406 20.6707 8.87969 20.509 8.74609 20.4035C8.03594 19.8621 7.60703 18.9621 7.74062 17.9847C7.89531 16.8105 8.85859 15.8824 10.0258 15.7558C11.5867 15.5871 12.9086 16.8105 12.9086 18.3433C12.9086 19.1871 12.5078 19.9394 11.882 20.4105C11.7414 20.516 11.657 20.6847 11.657 20.8535C11.657 21.0996 11.8188 21.3175 12.0508 21.3879C12.7117 21.5918 13.3305 21.9222 13.8648 22.3441Z" fill="#EC3D3C"/>
<path opacity="0.15" d="M17.1484 14.2944H28.8977V16.1999H17.1484V14.2944Z" fill="black"/>
<path opacity="0.15" d="M17.1484 18.8789H28.8977V20.7844H17.1484V18.8789Z" fill="black"/>
<path opacity="0.15" d="M17.1484 23.4565H28.8977V25.362H17.1484V23.4565Z" fill="black"/>
<path opacity="0.15" d="M5.48438 28.0405H28.8984V29.946H5.48438V28.0405Z" fill="black"/>
<path opacity="0.15" d="M5.48438 32.6179H28.8984V34.5234H5.48438V32.6179Z" fill="black"/>
<path opacity="0.15" d="M5.48438 37.2024H28.8984V39.1079H5.48438V37.2024Z" fill="black"/>
<path d="M40.6469 14.5484L27.3297 33.4273L22.7383 30.193L36.0555 11.307C36.3508 10.8851 36.9414 10.7797 37.3633 11.082L40.4219 13.2336C40.8437 13.5359 40.9422 14.1195 40.6469 14.5484Z" fill="#476168"/>
<path opacity="0.15" d="M40.6484 14.5417L27.3312 33.4347L26.832 33.0832L40.1492 14.1972C40.4445 13.7753 40.3461 13.1917 39.9242 12.8894L40.4234 13.241C40.8453 13.5363 40.9437 14.1199 40.6484 14.5417Z" fill="black"/>
<path d="M37.3922 19.1684L40.6477 14.5488C40.943 14.127 40.8445 13.5434 40.4227 13.241L37.3641 11.0895C36.9422 10.7941 36.3586 10.8926 36.0563 11.3145L32.8008 15.934L37.3922 19.1684Z" fill="#8071B1"/>
<path d="M31.6328 17.5793L33.1435 15.4366L37.7333 18.6726L36.2227 20.8153L31.6328 17.5793Z" fill="#EDFAFF"/>
<path d="M27.3305 33.4348L21.2063 37.6887V37.6957L20.6016 38.1105L21.3328 35.4105L22.7391 30.1934L27.3305 33.4348Z" fill="#F5BC4B"/>
<path d="M21.3328 35.4102L20.6016 38.1031L22.8937 36.5141L21.3328 35.4102Z" fill="#274148"/>
<path opacity="0.25" d="M21.5227 36.5145L21.2063 37.6887V37.6957L20.6016 38.1105L21.3328 35.4105L22.7391 30.1934L23.3859 30.6504L22.9359 31.2973L21.5227 36.5145Z" fill="white"/>
<path opacity="0.25" d="M40.718 14.4292C40.6828 14.4011 40.6477 14.3659 40.6125 14.3448L37.5539 12.1933C37.132 11.8979 36.5484 11.9964 36.2461 12.4183L32.2875 18.0362L31.6406 17.5792L36.0562 11.3143C36.3516 10.8925 36.9422 10.787 37.3641 11.0893L40.4227 13.2409C40.4719 13.2761 40.5141 13.3112 40.5562 13.3534C40.5844 13.3745 40.6055 13.4026 40.6266 13.4378C40.6617 13.487 40.6969 13.5362 40.725 13.5925C40.7391 13.6206 40.7531 13.6417 40.7602 13.6698C40.7742 13.705 40.7883 13.7472 40.7953 13.7823C40.8094 13.8315 40.8164 13.8808 40.8234 13.937V13.944C40.8305 13.9933 40.8305 14.0354 40.8234 14.0847C40.8164 14.1268 40.8164 14.1761 40.8023 14.2183C40.7953 14.2393 40.7953 14.2675 40.7812 14.2956C40.7812 14.3026 40.7812 14.3026 40.7742 14.3097C40.7672 14.3448 40.7531 14.38 40.732 14.4151C40.725 14.4222 40.718 14.4222 40.718 14.4292Z" fill="white"/>
<path opacity="0.25" d="M22.7266 30.1921L31.6163 17.5829L32.2654 18.0405L23.3757 30.6498L22.7266 30.1921Z" fill="white"/>
<path opacity="0.25" d="M34.3752 21.1014L30.4166 26.7124C30.3041 26.8741 30.0721 26.9163 29.9104 26.8038C29.7416 26.6842 29.7065 26.4592 29.819 26.2905L33.7776 20.6795C33.8901 20.5178 34.1221 20.4756 34.2909 20.5952C34.4526 20.7077 34.4877 20.9327 34.3752 21.1014Z" fill="white"/>
<path opacity="0.25" d="M29.6846 27.746L29.2838 28.3155C29.1713 28.4772 28.9393 28.5194 28.7776 28.4069C28.6088 28.2874 28.5737 28.0624 28.6862 27.8936L29.087 27.3241C29.1995 27.1624 29.4315 27.1202 29.6002 27.2397C29.762 27.3592 29.8041 27.5842 29.6846 27.746Z" fill="white"/>
</svg>
