<svg width="40" height="40" viewBox="0 0 40 40" fill="none" xmlns="http://www.w3.org/2000/svg">
<path fill-rule="evenodd" clip-rule="evenodd" d="M7.73375 3.98109L3.98094 7.73398C3.36266 8.35 3.36266 9.36063 3.98094 9.97891L5.27672 11.2748C4.45547 12.655 3.82578 14.163 3.41742 15.7577H1.58781C0.714062 15.7577 0 16.4718 0 17.3456V22.6522C0 23.5259 0.714062 24.2401 1.58781 24.2401H3.41742C3.82352 25.837 4.45547 27.3428 5.27672 28.7253L3.98094 30.0211C3.36266 30.6371 3.36266 31.6477 3.98094 32.266L7.73375 36.0166C8.34969 36.6349 9.36039 36.6349 9.97859 36.0166L11.2744 34.7208C12.6546 35.5421 14.1626 36.1741 15.7573 36.5824V38.4121C15.7573 39.2859 16.4736 40 17.3451 40H22.6515C23.5252 40 24.2393 39.2859 24.2393 38.4121V36.5802C25.8363 36.1741 27.342 35.5421 28.7245 34.7208L30.0202 36.0166C30.6362 36.6349 31.6468 36.6349 32.2651 36.0166L36.0156 32.266C36.6339 31.6477 36.6339 30.6371 36.0156 30.0211L34.7198 28.7252C35.5411 27.3427 36.173 25.837 36.5791 24.24H38.4111C39.2848 24.24 39.9989 23.5259 39.9989 22.6521V17.3455C39.9989 16.4718 39.2848 15.7577 38.4111 15.7577H36.5815C36.1731 14.163 35.5412 12.6549 34.7199 11.2747L36.0157 9.97883C36.634 9.36055 36.634 8.34992 36.0157 7.73391L32.2652 3.98102C31.6469 3.36273 30.6363 3.36273 30.0203 3.98102L28.7245 5.27688C27.342 4.45555 25.8363 3.82359 24.2393 3.4175V1.58781C24.2394 0.714062 23.5253 0 22.6516 0H17.3452C16.4736 0 15.7573 0.714063 15.7573 1.58789V3.41758C14.1626 3.82594 12.6546 4.45563 11.2744 5.27695L9.97859 3.98109C9.36039 3.36281 8.34977 3.36281 7.73375 3.98109Z" fill="#375E7D"/>
<path fill-rule="evenodd" clip-rule="evenodd" d="M36.5813 15.7579C36.1729 14.1632 35.5409 12.6552 34.7197 11.275L36.0155 9.9791C36.6337 9.36082 36.6337 8.3502 36.0155 7.73418L32.2649 3.98129C31.6466 3.36301 30.636 3.36301 30.0201 3.98129L28.7242 5.27707C27.8596 4.76379 26.947 4.32574 25.9957 3.96754C29.0823 8.11746 30.9759 13.732 30.9759 19.91C30.9759 26.2136 29.0048 31.9262 25.8086 36.0989C26.8284 35.7293 27.8048 35.2685 28.7241 34.721L30.0199 36.0168C30.6359 36.6351 31.6465 36.6351 32.2648 36.0168L36.0153 32.2662C36.6336 31.6479 36.6336 30.6373 36.0153 30.0213L34.7195 28.7254C35.5408 27.3429 36.1727 25.8371 36.5788 24.2402H38.4108C39.2845 24.2402 39.9986 23.5261 39.9986 22.6523V17.3457C39.9986 16.472 39.2845 15.7579 38.4108 15.7579H36.5813V15.7579Z" fill="#2B4D66"/>
<path fill-rule="evenodd" clip-rule="evenodd" d="M18.8131 18.6708L18.2656 25.8983L19.9972 32.7288C20.15 32.7288 20.3006 32.6581 20.5744 32.5166L31.0823 27.096C31.6389 26.8108 31.6845 26.683 31.6845 26.0351V13.444C31.6845 13.3711 31.6754 13.3186 31.648 13.2729L24.0648 15.203L18.8131 18.6708Z" fill="#F5A96C"/>
<path fill-rule="evenodd" clip-rule="evenodd" d="M28.4509 14.9247C28.7725 16.5216 28.9505 18.2852 28.9505 20.14C28.9505 23.5758 28.3391 26.7013 27.3398 29.0283L31.0859 27.096C31.6425 26.8108 31.6881 26.683 31.6881 26.0351V13.444C31.6881 13.3711 31.679 13.3186 31.6516 13.2729L28.5923 14.8517L28.4509 14.9247Z" fill="#EA9A58"/>
<path fill-rule="evenodd" clip-rule="evenodd" d="M8.84016 27.0601L19.4187 32.5172C19.6925 32.6587 19.8454 32.7294 19.9959 32.7294V19.2828L16.9914 15.069L8.42953 13.3169C8.31094 13.5017 8.30859 13.7275 8.30859 14.1085V26.3414C8.30859 26.8182 8.4318 26.8502 8.84016 27.0601Z" fill="#FED1A3"/>
<path fill-rule="evenodd" clip-rule="evenodd" d="M8.9332 12.9356C8.67086 13.0703 8.52031 13.1821 8.43359 13.3167L12.6473 15.4909L15.6655 17.0468L20 19.2826L31.6509 13.2734C31.628 13.2369 31.5938 13.2072 31.5391 13.1799L20.2464 7.35525C20.0046 7.22978 19.959 7.24807 19.7126 7.3758L8.9332 12.9356Z" fill="#FFE5C1"/>
<path fill-rule="evenodd" clip-rule="evenodd" d="M24.3319 9.46338L12.6445 15.4909L15.6627 17.0468L27.3501 11.0193L24.3319 9.46338Z" fill="#EFF6FF"/>
<path fill-rule="evenodd" clip-rule="evenodd" d="M19.7106 7.3758L15.8438 9.36978C17.3517 9.13252 18.9646 9.1508 20.5958 9.47244C21.4308 9.63674 22.2247 9.87166 22.9707 10.166L24.3327 9.4633L20.2445 7.35525C20.0027 7.22978 19.957 7.24807 19.7106 7.3758Z" fill="#FED1A3"/>
<path fill-rule="evenodd" clip-rule="evenodd" d="M24.3346 9.46338L22.9727 10.166C24.0449 10.5904 25.0213 11.1402 25.8723 11.7835L27.3529 11.0192L24.3346 9.46338Z" fill="#D9EEFF"/>
<path fill-rule="evenodd" clip-rule="evenodd" d="M25.8711 11.7833C27.0232 12.657 27.9494 13.7019 28.5905 14.8518L31.6498 13.273C31.627 13.2365 31.5927 13.2069 31.538 13.1795L27.3517 11.019L25.8711 11.7833Z" fill="#FED1A3"/>
<path fill-rule="evenodd" clip-rule="evenodd" d="M12.6445 15.4907V20.0307L15.6627 21.5889V17.0467L12.6445 15.4907Z" fill="#D9EEFF"/>
<path d="M14.3398 27.2662C14.2465 27.2662 14.152 27.2446 14.0634 27.1988L10.5729 25.3965C10.2766 25.2435 10.1606 24.8794 10.3135 24.5832C10.4665 24.2869 10.8306 24.1708 11.1268 24.3238L14.6173 26.1262C14.9135 26.2791 15.0296 26.6433 14.8766 26.9394C14.7694 27.147 14.5584 27.2662 14.3398 27.2662Z" fill="#9FACBA"/>
</svg>
