<svg width="35" height="35" viewBox="0 0 35 35" fill="none" xmlns="http://www.w3.org/2000/svg">
<path d="M34.1656 27.5011L27.5001 34.1666L16.668 23.3344L23.3335 16.6689L24.1644 17.4999L24.7538 18.0893L25.8323 19.1678L26.4216 19.7571L28.0895 21.425L29.7573 23.0928L34.1656 27.5011Z" fill="#FFCD00"/>
<path d="M25.3423 18.6787L25.9316 19.2681L26.7785 20.115L26.4208 19.7572L25.8315 19.1679L25.0859 18.4224L25.3423 18.6787Z" fill="#FFCD00"/>
<path d="M17.8467 24.5131L24.5121 17.8476L24.1644 17.4999L23.3335 16.6689L16.668 23.3344L17.8467 24.5131Z" fill="#EBBF00"/>
<path d="M26.4922 8.50665L28.2178 10.2281L26.494 8.50488L26.4922 8.50665Z" fill="#9BC9FF"/>
<path d="M24.7695 6.78076L26.491 8.50636L26.4928 8.50459L24.7695 6.78076Z" fill="#9BC9FF"/>
<path d="M17.5026 10.8347L16.4241 9.75617L14.7568 8.08892L13.0902 6.42225L11.4229 4.75499L9.75626 3.08833L7.50142 0.833496L0.835938 7.49898L11.6681 18.3311L18.3336 11.6657L17.5026 10.8347Z" fill="#FFCD00"/>
<path d="M28.3349 29.5136C28.9859 29.5136 29.5136 28.9859 29.5136 28.3349C29.5136 27.684 28.9859 27.1562 28.3349 27.1562C27.684 27.1562 27.1562 27.684 27.1562 28.3349C27.1562 28.9859 27.684 29.5136 28.3349 29.5136Z" fill="#D80027"/>
<path d="M24.7708 6.78107L23.9941 6.00431L23.9947 6.00313L23.9935 6.00195L18.3299 11.6656L11.6644 18.331L3.16016 26.8412L7.31563 27.6651L7.31857 27.6804L26.4923 8.50667L24.7708 6.78107Z" fill="#F7941D"/>
<path d="M28.9937 11.0045L28.9925 11.0051L28.2157 10.2283L26.4901 8.50684L7.31641 27.6806L8.15563 31.839L16.6658 23.3347L23.3313 16.6693L28.9949 11.0057L28.9937 11.0045Z" fill="#D80027"/>
<path d="M26.4955 8.50492L28.2193 10.2282L28.9973 11.0043L31.08 8.92159L26.0788 3.92041L23.9961 6.00315L24.7723 6.78109L26.4955 8.50492Z" fill="#2488FF"/>
<path d="M28.9955 11.0045L28.9967 11.004L28.2188 10.2278L28.9955 11.0045Z" fill="#9BC9FF"/>
<path d="M24.7729 6.78135L23.9967 6.00342L23.9961 6.0046L24.7729 6.78135Z" fill="#9BC9FF"/>
<path d="M32.746 7.25428C33.4002 6.58932 33.7652 5.69278 33.7614 4.75995C33.7576 3.82712 33.3853 2.93359 32.7257 2.27397C32.0661 1.61436 31.1725 1.24211 30.2397 1.23831C29.3069 1.23451 28.4103 1.59947 27.7454 2.25369L26.0781 3.92036L31.0793 8.92154L32.746 7.25428Z" fill="#F1F2F2"/>
<path d="M28.9958 11.0045L28.9946 11.005L28.2179 10.2283L27.8171 9.82812L22.1547 15.4905L15.4892 22.156L7.76172 29.8782L8.15776 31.839L16.6679 23.3347L23.3334 16.6692L28.997 11.0056L28.9958 11.0045Z" fill="#BD0022"/>
<path d="M29.9031 7.74316L27.8203 9.82591L28.2211 10.2284L28.999 11.0046L31.0817 8.92185L29.9031 7.74316Z" fill="#006DF0"/>
<path d="M32.7438 2.25335C32.5428 2.05666 32.3191 1.88472 32.0772 1.74121C32.4902 2.41644 32.6642 3.21086 32.5713 3.99687C32.4784 4.78288 32.124 5.51487 31.5651 6.07525L29.8984 7.74251L31.0771 8.9212L32.7438 7.25394C33.4069 6.59081 33.7794 5.69143 33.7794 4.75365C33.7794 3.81586 33.4069 2.91649 32.7438 2.25335Z" fill="#D1D3D4"/>
<path d="M4.94019 32.7875L8.15801 31.8445L7.31525 27.6679L3.15684 26.8428L2.21094 30.0582C2.8536 30.2567 3.43811 30.6091 3.91372 31.0847C4.38934 31.5603 4.74169 32.1448 4.94019 32.7875Z" fill="#D1D3D4"/>
<path d="M4.94481 32.7874C4.74631 32.1447 4.39396 31.5602 3.91835 31.0846C3.44273 30.609 2.85822 30.2566 2.21556 30.0581L1.07812 33.9248L4.94481 32.7874Z" fill="#603913"/>
<path d="M35 27.5012L24.1673 16.6678L33.163 7.67091C33.9367 6.8972 34.3714 5.84784 34.3714 4.75365C34.3714 3.65947 33.9367 2.6101 33.163 1.8364C32.3893 1.06269 31.3399 0.628031 30.2458 0.628031C29.1516 0.628031 28.1022 1.06269 27.3285 1.8364L18.3316 10.8327L7.49882 0L0 7.49882L10.8339 18.3327L2.63791 26.5305L0.203913 34.7961L8.46947 32.3615L16.6673 24.1661L27.5012 35L35 27.5012ZM4.40889 30.5911C3.99315 30.1736 3.50225 29.8385 2.96205 29.6034L3.57496 27.5242L6.81636 28.1665L7.47407 31.4262L5.39663 32.038C5.16119 31.4979 4.8261 31.0071 4.40889 30.5911ZM25.6618 8.50483L7.13814 27.0285L4.35761 26.4775L23.9934 6.8364L25.6618 8.50483ZM7.95969 27.8725L26.4952 9.33817L28.1636 11.0066L8.51898 30.6459L7.95969 27.8725ZM28.1624 2.67032C28.7159 2.1217 29.4641 1.81465 30.2434 1.81636C31.0227 1.81806 31.7695 2.12839 32.3206 2.67943C32.8716 3.23046 33.1819 3.97734 33.1836 4.75662C33.1853 5.5359 32.8783 6.28413 32.3297 6.83758L31.0797 8.08817L26.9124 3.92032L28.1624 2.67032ZM26.0791 4.75424L30.2463 8.9215L28.9969 10.1703L24.8297 6.00306L26.0791 4.75424ZM1.66667 7.49882L7.50118 1.66431L8.92268 3.08581L6.83758 5.17091L7.67091 6.00424L9.75365 3.9215L10.587 4.75483L9.33758 6.00424L10.1709 6.83758L11.4209 5.58876L12.2548 6.42032L10.1721 8.50306L11.0054 9.3364L13.0882 7.25365L13.9215 8.08699L12.6727 9.3364L13.506 10.1697L14.7548 8.92032L15.5888 9.75424L13.506 11.837L14.3393 12.6703L16.4221 10.5876L17.5 11.6655L11.6655 17.5L1.66667 7.49882ZM2.62376 30.752C2.97627 30.9216 3.29797 31.1488 3.57555 31.4244C3.85121 31.7021 4.07867 32.0238 4.24859 32.3762L1.94543 33.0546L2.62376 30.752ZM23.3345 17.5L23.9239 18.0893L22.6744 19.3388L23.5078 20.1721L24.7572 18.9227L25.5911 19.756L23.5078 21.8388L24.3411 22.6721L26.4244 20.5893L27.2578 21.4233L26.009 22.6721L26.8423 23.5054L28.0911 22.2566L28.9244 23.0899L26.8411 25.1739L27.6744 26.0072L29.7584 23.9239L33.3351 27.5006L27.5006 33.3351L17.5 23.3345L23.3345 17.5Z" fill="black"/>
<path d="M29.5845 29.5851C29.916 29.2536 30.1022 28.8039 30.1022 28.3351C30.1022 27.8663 29.916 27.4167 29.5845 27.0851C29.3372 26.8379 29.0222 26.6695 28.6793 26.6013C28.3363 26.5331 27.9808 26.5682 27.6578 26.702C27.3347 26.8358 27.0586 27.0624 26.8644 27.3532C26.6701 27.6439 26.5664 27.9857 26.5664 28.3354C26.5664 28.6851 26.6701 29.0269 26.8644 29.3177C27.0586 29.6084 27.3347 29.835 27.6578 29.9688C27.9808 30.1027 28.3363 30.1377 28.6793 30.0695C29.0222 30.0013 29.3372 29.8329 29.5845 29.5857V29.5851ZM27.7452 28.3351C27.7452 28.2186 27.7798 28.1047 27.8445 28.0078C27.9093 27.9109 28.0013 27.8354 28.109 27.7908C28.2167 27.7462 28.3352 27.7345 28.4495 27.7572C28.5638 27.7799 28.6688 27.8361 28.7512 27.9185C28.8197 27.987 28.8703 28.0714 28.8985 28.1641C28.9266 28.2569 28.9315 28.3551 28.9125 28.4502C28.8936 28.5453 28.8516 28.6342 28.7901 28.7091C28.7286 28.784 28.6496 28.8426 28.56 28.8797C28.4705 28.9168 28.3732 28.9313 28.2767 28.9218C28.1803 28.9122 28.0876 28.8791 28.007 28.8252C27.9265 28.7714 27.8604 28.6985 27.8147 28.613C27.769 28.5275 27.7452 28.432 27.7452 28.3351Z" fill="black"/>
</svg>
